<?xml version="1.0" encoding="utf-8"?>
<!-- Generator: Adobe Illustrator 22.1.0, SVG Export Plug-In . SVG Version: 6.00 Build 0)  -->
<svg version="1.1" id="Layer_1" xmlns="http://www.w3.org/2000/svg" xmlns:xlink="http://www.w3.org/1999/xlink" x="0px" y="0px"
	 width="239.6px" height="275px" viewBox="0 0 239.6 275" style="enable-background:new 0 0 239.6 275;" xml:space="preserve">
<style type="text/css">
	.st0{fill-rule:evenodd;clip-rule:evenodd;fill:#FCFCFB;}
	.st1{fill-rule:evenodd;clip-rule:evenodd;fill:#009E48;}
	.st2{fill-rule:evenodd;clip-rule:evenodd;fill:#1A1A18;}
	.st3{fill-rule:evenodd;clip-rule:evenodd;fill:#FFFFFF;}
	.st4{clip-path:url(#SVGID_2_);fill-rule:evenodd;clip-rule:evenodd;fill:#9B9B9B;}
	.st5{clip-path:url(#SVGID_2_);}
	.st6{fill-rule:evenodd;clip-rule:evenodd;fill:#929497;}
	.st7{clip-path:url(#SVGID_2_);fill-rule:evenodd;clip-rule:evenodd;fill:#617D62;}
	.st8{clip-path:url(#SVGID_2_);fill-rule:evenodd;clip-rule:evenodd;fill:#1A1A18;}
	.st9{fill:#EE7C00;}
	.st10{fill-rule:evenodd;clip-rule:evenodd;}
	.st11{fill:#1A1A18;}
	.st12{fill:#FFFFFF;}
</style>
<path class="st0" d="M208.1,179.8c7,2,14,4.2,20.8,6.7l10.6,3.8l-4.9,10.2c-6.1,12.7-8.3,26.9-9.1,40.8l-0.7,12.6l-12.2-3.3
	c-16.8-4.5-33.8-8.2-51-10.6c-11.2,11-23.2,21.1-35.8,30.4l-6.1,4.5l-6.1-4.5c-12.7-9.4-24.8-19.6-36.1-30.7
	c-16.8,2.3-33.5,5.8-49.8,10.4l-12,3.3l-1-12.4c-1-13.6-3.7-27.7-9.8-40L0,190.9l10.7-3.9c6.9-2.6,14-4.9,21.1-6.9
	C12.3,144.3,4.2,105.8,6.7,65L7,58.9l5.5-2.6c17.3-8.1,34.9-15.6,53.3-20.8c0.1-0.4,0.2-0.9,0.4-1.3l0.3-0.9l0.4-0.8
	c1.2-2.6,1.8-4.1,3.7-6.4l0.9-1l0.5-0.6l0.4-0.5l0.3-0.3L96.2,0.4l0.7,28.8c7.5-0.9,15.1-1.4,22.7-1.4L123.1,0l21.2,23.9l0.3,0.3
	c0.6,0.7,1.1,1.5,1.6,2.2l0.2,0.4l0.2,0.4l0.1,0.1c0.2,0.3,0.4,0.7,0.5,1l0.1,0.1c0.3,0.5,0.5,1.1,0.7,1.6
	c28,4.2,53.6,14.4,79.2,26.4l5.5,2.6l0.4,6.1C235.5,105.7,227.5,144.1,208.1,179.8"/>
<path class="st1" d="M160.6,236.4c-11.4,11.3-23.8,21.7-36.7,31.3l-4,3l-4-3c-13-9.7-25.4-20.1-36.9-31.5c-17.6,2.3-34.9,6-52,10.7
	L19,249l-0.6-8.2c-1.1-14.1-3.9-28.5-10.2-41.2l-3.4-6.8l7.1-2.6c8.2-3,16.6-5.7,25-8c-20.5-36-29.3-75.1-26.8-117l0.2-4l3.7-1.7
	c17.8-8.3,35.8-16,54.8-21.1c0.2-1,0.4-2.1,0.7-3.1l0.2-0.7L70,34c1.1-2.3,1.4-3.5,3.2-5.6l0.8-1l0.5-0.5l0.4-0.4l0.3-0.3L93,8.5
	l0.6,24.7c8.7-1.2,17.5-1.9,26.3-1.9c0.9,0,1.9,0,2.8,0L125.6,8l16.1,18.1l0.2,0.2c0.5,0.6,1,1.2,1.4,1.9l0.2,0.3l0.2,0.3l0.1,0.1
	c0.2,0.3,0.3,0.5,0.4,0.8l0.1,0.1c0.5,1,0.9,2.1,1.3,3.2c28.5,4,54.2,14.2,80.3,26.4l3.7,1.7l0.2,4c2.5,41.8-6.2,80.8-26.6,116.7
	c8.4,2.2,16.7,4.8,24.8,7.8l7,2.5l-3.2,6.7c-6.3,13.1-8.6,27.7-9.4,42.1l-0.4,8.4l-8.1-2.2C196.2,242.6,178.5,238.8,160.6,236.4"/>
<path class="st2" d="M119.8,37.5c-39.2,0-71.6,12.8-103,27.5c-4.7,79,31.9,143.7,103,196.6C190.9,208.7,227.6,144,222.8,65
	C191.4,50.3,159.1,37.5,119.8,37.5"/>
<path class="st1" d="M130.1,47.3c29.9,2.1,55.3,12.6,80,24.5c4.2,71.4-28,129.8-90.3,177.6V65.4L130.1,47.3z"/>
<path class="st3" d="M29.5,71.8c-4.2,71.4,28,129.8,90.3,177.6V60.6L133,47.4C90.1,45.9,66.3,54.1,29.5,71.8"/>
<g>
	<defs>
		<path id="SVGID_1_" d="M140.6,113.7l0.6,29.8L140.6,113.7z"/>
	</defs>
	<clipPath id="SVGID_2_">
		<use xlink:href="#SVGID_1_"  style="overflow:visible;"/>
	</clipPath>
	<rect x="56.3" y="29.5" class="st4" width="169.2" height="198.4"/>
	<g class="st5">
		<path class="st6" d="M208.1,179.8c7,2,14,4.2,20.8,6.7l10.6,3.8l-4.9,10.2c-6.1,12.7-8.3,26.9-9.1,40.8l-0.7,12.6l-12.2-3.3
			c-16.8-4.5-33.8-8.2-51-10.6c-11.2,11-23.2,21.1-35.8,30.4l-6.1,4.5l-6.1-4.5c-12.7-9.4-24.8-19.6-36.1-30.7
			c-16.8,2.3-33.5,5.8-49.8,10.4l-12,3.3l-1-12.4c-1-13.6-3.7-27.7-9.8-40L0,190.9l10.7-3.9c6.9-2.6,14-4.9,21.1-6.9
			C12.3,144.3,4.2,105.8,6.7,65L7,58.9l5.5-2.6c17.3-8.1,34.9-15.6,53.3-20.8c0.1-0.4,0.2-0.9,0.4-1.3l0.3-0.9l0.4-0.8
			c1.2-2.6,1.8-4.1,3.7-6.4l0.9-1l0.5-0.6l0.4-0.5l0.3-0.3L96.2,0.4l0.7,28.8c7.5-0.9,15.1-1.4,22.7-1.4L123.1,0l21.2,23.9l0.3,0.3
			c0.6,0.7,1.1,1.5,1.6,2.2l0.2,0.4l0.2,0.4l0.1,0.1c0.2,0.3,0.4,0.7,0.5,1l0.1,0.1c0.3,0.5,0.5,1.1,0.7,1.6
			c28,4.2,53.6,14.4,79.2,26.4l5.5,2.6l0.4,6.1C235.5,105.7,227.5,144.1,208.1,179.8"/>
	</g>
	<path class="st7" d="M160.6,236.4c-11.4,11.3-23.8,21.7-36.7,31.3l-4,3l-4-3c-13-9.7-25.4-20.1-36.9-31.5c-17.6,2.3-34.9,6-52,10.7
		L19,249l-0.6-8.2c-1.1-14.1-3.9-28.5-10.2-41.2l-3.4-6.8l7.1-2.6c8.2-3,16.6-5.7,25-8c-20.5-36-29.3-75.1-26.8-117l0.2-4l3.7-1.7
		c17.8-8.3,35.8-16,54.8-21.1c0.2-1,0.4-2.1,0.7-3.1l0.2-0.7L70,34c1.1-2.3,1.4-3.5,3.2-5.6l0.8-1l0.5-0.5l0.4-0.4l0.3-0.3L93,8.5
		l0.6,24.7c8.7-1.2,17.5-1.9,26.3-1.9c0.9,0,1.9,0,2.8,0L125.6,8l16.1,18.1l0.2,0.2c0.5,0.6,1,1.2,1.4,1.9l0.2,0.3l0.2,0.3l0.1,0.1
		c0.2,0.3,0.3,0.5,0.4,0.8l0.1,0.1c0.5,1,0.9,2.1,1.3,3.2c28.5,4,54.2,14.2,80.3,26.4l3.7,1.7l0.2,4c2.5,41.8-6.2,80.8-26.6,116.7
		c8.4,2.2,16.7,4.8,24.8,7.8l7,2.5l-3.2,6.7c-6.3,13.1-8.6,27.7-9.4,42.1l-0.4,8.4l-8.1-2.2C196.2,242.6,178.5,238.8,160.6,236.4"/>
	<path class="st8" d="M119.8,37.5c-39.2,0-71.6,12.8-103,27.5c-4.7,79,31.9,143.7,103,196.6C190.9,208.7,227.6,144,222.8,65
		C191.4,50.3,159.1,37.5,119.8,37.5"/>
	<path class="st7" d="M130.1,47.3c29.9,2.1,55.3,12.6,80,24.5c4.2,71.4-28,129.8-90.3,177.6V65.4L130.1,47.3z"/>
</g>
<path class="st3" d="M164.8,108.3c0.1,0.1,0.2,0.1,0.3,0.2l0,0l0,0l0.2,0.1l0.1,0l0.1,0c2.2,0.9,4.9,4.7,7.1,6.2
	c0.6,0.3,1.2,0.7,1.7,1.2c3.3,2.4,5.3,5.2,5.7,9.1c9.2,10.6,13,24.7,9.8,38.3l-0.2,0.8l-0.1,0.6l-0.1,0.4
	c-4.8,18.7-16.9,29-34.1,37.4l-0.4,0.2l-0.2,0.1c-7.6,3.9-17.2,5.1-25.7,5c-8.1-0.2-17-1.6-24.4-4.9l-0.4-0.2l-0.3-0.1
	c-6.1-2.8-11.2-5.8-15.6-10.8c-2.9-3.2-5.2-6.9-7.8-10.4l-0.4-0.6l-4.5-14.3l0-1.4c0.1-2,0-4.1,0-6.1c0-2,0.1-3.9,0.4-5.8l-0.1-0.1
	l-0.1-0.1l-0.2-0.2l-0.1-0.1c-1.3-1.7-1.4-4-1.4-6c0-0.4,0-0.9,0-1.4c-0.3-0.2-0.7-0.4-1-0.8c-1.3-1.2-1.6-2.9-1.1-4.6
	c0.2-0.8,0.7-1.6,1.2-2.4c-1.1,0-2.1,0.1-3.1,0.1c-1.5,0-3.1,0-4.6-0.1c-1.4-0.1-2.9-0.4-4.3-0.7c-1.3-0.3-2.6-0.7-3.8-1
	c-0.8-0.2-1.7-0.5-2.5-0.6c-1.3-0.2-2.1-0.1-3.2-0.1c-0.9,0.5-1.8,0.7-3,0.5c-1.4-0.3-2.5-1.2-3.1-2.4c-0.5-1.1-0.5-1.9-0.3-2.7
	l-5.8-5.6l0.3,0c-1.4-1.2-2.9-2.2-4.5-2.9l-1.7-0.7l-1.2-5.1l1.7-1.7c0.5-0.4,1-0.7,1.5-1c0.1-0.3,0.1-0.6,0.2-0.9
	c0-1.4,0.5-2.9,1.2-4.2c0.2-0.3,0.5-0.8,0.6-1.2c0.1-0.9,0-1.8,0-2.8l0-2.9l0.4-0.1l0-0.3c-0.2-0.9-0.2-1.9,0-2.9
	c0.6-3.1,3.3-9.1,5.3-11.6c0.9-1.2,2-2.2,3.2-3.2c0.6-0.5,1.3-1,1.9-1.6c0.5-0.5,1.1-0.8,1.7-1.1c0.2-0.3,0.4-0.7,0.5-0.9
	c0,0,0,0,0,0c0-0.2-0.1-0.3-0.1-0.5c-0.6-0.7-1.1-1.6-1.1-2.7c-0.2-1.4-0.2-2.4,0.3-3.8l0-0.1c0.5-1.2,1.3-2.5,2.2-3.5
	c0.3-1.8,1.6-3.6,3.3-4.6c1.3-1.1,3.5-2,5-2.7c1.1-0.5,4.1-2.1,4.9-3c0.6-0.7,1-1.1,1.5-1.5l11.9-4.2c-0.1-0.5-0.1-0.9-0.2-1.4
	l0-0.4l0-0.3l0-0.2c0-0.2,0-0.3,0-0.5L77.8,50l-0.2-0.2l0,0c-2.9-3-2.9-9.2-1.7-13.2l0.1-0.2l0.1-0.2c0.8-1.8,0.8-2.4,2.2-4.1
	l0.8-0.9l0.3-0.4l0.3-0.3l0.2-0.2l6.7-6.7l0.2,9.6l0,0.6l0,0.7l-0.1,1.8l0,0.2l0,0.4l0,0.1c0.1,1.6,0.5,3.2,0.9,4.7
	c1.1,2.7,2.7,5.2,4.7,7.4l3.3,0.8c1.6-0.4,3.1-0.6,4.8-0.7c1.4-0.1,2.9,0,4.3,0c3.3,0.2,7.3,0.7,10.5,0.1c0.6-0.1,0.9-0.6,1.4-0.9
	l0.1-0.1c2-1.8,3.7-4,5.6-5.8l0.4-0.4c1.2-1.2,2.6-2.4,3.6-3.7l0.2-0.3l0.2-0.2l0.1-0.1c1.4-1.8,2.3-3.4,2.5-5.7l1.2-9.3l6.1,6.9
	l0.1,0.1c0.3,0.4,0.6,0.8,0.9,1.2l0.1,0.2l0.1,0.2l0.1,0.1c0.1,0.2,0.2,0.3,0.3,0.5l0.1,0.1c0.9,1.8,1.3,3.7,1.5,5.7
	c0.1,0.6,0,1.2-0.1,1.7c0,1.6-0.5,3.7-1.1,5l-0.6,1.1l-0.3,0.6l-0.1,0.1c-0.4,0.7-0.9,1.5-1.4,2.1l-0.1,0.2l-0.2,0.2
	c-0.2,0.2-0.4,0.4-0.6,0.6l-0.1,0.1c0,0.1-0.1,0.2-0.1,0.3c0,0.4,0,0.8,0,1.1l0.1,1l-0.3,0.8c-0.1,0.6-0.2,1.2-0.3,1.8l0,0.1
	c-0.5,2.7-1.9,5.2-4.2,6.7c0.8,1.2,1.8,2.4,2.8,3.5c1.6,2,3.1,4,4.2,6.4c2.5,5.5,2.3,9.9-0.7,15.1l-0.2,0.3c-1.2,2.1-2.8,4-4.5,6
	c2.2,1.1,4.5,2.5,5.9,3.3c1,0.6,1.9,1.4,2.2,2.5c2,0.7,5.4,1.4,6.9,2c0.3,0.1,0.6,0.2,0.9,0.4c0.4,0.2,0.7,0.4,1,0.7
	c0.3,0,0.6,0.1,0.9,0.1c1,0.2,1.8,0.7,2.5,1.3c0.2,0.1,0.5,0.2,0.7,0.4c0.4,0.3,0.8,0.6,1.2,0.9c0.1,0.1,0.2,0.2,0.3,0.3l1.5,0.6
	l0.1,0.3c0.1,0,0.3-0.1,0.4-0.1l4-1l0.3,1.3C162.4,105.7,164.1,106.5,164.8,108.3"/>
<path class="st9" d="M165,154.5l-2.6,0.8l0.6,1.8l2.6-0.8L165,154.5z M126,110.2l-15.2,4.5c-0.7,0.5-1.4,1-2.1,1.6
	c-0.7,0.4-1.5,0.8-2.2,1.2c-0.5,0.2-1,0.5-1.4,0.7c-1,0.7-2.1,1.4-3.2,2.1c-12.4,8.6-21.3,21.6-22.6,35.3c-0.1,1.1-0.1,2.2-0.2,3.3
	c0,0.7,0,1.4,0,2.2c0.1,0.5,0.1,0.9,0.1,1.4c-0.1,1-0.1,2-0.1,3.1l4.1,13c0.6,0.8,1.2,1.6,1.9,2.4c0.2,0.4,0.5,0.8,0.7,1.2
	c0.4,0.6,0.8,1.2,1.2,1.8c0.7,0.9,1.4,1.8,2.1,2.7c4.6,5.4,10.7,9.8,17.7,12.6c5.9,2.5,12.4,3.6,18.9,4.2c2.7,0,5.3-0.1,8-0.2
	c0.5,0,1.1-0.1,1.6-0.1c2.7-0.5,5.5-0.9,8.2-1l6.6-1.9c2-1.3,4.3-2.3,6.6-3.1c0.9-0.5,1.8-1,2.7-1.5c1-0.6,2.1-1.2,3.1-1.8
	c2.4-1.9,5.1-3.5,7.3-5.5c3-2.8,6-5.8,8.1-9.3c1.6-2.6,3.4-5.1,4.6-7.9c1.7-3.8,2.7-7.9,3.5-11.9c0.1-2.8,0.5-5.7,0.2-8.5
	c-0.2-2.1-0.3-4.1-0.4-6.2l-1.9-6.1c-1.8-2.4-2.9-5.1-4.7-7.5c-0.2-0.4-0.5-0.8-0.7-1.2c-0.7-0.9-1.4-1.8-2.1-2.6
	c-9.5-10.9-25-17.6-41.1-17.2c-0.5,0.1-1,0.2-1.6,0.3c-0.9,0-1.7-0.1-2.6-0.1c-0.8,0.1-1.6,0.2-2.4,0.2
	C127.8,110.1,126.9,110.2,126,110.2z"/>
<path d="M109.1,149.9L109.1,149.9c0.5,1.4,0.9,2.9,1.7,4.2c0.2,0.2,0.5,0.6,0.6,0.8c0.5,0.6,1,1.2,1.5,1.7c0.1,0.2,0.4,0.6,0.5,0.8
	c0.4,0.4,0.7,0.9,1,1.4c0.5,0.4,0.9,0.8,1.4,1.2c0.1,0.2,0.3,0.7,0.5,0.9c0.7,0.6,1.3,1.2,2,1.8c0.3-0.1,0.9-0.3,1.2-0.4
	c0.3-0.5,0.6-1,1-1.6c0.1,0.3,0.4,1,0.5,1.3c1.1,0.9,2.1,1.9,3.2,2.8c0.1,0.2,0.4,0.6,0.6,0.8c0.9,1.2,0.4,3,2.1,3.8
	c0.1,0.2,0.3,0.7,0.4,0.9c1.1,0.7,2.3,1.5,3.7,1.8c0.5-0.4,1.1-0.7,1.6-1.1c2.3,3,6.3,4.3,9.4,6.6c-1.5,1.2-2.9,2.4-4.3,3.6
	c-0.3,0.1-0.8,0.3-1,0.4c-0.8,0.7-1.6,1.4-2.4,2.1c-0.5,0.3-1.1,0.7-1.6,1c-0.2,0.1-0.7,0.4-0.9,0.6c-0.7,0.4-1.4,0.8-2.1,1.2
	c-0.9,0.5-1.8,1-2.7,1.5c-0.5,0.3-1,0.5-1.4,0.8c-3.6,1.8-7.7,2.4-11.5,3.7c-3.3,0.8-6.6,2.4-10,2.6c-0.6,0.1-1.1,0.2-1.7,0.3
	c-2.7-1.1-4.9-2.8-7-4.5c-0.7-0.5-1.4-1.1-2-1.6c-0.8-0.7-1.6-1.4-2.4-2.1c0-0.5,0-1,0-1.5c0-0.2,0-0.7,0-1c0.1-0.6,0.1-1.1,0.2-1.6
	c0-0.5,0-1.1,0-1.6c0.2-1,0.5-1.9,0.7-2.9c0-0.2-0.1-0.7-0.1-1c0.2-0.9,0.5-1.9,0.7-2.9c0.3-1,0.6-1.9,0.9-2.9
	c0.5-1.5,0.7-3.5,2.8-4c0.6-0.3,1.2-0.7,1.8-1c1,1,1.1,2.4,1.2,3.7c1.3,0.9,2.6,1.6,3.9,2.5c0.1,0.2,0.3,0.7,0.4,1
	c0.3,0.3,1,0.9,1.3,1.2c0.5-0.6,0.9-1.2,1.4-1.8c0.9,0.7,1.7,1.5,2.6,2.2c0.1,0.2,0.4,0.6,0.5,0.9c0.4,0.4,0.7,0.9,1.1,1.3
	c1.5,1.3,2.7,3.1,5.1,3.3c-0.2-0.8-0.4-1.6-0.6-2.4c5.1,2,9.8,4.8,15.1,6.4c0.2-0.2,0.5-0.7,0.7-1c-2.3-1.4-4.4-3-7-4
	c-1.7-0.7-3.2-1.7-4.6-2.8c-0.9-0.8-1.8-1.6-2.8-2.3c-0.6-1.8-2.1-3-3.5-4.3c-1.6-1.5-3.2-3-4.8-4.4c-0.3-0.8-0.5-1.6-0.8-2.4
	c-1.5-1-3.1-1.8-4.5-2.8c-0.2-0.5-0.3-1-0.5-1.5c-0.8-0.4-1.6-0.7-2.4-1.1c0.4-0.1,1.2-0.4,1.6-0.5c1.6-2.4,3.9-4.4,5.9-6.7
	C107.7,151,108.4,150.4,109.1,149.9 M177.5,130L177.5,130c0.4,0.7,0.8,1.4,1.2,2.1c0.3,0.4,0.5,0.8,0.8,1.2c0.8,1.2,1.2,2.7,2.1,3.8
	c1.1,3.4,2.7,6.7,2.9,10.3c0.2,1.2,0.5,2.3,0.6,3.5c0,0.2-0.1,0.7-0.1,1c0,0.9,0,1.8,0,2.7c0,0.2,0,0.7,0,1c0,0.6-0.1,1.1-0.1,1.7
	c-0.2,0.6-0.3,1.1-0.5,1.7c0,0.2,0.1,0.7,0.2,1c-0.2,0.9-0.5,1.9-0.7,2.9c-0.3,0.8-0.5,1.6-0.8,2.4c-2.1,7.4-6.5,14.2-12.1,20.1
	c-0.8,0.7-1.6,1.5-2.3,2.3c-1,0.8-2,1.7-3,2.5c-0.2,0.1-0.8,0.4-1,0.5c-0.7,0.5-1.4,0.9-2.1,1.4c-0.5,0.3-1,0.7-1.6,1
	c-0.2,0.1-0.7,0.4-0.9,0.6c-0.7,0.4-1.4,0.8-2.1,1.2c-0.7,0.4-1.4,0.8-2.1,1.2c-1.5,0.7-3.1,1.2-4.5,2c-3.6,1.2-7.2,2.3-10.9,3.2
	c-1.7,0-3.3,0.6-4.9,0.7c-0.5,0-1.1,0.1-1.6,0.2c-1,0-2.1,0.1-3.1,0.1c-0.3,0-0.8,0.1-1.1,0.1c-0.6,0-1.2,0-1.9-0.1
	c-0.6,0-1.2,0.1-1.9,0.1c-1.1-0.2-2.2-0.3-3.2-0.5c-0.3,0.1-0.8,0.2-1.1,0.2c-1.1-0.2-2.2-0.5-3.3-0.7c-2.3-0.4-4.6-0.9-6.8-1.7
	c-2.1-0.9-4.7-1.2-6.3-2.8c3.1-0.1,6-1.2,8.9-2.1c3.4-1.2,7.1-1.7,10.4-3.4c0.9-0.4,1.8-0.9,2.6-1.3c0.9-0.4,1.8-0.8,2.6-1.3
	c0.7-0.4,1.4-0.8,2.1-1.2c0.2-0.2,0.7-0.5,0.9-0.6c0.7-0.4,1.4-0.8,2.1-1.1c0.5-0.3,1-0.7,1.5-1c0.5-0.3,1.1-0.6,1.6-0.9
	c0.5-0.4,0.9-0.9,1.4-1.3c0.3-0.1,0.8-0.3,1-0.4c1.1-1,2.3-2,3.4-3c0.2-0.1,0.7-0.2,1-0.3c1.2,0.4,2.5,0.6,3.8,0.7
	c-0.5-0.8-1-1.5-1.4-2.3c0.6-0.8,1.4-1.4,2.1-2c0.5-0.4,0.9-0.8,1.4-1.2c0.5-0.4,1-0.8,1.5-1.3c0.5-0.4,0.9-0.8,1.4-1.2
	c0.6-0.6,1.2-1.3,1.9-1.9c0.5-0.4,1-0.8,1.4-1.2c0.6-0.6,1.3-1.3,1.9-1.9c8.1-7.8,12-14.9,15.3-24.8c0.2-0.9,0.4-1.9,0.6-2.8
	c0.3-1,0.7-2,1.1-3c-0.1-0.2-0.2-0.7-0.2-1c0.3-0.9,0.5-1.9,0.7-2.8c0.1-0.7,0.2-1.3,0.3-2C176.9,130.1,177.3,130,177.5,130z
	 M91.4,144.6L91.4,144.6c0.9-0.2,1.8-0.4,2.7-0.6c-0.2,0.9-0.4,1.7-0.6,2.6c0.8,1.1,1,2.4,1.1,3.7c0.8,0.4,1.6,0.7,2.3,1.2
	c-0.2,0.6-0.4,1.2-0.6,1.9c0.5,0.5,1,1,1.5,1.4c0.2,0.5,0.4,0.9,0.6,1.4c0.6,0.5,1.2,0.9,1.7,1.4c-0.3,0.1-0.9,0.3-1.3,0.3
	c0.2,0.6,0.4,1.2,0.6,1.8c0.3,0.1,1,0.4,1.4,0.5c0.2,0.5,0.3,1.1,0.5,1.6c1.6,1.1,3.4,2,5.1,3.1c0,0.7,0.1,1.4,0.2,2.1
	c0.8,0.7,1.6,1.4,2.4,2.1c0.6,0.4,1.1,0.8,1.7,1.1c0.1,0.2,0.3,0.7,0.4,0.9c1.1,0.9,2.1,1.9,3.2,2.8c0.3,0.8,0.5,1.6,0.8,2.3
	c0.8,0.4,1.7,0.9,2.5,1.3c0.2,0.2,0.5,0.8,0.7,1c1.3,0.9,2.7,1.6,4,2.4c-3.4,0.2-5.1-3.2-8.4-3.2c-0.2,0.7-0.4,1.3-0.6,2
	c-0.6-0.5-1.2-1-1.8-1.4c-0.3-0.5-0.6-0.9-0.9-1.4c-0.4-0.4-0.7-0.9-1.1-1.3c-0.1-0.2-0.4-0.6-0.6-0.8c-0.3-0.5-0.7-0.9-1-1.4
	c-0.7-0.3-1.4-0.7-2.1-1c-0.4,0.3-0.8,0.5-1.3,0.8c-0.6-0.4-1.2-0.9-1.7-1.4c-0.8-0.5-1.6-1-2.5-1.4c0-0.2,0-0.6-0.1-0.8
	c0.1-0.8-0.1-1.5-0.5-2.2c-0.5-0.4-1-0.9-1.6-1.3c-1.1,0.2-2.1,0.7-3,1.3c-0.2-0.1-0.7-0.3-0.9-0.4c0.5-0.6,0.9-1.3,1.4-1.9
	c-0.2-0.6-0.5-1.2-0.8-1.8c-1.1-1.1-1.4-2.6-1.4-4c0-0.7,0-1.4,0-2.1c-0.4-0.7-0.8-1.5-1.2-2.3c-0.3-0.3-0.8-0.8-1-1
	c-0.7,0.2-1.5,0.4-2.2,0.6c-0.1-0.8-0.2-1.6-0.2-2.4c0.1-0.2,0.1-0.7,0.2-1c0-1.5-0.4-3-1.4-4.1c0.6-0.8,1.3-1.5,2-2.3
	C90.1,144.6,90.7,144.6,91.4,144.6z M106.9,134.8L106.9,134.8c1,0.8,0.7,2,0.8,3c0.5-0.1,1.4-0.4,1.8-0.5c0,0.9,0,1.8,0.1,2.7
	c0.6,0.3,1.1,0.6,1.6,0.9c-0.1,0.7-0.3,1.4-0.5,2.1c2,1.2,4.1,2.4,6,3.6c-0.3,0.3-0.8,0.9-1.1,1.2c0.4,0.6,0.7,1.3,1.1,1.9
	c0.4,0.6,0.8,1.2,1.3,1.8c0.1,0.2,0.4,0.7,0.5,0.9c0.7,0.5,1.3,1,2,1.5c0.2-0.4,0.5-1.2,0.6-1.6c0.3,0.1,0.8,0.4,1,0.5
	c0.3,0.5,0.7,0.9,1,1.4c0.1,0.2,0.4,0.6,0.6,0.8c0.4,0.4,0.7,0.9,1.1,1.3c0.4,0.4,0.7,0.8,1.1,1.3c0.6,1.1,1.1,2.2,1.8,3.3
	c0.1,0.2,0.4,0.6,0.5,0.8c0.9,0.2,1.7,0.4,2.6,0.7c0.4,1.2,0.7,2.3,1.1,3.5c0.8,0.6,1.5,1.3,2.3,2c0.7,0.7,1.5,1.4,2.2,2.1
	c0.5,0.4,0.9,0.8,1.4,1.1c0.1,0.2,0.3,0.7,0.4,0.9c0.5,0.4,0.9,0.8,1.3,1.2c1.5,1.1,3.2,2.2,4.6,3.5c-4-0.4-6.8-3.1-9.8-5.1
	c-0.1-0.2-0.3-0.7-0.4-0.9c-0.3-0.3-0.8-0.8-1.1-1.1c-0.2,0.1-0.7,0.4-1,0.5c-0.6,0.4-1.1,0.7-1.8,0.9c-1-0.6-1.8-1.4-2.7-2.2
	c-0.4-1-0.8-2-1.4-2.9c-0.2-0.4-0.5-0.9-0.7-1.3c-0.8-0.7-1.5-1.3-2.3-2c-0.1-0.2-0.3-0.7-0.4-0.9c-1-0.7-2-1.5-2.9-2.2
	c-0.4,0.5-0.9,1.1-1.3,1.6c-0.9-0.9-1.8-1.8-2.8-2.7c-0.1-0.2-0.3-0.6-0.4-0.9c-0.5-0.4-0.9-0.8-1.4-1.2c-0.3-0.5-0.7-0.9-1-1.4
	c-0.2-0.2-0.5-0.6-0.6-0.8c-1.5-1.6-1.8-3.7-2.2-5.7c-1.2-0.8-2.5-1.7-3.6-2.7c-0.9-0.8-1.7-1.7-2.6-2.5c-0.8,0-1.7,0-2.5,0
	c0.4-0.7,0.9-1.4,1.3-2.1c-1.6-0.9,0.3-1.9,0.8-2.9c0.1-0.8-0.3-1.7,0.3-2.5C104.8,135.4,105.8,135.1,106.9,134.8z M119.1,126.4
	L119.1,126.4c0.7,0.5,1.3,1,2,1.4c0.1,0.3,0.3,0.8,0.4,1c0.8,0.2,1.6,0.4,2.4,0.6c0.8,0.1,1.6,0.2,2.4,0.4c-0.1,1-0.8,1.8-1.1,2.7
	c2.7,1.7,4.9,4.3,8.4,4.8c0,0.5-0.1,1.1-0.1,1.6c0.4,0.4,0.8,0.7,1.3,1.1c0.7,0.5,1.4,1,2.1,1.6c0.7,0.7,1.5,1.3,2.2,2
	c0.1,0.2,0.3,0.7,0.4,0.9c0.8,0.6,1.5,1.3,2.2,2c0.7,0.6,1.4,1.2,2,1.9c-0.2,0.5-0.4,1-0.7,1.5c1,0.7,2.1,1.5,3.1,2.2
	c0.7,1.9,0.9,4.2,2.3,5.8c0.8,1.8,1,3.9,2.4,5.4c-0.2,0-0.7,0.1-0.9,0.1c-0.3-0.2-0.8-0.8-1.1-1c-0.1-0.2-0.3-0.7-0.4-0.9
	c-0.5-0.4-1-0.8-1.5-1.1c-0.3-1-0.6-1.9-0.9-2.9c-0.6-0.5-1.3-0.9-2-1.3c-0.7,0.6-1.2,1.2-1.9,1.8c-0.3-0.3-0.9-0.9-1.3-1.1
	c-0.2-0.6-0.4-1.2-0.5-1.8c0.1-0.5,0.1-1.1,0.2-1.6c-0.6-0.4-1.1-0.8-1.7-1.2c-0.2-0.5-0.3-1-0.5-1.5c-0.5-0.2-1.1-0.4-1.6-0.6
	c-0.8,0-1.9,0.2-2.4-0.5c-1.2-0.9-0.3-2.7-1.5-3.7c-0.2-0.2-0.5-0.6-0.7-0.7c-0.5-0.8-1.1-1.5-1.6-2.3c-0.1-0.2-0.4-0.6-0.5-0.8
	c-0.7-0.6-1.3-1.2-1.9-1.8c-0.8,0.2-1.6,0.5-2.4,0.7c-0.3-0.3-0.9-0.8-1.2-1c-0.1-0.4-0.2-0.9-0.4-1.3c0-0.5,0.1-1,0.1-1.5
	c-0.7-0.6-1.4-1.2-2.1-1.8c-1.2-0.1-2.4-0.2-3.6-0.3c-0.1-0.2-0.3-0.7-0.4-1c-0.8-0.7-1.6-1.3-2.4-2c-0.1-0.2-0.3-0.7-0.4-1
	c0.4-1,0.9-2,1.9-2.8C117.9,127.6,118.5,127,119.1,126.4z M126.8,111.3L126.8,111.3c1-0.1,2-0.2,3-0.3c1-0.1,1.9-0.3,2.9-0.4
	c0.6,0,1.2,0,1.8,0c0.6,0,1.2,0,1.9,0c0.3,0,0.8-0.1,1.1-0.1c0.6,0,1.3,0,1.9,0c1.3,0.2,2.6,0.3,3.9,0.5c0.6,0.1,1.2,0.1,1.8,0.2
	c0.9,0.2,1.8,0.4,2.7,0.5c6.8,1.5,13.1,4.3,18.9,7.6c-4.2,1.2-8.5,2.5-12.8,3.6c-1.2,0-2.4,0.3-3.6,0.5c-1.6-0.2-3.1-0.4-4.7-0.3
	l0-0.7c-0.3,0.4-0.5,0.9-0.7,1.3c1.4,0.2,2.9,0.3,4.4,0.3c-0.6,0.8-1.3,1.5-2,2.3c0.1,0.2,0.2,0.7,0.3,1c0.7,0.3,1.4,0.6,2.1,0.8
	c2,6.3,22.6,20.5-0.5-1.7c3.3-0.9,6.4-2,9.7-2.7c1.6,0.1,3.1-0.5,4.6-0.8c1.5-0.1,2.9-0.4,4.4-0.5c0.6-0.1,1.2-0.3,1.8-0.4
	c1.2,0.7,2.3,1.6,3.3,2.5c0.1,0.2,0.3,0.7,0.4,0.9c0.5,0.5,1.1,0.9,1.5,1.4c0,0.8-0.1,1.7-0.2,2.5c0,0.2,0.1,0.7,0.1,1
	c-0.2,0.6-0.3,1.1-0.5,1.7c-0.1,0.3-0.2,0.8-0.2,1.1c-0.1,0.6-0.3,1.2-0.4,1.8c-0.3,1.1-0.5,2.3-0.8,3.4c-0.1,0.5-0.2,1.1-0.3,1.6
	c-2.8,8-6.4,16.3-12.3,22.3c-0.9,0.7-1.7,1.4-2.6,2c-0.8,0.8-1.5,1.5-2.3,2.3c-0.5,0.4-0.9,0.8-1.4,1.1c-0.6,0.6-1.2,1.3-1.9,1.9
	c-0.8,0.7-1.6,1.3-2.4,2c-0.8,0.7-1.7,1.4-2.5,2.1c-0.5,0.4-0.9,0.9-1.4,1.3c-0.3,0.1-0.8,0.3-1,0.3c-1.3-0.9-2.7-1.8-3.9-2.9
	c-0.4-0.4-0.9-0.8-1.3-1.2c-0.1-0.2-0.3-0.7-0.4-0.9c-1.2-1.1-2.4-2.1-3.5-3.3c-0.8-0.7-1.5-1.3-2.3-2c-0.4-1.1-0.8-2.3-1.1-3.4
	c-1-0.7-2.2-1.1-3.4-1.5c-0.4-0.6-0.6-1.2-0.9-1.8c-0.6-0.7-1.1-1.5-1.6-2.3c-0.1-0.2-0.4-0.6-0.5-0.8c-0.5-0.6-1-1.2-1.5-1.7
	c-0.1-0.2-0.3-0.7-0.5-0.9c-0.9-0.8-1.8-1.5-2.7-2.3c-0.3,0.5-0.6,1.1-1,1.6c-0.6-0.7-1.1-1.3-1.7-2c-0.5-0.8-0.9-1.7-1.3-2.5
	c0.4-0.1,1.1-0.4,1.4-0.5c-1-0.9-1.9-1.8-2.9-2.7c0.9-0.8,1.8-1.6,2.7-2.4c0.3-0.1,0.8-0.3,1.1-0.4c0.5-0.5,0.9-0.9,1.4-1.4
	c0.3-0.1,0.8-0.3,1.1-0.4c0.3-0.2,0.7-0.7,1-0.9c0.3,0.3,0.8,0.9,1.1,1.2c0.4,0.4,0.7,0.9,1.1,1.3c0.1,0.2,0.4,0.6,0.5,0.8
	c0.7,0.6,1.3,1.2,1.9,1.8c0.2-0.1,0.7-0.2,0.9-0.3c-0.3-0.8-0.5-1.6-0.8-2.4l0.4-0.1c0.3,0.3,0.8,0.8,1,1c0.1,0.2,0.4,0.6,0.6,0.8
	c0.4,0.6,0.8,1.2,1.1,1.9c0.5,0.4,1,0.8,1.4,1.2c0.4,1.3,0.9,2.6,1.3,3.9c1.3,0.5,2.7,0.9,4.1,1.3c0.1,0.2,0.3,0.7,0.4,1
	c2.1,1,1,3.4,2.5,4.7c0.2,0.4,0.5,0.8,0.7,1.2c1,0.9,1.9,1.7,2.8,2.7c0.3-0.1,0.8-0.3,1.1-0.3c-0.4-0.5-0.8-1-1.2-1.6
	c-0.1-0.3-0.4-0.8-0.5-1.1c0.4-0.1,1.2-0.4,1.7-0.5c0.4,1,0.8,2.1,1.3,3.1c0.4,0.4,0.8,0.8,1.2,1.2c0.1,0.2,0.3,0.7,0.5,0.9
	c0.8,0.6,1.5,1.3,2.2,2c1,1,2.2,2,3.5,2.8c-0.4-1.4-0.7-2.8-1.7-4c-0.5-1.3-0.8-2.6-1.8-3.7c-0.7-1.6-0.9-3.3-2.1-4.7
	c-0.5-1.2-0.9-2.5-1.3-3.7c-0.4-0.3-0.9-0.7-1.3-1c0-0.7-0.1-1.4-0.2-2.1c-0.7-0.5-1.3-1.1-2-1.7c-0.4-0.4-0.9-0.8-1.3-1.2
	c-0.1-0.2-0.3-0.7-0.4-0.9c-1.1-0.9-2.1-1.9-3.1-2.8c-1.2-1.2-2.5-2.3-3.9-3.3c0.4-0.2,1.2-0.6,1.6-0.7c-1.1-0.8-2.3-1.4-3.7-1.7
	c-0.6-0.4-1.3-0.8-1.9-1.2c0.3-0.2,1-0.7,1.4-0.9c0.2-0.1,0.7-0.4,0.9-0.6c0.9-0.5,1.7-0.9,2.6-1.3c1.3-0.6,2.7-1.2,3.9-1.9
	c0.9-0.3,1.8-0.6,2.7-0.9c0.6,0.3,1.2,0.5,1.8,0.8l1-0.4c-0.3-0.1-1-0.4-1.3-0.5c-0.1-0.2-0.2-0.8-0.2-1c0.1-0.4,0.3-1.3,0.4-1.8
	c0.8,0.8,1.4,1.7,2.2,2.6l2.1,0.4c-0.1-0.2-0.4-0.7-0.5-0.9c-0.4-0.6-0.8-1.2-1.2-1.8c-0.6-0.6-1.2-1.1-1.7-1.7
	c-0.8-0.6-1.6-1.2-2.5-1.9c-0.8-0.7-1.6-1.5-2.5-2.2c-0.3,0.1-1,0.4-1.4,0.5c-0.9-0.5-1.8-1-2.7-1.6c-0.8-1.2-2.3-1.5-3.8-0.9
	c0.1,0.3,0.3,1,0.4,1.3c1.9,0.7,3.3,2.2,5.4,2.6c1.9,0.1,3.4,0.9,4.9,1.8c-1.2,0.1-2.3-0.4-3.4-0.8c-0.8,0.2-1.7,0.5-2.5,0.7
	c-0.1-0.3-0.3-1-0.4-1.3c-0.4,0-1.2,0-1.6,0c-0.7-0.1-1.5,0.1-2.1-0.3c-0.3-0.6-0.5-1.3-0.8-1.9c-0.7-0.1-1.3-0.3-2-0.5
	c0.2-1.7,1.7-3.1,2.5-4.7c1.2,0.2,2.3,0.3,3.5,0.5c-0.2,1.1,0.6,1.9,1.1,2.8c0.9,0.3,1.9,0.5,2.9,0.7c1,0.1,2.1,0.1,3,0.5
	c0.2,0.5,0.2,1.1,0.1,1.7c0.5,0.3,1,0.5,1.5,0.8c0.3-0.1,1.1-0.2,1.4-0.3c-0.6-0.3-1.2-0.5-1.8-0.8c0-0.3,0.1-0.8,0.2-1.1
	c-1.3-0.9-2.8-1.5-4.5-1.6c-1.4,0-2-1-2.3-2.1c0.3-0.1,0.9-0.3,1.2-0.4c-0.1-0.4-0.3-1.1-0.5-1.4c-0.7,0.2-1.3,0.4-2,0.6
	c-0.9-0.2-1.8-0.5-2.7-0.8c-0.6,0.1-1.1,0.3-1.7,0.5c-1,1.7-2.1,3.4-3.2,5c0.5,0.8,1.4,1.2,2.4,1.4c0.3,0.6,0.5,1.3,0.8,1.9
	c0.7,0.3,1.4,0.4,2.2,0.6c0.4-0.1,1.1-0.3,1.4-0.4c0.1,0.3,0.3,0.9,0.4,1.3c0.4,0.1,1.2,0.2,1.7,0.2c0.8-0.2,1.5-0.4,2.2-0.6
	c0.8,0.4,1.6,0.7,2.4,1.1c0.1,0.3,0.3,0.9,0.4,1.2c-1.8,0.6-3.8,0.9-5.4,2c-1.5,0.5-3,1-4.3,1.7c-0.6,0.3-1.3,0.6-1.9,0.9
	c-1.1,0.6-2.7,1.7-3.8,0.7c-0.4-0.4,0.1-0.9,0.1-1.4c0.9,0,1.8-0.1,2.7-0.1c-0.8-0.9-1.6-2-3-2.1c-1.1-0.1-2.3-0.2-3.1-0.9
	c0-0.5,0.1-1,0.1-1.6c-1.1-0.1-2.3,0-3.2-0.6c-0.3-0.6-0.5-1.2-0.8-1.8c-0.8,1.2-1.6,2.5-2.7,3.5c-1.3,0.8-2.1,1.9-2.5,3.2
	c0.2,0.5,0.4,1,0.5,1.4c0.8,0.7,1.5,1.3,2.3,2c0.3,2.2,3,1.9,4.8,2.3c-0.6,0.6-1.2,1.2-1.8,1.8c-0.3,0.1-0.8,0.4-1,0.5
	c-0.5,0.3-1.1,0.7-1.6,1c-0.5,0.4-1,0.9-1.4,1.3c-0.3,0.1-0.8,0.3-1,0.5c-0.9,0.7-1.7,1.8-3,1.3c0.4-1.1-0.1-2.2-0.4-3.2
	c-0.4-0.4-0.8-0.8-1.2-1.3c0.6-0.6,1.2-1.2,1.8-1.8c-1,0-1.9-0.1-2.9-0.1c-0.2-0.5-0.3-1-0.5-1.5c-0.8-0.4-1.6-0.7-2.5-1.1
	c-1.4,0.4-2.7,0.8-4.1,1.2c0,0.3-0.1,1-0.2,1.4c0.4,1.1,0.1,2.1-0.9,2.9c0.5,1.1,0.1,2.2-1,3c0.1,0.2,0.2,0.7,0.3,1
	c1.3,0.5,2.6,1.1,3.9,1.4c0.3,0.2,0.8,0.6,1,0.8c0.1,0.2,0.3,0.7,0.4,0.9c0.5,0.4,1.1,0.8,1.6,1.2c-1,1-2,2-3.1,3
	c-1.6,1.6-3.2,3.3-4.8,5c-0.2-0.3-0.5-1-0.6-1.3c-0.6-0.5-1.1-0.9-1.6-1.5c0.2-0.5,0.5-1,0.7-1.6c-0.1-0.2-0.2-0.7-0.2-0.9
	c-0.6-0.3-1.2-0.6-1.8-0.9c-0.2-1.6-1.5-3-0.8-4.7c-0.1-1.7-2.5-2.1-4.1-1.3c-0.6,0-1.2,0-1.7,0.1c-1.3,1.2-2.9,2.3-2.6,4.1
	c0.8,1,1.2,2.2,1.5,3.4c-0.2,0.6-0.4,1.2-0.7,1.8c0.4,1.3,0.8,2.6,1.3,3.9c0.6-0.6,1.2-1.3,1.7-2c1.3,1,1.5,2.5,1.8,3.9
	c-0.3,1.4,0.4,2.8,0.8,4.1c0.4,0.4,0.7,0.8,1,1.2c-1,2-1.9,4.1-2.6,6.2c-0.4,1.5-0.9,3-1.3,4.5c-0.3,1.5-0.7,3.1-1.1,4.6
	c0,0.2,0.1,0.7,0.2,1c-0.2,0.6-0.4,1.2-0.6,1.8c0.1,0.3,0.3,0.9,0.3,1.2c-0.2,0.1-0.7,0.2-0.9,0.3c-0.4-0.5-0.7-1.1-1.1-1.6
	c-0.2-0.2-0.5-0.6-0.7-0.8c-0.5-0.7-0.9-1.5-1.3-2.2c-0.9-1.3-1.3-2.8-1.8-4.2c-1.4-1.7-2.1-3.9-1.9-6.1c-0.4-1.5-0.9-2.9-0.9-4.5
	c-0.1-1-0.3-2-0.4-3c0-0.7,0-1.4,0-2.1c0-0.2,0-0.7,0-1c0.1-0.6,0.1-1.1,0.2-1.7c0-0.5,0-1.1,0-1.6c0.2-0.6,0.3-1.2,0.5-1.7
	c-0.1-0.2-0.2-0.7-0.2-1c0.4-1.5,0.9-3.1,1.4-4.6c0.7-2.1,1.5-4.3,2.4-6.4c2.8-4.9,5.9-9.7,10-13.9c0.7-0.6,1.3-1.3,1.9-1.9
	c0.8-0.7,1.6-1.3,2.4-2c0.7-0.6,1.3-1.1,2-1.7c0.5-0.3,1.1-0.6,1.6-0.9c0.5-0.3,1-0.7,1.5-1c0.2-0.1,0.7-0.4,1-0.5
	c0.5-0.4,1-0.7,1.5-1c0.9-0.5,1.8-1,2.7-1.5c1.1-0.5,2.3-0.9,3.3-1.5c2.8-1,5.7-1.7,8.5-2.6C122.7,112.2,124.7,111.4,126.8,111.3z
	 M126,110.2l-15.2,4.5c-0.7,0.5-1.4,1-2.1,1.6c-0.7,0.4-1.5,0.8-2.2,1.2c-0.5,0.2-1,0.5-1.4,0.7c-1,0.7-2.1,1.4-3.2,2.1
	c-12.4,8.6-21.3,21.6-22.6,35.3c-0.1,1.1-0.1,2.2-0.2,3.3c0,0.7,0,1.4,0,2.2c0.1,0.5,0.1,0.9,0.1,1.4c-0.1,1-0.1,2-0.1,3.1l4.1,13
	c0.6,0.8,1.2,1.6,1.9,2.4c0.2,0.4,0.5,0.8,0.7,1.2c0.4,0.6,0.8,1.2,1.2,1.8c0.7,0.9,1.4,1.8,2.1,2.7c4.6,5.4,10.7,9.8,17.7,12.6
	c5.9,2.5,12.4,3.6,18.9,4.2c2.7,0,5.3-0.1,8-0.2c0.5,0,1.1-0.1,1.6-0.1c2.7-0.5,5.5-0.9,8.2-1l6.6-1.9c2-1.3,4.3-2.3,6.6-3.1
	c0.9-0.5,1.8-1,2.7-1.5c1-0.6,2.1-1.2,3.1-1.8c2.4-1.9,5.1-3.5,7.3-5.5c3-2.8,6-5.8,8.1-9.3c1.6-2.6,3.4-5.1,4.6-7.9
	c1.7-3.8,2.7-7.9,3.5-11.9c0.1-2.8,0.5-5.7,0.2-8.5c-0.2-2.1-0.3-4.1-0.4-6.2l-1.9-6.1c-1.8-2.4-2.9-5.1-4.7-7.5
	c-0.2-0.4-0.5-0.8-0.7-1.2c-0.7-0.9-1.4-1.8-2.1-2.6c-9.5-10.9-25-17.6-41.1-17.2c-0.5,0.1-1,0.2-1.6,0.3c-0.9,0-1.7-0.1-2.6-0.1
	c-0.8,0.1-1.6,0.2-2.4,0.2C127.8,110.1,126.9,110.2,126,110.2z"/>
<path d="M120,129.3c-1.7,0.6-1.7,2.1-0.9,3.3c2,0.5,3.6,1.5,5,2.7c0.1,0.2,0.4,0.7,0.5,0.9c0.7,1,1.3,2.3,2.9,2.4
	c0.7,0.5,1.4,1,2.1,1.5c0.7,0.7,1.4,1.3,2.1,2c0.4,0.6,0.8,1.3,1.2,1.9c0.2,0.4,0.4,0.9,0.6,1.3c0.7,0.5,1.5,0.9,2.2,1.4
	c0.2,0.5,0.3,1,0.5,1.5c0.9,0.4,1.9,0.8,2.8,1.2c0.1,0.2,0.3,0.7,0.4,1c0.8,0.7,1.6,1.3,2.4,2c0.1,0.2,0.3,0.7,0.4,0.9
	c1,0.8,2,1.7,3.2,2.3c-0.3-0.8-0.7-1.7-1.2-2.5c-0.2-0.2-0.5-0.6-0.7-0.7c-0.3-0.5-0.7-0.9-1-1.4c-0.8-0.7-1.5-1.3-2.3-2
	c-0.3-0.8-0.6-1.6-0.8-2.3c-1.1-0.9-2.3-1.9-3.4-2.8c-0.9-0.9-1.9-1.7-3-2.3c-0.3-0.8-0.5-1.6-0.8-2.4c-1.4-0.6-2.8-1.2-4.2-1.8
	c-0.1-0.2-0.3-0.7-0.4-1c-1-0.8-1.9-1.6-3-2.3c-0.4-0.8-0.8-1.5-1.2-2.3c-0.2-0.2-0.5-0.6-0.7-0.8c-0.3-0.5-0.7-0.9-1-1.4
	C121.2,129.6,120.4,129.4,120,129.3"/>
<path d="M107.5,139.1c-0.6-1-1.5,0.2-2.2,0.5c0.4,1.4,0.9,2.7,1.6,4c0.4,0.4,0.8,0.8,1.2,1.2c0.1,0.2,0.3,0.7,0.5,0.9
	c0.8,0.7,1.5,1.3,2.3,2c0.1,0.2,0.4,0.6,0.6,0.8c0.6,0.6,0.7,1.3,0.7,2.1c0.3,0.4,0.6,0.8,0.9,1.2c0.3,0.4,0.7,0.9,1,1.3
	c0.5,0.8,1,1.5,1.6,2.3c0.1,0.2,0.3,0.7,0.5,1c2,0.4,3.8,1.3,5.3,2.6c0.2,0.2,0.6,0.6,0.8,0.9c0.2,0.2,0.7,0.6,0.9,0.8
	c0.6,0.5,1.2,1.1,1.7,1.6c0.2,0.2,0.6,0.6,0.9,0.8c0.7,0.6,1.4,1.3,2.1,2c0.6,0.5,1.2,1.1,1.7,1.6c0.2,0.2,0.6,0.6,0.9,0.8
	c0.7,0.6,1.5,1.1,2.2,1.7c0.2,0,0.7-0.2,1-0.2c-1.2-1-2.3-2-3.4-3c-0.1-0.2-0.3-0.7-0.4-0.9c-0.5-0.4-0.9-0.8-1.4-1.2
	c-0.3-0.5-0.7-0.9-1-1.4c-0.1-0.2-0.4-0.6-0.5-0.8c-0.8-0.7-1.5-1.3-2.2-2c-0.4-0.8-0.8-1.6-1.3-2.4c-0.2-0.3-0.5-0.8-0.6-1
	c-0.3,0.1-1,0.3-1.3,0.4c-0.7-0.6-1.5-1.2-2.3-1.7c-0.7-0.7-1.4-1.3-2.1-2c-0.7-0.6-1.3-1.2-2-1.7c0-0.5,0.1-1,0.1-1.5
	c-0.1-0.6-0.2-1.1-0.4-1.7c-0.2,0.1-0.7,0.2-1,0.3c-0.8-0.8-1.5-1.5-2.3-2.3c-0.8-0.7-1.5-1.3-2.3-2
	C108.6,142.3,108.2,140.7,107.5,139.1"/>
<path d="M91.6,146.9c-0.3-0.1-1-0.4-1.3-0.5c-0.1,1.1-0.1,2.1-0.1,3.2c0.3,0.4,0.7,0.9,1,1.3c0.5,0.4,0.9,0.8,1.4,1.2
	c0.1,0.2,0.4,0.6,0.6,0.8c0.3,0.6,0.6,1.1,0.9,1.7c-0.4,1.1,0.1,2.1,0.4,3.1c0.8,0.5,1,1.3,0.7,2.2c0.3,1.1,0.6,2.2,0.9,3.3
	c0.5,0.4,1,0.8,1.6,1.1c0.1,0.2,0.3,0.7,0.4,0.9c1.5,0.9,3,1.8,4.4,2.9c1.2,1.5,3.3,2.1,4.8,3.4c1.2,0.9,2.3,2.2,3.9,2.4
	c0.2-0.1,0.5-0.2,0.7-0.2c-0.8-0.6-1.6-1.1-2.3-1.7c-1.7-1.3-3.4-2.5-5-3.9c-0.1-0.3-0.3-0.7-0.3-1c-0.9-0.6-1.9-1.2-2.9-1.7
	c-0.1-0.2-0.4-0.6-0.5-0.8c-0.4-0.6-0.8-1.3-1.2-1.9c-0.5-0.4-0.9-0.8-1.4-1.2c-0.4-1.1-0.8-2.3-1.4-3.3c-0.5-0.6-0.9-1.2-1.4-1.8
	c-0.5-1.4-0.9-2.7-1.5-4.1c-0.8-0.7-1.2-1.7-0.7-2.8c-0.3-0.6-0.6-1.2-1-1.7C92,147.6,91.8,147.1,91.6,146.9"/>
<path d="M159.2,139.7c-0.1,0.1-0.4,0.3-0.6,0.4l0.4,0.4l0.5-0.1C159.4,140.2,159.3,139.8,159.2,139.7"/>
<path d="M160.6,140.5C160.5,140.7,160.5,140.7,160.6,140.5"/>
<path d="M160.1,141.5C160,141.7,160,141.7,160.1,141.5"/>
<path d="M112.4,174c-1.2,0.4,0.5,1.6,0.4,0.3L112.4,174z"/>
<path class="st1" d="M57.2,67c-1.2,0.6-2.3,2-1.5,2.9c-1.2,1-2.4,2.5-2.8,3.6c-0.4,1.1-0.1,1.9-0.1,2.4c0,0.5,1-0.4,0.8,0.3
	c-0.2,0.7,0.6,2.3,0.4,3.6c-0.2,1.3-1.5,3-2,3.7c-0.5,0.7-0.5-0.3-1.4,0.5c-0.9,0.8-2.8,2.1-4.6,4.4c-1.8,2.3-4.1,8-4.5,10
	c-0.4,2,0.3,0.6,0.3,1.4c0,0.6-0.7,3.6-0.5,4.1l-0.2,0.1c0,1.1,0.1,1.8,0,3.3c-0.1,1.5-2.5,3.9-1.5,5.4c0,0,0,0,0,0.1
	c-0.1,0-0.2,0.1-0.2,0.1c-0.5,0.4-0.3,1.7-0.9,2.4c-0.6,0.7-1.6,1.1-2.3,1.7l0.3,0.9c5,2.1,10,7.8,12.1,9.6c2.2,1.8-2,0.2-1.8,0.7
	c0.2,0.5,1.8-0.3,2.2,0.3c0.3,0.6-0.4,2-0.1,2.6c0.3,0.6,0.6-0.4,1.6-0.4c1,0,2.1-0.3,4.6,0.1c2.5,0.4,6.7,2.1,10.3,2.3
	c3.6,0.3,8.8-0.1,11.1,0c2.4,0.1,2.7-1.2,3,0.6c0.2,1.8-3.4,4.9-3.9,6.7c-0.5,1.7,1.7,0.5,2.1,2.2c0.4,1.7-0.4,5.8,0.8,7.3
	c1.1,1.5,2.6,0.2,3.4,1.8c0.8,1.6,1.3,4.4,2.9,5.8c1.6,1.4,3.4,2,5.5,2.6c2.1,0.6,5.6,0.9,7.1,1c1.4,0.1,2.1,0.3,1.9-0.4
	c-0.2-0.7-1.2-0.8-2.2-2c-1-1.2-2.7-3.8-2.7-5.6c0.1-1.8,0.8-2.9,2.2-3.9c1.3-1,4-0.6,5.4,0.2c1.4,0.7,0.9,0.2,3,2
	c2,1.8,9.1,4.4,11.7,4.7c2.5,0.3,1.9,0.3,2.5,0.1c0.6-0.2,1.1-0.8,0.6-1.5c-0.5-0.7-2.2-1.4-3.1-2.3c-0.9-1-2-2.6-2.2-3.5
	c-0.2-0.9,1.4,0.3,2.1,0.1c0.6-0.2,1.2-0.6,1.9-1.3c0.7-0.7,2.1-2.3,2.4-3c0.3-0.7-2.2-0.2-1.3-0.7c1-0.5,3.9-1.7,5.2-1.5
	c1.3,0.2-1.1,1.8-0.4,2.3c0.7,0.5,1-1.5,2.5-0.8c1.5,0.7,5,2.3,6.3,2.6c1.3,0.3-0.5,0.4,0.6,1.4c1,1,4.4,3.9,6,4.4
	c1.6,0.5,2.6,1.3,2.5-0.8c-0.1-2.1-1.9-8.1-0.7-9.8c1.2-1.7,0.1,0.4,1.6-0.5c1.5-0.9,3.2-5.7,4-7.4c0.9-1.7,0.3-1,2.2-1.6
	c1.9-0.6,6.7-0.6,9.3-0.5c2.6,0.1,2.1,0.2,2.7-0.2c0.7-0.4,0.7,1,1.1,0.5c0.3-0.5-0.2-1.6,0.6-2.4c0.8-0.8,1.9,0.6,3,1.5
	c1.1,0.9,2.4,2.7,2.3,4.4c0,1.6-2.7,3.3-1.8,4.6c0.9,1.2,3.4-0.4,4.1-1.4c0.5-0.6-1.3,0.5-2.3,0.7c0.5-0.3,1.2-1,2.2-2.1
	c0,0,0,0,0.1,0c-0.1,0.4-0.1,0.9,0.2,0.8c0.7,0,1.1-0.9,0.7-1.5c0,0,0,0,0,0c0.1-0.1,0.1-0.3,0.2-0.5c0.3-0.3,0.5-0.6,0.8-0.9
	c1.7-1.9,1.8-9.9,0.1-14.5c0.4,0.4,0.7,0.7,1,1.1c1.9,2.2,1.5,5.3,1.3,7c-0.2,1.6-0.9,1.8-0.8,2.4c0.1,0.7,1.2,2,1.3,0.9
	c0.1-1.1,0.1-3.2,0.2-5.1c0.1-1.9,0.1-3.6-1.5-6c-0.6-0.9-1.6-1.8-2.8-2.6c-0.3-0.3-0.7-0.6-1.1-0.7c-1.6-1.1-3.4-2.1-4.8-3.2
	c0.9-1.4-1.3-2.5-1.9-2.8c-0.2-0.1-0.4-0.1-0.5,0c-0.4-0.3-0.7-0.6-1.2-0.9c-0.4-0.2-0.9-0.4-1.4-0.6c0.3-0.4,0.4-0.9,0.1-1.2h0
	c-0.6-0.2-1.3,0.4-1.5,1c-1.3-0.1-2.9,0.2-4.9,0.8c-1.4,0.5-2.4-0.9-3.6-2.4c0.3,0.3,0.6,0.6,0.8,0.9c0.6,0.8,1,1.1,2,1.1
	c1,0,2.5-0.7,3.8-1.1l-0.2-0.6c-0.8,0.2-1.8,0.5-2.4,0.6c-0.7,0.1-1.6-0.1-2-0.3c-0.4-0.3-0.4-1.1-0.5-1.5c-0.9-0.4-2.5-2.3-2.6-1.2
	c-0.1,0.6,0.4,1.3,0.9,1.9c-0.6-0.7-1.3-1.4-2.1-2c0.3-0.1,0.6-0.2,0.9-0.4c0.1-1-2.4-1.3-2.2-0.3l0,0c-0.5-0.2-1-0.4-1.6-0.4
	c-0.3,0-0.5-0.2-0.8-0.5c0.9,0,1.8-0.5,0.4-1c-1.9-0.7-8-1.9-9.3-3.3c-1.3-1.4,0.7-0.7-0.5-1.4c-1.2-0.7-4.3-2.1-6.2-3.5
	c-0.3-0.1-0.6-0.2-1-0.4c-0.5-0.3-1-0.5-1.5-0.6c-0.5-0.2-1-0.4-1.5-0.7c0.4-0.4,0.7-0.9,1.1-1.3c0.3-0.4,0.6-0.9,0.9-1.3
	c0.4-0.4,0.8-0.9,1.2-1.4c0.3-0.4,0.5-0.7,0.8-1.1c0.4-0.3,0.7-0.6,1-0.9c0.4-0.6,0.7-1.3,1.3-1.8c0.8-1.3,1.6-2.6,2.3-4
	c0.1-0.6,0.3-1.1,0.5-1.6c0-0.2,0-0.5,0.1-0.7c0-0.3,0.1-0.5,0.1-0.8c0-0.1,0.1-0.3,0.1-0.4c0-3.5-1.5-7-3.8-10
	c-0.5-0.6-0.9-1.2-1.4-1.8c-0.1-0.1-0.3-0.3-0.4-0.4c-0.3-0.4-0.6-0.8-0.9-1.2c-0.4-0.5-0.8-0.9-1.1-1.4c-0.7-1-1.5-2.1-2-3.2
	c0.8-1.8,1.9-3.9,3.1-6.1c0,0.1,0,0.3,0,0.4c0,0.1-0.1,0.3-0.1,0.4c-0.1,0.5-0.3,1-0.3,1.5c-0.3,0.7-0.7,1.2-1.3,1.7
	c0.5-0.2,1.1-0.3,1.6-0.6c0.1-0.1,0.3-0.3,0.3-0.4c0.8-0.8,1.2-1.9,1.8-2.8c0.1-0.3,0.1-0.7,0.2-1c0.1-0.4,0.2-0.8,0.3-1.2
	c0-0.3,0-0.5,0.1-0.8c0-0.1,0.1-0.3,0.2-0.4c0-0.3-0.1-0.5-0.1-0.8c0-0.1,0.1-0.3,0.2-0.4c0-0.1,0-0.4,0-0.6c0-0.2,0-0.4,0-0.7
	c0.5-1.2,1-2.3,1.4-3.4c0,0.3,0,0.7,0,1c0.1-0.1,0.4-0.4,0.5-0.5c0.9-1.1,1.5-2.4,2.2-3.7c0.1-0.5,0.2-1,0.4-1.4
	c0.1-0.4,0.1-0.8,0.2-1.2c0-0.3,0-0.5-0.1-0.8c0-0.1,0.1-0.3,0.2-0.4c-0.2-2.2-0.6-4.6-2.3-6.5c-0.1,0.5-0.1,1-0.2,1.5
	c-0.1,0.2-0.1,0.4-0.2,0.6c-0.7,2.9-2.6,5.5-4.6,7.8c-0.3,0.3-0.7,0.6-1,0.9c-0.1,0.2-0.3,0.3-0.4,0.5c-0.6,0.5-1.1,1.1-1.7,1.6
	c-0.4,0.3-0.7,0.7-1.1,1c-0.2,0.2-0.5,0.5-0.7,0.7c-0.2,0.2-0.5,0.5-0.7,0.7c-0.3,0.3-0.6,0.6-0.9,0.9c-0.2,0.2-0.5,0.5-0.7,0.7
	c-0.5,0.6-1,1.2-1.5,1.8c-0.5,0.4-1,0.8-1.5,1.2c-0.1,0.1-0.2,0.3-0.3,0.3c-2.2,1.1-4.8,0.8-7.3,0.9c-0.1,0-0.4-0.1-0.5-0.1
	c-3.9,0-7.8-0.5-11.6,0c-2,0.3-4,0.9-5.7,1.9c-0.2-0.3-0.4-0.7-0.7-1c-0.6-0.5-1.2-0.9-1.7-1.4c-3-2.9-5.1-6.3-6.5-9.9
	c-0.6-1.9-1-3.9-1.1-5.9c0-1.4,0.2-2.8,0.1-4.2c-0.7,0.7-1.2,1.5-1.9,2.2L80,35.1c-0.1,0.7-0.4,1.3-0.7,1.9
	c-0.3,1.1-0.5,2.3-0.7,3.4c0,1.8,0.3,3.6,0.9,5.3c0.2,0.6,0.8,1,1.2,1.4c0.1-0.3,0.2-0.6,0.3-1c0-0.1,0-0.3,0-0.5
	c0.1-0.3,0.2-0.7,0.3-1l0.3,0.1c0.1,0.4,0.2,0.8,0.4,1.2c0,0.3-0.1,0.6-0.1,0.9c0,0.6,0,1.2-0.1,1.8c-0.1,1.9,0.3,3.9,0.8,5.8
	c0.3,1,0.7,2,1.2,2.9c-1.5,0.4-3,0.7-4.3,0.6c-0.8,0-2.9-0.2-3.7-0.1l-0.1-0.3c0.1-0.1,0.3-0.2,0.4-0.2l-0.4,0.1l0,0L71,58.6l0,0
	l-0.5,0.2c-0.9,0.6-1.5,0.3-2.7,1.8c-1.2,1.4-4.4,3.2-6.3,4.1C60.2,65.3,57.7,66.4,57.2,67 M173.1,134.2c1,0.4,1.3-1.7,0.6-1.6
	C173,132.7,173.3,133.8,173.1,134.2z M172.5,135.3C172.3,135.8,172.3,135.8,172.5,135.3 M158.6,108.8
	C158.3,109.3,158.3,109.3,158.6,108.8"/>
<path class="st3" d="M72,110.3c-4.8-2.1-12.2-10.2-14.8-5.6C54.7,109.3,66.4,110.8,72,110.3"/>
<path class="st3" d="M60.4,99.5c-2.8-4.3-4.2-15-9-12.6C46.5,89.4,55.4,96.9,60.4,99.5"/>
<path class="st3" d="M78.7,99.6c-3.3-2-7.7-8.8-10.2-5.7C66.2,97.1,74.6,99.4,78.7,99.6"/>
<path class="st3" d="M85.8,88.6c-2.5-1.6-6-6.8-7.8-4.4C76.1,86.6,82.6,88.4,85.8,88.6"/>
<path class="st10" d="M105.5,89.4c0.5,0.5,0.8,1,0.9,1.6c-0.1,0.2-0.3,0.4-0.4,0.6c-0.3,0.1-0.5,0.3-0.8,0.4
	c-0.2-0.1-0.5-0.2-0.7-0.2c-0.1,0-0.4,0-0.5,0c-0.4-0.1-0.7-0.2-1.1-0.3c-0.1-0.3-0.2-0.6-0.3-0.8c0.2-0.3,0.3-0.6,0.5-0.9
	c0.2,0.1,0.5,0.2,0.6,0.3c0.5-0.1,1-0.2,1.5-0.2C105.3,89.6,105.4,89.4,105.5,89.4 M99.8,83.1c0.4,0.4,0.5,0.8,0.5,1.3
	c0.3,1.9,1.1,3.9,2.2,5.6c-0.2,0.4-0.5,0.9-0.7,1.3c-0.2,0-0.6,0-0.8,0c-0.1,0-0.4-0.1-0.5-0.2c-0.7-1-0.9-2.1-1.1-3.2
	c0-0.4-0.1-0.8-0.1-1.1c0-0.3,0-0.5,0-0.8c0-0.3,0.1-0.5,0.1-0.7c0-0.1,0.1-0.3,0.1-0.4C99.6,84.2,99.7,83.7,99.8,83.1z M106.5,82.9
	c0.1,0.1,0.3,0.1,0.5,0.2c-0.1,1.1,0.5,2.2,0.9,3.2c0.4,1.2,1.4,2.2,1.5,3.4c-0.2,0.3-0.5,0.7-0.7,1c0.1,0,0.4,0,0.5,0
	c0.2-0.3,0.4-0.6,0.6-0.8c0.1-0.1,0.4-0.4,0.5-0.5c0.5,0.8,0.5,1.8,0.6,2.7c0,0.3,0,0.5,0,0.8c0,0.1-0.1,0.3-0.2,0.4
	c0,0.3,0,0.5,0,0.8c-0.3,1-1,1.8-1.3,2.8c0,0.1,0,0.3-0.1,0.5c0,0.3,0,0.5,0,0.8c-0.2,0.8-0.7,1.5-1.1,2.1c-0.1-0.5-0.2-1-0.1-1.5
	c0-0.4-0.1-0.8-0.4-1.2c-0.4,0.5-0.7,0.9-1.2,1.3c-0.1-0.2-0.2-0.4-0.3-0.6c0.1-0.1,0.2-0.4,0.3-0.6c-0.7,0-1.2-0.3-1.4-0.9
	c-0.4,0.6-0.5,1.4-1.3,1.6c-0.2-0.4-0.3-0.8-0.3-1.2l-0.1-0.1c-0.3,0.4-0.5,0.8-0.8,1.1c-0.3,0.5-0.7,0.9-1.3,0.9c0-1,0-2.1-0.4-3.1
	c-0.8-1.3-1.5-2.8-1.5-4.3c0.1-0.2,0.3-0.5,0.4-0.7c0.6,0.3,1.3,0.6,2,0.7c0.4,0.1,0.8,0.1,1.1,0.2c0.1,0,0.4,0.1,0.5,0.1
	c0.6,0,1.2,0,1.8-0.1c1.1,0.1,2-0.5,3-0.8c0-0.1-0.1-0.3-0.1-0.4c-0.4,0.4-1,0.3-1.4-0.1c-0.2-0.8-0.5-1.6-0.6-2.4
	c-0.1-0.6-0.1-1.3-0.2-1.9c0-0.1,0.1-0.3,0.2-0.4c0-0.3-0.1-0.5-0.1-0.8c0-0.1,0.1-0.3,0.1-0.4c0.1-0.3,0.1-0.6,0.2-1
	C106.3,83.5,106.4,83.2,106.5,82.9L106.5,82.9z M106.3,77.6c0.8,0.5,0.9,1.4,1.1,2.2c0,0.1-0.1,0.3-0.1,0.4
	c-0.1,0.4-0.2,0.8-0.4,1.2c-0.5-0.5-0.9-1.1-1.2-1.7c-0.2-0.1-0.5-0.2-0.7-0.3c0.1,0.3,0.1,0.7,0.2,1c-0.2,0.6-0.8,0.8-1.5,0.6
	c-0.4,0.6-1.1,0.6-1.8,0.2c-0.1,0.1-0.2,0.3-0.2,0.4c-0.3-0.1-0.6-0.3-0.9-0.4c-0.2,0.1-0.5,0.2-0.7,0.2c-0.1-0.1-0.4-0.2-0.5-0.2
	c-0.2-0.4-0.4-0.8-0.7-1.2c-0.3,0.5-0.6,1-0.9,1.4c-0.1-0.3-0.2-0.5-0.3-0.8c-0.1-0.1-0.4-0.2-0.5-0.3c0.3,1.5,0.8,3,1.3,4.5
	c-0.3-0.1-0.7-0.3-1-0.4c-0.2-0.4-0.5-0.7-0.7-1c-0.9-1.5-2-2.9-2.3-4.6c0.1-0.1,0.2-0.3,0.2-0.4c0.7,0,1.3-0.2,1.9-0.3
	c0.1,0.1,0.4,0.2,0.5,0.2c0,0.6,0,1.3,0,1.9c0.2-0.1,0.3-0.1,0.5-0.2c-0.1-0.7-0.1-1.3-0.2-2c0.2-0.3,0.3-0.6,0.5-0.9
	c0.2,0.2,0.5,0.5,0.7,0.7c0.2,0.2,0.4,0.4,0.6,0.6c0.3,0.2,0.5,0.3,0.9,0.3c0.3,0.1,0.6,0.2,0.9,0.3c0.1-0.1,0.2-0.3,0.2-0.4
	c0.3,0.1,0.7,0.3,1,0.4c0.1-0.1,0.2-0.3,0.2-0.3c0.4,0,0.7,0.1,1.1,0.1c0.6-0.3,1.2-0.7,2-0.8C105.7,77.8,106,77.7,106.3,77.6z
	 M86.6,68.5l0.2,0.1c0,0.7,0,1.5,0.1,2.2c0,0.1-0.1,0.3-0.2,0.4c0.1,0.7,0.3,1.5,0.3,2.2c0.3,1.7,1,3.4,2.4,4.7
	c-0.2-0.7-0.5-1.4-0.8-2.1c-0.3-0.7-0.2-1.5-0.3-2.3c0.1-0.2,0.3-0.5,0.3-0.6c0.3,0.9,0.5,1.9,1,2.8c0.6,1.1,1.5,2.2,2.3,3.2
	c0.1,0.1,0.3,0.2,0.4,0.3c0.3,0.3,0.5,0.6,0.8,0.9c0.2,0.2,0.4,0.4,0.5,0.7c0.1,0.1,0.3,0.2,0.5,0.3c0.1,0.1,0.3,0.4,0.4,0.5
	c0.3,0.3,0.5,0.6,0.8,0.9c1,1.2,2,2.6,2,4.1c-0.4-0.3-0.7-0.7-1-1c-0.1-0.1-0.3-0.2-0.4-0.3c-0.2-0.2-0.4-0.5-0.5-0.7
	c-0.2-0.1-0.4-0.3-0.7-0.4c-0.7-0.6-1.6-0.9-2.4-1.3C92,82.6,91.5,82.3,91,82c-0.4-0.3-0.8-0.6-1.1-0.9c-0.1-0.1-0.3-0.2-0.4-0.3
	c-0.2-0.2-0.4-0.4-0.5-0.7c-0.1-0.1-0.3-0.3-0.4-0.4c-1.5-1.7-2.5-3.7-2.7-5.8c-0.1-0.6-0.1-1.3-0.2-1.9c0-0.3,0.1-0.5,0.1-0.8
	c0-0.1,0.1-0.3,0.1-0.4c0.1-0.4,0.2-0.8,0.2-1.3C86.2,69.2,86.4,68.8,86.6,68.5z M110.2,77.9c0.2,0,0.5,0,0.7,0
	c0.1,0.4,0.2,0.8,0.3,1.3c-0.1,0.2-0.2,0.4-0.3,0.6c-0.1,0.4-0.2,0.8-0.2,1.2c0,0.1,0,0.3,0,0.5c-0.4,1.2-1.1,2.5-2.1,3.4
	c-0.1-0.1-0.2-0.4-0.3-0.6c0.1-0.1,0.2-0.3,0.2-0.4c0-0.3-0.1-0.6-0.1-0.8c0-0.1,0.1-0.3,0.2-0.4c0-0.3,0-0.5,0-0.8
	c0-0.6-0.1-1.3-0.2-1.9c-0.1-0.5-0.2-1-0.2-1.4C108.3,77.7,109.4,77.9,110.2,77.9z M111.9,77.7c0.9,0.9,1.5,1.9,1.6,3.1
	c0.1,0.8,0.3,1.6,0.3,2.5c0,0.6,0,1.3,0.1,1.9c0.4-0.2,0.9-0.5,1.3-0.8c1.4-0.6,2.7-1.7,4.5-1.3c-0.4,0.3-0.8,0.5-1.2,0.8
	c-0.5,0.3-1,0.6-1.5,0.9c-0.2,0.1-0.5,0.3-0.7,0.4c-0.2,0.2-0.4,0.4-0.6,0.5c-0.2,0.2-0.4,0.3-0.6,0.5c-0.1,0.1-0.3,0.2-0.4,0.3
	c-0.4,0.4-0.7,0.8-1.1,1.1c-0.4,0.5-0.7,1.1-1.2,1.5c-0.4,0.5-0.7,1.1-1,1.6c-0.3-0.4-0.4-0.8-0.3-1.2c0-0.2,0.1-0.5,0.1-0.7
	c0.1-0.4,0.2-0.8,0.3-1.2c0.1-0.3,0.2-0.6,0.2-0.9c0-0.3,0-0.5,0.1-0.8c0-0.1,0.1-0.3,0.1-0.4c0.1-0.4,0.2-0.8,0.2-1.2
	c0-0.1,0.1-0.3,0.1-0.4c0-0.3-0.1-0.5-0.1-0.8c0.1-0.1,0.1-0.3,0.2-0.4c0-0.3-0.1-0.5-0.1-0.8c0-0.1,0.1-0.3,0.2-0.4
	c0-0.4,0-0.8,0-1.2c-0.1,0-0.2-0.1-0.3-0.1c-0.1-0.3-0.1-0.7-0.2-1c0-0.1,0.1-0.3,0.2-0.4C112,78.3,111.9,78,111.9,77.7z M87.1,61.6
	c0.1,0.1,0.2,0.4,0.3,0.6c-0.3,0.6-0.7,1.1-0.8,1.8c-0.2,0.5-0.4,1-0.6,1.5c-0.1,0.4-0.2,0.8-0.3,1.1c0,0.1,0,0.3-0.1,0.5
	c-0.1,0.4-0.2,0.8-0.2,1.2c-0.1,0.2-0.1,0.4-0.2,0.6c-0.1,0.3-0.2,0.6-0.3,1c0,0.3,0,0.5,0,0.8c0,0.3-0.1,0.5-0.1,0.8
	c0,0.1-0.1,0.3-0.1,0.4c0.1,0.4,0.2,0.8,0.2,1.1c-0.1,0.1-0.2,0.3-0.2,0.4c0.1,0.6,0.1,1.3,0.2,1.9c0.1,1.7,0.7,3.3,1.2,5
	c0.7,1.5,1.7,2.9,2.6,4.3c-0.5,0-1.2-0.1-1.4-0.6c-0.6-0.3-1.1,0.1-1.3,0.6c0,0.3,0.1,0.5,0.1,0.8c0,2.1,1.6,4,2.3,6
	c0.4-0.8,0.8-1.6,1.4-2.2c0.3-0.2,0.5-0.5,0.8-0.7c0.1-0.1,0.2-0.3,0.3-0.3c1-0.7,2.2-1.1,3.5-1.1c0.3,0.1,0.5,0.2,0.8,0.3
	c0.3,0.1,0.6,0.2,0.8,0.3c0.2,0.2,0.4,0.4,0.6,0.6c0.1,0.1,0.3,0.2,0.5,0.3c0.4,0.7,0.9,1.4,1,2.2c-0.2-0.1-0.6-0.2-0.8-0.3
	c-0.3-0.4-0.7-0.9-1.1-1.2c-1-0.2-1.8,0.4-2.6,0.8c-0.1,0.2-0.3,0.4-0.4,0.6c-0.4,0.4-0.8,0.9-1.3,1.3c-0.3,0.4-0.5,0.9-0.8,1.3
	c-0.1,0.4-0.2,0.8-0.3,1.2c-0.1,0.4-0.2,0.8-0.3,1.2c0,0.1-0.1,0.3-0.1,0.4c0,0.3,0,0.5,0,0.8c0,0.6,0.1,1.2,0.2,1.8
	c-0.3-0.2-0.6-0.5-0.9-0.7c-0.3-0.4-0.6-0.7-0.9-1.1c-0.1-0.1-0.3-0.2-0.5-0.3c-0.2-0.2-0.4-0.5-0.5-0.7c-0.1-0.1-0.4-0.2-0.5-0.3
	c-0.2-0.2-0.3-0.5-0.5-0.7c-0.1-0.1-0.4-0.2-0.5-0.2c-0.7-1-0.8-2.1-1.2-3.1c-1.1-3.3-2-6.7-2.5-10.1c0-0.5-0.1-1.1-0.2-1.6
	c0-0.4-0.1-0.8-0.2-1.1c0-0.3,0-0.5,0-0.8c0-0.5,0-0.9,0-1.4c0-0.3,0-0.7,0-1.1c0-0.3,0-0.5-0.1-0.8c0-0.1,0.1-0.3,0.2-0.4
	c0-0.3,0-0.5-0.1-0.8c0-0.3,0.1-0.5,0.1-0.8c0-0.1,0.1-0.3,0.1-0.4c0-0.3,0.1-0.7,0.1-1c0-0.1,0.1-0.3,0.1-0.4
	c0.1-0.5,0.3-1,0.4-1.4c0.1-0.4,0.2-0.8,0.3-1.2c0.1-0.3,0.2-0.6,0.3-0.8c0.1-0.9,0.9-1.6,1-2.5c0.4-0.8,0.8-1.8,1.5-2.4
	C86.7,62.2,86.9,61.9,87.1,61.6z M96.5,66.2c-0.1,0-0.4,0-0.5-0.1c-0.5-0.1-0.9-0.3-1.2-0.7c-0.2,0.5,0.1,1,0.4,1.5
	c0.8,0,1.6-0.2,2.2-0.7C97.2,66.2,96.7,66.2,96.5,66.2z M100.3,64.2c0.3-0.1,0.6-0.3,0.9-0.4c-0.4,0.5-0.9,1-1.4,1.5
	c-0.1,0.1-0.3,0.2-0.4,0.3c-0.2,0.2-0.4,0.3-0.6,0.5c-0.3,0.3-0.6,0.6-1,0.9c-0.4,0.6-0.7,1.2-1.1,1.8c-0.5,0-1,0-1.4,0.1
	c-0.6,0.3-1.4,0.4-2.1,0.5c-0.1,0-0.4-0.1-0.5-0.1c-0.9-0.2-1.7-0.5-2.3-1.1c-0.1-0.1-0.3-0.2-0.4-0.3c-0.4-0.6-0.7-1.2-1-1.8
	c0.1-0.1,0.2-0.4,0.3-0.5c0.6,0.2,1.1,0.5,1.8,0.6c0.2,0,0.5,0.1,0.6,0.2c0-0.1,0.1-0.3,0.2-0.3c-0.7-0.2-1.2-0.7-0.9-1.4
	c0.5,0,1-0.1,1.5-0.1c0-0.1,0.1-0.2,0.1-0.2c-0.3-0.4-0.5-0.7-0.8-1.1c-0.2-0.3-0.5-0.7-0.7-1c-0.1-0.1-0.3-0.2-0.4-0.3
	c-0.4-0.3-0.9-0.5-1.3-0.8c0.1-0.1,0.2-0.3,0.2-0.4c0.7,0.3,1.4,0.6,2.1,1c0.4,0.3,0.7,0.6,1.1,0.9c0.1,0.1,0.3,0.2,0.4,0.3
	c0.4,0.3,0.7,0.6,1.1,0.9c0.9,0.4,1.8,0.9,2.7,1.3C98.1,65,99.3,64.8,100.3,64.2z M112.1,67.4c0.5,0.2,0.9,0.4,1.4,0.7
	c0.6,0.6,1.5,0.9,2.2,1.2c0.7,0.9,1,1.9,0.9,2.9c0,0.1-0.1,0.3-0.1,0.4c-0.2,0.8-0.6,1.6-1.2,2.1c-0.1,0.2-0.3,0.3-0.4,0.5
	c-0.2,0.1-0.5,0.3-0.7,0.4c-2,1.3-4.6,1.7-7.2,1.8c-0.1,0-0.4-0.1-0.5-0.2c-0.5-0.1-1-0.2-1.5-0.3c-1-0.4-2.1-0.8-2.9-1.5
	c-0.1-0.1-0.3-0.2-0.5-0.3c0-0.1-0.1-0.4-0.2-0.6c-0.7,0.1-1.4,0.2-2.1,0.5c-0.1,0.2-0.3,0.4-0.4,0.6c-0.2,0.2-0.4,0.3-0.7,0.5
	c-0.5,0.2-1,0.5-1.4,0.8c-0.1,0-0.2-0.1-0.2-0.1c-0.9,0.5-1.9,0.6-2.9,0.7c-0.1,0-0.4-0.1-0.5-0.1c-0.7-0.1-1.4-0.5-2.1-0.8
	c-0.4-0.6-0.8-1.2-1.3-1.7c0.1-1-0.3-2.1-0.5-3.1c0.4-0.6,0.7-1.3,1.3-1.8c0.1-0.1,0.2-0.3,0.3-0.4c0.6-0.1,1.2-0.2,1.8-0.3
	c0.2,0.1,0.5,0.2,0.7,0.3c-0.3,0.2-0.5,0.4-0.8,0.6c-0.2,0.2-0.4,0.3-0.6,0.5c-0.4,0.5-0.8,1-1,1.6c0,0.4,0.1,0.8,0.1,1.1
	c0.1,0.1,0.3,0.4,0.4,0.5c0.6,0.3,1.2,0.5,1.7,0.8c0.4,0,0.9-0.1,1.3-0.2c0.1,0.1,0.4,0.2,0.5,0.2c0.5-0.2,1.1-0.4,1.6-0.6
	c0.1,0,0.3,0.1,0.4,0.1c-0.1,0.2-0.3,0.5-0.4,0.7c-1,0.5-2.2,0.6-3.3,0.7c-0.5-0.2-0.9-0.4-1.4-0.6c-0.1,0.1-0.2,0.3-0.2,0.4
	c0.7,0.3,1.4,0.7,2.2,0.8c0.1,0,0.4,0.1,0.5,0.1c1.1-0.1,2.2-0.3,3.1-0.8c0.5-0.3,1.1-0.6,1.6-0.8c0.1-0.1,0.2-0.3,0.2-0.4
	c-0.3-0.4-0.6-0.9-1-1.3c-0.2-0.1-0.5-0.2-0.6-0.3c0.2-0.3,0.3-0.5,0.5-0.8c-0.4-0.6-1.2-0.5-1.8-0.6c-0.5-0.4-0.8-0.9-0.8-1.5
	c0.1-0.2,0.3-0.4,0.4-0.7c0.3-0.1,0.6-0.1,0.9-0.2c0.3,0.1,0.7,0.3,1,0.4c0.3,0,0.6,0.1,0.9,0.1c2.1,0.1,4.2-0.4,6-1.1
	c0.4-0.1,0.9-0.2,1.3-0.2c0.1,0.4,0.1,0.7,0.2,1.1c-0.2,0.3-0.5,0.7-0.8,1c-0.1,0.1-0.3,0.3-0.3,0.4c-0.5,0.3-1,0.5-1.6,0.5
	c-0.6-0.1-1.1,0-1.4,0.4c0.2,0.3,0.3,0.7,0.5,1c0,0.1-0.1,0.3-0.1,0.4c0,0.3-0.2,0.5-0.4,0.7c-0.2,0.2-0.3,0.4-0.5,0.6
	c0.3,0.2,0.5,0.3,0.8,0.5c0.4,0.4,0.9,0.6,1.4,0.8c0.6,0.1,1.2,0.2,1.8,0.4c0.1,0,0.4,0.1,0.5,0.1c0.5,0,1.1-0.1,1.6-0.1
	c1.7,0,3.3-0.3,4.7-1c0.1-0.1,0.2-0.3,0.3-0.3c0.3-0.2,0.5-0.5,0.8-0.7c0.4-0.4,0.8-0.9,0.8-1.5c0-0.1,0.1-0.3,0.2-0.5
	c-0.2-0.3-0.4-0.7-0.6-1c-0.1,0.1-0.4,0.4-0.5,0.5c-0.3,0.2-0.5,0.5-0.7,0.8c-0.2,0.1-0.5,0.3-0.7,0.4c-0.1,0.1-0.2,0.3-0.3,0.3
	c-0.4,0.2-0.8,0.4-1.1,0.6c-1.5,0.6-3.3,1.1-5,0.8c1.5-0.8,3.3-1,4.7-2c0.1-0.1,0.2-0.3,0.3-0.4c0.2-0.2,0.5-0.3,0.7-0.5
	c0.4-0.5,0.8-1.1,1.1-1.6c-0.2-0.4-0.3-0.7-0.5-1.1c-1.2-1.2-3.1-0.7-4.6-0.7c1-0.7,2.2-1,3.4-1.2c0.1,0,0.4,0.1,0.5,0.2
	C111.5,67.4,111.8,67.4,112.1,67.4z M100,60.4c0.3,0.4,0.4,0.9,0.6,1.3c-0.2,0.3-0.5,0.5-0.7,0.7c-0.1,0.1-0.2,0.3-0.3,0.4
	c-0.5,0.1-1.1,0.3-1.6,0.4c-0.1,0-0.4-0.1-0.5-0.1c-0.4,0-0.8-0.2-1.1-0.5c-0.4-0.3-0.7-0.5-1.1-0.8c-0.1-0.1-0.3-0.2-0.4-0.3
	c-0.2-0.2-0.4-0.4-0.6-0.6c-0.4-0.3-0.7-0.5-1.1-0.7c-0.3-0.3-0.7-0.5-1.1-0.5c-0.3-0.1-0.6-0.3-1-0.4c0.7-0.5,1.6-0.4,2.4-0.4
	c0.3,0.1,0.5,0.2,0.8,0.2c0.3,0.1,0.7,0.2,1,0.3c0.4,0.3,0.7,0.6,1.1,1c0.2,0.2,0.4,0.4,0.6,0.6c0.1,0.1,0.3,0.2,0.4,0.3
	c0.2,0.2,0.4,0.4,0.6,0.6c0.6-0.1,1.2-0.2,1.7-0.4C99.9,61,99.9,60.7,100,60.4L100,60.4z M121.5,66.1c0.4,0.2,0.9,0.5,1.2,0.8
	c0.2,0.1,0.4,0.3,0.6,0.4c0.3,0.3,0.5,0.6,0.8,0.9c1,1.1,1,2.5,1.3,3.8c0,0.1-0.1,0.3-0.2,0.4c0,0.3,0,0.5,0.1,0.8
	c-0.1,0.3-0.2,0.7-0.2,1c-0.5,1-1.1,2-1.7,3c-0.3,0.2-0.5,0.5-0.8,0.8c-0.5,0.3-1,0.6-1.6,0.8c-0.1,0.1-0.2,0.3-0.3,0.3
	c-0.4,0.2-0.8,0.5-1.2,0.7c-0.2,0.2-0.5,0.5-0.7,0.8c-0.1,0.1-0.3,0.2-0.4,0.3c-0.3,0.3-0.6,0.6-0.9,0.9c-0.1,0.1-0.3,0.2-0.4,0.3
	c-0.2,0.3-0.5,0.5-0.7,0.8c-0.1,0-0.4,0.1-0.6,0.2c0-0.3,0-0.7,0-1c0.8-2.2,2.4-4,3.1-6.1c0.2-0.4,0.3-0.9,0.4-1.3
	c0.1-0.2,0.1-0.4,0.2-0.6c0-0.3,0-0.5,0-0.8c0-0.7-0.2-1.3-0.3-2c-0.4-0.6-0.7-1.2-1.2-1.8c-0.2-0.2-0.4-0.4-0.6-0.7
	c-0.3-0.2-0.6-0.3-1-0.5c0.4-0.1,0.9-0.1,1.3-0.1c0.7,0.3,1.4,0.6,2,1.1c0.1,0.1,0.3,0.2,0.4,0.3c0.4,0.5,0.8,1,1.1,1.6
	c0.2,0.6,0.1,1.1,0.1,1.7c0,0.3,0,0.5,0.1,0.8c0,0.1-0.1,0.3-0.2,0.4c0,0.4,0,0.8,0,1.2l0.1,0.1c0.6-1.1,1.3-2.1,1.7-3.3
	c0-0.3,0.1-0.6,0.2-1c0-0.1,0.1-0.3,0.1-0.4c0-1.3-0.4-2.6-1.5-3.6C121.8,66.7,121.6,66.4,121.5,66.1L121.5,66.1z M100.5,55.9
	c0.1,0.1,0.4,0.2,0.5,0.2c0.4,0.9,0.7,1.9,0.8,2.8c0,0.3,0,0.5,0,0.8c0,0.5,0.1,1,0.2,1.6c-0.2-0.1-0.5-0.2-0.6-0.3
	c-0.1-0.4-0.1-0.8-0.2-1.1c-0.4-0.1-0.7-0.3-1.1-0.4c-0.4,0.1-0.9,0.1-1.3,0.2c-0.5-0.2-1-0.5-1.4-0.7c-0.4-0.3-0.7-0.6-1.1-1
	c-0.4-0.2-0.8-0.4-1.2-0.6c-0.5,0.1-0.9,0.1-1.3,0.3c-0.4,0.2-0.7,0.4-1.2,0.6c0.3-0.5,0.5-1,1-1.4c0.1-0.1,0.3-0.3,0.3-0.3
	c1.1-0.6,2.4-1,3.8-1c0.6,0.1,1.2,0.2,1.5,0.7c-0.8,0.1-1.6,0.1-2.3,0.4c0.2,0.3,0.5,0.5,0.7,0.8c0.4,0.4,0.7,0.8,1.3,0.8
	c0.3-0.6,0.6-1.2,1-1.8C100,56.1,100.3,55.9,100.5,55.9z M111.7,58.3c1.1-0.8,2.5-1.3,3.9-1.4c-0.1,0.2-0.2,0.5-0.3,0.6
	c-0.7,0.2-1.3,0.5-1.9,0.7c-0.1,0.1-0.2,0.3-0.3,0.4c-0.3,0.1-0.5,0.3-0.8,0.4c-0.2,0.3-0.5,0.5-0.7,0.8c-0.2,0.2-0.3,0.3-0.5,0.5
	c-0.3,0.3-0.6,0.6-1,0.9c-0.1,0.1-0.2,0.3-0.3,0.3c-0.2,0.1-0.5,0.3-0.7,0.4c-0.9,0.6-2.1,1-3.3,0.9c-0.3-0.2-0.6-0.4-1-0.7
	c-0.2-0.5-0.3-1-0.4-1.6c0.2-0.3,0.4-0.6,0.5-0.9c0.1,0.1,0.4,0.2,0.5,0.2c0,0.1-0.1,0.3-0.2,0.3c0.1,0.1,0.4,0.4,0.5,0.5
	c0.2,0.1,0.5,0.3,0.7,0.4c0.8-0.2,1.5-0.5,2.1-1c0.3-0.2,0.6-0.4,1-0.6c0.1-0.1,0.4-0.2,0.5-0.3c0.1-0.1,0.2-0.3,0.3-0.4
	c0.3-0.1,0.5-0.3,0.8-0.4C111.4,58.5,111.6,58.3,111.7,58.3z M113,63.3c-0.1,0.1-0.3,0.4-0.4,0.6c-0.7,0.4-1.4,0.8-2,1.3
	c0.2,0.1,0.5,0.3,0.7,0.3c0.5-0.1,1.1-0.3,1.6-0.4c0.2-0.3,0.3-0.6,0.5-0.9C113.3,63.9,113.2,63.6,113,63.3L113,63.3z M115.8,59
	c1.1-0.6,2.4-0.9,3.7-0.8c-0.8,0.7-1.9,1-2.9,1.5c-0.1,0.1-0.2,0.3-0.3,0.4c-0.4,0.4-0.7,0.8-1.1,1.1c-0.1,0.1-0.3,0.4-0.4,0.6
	c0.6,0,1.2-0.2,1.8-0.5c0.4-0.3,0.6,0.2,0.7,0.5c-0.1,0.4-0.4,0.7-0.6,1c-0.3,0.3-0.6,0.6-0.9,0.9c1.4,0.2,3,0.1,4.1-0.7
	c0.4-0.3,0.8-0.5,1.3-0.8c0,0.3-0.1,0.7-0.1,1c-0.2,0.5-0.5,0.9-0.8,1.4c-0.4,0.3-0.7,0.6-1,0.9c-0.1,0.1-0.2,0.2-0.3,0.3
	c-0.4,0.2-0.8,0.4-1.1,0.6c-1.4,0.6-2.9,0.9-4.5,0.9c-0.3-0.1-0.6-0.1-0.9-0.2c-0.1,0-0.4-0.1-0.5-0.1c-0.4,0-0.8-0.1-1.2-0.2
	c-0.3,0-0.6-0.1-0.9-0.1c-0.1,0-0.4-0.1-0.5-0.2c-0.5,0.1-1.1,0.3-1.6,0.4c0.2-0.4,0.4-0.8,0.7-1.2c-0.6,0.1-1.1,0.1-1.7,0.1
	c0.1,0.4,0.5,0.8,0.3,1.2c-0.9,0.3-1.8,0.4-2.7,0.9c-0.1,0.1-0.2,0.3-0.2,0.5c-0.1,0-0.4,0.1-0.6,0.1c0-0.1-0.1-0.3-0.2-0.4
	c0.3-0.3,0.7-0.6,1-0.9c0.1-0.1,0.2-0.3,0.3-0.4c0.6-0.3,1.3-0.6,1.9-1c-0.5,0-1-0.1-1.5-0.1c-0.5-0.2-1-0.4-1.5-0.6
	c-0.4-0.6-0.7-1.2-0.8-1.9c0.2,0.1,0.6,0.2,0.8,0.3c0.2,0.3,0.3,0.5,0.5,0.8c0.4,0.2,0.9,0.3,1.4,0.4c0.1,0,0.4,0.1,0.5,0.1
	c1.3-0.3,2.6-0.6,3.7-1.2c0.4-0.3,0.8-0.5,1.2-0.8c0.2-0.2,0.4-0.3,0.6-0.5c0.1-0.1,0.3-0.2,0.3-0.3c0.2-0.2,0.4-0.3,0.6-0.5
	c0.3-0.3,0.6-0.6,0.9-0.9c0.1-0.1,0.3-0.2,0.4-0.3c0.2-0.2,0.4-0.3,0.6-0.5C114.9,59.7,115.4,59.3,115.8,59z M113.4,55.2
	c0.4,0.1,0.8,0.2,1.1,0.3c-0.8,0.5-1.6,0.9-2.4,1.4c-0.2,0.2-0.4,0.4-0.6,0.5c-0.1,0.2-0.3,0.4-0.4,0.5c-0.3,0.2-0.6,0.4-0.9,0.7
	c-0.1,0.1-0.3,0.3-0.3,0.3c-0.2,0.2-0.4,0.4-0.6,0.6c-0.7,0.4-1.5,0.6-2.3,0.6c-0.2-0.6-0.5-1.3-0.8-1.9c-0.2-0.1-0.5-0.2-0.6-0.3
	c-0.2,0.2-0.3,0.4-0.5,0.6c-0.7,0.5-1,1.3-1.3,2c0,0.2,0,0.5,0,0.7c-0.1,0-0.4-0.1-0.5-0.2c0-0.4,0-0.8,0-1.2c0-0.1,0.1-0.3,0.1-0.4
	c0.1-0.3,0.1-0.6,0.2-1c0.2-0.8,0.7-1.6,1.3-2.3c0.3-0.2,0.5-0.5,0.8-0.7c0.1-0.1,0.2-0.3,0.3-0.4c0.4-0.1,0.8-0.2,1.2-0.3
	c0.1,0.1,0.4,0.2,0.6,0.3c0,0.1-0.1,0.4-0.2,0.5c-0.1,0.4-0.3,0.8-0.4,1.2c0.1,0.5,0.2,1.2,0.8,1.5c0.8-0.1,1.5-0.4,2.1-0.7
	c0.1-0.3,0.3-0.6,0.4-0.9c-0.9,0-1.7,0.1-2.6,0.1c0.2-0.1,0.5-0.4,0.6-0.5c0.1-0.1,0.2-0.3,0.3-0.3c1.2-0.6,2.6-0.9,4-0.9
	C113,55.1,113.2,55.1,113.4,55.2z M130,45c0.2,0,0.5-0.1,0.7-0.1c-0.1,0.1-0.2,0.4-0.3,0.6c0,0.6,0.1,1.3,0.1,1.9
	c0,0.1-0.1,0.3-0.2,0.4c0,0.4,0,0.9,0.1,1.3c0,0.1,0,0.4,0,0.6c0,0.1-0.1,0.3-0.2,0.4c0,0.3,0.1,0.5,0.1,0.8c0,0.1-0.1,0.3-0.2,0.4
	c0,0.3,0,0.5-0.1,0.8c-0.1,0.4-0.2,0.8-0.3,1.2c-0.1,0.3-0.1,0.7-0.2,1c-0.5,1-0.9,2-1.8,2.8c-0.1,0.1-0.2,0.3-0.3,0.4
	c-0.5,0.2-1,0.4-1.6,0.6c0.5-0.5,1-1.1,1.3-1.7c0.1-0.5,0.2-1,0.3-1.5c0-0.1,0.1-0.3,0.1-0.4c0-0.4,0-0.9-0.1-1.3
	c0-0.7-0.1-1.5-0.2-2.2c0-0.3,0-0.7-0.1-1c-0.2,0-0.5,0.1-0.6,0.1c-0.8,1.4-1.6,2.7-2.3,4.1c-0.1,0.5-0.2,1-0.4,1.5
	c-0.2,0.6-0.2,1.3-0.2,2c0.1,2,1.4,3.9,2.6,5.7c0.4,0.5,0.7,1,1.1,1.4c0.3,0.4,0.6,0.8,0.9,1.2c0.1,0.1,0.3,0.3,0.4,0.4
	c0.5,0.6,0.9,1.2,1.4,1.8c2.3,3,3.8,6.5,3.8,10c0,0.1-0.1,0.3-0.1,0.4c0,0.3-0.1,0.5-0.1,0.8c0,0.2,0,0.5-0.1,0.7
	c-0.2,0.6-0.4,1.1-0.5,1.7c-0.7,1.4-1.4,2.7-2.3,4c-0.6,0.5-0.9,1.2-1.3,1.8c-0.4,0.3-0.7,0.6-1,0.9c-0.3,0.4-0.5,0.8-0.8,1.1
	c-0.4,0.4-0.8,0.9-1.2,1.4c-0.3,0.4-0.6,0.9-0.9,1.3c-0.5,0.5-0.8,1.1-1.3,1.6c-0.2,0.3-0.5,0.6-0.7,0.9c-0.6,0.5-0.9,1.1-1.3,1.7
	c-0.3,0.3-0.6,0.6-0.8,0.9c-0.6-1.1-1.3-2.2-1.8-3.3c0-0.1,0.1-0.3,0.2-0.5c0.1-0.5,0.3-1,0.4-1.4c0.1-0.3,0.1-0.6,0.2-1
	c0-0.1,0.1-0.3,0.2-0.4c-0.1-0.7-0.4-1.4-0.8-2c-0.3-0.1-0.7-0.3-1-0.4c-0.4,0-0.9,0-1.3,0c-0.4,0.2-0.9,0.3-1.3,0.5
	c-0.1,0.1-0.2,0.3-0.3,0.4c-0.3,0.1-0.6,0.3-0.8,0.4c-0.3,0.5-0.6,1.1-0.9,1.6c-0.1-0.1-0.2-0.4-0.3-0.6c0.2-0.3,0.4-0.7,0.5-1
	c0.1-1,0.8-1.9,1.5-2.8c0.2-0.2,0.5-0.3,0.7-0.5c0.1-0.1,0.2-0.3,0.3-0.4c1.3-0.7,2.9-1.3,4.6-1.2c0.6,0.2,1.1,0.6,1.7,0.9
	c0.9,0.3,0.9,1.3,1.4,2c0.1-0.1,0.4-0.4,0.5-0.5c0.4-0.4,0.8-0.9,1.2-1.3c0.1-0.1,0.3-0.2,0.4-0.3c0.5-0.6,0.8-1.3,1.4-1.8
	c0.5-0.6,0.9-1.3,1.1-2.1c0-0.3,0.1-0.6,0.2-1c0-0.1,0.1-0.3,0.1-0.4c-0.1-0.5-0.2-1.1-0.4-1.6c-0.1-0.1-0.4-0.2-0.6-0.3
	c-0.6,0.2-1.1,0.4-1.7,0.6c-0.1,0.1-0.2,0.3-0.3,0.4c-0.4,0.4-0.7,0.8-1,1.2c-0.4,0.3-0.8,0.5-1.3,0.4c0.2-0.4,0.5-0.8,0.7-1.2
	c0.4-0.2,0.6-0.5,0.5-0.9c0.3-0.7,0.7-1.3,1-2c0.1-0.4,0.2-0.8,0.3-1.2c0.1-0.4,0.2-0.8,0.3-1.2c0-0.3,0-0.5,0.1-0.8
	c0-0.1,0.1-0.3,0.1-0.4c0-0.4,0-0.7-0.1-1.1c0-0.2,0-0.5,0-0.7c0-0.6-0.1-1.3-0.2-1.9c-0.1-0.6-0.3-1.2-0.5-1.8
	c-1.8-3.6-4.8-6.9-5.2-10.9c0-0.4,0-0.7,0-1.1c0.1-0.3,0.2-0.6,0.2-1c0-0.2,0.1-0.4,0.1-0.6c0.5-1.4,1.3-2.8,2.2-4
	c0.3-0.3,0.6-0.6,0.9-0.9c0.2-0.2,0.3-0.3,0.5-0.5c0.2-0.2,0.4-0.3,0.6-0.5c0.2-0.2,0.4-0.3,0.6-0.5c0.2-0.2,0.4-0.3,0.6-0.5
	c0.2-0.1,0.5-0.3,0.7-0.4c0.2-0.2,0.4-0.4,0.6-0.5c0.1-0.1,0.2-0.3,0.3-0.4c0.3-0.1,0.5-0.3,0.8-0.4C129.8,45.3,129.9,45.1,130,45z
	 M132.8,31.6c1.7,1.9,2.1,4.2,2.3,6.5c0,0.1-0.1,0.3-0.2,0.4c0,0.3,0,0.5,0.1,0.8c-0.1,0.4-0.1,0.8-0.2,1.2c-0.1,0.5-0.3,1-0.4,1.4
	c-0.6,1.3-1.3,2.5-2.2,3.7c-0.1,0.1-0.4,0.4-0.5,0.5c0-0.7,0-1.3-0.1-2c-0.2-0.1-0.5-0.2-0.7-0.3c-1.5,0.5-2.8,1.2-4.1,1.9
	c-0.6,0.5-1.4,0.9-2.1,1.4c-0.5,0.5-1.1,0.9-1.6,1.4c-0.2,0.2-0.5,0.5-0.7,0.7c-0.4,0.4-0.7,0.8-1.1,1.1c-1.3,1.7-2.7,3.3-3.7,5.2
	c-0.1-0.1-0.2-0.4-0.3-0.6c0.1-0.2,0.2-0.4,0.3-0.6c0.1-0.3,0.1-0.6,0.2-1c-1.8,1.3-4.3,1.3-6.7,1.1c-0.5-0.1-0.9-0.2-1.4-0.2
	c-1.6,0-3.2-0.4-4.8-0.2c-1.1,0.1-2,0.5-3,0.9c-0.1,0.1-0.2,0.3-0.3,0.4c-0.2,0-0.5,0.1-0.7,0.1c0.2-0.2,0.3-0.5,0.5-0.7
	c0.2-0.1,0.5-0.4,0.7-0.5c-1.2,0-2.4,0.1-3.6,0c-0.8-0.1-1.7-0.2-2.5-0.1c-0.9,0.1-1.5,0.6-2.3,1c-0.1,0.1-0.2,0.2-0.3,0.3
	c-1.3,0.9-2.6,2-4.2,2.4c-0.7-0.4-1.3-0.8-1.9-1.2c-1.4-1.5-2.4-3.5-1.9-5.4c1.1,1.4,2.1,3.1,4,3.7c0.9,0.4,1.8,0,2.6-0.3
	c-0.9-0.4-1.8-0.8-2.6-1.3c-0.7-0.5-1.4-1.1-2.1-1.7c-0.2-0.2-0.4-0.4-0.5-0.7c-0.1-0.1-0.3-0.2-0.4-0.3c-0.7-0.8-1.4-1.6-2.1-2.3
	c0,0.4-0.1,0.8-0.1,1.3c-0.2,3.4,0.6,6.8,2.5,9.9c0.6,0.8,1.3,1.6,1.8,2.5c-0.6-0.4-1.2-0.7-1.7-1.1c-2.2-1.8-3.7-4.2-4.4-6.6
	c-0.5-1.9-0.9-3.9-0.8-5.8c0.1-0.6,0.1-1.2,0.1-1.8c0.1-0.4,0.1-0.8,0.2-1.2c0-0.2,0-0.5,0-0.6c-0.2-0.1-0.5-0.2-0.7-0.3
	c-0.1,0.3-0.2,0.7-0.3,1c0,0.1,0,0.3,0,0.5c-0.1,0.3-0.2,0.6-0.3,1c-0.5-0.4-1-0.8-1.2-1.4c-0.6-1.7-0.9-3.5-0.9-5.3
	c0.2-1.1,0.3-2.3,0.7-3.4c0.3-0.6,0.5-1.2,0.7-1.9l0.3-0.5c0.7-0.7,1.2-1.5,1.9-2.2c0,1.4-0.1,2.8-0.1,4.2c0.1,2,0.5,3.9,1.1,5.9
	c1.4,3.6,3.6,7,6.5,9.9c0.6,0.5,1.1,1,1.7,1.4c0.2,0.3,0.5,0.7,0.7,1c1.7-1,3.7-1.6,5.7-1.9c3.8-0.5,7.7,0,11.6,0
	c0.1,0,0.4,0.1,0.5,0.1c2.4-0.1,5.1,0.2,7.3-0.9c0.1-0.1,0.2-0.3,0.3-0.3c0.5-0.4,1-0.8,1.5-1.2c0.5-0.6,1-1.2,1.5-1.8
	c0.2-0.2,0.5-0.5,0.7-0.7c0.3-0.3,0.6-0.6,0.9-0.9c0.2-0.2,0.5-0.5,0.7-0.7c0.2-0.2,0.5-0.5,0.7-0.7c0.4-0.3,0.7-0.7,1.1-1
	c0.6-0.5,1.1-1.1,1.7-1.6c0.1-0.2,0.3-0.3,0.4-0.5c0.3-0.3,0.7-0.6,1-0.9c2-2.3,3.9-4.8,4.6-7.8c0.1-0.2,0.1-0.4,0.2-0.6
	C132.7,32.6,132.7,32.1,132.8,31.6L132.8,31.6z"/>
<path class="st10" d="M171.4,136.5c-0.5-0.6-1.3,1.6-0.7,1.5C171.4,138,171.9,137.1,171.4,136.5 M172.5,135.3
	C172.3,135.8,172.3,135.8,172.5,135.3z M173.1,134.2c1,0.4,1.3-1.7,0.6-1.6C173,132.7,173.3,133.8,173.1,134.2z M137.3,146.2
	c-0.4-1-1.9-3.5-2.7-2.5C133.8,144.6,136.1,146.3,137.3,146.2z M133.9,142.4C133.6,142.9,133.6,142.9,133.9,142.4z M120.8,136.3
	C120.6,136.8,120.6,136.8,120.8,136.3L120.8,136.3z M129.2,131.7C127,132.5,130.8,133.4,129.2,131.7z M89.4,144.2
	c-0.9-0.7-2.1-1.9-3-1.9c-0.9,0,0.9,0.8,1.4,1.8c0.4,1,1.2,3.7,1,4.7c-0.2,1,0.3,0.8,0.2,1.3c-0.1,0.6-0.6,1.6-0.6,2.3
	c0,0.6,1.2,1.8,0.5,1.9c-0.7,0.1-1.9-1.2-2.6-1.1c-0.7,0.1-0.6,0.8,0.6,1.9c1.2,1,5.4,4.1,7.2,3.4c1.8-0.7-1.7-1.2-2.3-2.1
	c-0.6-0.9-1-2-1-3.2c0.1-1.2-0.4-1.9-0.3-3.5C90.6,148.2,89.8,146,89.4,144.2z M119.6,132.4C119.3,132.8,119.3,132.8,119.6,132.4z
	 M134.3,126.6c-1.1-0.5-2.9-1.6-3.5-0.8c-0.6,0.8,1.7,0.9,2.1,1.3c0.4,0.4-0.2,0.2,0.6,1.2c0.9,1.1,2.2,5,2.2,6.6
	c0,1.6,0,1.7,0.1,2.8c0,1.2,0.6,2.9,0.5,4.1c-0.1,1.2,0.4,2.3,0.8,2.9c0.4,0.5,1.3,0.2,1.3-0.4c0.1-0.6-0.8-1-0.6-2.3
	c0.2-1.3,1.8-3.5,2.1-4.9c0.3-1.4-0.3-2.1-1.1-3.2c-0.8-1.1-1.6-2.7-2.3-3.7c-0.7-1-1.2-1.9-1.6-2.4
	C134.5,127.4,134.4,127,134.3,126.6z M107.2,130.1l-0.5,0.2c0.1,0.8,0,2,0,2.5c0,0.6,0.5,0.1,0.1,1.3c-0.4,1.2-1.8,5.2-2.2,6.4
	c-0.4,1.2,0.3,0.6,0.1,1.3c-0.2,0.7,0.3,2.3,0.8,2.7c0.6,0.5,0.4,0.7,0.7,1.1c0.3,0.4,1,1.1,1.4,1.7c0.4,0.6,0.2,0.5,1.2,1.8
	c1.1,1.3,4.4,4.8,6.5,4.4c2.1-0.4-2.6-2.6-3.3-3.3c-0.6-0.7,0.2-0.1-0.7-1.2c-0.9-1-2.4-4.6-2.6-6.5c-0.2-1.9,1.6-2.8,2.4-4
	c0.8-1.2-0.8-1.2-1.8-2.5C108.6,134.9,107.9,132.2,107.2,130.1z M118.3,128.1c0.3-1-0.2-2.1-0.9-1.4
	C116.6,127.3,117.4,128.1,118.3,128.1L118.3,128.1z M165.3,114.3c0.9-1.4-1.3-2.5-1.9-2.8c-0.7-0.3-1.2,0.4-0.9,1.1
	c0.3,0.7,2.2,1.2,2.2,2.5c0,1.3-0.9,3.5,0.4,3.6c1.3,0-2-3.4,0.1-2.9c2.1,0.5,6.5,3.7,8.4,6c1.9,2.2,1.5,5.3,1.3,7
	c-0.2,1.6-0.9,1.8-0.8,2.4c0.1,0.7,1.2,2,1.3,0.9c0.1-1.1,0.1-3.2,0.2-5.1c0.1-1.9,0.1-3.6-1.5-6
	C172.4,118.5,168.2,116.4,165.3,114.3z M161.7,110.7C161.5,111.2,161.5,111.2,161.7,110.7z M160.4,108.8c-0.8-0.2-2.1,1.2-1.3,1.7
	C159.9,111,161,109.5,160.4,108.8L160.4,108.8z M158.6,108.8C158.3,109.3,158.3,109.3,158.6,108.8z M151.9,107.2
	c-0.9-0.4-2.5-2.3-2.6-1.2c-0.2,1,1.2,2.3,1.8,3c0.6,0.8,1,1.1,2,1.1c1,0,2.5-0.7,3.8-1.1l-0.2-0.6c-0.8,0.2-1.8,0.5-2.4,0.6
	c-0.7,0.1-1.6-0.1-2-0.3C152.1,108.5,152.1,107.6,151.9,107.2z M149,105.6c0.1-1-2.4-1.3-2.2-0.3C147.1,106.3,148.2,106.1,149,105.6
	z M141.9,104.4C141.7,104.9,141.7,104.9,141.9,104.4z M117.6,110.5c-0.7,0.7-1.6,1.7-2.2,2.1c-0.5,0.4-0.8,0.3-1.3,0.6
	c-0.5,0.3-1.2,0.9-1.8,1.4c-0.6,0.4-1.3,0.9-1.8,1.2c-0.5,0.4-1.3,1.4-1.7,1.2c-0.4-0.3,1.5-2.1,0.5-1.9c-0.9,0.2-2.8,1.7-3.6,2.1
	c-0.8,0.4-1,1.2-1.4,1.1c-0.4-0.1,0.1-1.6-0.6-1.5c-0.8,0-2.3,1-2.9,1.5c-0.6,0.5-0.3-0.5-1.3,0.6c-1,1.1-4.4,4.8-5.6,5.8
	c-1.2,1-1.6,0.1-1.8,0.5s1.4,0,1.3,1.1c-0.1,1.1-3.4,3.6-2.5,5c0.9,1.5,2.7-2.5,4.1-2.2c1.4,0.4-0.1,2.5,0.2,3.7l0.8-0.2
	c-0.1-0.4-0.9,0-0.4-1.6c0.5-1.6,2.8-6.5,4.4-7.9c1.6-1.4,1.7-1.7,2.4-2.2c0.7-0.5,0.7,0.2,1.9-0.8c1.2-1,5.2-1.8,6.6-2.6
	c1.4-0.8,0.6-1.4,2-1.2c1.4,0.2,2.1,2.4,2.2,3.9c0.1,1.5-1,3.5-0.9,4.5c0,1,0.7-1.8,1.2-1.5c0.5,0.4,0,3,0.9,3
	c0.9,0,1.3-1.6,1.5-2.4c0.2-0.8-0.7-0.8-0.6-2.1c0.1-1.3,1-4.3,1.1-5.4c0.1-1.1-0.1-0.8-0.4-1.2c-0.3-0.4-1.4-0.9-1.3-1.8
	C116.7,112.6,117.7,111.6,117.6,110.5z M131.4,108.4c-1.9-1.4-4.8-4.5-6.4-3c-1.5,1.5,3.9,2.1,4.8,2.6c0.9,0.6,0.2,0.7,0.6,1.3
	c0.4,0.5,0.5,1.4,1.5,2.5c1,1,3.6,2.6,4.5,3.6c0.9,1,1.1,1.4,1.4,1.9c0.3,0.5-0.4,1,0.6,1.3c0.9,0.3,3.7,1.3,4.3,2.1
	c0.6,0.8,0,0.6,0.6,1.2c0.6,0.7,1.3,5.1,2.4,3.7c1-1.5-1.5-4.7-1.7-5.9c-0.2-1.2-0.4-1.5,0.3-1.9c0.7-0.5,2.6-0.8,3.5-0.9
	c0.9-0.1,3.3,0.8,2.2,0.1c-1.1-0.7-4.4-1.8-5.7-2c-1.2-0.2-1.5,1.1-2,0.5c-0.4-0.6,1.4-3.4,0.1-3c-1.4,0.4-2.9,2.6-4.6,1.4
	c-1.7-1.2-4.7-3.4-6-4.1C130.7,109,131.6,108.7,131.4,108.4z M130.8,99.8C130.6,100.3,130.6,100.3,130.8,99.8z M88.3,110.9
	C88,111.4,88,111.4,88.3,110.9z M69.3,117.1c-1.8-0.6-4.8-3.2-5.6-1.5C63,117.4,67.3,117.5,69.3,117.1z M84.2,109.8
	c-1,0-4.3-1-3.1,0c1.2,1,4.7,1.6,6.3,1.2C89,110.5,85.3,110.2,84.2,109.8z M63.2,115.8c0.1-1-2.7-1.1-2.2-0.2
	C61.6,116.5,62.5,116.2,63.2,115.8z M72.8,111.1C72.5,111.6,72.5,111.6,72.8,111.1z M76,109.6c-0.8-0.3-2.4-0.9-2.8,0
	C72.9,110.5,76.2,110.8,76,109.6z M128.9,95.1c-2.2-0.7-8.4-4-6.9-1.6c1.5,2.5,6.9,2.7,9.7,4.7c2.8,2,6,4.9,8.2,5.7
	c2.2,0.8,2.5-0.8,3.4,0.1c0.9,0.8,3.4,0,1.5-0.7c-1.9-0.7-8-1.9-9.3-3.3c-1.3-1.4,0.7-0.7-0.5-1.4C133.9,98,130.8,96.5,128.9,95.1z
	 M67.6,109.4c-0.5,0-3.2-0.5-2.1,0.1c1,0.6,3.4,1.6,5.3,1.6l0.1,0.5l1-0.3c-0.3-0.2-1.4-0.4-1.4-0.8c0.1-0.4,1.9-0.8,1.6-1.2
	c-0.2-0.4-1.4,0.3-2.1,0.3C69.3,109.6,68.4,109.4,67.6,109.4z M121.3,93.2C119,92.8,121.8,95.4,121.3,93.2z M50.4,113.5
	C50.3,113.8,50.3,113.8,50.4,113.5z M60,107.2c-0.3,0.4-1.5,0.8-0.8,1.3c0.6,0.5,2.2,0.5,3.2,0.7c1,0.2,1.8,0.4,2.8,0.6l-0.3-0.8
	l-0.7,0.2l-0.2-0.4c-1.3-0.3-2.6-0.5-3.9-0.8L60,107.2z M57.2,114.2c-3.3-1.1-7.6-3.7-9.3-4.8c-1.7-1.1,0.3,1.6,0.5,2
	c0.3,0.4,0.7,0.5,1.6,0.8c0.9,0.4,2.9,1.4,4.1,1.7C55.4,114.2,56.2,114.1,57.2,114.2z M58.2,107.5c0.5-0.7-1.4-1.8-1.6-1
	C56.5,107.2,57.8,107.3,58.2,107.5z M55.6,105.5c-0.7-0.7-2.1-2.3-2.8-2c-0.7,0.2,0.2,1,0.4,1.4C53.5,105.3,55.5,106.7,55.6,105.5z
	 M91.4,143.6c0.4,1.4,0.9,3.1,0.7,4.2c-0.2,1.1,0.4,0.4,0.3,1.9c-0.1,1.5,1.3,5.6,2.1,6.7c0.8,1.1,0.2,0.8,0.6,1.2
	c0.4,0.4,1.6,1.1,2,1.6c0.4,0.4,1.1,1.3,0.1,1.1c-1-0.1-3-0.7-5.1-0.9c-2.1-0.3-5.3-1.8-6.4-3.2c-1.1-1.4-1.2-1.6-1.6-3.1
	c-0.4-1.5-1.3-3.3-1.2-5.5c0.1-2.2,1.8-5.7,3.9-6.4C89,140.4,90,142.7,91.4,143.6z M130.7,123.2c1.5,0.3,3.3,1.3,3.9,2
	c0.6,0.7,0.1,0.6,0.6,1.3c0.4,0.7,1.6,2.3,2.1,3.1c0.5,0.8,0.2,1,0.9,1.8c0.7,0.8,1.1,2.7,1.9,3.7c0.8,1.1,2,1.7,1.7,3.2
	c-0.3,1.5-2.8,2.8-2.9,5c-0.1,2.2,3.2,4.8,2.2,7c-1,2.2-4-1.5-5-2.5c-1.1-1.1-1.8-1.6-2.3-2.2c-0.5-0.7,0.6-0.1-0.8-1.8
	c-1.5-1.7-2.9-8.2-4.5-10.2c-1.6-2-1.2-2.1-1.2-3.8c0-1.7,1.3-5,2.1-6C130,122.6,130.3,123.3,130.7,123.2L130.7,123.2z M108.6,129.9
	c-0.7,1,0.1,2,0.8,2.8c0.7,0.8,0.5,1.8,1,2.5c0.5,0.7,1.4,1.1,1.8,1.5c0.4,0.4,0.3,0.8,0.6,1.2c0.3,0.4,1.5,0.7,1.2,1.7
	c-0.2,1.1-1.1,3-1.2,4.1c-0.2,1.1-0.7,1-0.5,2.2c0.2,1.2,1.2,3.7,2,4.5c0.7,0.7,0,0.5,0.7,1.2c0.6,0.7,6.6,2.4,3.3,3.2
	c-3.3,0.8-11.8-3.4-13.8-5.8c-2-2.4-0.2-2-1.2-3.2c-1-1.2-2-3.8-2.2-5.1c-0.2-1.3,0.6-1.7,0.7-2.3c0.1-0.6-0.3,0.5-0.3-1.4
	c0-1.9,2.9-7.2,4.8-8.3C108,127.9,107.8,129.6,108.6,129.9z M66.4,129.2c1.2-0.3,2.9-0.5,3.6-0.5c0.8,0.1,1,0,1.3,0
	c0.3,0-0.1,0.5,1.2,0c1.3-0.4,5.3-1.3,6.9-2c1.6-0.7,0.1,2,0.1,2.7c0,0.7,1.1,1.6,0.4,1.7c-0.7,0.2-1.7-0.7-2.8-0.7
	c-1.1,0-2.7,0.5-3.7,0.4c-1-0.1-1.3,0.4-2.1,0.4c-0.8,0-1.7-0.6-2.3-0.6c-0.6-0.1,0,0.6-1.5,0.4c-1.5-0.3-6.3-1.1-7-3.2
	C60.1,125.7,64.5,128.8,66.4,129.2z M43.4,104.3c-0.2,0.4-0.8,0.2-0.9,1.4c-0.1,1.2,0.3,4.4,0.1,6c-0.1,1.5-0.9,2.4-1.5,3
	c-0.6,0.6-1.9,0.9-2.2,0.4c-0.2-0.5,1.5-1.3,1.5-1.8c0-0.5-0.7-1-1.2-0.6c-0.5,0.4-0.3,1.7-0.9,2.4c-0.6,0.7-1.6,1.1-2.3,1.7
	l0.3,0.9c5,2.1,10,7.8,12.1,9.6c2.2,1.8-2,0.2-1.8,0.7c0.2,0.5,1.8-0.3,2.2,0.3c0.3,0.6-0.4,2-0.1,2.6c0.3,0.6,0.6-0.4,1.6-0.4
	c1,0,2.1-0.3,4.6,0.1c2.5,0.4,6.7,2.1,10.3,2.3c3.6,0.3,8.8-0.1,11.1,0c2.4,0.1,2.7-1.2,3,0.6c0.2,1.8-3.4,4.9-3.9,6.7
	c-0.5,1.7,1.7,0.5,2.1,2.2c0.4,1.7-0.4,5.8,0.8,7.3c1.1,1.5,2.6,0.2,3.4,1.8c0.8,1.6,1.3,4.4,2.9,5.8c1.6,1.4,3.4,2,5.5,2.6
	c2.1,0.6,5.6,0.9,7.1,1c1.4,0.1,2.1,0.3,1.9-0.4c-0.2-0.7-1.2-0.8-2.2-2c-1-1.2-2.7-3.8-2.7-5.6c0.1-1.8,0.8-2.9,2.2-3.9
	c1.3-1,4-0.6,5.4,0.2c1.4,0.7,0.9,0.2,3,2c2,1.8,9.1,4.4,11.7,4.7c2.5,0.3,1.9,0.3,2.5,0.1c0.6-0.2,1.1-0.8,0.6-1.5
	c-0.5-0.7-2.2-1.4-3.1-2.3c-0.9-1-2-2.6-2.2-3.5c-0.2-0.9,1.4,0.3,2.1,0.1c0.6-0.2,1.2-0.6,1.9-1.3c0.7-0.7,2.1-2.3,2.4-3
	c0.3-0.7-2.2-0.2-1.3-0.7c1-0.5,3.9-1.7,5.2-1.5c1.3,0.2-1.1,1.8-0.4,2.3c0.7,0.5,1-1.5,2.5-0.8c1.5,0.7,5,2.3,6.3,2.6
	c1.3,0.3-0.5,0.4,0.6,1.4c1,1,4.4,3.9,6,4.4c1.6,0.5,2.6,1.3,2.5-0.8c-0.1-2.1-1.9-8.1-0.7-9.8c1.2-1.7,0.1,0.4,1.6-0.5
	c1.5-0.9,3.2-5.7,4-7.4c0.9-1.7,0.3-1,2.2-1.6c1.9-0.6,6.7-0.6,9.3-0.5c2.6,0.1,2.1,0.2,2.7-0.2c0.7-0.4,0.7,1,1.1,0.5
	c0.3-0.5-0.2-1.6,0.6-2.4c0.8-0.8,1.9,0.6,3,1.5c1.1,0.9,2.4,2.7,2.3,4.4c0,1.6-2.7,3.3-1.8,4.6c0.9,1.2,3.4-0.4,4.1-1.4
	c0.7-1-3.5,2-2.9,0.1c0.6-1.9,1.3-6-0.2-7.9c-1.5-2-8.8-3.2-5.4-4.1c3.4-0.9,7.2,6.6,8.1,9.8c0.9,3.2,2.3-3.4,2.5-5.1
	c0.2-1.7,0-3,0-4.8c0-1.8-1.2-3.9-2.3-5.3c-1.1-1.3-2.3-2.8-3.5-3c-1.2-0.2-0.4,2.1-1.3,2.2c-0.9,0.1-1.6-2.9-2-1.9
	c-0.4,1,1.3,2.9,1.2,3.9c0,0.9-2,1.8-1.9,0.7c0.1-1.1-0.5-3.1-1.9-2.4c-1.4,0.7-1.6,3-3,3.7c-1.4,0.7-3.4,0.2-4.3,0.6
	c-0.9,0.3,0.6,1.3,0.5,1.6c-0.1,0.3,0.9-1.4-1-0.5c-1.9,0.9-8.9,3.8-11.1,3.3c-2.3-0.5,2.3-0.2,1.9-0.9c-0.4-0.6-1.9-0.4-2.8-1.5
	c-0.8-1.1-1.6-3.4-2.3-4.4c-0.8-1-1.2-1.5-1.9-1.6c-0.6-0.1,1.5,1.8,0.6,1.8c-1,0-3.4-0.8-4.2-1.3c-0.8-0.5,1-1.2,0.6-1.5
	c-0.4-0.2-0.5,0-1.7,0.8c-1.2,0.8-5.4,1.8-6.7,1.9c-1.4,0.1,0.7,0.9,0.5,1.2c-0.2,0.3-1.1,0-1.8,0.5c-0.7,0.5-0.7,1.5-0.4,2.9
	c0.4,1.3-2.5,1.8-1.8,3.4c0.7,1.5,3.3,3.8,3.4,5.1c0,1.3-2.1-1.3-2-0.6c0.1,0.8,2.4,1.6,2,2.6c-0.4,1-2.1,0.2-3.3,0.5
	c-1.2,0.4-3,1.4-3.9,1.6c-0.9,0.1,0.8-1,0.7-1.3c-0.1-0.3-1.1-0.2-1.1-0.5c-0.1-0.3,1.1-1,0.8-1.2c-0.4-0.2-1.3,0.8-2,0.6
	c-0.7-0.2-2.1-0.8-2.5-1.4c-0.4-0.6,2.3,0,1.8-0.6c-0.4-0.6-1.4,0-2.8-1.5c-1.4-1.5-3.4-6.2-3.5-8.3c0-2-1.2,1.5-1.8,1.6
	c-0.6,0.1,0.2-2.3-0.7-1.7c-0.9,0.6-2.1,3.1-2.6,3.9c-0.6,0.8-0.3-0.1-1.3,0.7c-1,0.8-4.4,2.8-5.4,3.7c-1,0.9,1.8,0.3,1.7,1
	c-0.2,0.7-2.4,0.8-1.9,2.2c0.5,1.4,1.8,3.9,1.6,5.4c-0.3,1.5-1,2.3-1.5,2.9c-0.5,0.6-1.5,0.8-1.9,0.6c-0.4-0.2,0.8-0.7,0.5-1.4
	c-0.3-0.7-0.6-2.4-1.9-2.9c-1.3-0.5-1.2-1.5-1.3-2.2c-0.1-0.7-1,0.7-1.3,0.5c-0.3-0.2-0.7-1.1-0.5-1.7c0.1-0.6,1.2-1.4,1.1-2
	c-0.1-0.6-1.6,1-1.9,0.4c-0.3-0.6,1.8-4.2,0.4-2.5c-1.3,1.8-6.7,5.5-8.7,5.7c-2,0.2,0.2-0.4-0.9-1.5c-1.1-1.1,1.2-2.7,0.5-6
	c-0.7-3.3,2.1-10.4,4-12.1c2-1.7,1.2-0.7,2-1.2c0.8-0.5,1.7-1.7,2.7-1.7c1-0.1,0.9,3.2,2.3,1.4c1.4-1.7,4.3-6,7.2-7.4
	c2.9-1.4,7.1-3.7,5.7-5.9c-1.4-2.1-2.9,2.8-5.3,4.2c-2.5,1.3-7.1,3.9-8.6,5.1c-1.5,1.2,0.1-1.5-0.5-1.5c-0.5,0-0.4,1.2-1.5,1.2
	c-1.1,0.1-4-2.3-4.6-0.9c-0.5,1.4,5,1.4,3.8,2.8c-1.1,1.4-4.5-1.1-6.1-0.6c-1.6,0.5,3.4,1.1,2.9,2.3c-0.5,1.2-1.4-0.2-4.2,0.9
	c-2.8,1.1-10,3.1-13.3,2.6c-3.3-0.4-4.4-1.4-5.7-1.7c-1.3-0.3-0.1,1.5-2,0.5c-2-0.9-7.9-4.3-9.1-6.3c-1.1-1.9-1.5,0.3-0.5,1.5
	c1,1.3,4.2,3.6,6.2,5.1c2,1.5,9.6,1.9,6.1,3.4c-3.5,1.5-11.9-4.2-14.1-5.7c-2.2-1.6,0-0.8-0.5-1.3c-0.6-0.5-2.5-0.6-2.8-2.2
	c-0.3-1.6-1.1-3.6-1.8-5.3C43.5,107.7,43.5,106,43.4,104.3z M41.9,103.7l-0.8,0.2c0,1.1,0.1,1.8,0,3.3c-0.1,1.5-2.5,3.9-1.5,5.4
	c0.9,1.5,2.1-2.3,2.2-3.4c0-1.1,0-1.7,0-2.2c0-0.5-0.1-1-0.1-1.4C41.7,105.1,41.8,104.1,41.9,103.7z M51.6,99.9
	c-1.1-1.3-0.4,1.6-0.1,1.9c0.2,0.3,0.5,1,0.7,1.3l0.3-0.1C52.4,102,52.1,100.9,51.6,99.9z M67.3,89.6c-0.5-0.1-1.6-0.7-1.9-0.2
	c-0.3,0.4,0.2,1.8,0.6,2.1c0.4,0.3,0.9-0.5,1.7-0.4c0.9,0.1,1.6,0.5,3.9,0.7c2.3,0.2,6.1,1.7,8.7,3.7c2.6,1.9,7.3,3.3,9.3,3.6
	c2,0.3,1.7,0.4,2.3,0.5c0.6,0.1,0.6-0.4,1.4-0.2c0.9,0.1,3.1,0.7,4,0.8c0.9,0.1,1.1-0.4,1.5-0.4c0.4,0.1,0.2,1.3,1.6,1
	c1.4-0.3,4.9-1.4,6.8-2.6c1.9-1.3,4.3-0.8,5.9-1.9c1.6-1.1,3.3-1.5,5-2.1l-0.1-0.7c-3.6,1.4-8.9,2.5-11.2,3.9
	c-2.2,1.4-2.8,1.2-3.7,1.8c-1,0.6-0.8,0.2-2.3,0c-1.6-0.2-5.7-1-7-1.2c-1.4-0.2-0.9,0.3-1.4,0.2c-0.6-0.1-1.5-0.4-2.3-0.5
	c-0.8-0.1-0.7,0.1-2.5-0.3c-1.8-0.3-5.9-2.7-7.7-3.7c-1.8-1.1-2-0.6-3.7-1.5c-1.7-1-5.9-2.1-7.3-2.6C67.3,89,67.7,89.6,67.3,89.6z
	 M59.6,91.1c-1.6-0.3-3.1,0.4-4.6,0.8l0.2,0.7c1.3-0.4,2.7-1,3.8-1.1c1.1-0.1,1.5,0.7,2.4,0.7c0.8,0,1.6-0.5,2.4-0.7L63.6,91
	c-0.9,0.1-2,0.1-2.6,0.1C60.4,91.1,60,91.1,59.6,91.1z M64.5,89.7c-0.5-0.8-1.6-0.9-1.7,0.1C62.6,90.8,63.8,90.5,64.5,89.7z
	 M77.9,85c0.3-1-0.2-2.1-0.9-1.4C76.3,84.2,77,85,77.9,85z M76.1,81.2c-1.7-0.9-3.4-3.1-4.5-3.7c-1.1-0.6-1.8,1-0.7,2
	c1.1,1,4.5,3.1,5.7,4.3C77.8,85,76.3,82,76.1,81.2L76.1,81.2z M60.2,80.5c-1,0.1-1.7,1.1-0.8,1.5C60.3,82.4,60.7,81.4,60.2,80.5
	L60.2,80.5z M70.1,78.8c-0.1-0.9-1.1-1.6-1.5-0.8C68.1,78.9,69.2,79.3,70.1,78.8z M71,77.4C70.8,77.9,70.8,77.9,71,77.4z M76.9,67.6
	c-0.1-0.9-1.1-1.6-1.5-0.8C74.9,67.6,76,68,76.9,67.6L76.9,67.6z M71.6,66.2c-0.9,0.4-1.9,1.1-2.5,1.4c-0.6,0.4-1.2,0.5-1.6,0.7
	l0.2,0.6c1.1-0.3,2.5-0.5,3.2-0.9C71.7,67.6,71.5,66.7,71.6,66.2z M74,65.7c-0.8-0.2-2.1,1.2-1.3,1.7C73.4,67.9,74.6,66.4,74,65.7z
	 M56,69.7c-1.3,1-2.6,2.6-3,3.8c-0.4,1.1-0.1,1.9-0.1,2.4c0,0.5,1-0.4,0.8,0.3c-0.2,0.7,0.6,2.3,0.4,3.6c-0.2,1.3-1.5,3-2,3.7
	c-0.5,0.7-0.5-0.3-1.4,0.5c-0.9,0.8-2.8,2.1-4.6,4.4c-1.8,2.3-4.1,8-4.5,10c-0.4,2,0.3,0.6,0.3,1.4c-0.1,0.8-1.2,5.9,0,3.5
	c1.2-2.4,1.7-8.6,3.1-11.1c1.4-2.4,2.3-3.2,3.3-4.3c0.9-1.1,1.7-1.5,2.4-2.1c0.7-0.6,0.6-0.7,1.6-1.5c1-0.8,3-3,3.4-4.3
	c0.3-1.3,0.4-1.5,0-2.3c-0.4-0.8-1.5-1.1-1.4-2.5c0.1-1.4,1.9-4.1,2.2-5.1C56.8,69.4,56.1,69.8,56,69.7z M58.3,67.5
	c-0.8-0.2-2.1,1-1.3,1.5C57.7,69.6,58.8,68.3,58.3,67.5z M96.1,56.4c-0.9,0-1.1,0.8-0.7,1.2c0.4,0.4,1,0,1.1-0.2
	C96.7,57.1,96.3,56.6,96.1,56.4z M79.5,57.9c-1.2,0-5.6-0.5-3.6,0.3c2,0.8,6.7,1.8,8.7,2.4c2,0.6-4.2-1-2.7-2.3c1.5-1.3,6-2.1,8.2-2
	c2.2,0.1,4.6,0.6,4.2-0.9c-0.4-1.5-1.2,0.2-3.8,0.1C88.1,55.4,83.4,58,79.5,57.9z M76,57.2l-5.5,1.6c-0.9,0.6-1.5,0.3-2.7,1.8
	c-1.2,1.4-4.4,3.2-6.3,4.1c-1.8,0.9-6,2.7-3.7,2.6c2.3,0,6.8-2.6,8.6-3.8c1.8-1.2,1.2-1.6,2.8-2.8C70.8,59.6,73.9,58.6,76,57.2z"/>
<path class="st3" d="M64.3,80.4c0.6-3.9,5.4-10.8,1.4-11.7C61.5,67.8,62.8,76.5,64.3,80.4"/>
<path class="st3" d="M70.3,69.9c2.8-2.9,10.8-6,7.9-9C75.3,57.9,71.3,65.8,70.3,69.9"/>
<path class="st3" d="M77.7,78.9c0.9-2.8,5.3-7.3,2.4-8.4C77.2,69.4,77.1,75.9,77.7,78.9"/>
<path class="st3" d="M137.7,114.4c-2.1-3.4-9.2-8-5.8-10.3C135.3,101.8,137.6,110.3,137.7,114.4"/>
<path class="st3" d="M128,106.8c-3.7-1.7-12.3-1.7-10.8-5.5C118.7,97.6,125.5,103.5,128,106.8"/>
<path class="st3" d="M129.9,120.3c-1.9-2.2-7.7-4.9-5.5-6.9C126.7,111.3,129.3,117.3,129.9,120.3"/>
<path class="st3" d="M96.6,116.1c2.9-1.1,9.4-0.8,8.5-3.7C104.1,109.5,98.6,113.6,96.6,116.1"/>
<path class="st3" d="M98,109.2c-3-2.7-6.1-10.4-9.2-7.7C85.6,104.2,93.8,108.2,98,109.2"/>
<path class="st3" d="M111.7,105.9c-2.9-0.9-7.5-5.1-8.7-2.4C101.8,106.3,108.6,106.5,111.7,105.9"/>
<path class="st2" d="M14.2,195.9c66.7-24.6,143.9-24.9,211.3-0.5c-6.6,13.7-9.2,28.9-10,44.7c-67-18.1-123.2-19-190.3-0.5
	C23.8,223.3,20.5,208.5,14.2,195.9"/>
<path class="st3" d="M21.7,199.6c62.8-20.8,131.9-20.7,196.2,0c-3.4,8.7-5.7,19.6-7.1,32.6c-63.4-17.3-117.5-18.2-181.2-0.6
	C28.6,219.7,26,208.9,21.7,199.6"/>
<path class="st11" d="M205.3,206.9l-4.3,8.9l3,0.9L205.3,206.9z M203.8,218.2l-3.4-1l-0.5,1.1c0,0,0,0.1-0.1,0.1
	c-0.1,0.2-0.2,0.4-0.3,0.6c-0.1,0.3,0.1,0.6,0.4,0.9c0.2,0.2,0.3,0.3,0.3,0.4c0,0.1,0,0.3-0.1,0.6c-0.1,0.3-0.2,0.5-0.2,0.6
	c-0.1,0.1-0.2,0.1-0.3,0l-3.6-1c-0.2-0.1-0.2-0.3-0.1-0.6c0.1-0.4,0.4-0.8,0.8-0.9c0.4-0.2,0.6-0.4,0.8-0.6l6.6-13.5
	c0.1-0.2,0.2-0.4,0.2-0.5c0.1-0.2-0.1-0.5-0.4-0.8c-0.2-0.1-0.2-0.4-0.1-0.7c0.1-0.4,0.2-0.7,0.3-0.8c0.1-0.1,0.2-0.1,0.5,0l5.2,1.5
	c0.3,0.1,0.5,0.3,0.6,0.6c0,0.3,0,0.9-0.1,1.8c0,0.4-0.1,0.7-0.1,1.1l-1.6,13.9c-0.1,0.7,0,1.2,0.4,1.7c0.1,0.1,0.1,0.2,0.2,0.3
	c0,0.1,0,0.2-0.1,0.5c-0.1,0.4-0.2,0.7-0.3,0.7c-0.1,0.1-0.2,0.1-0.4,0l-6-1.7c-0.2-0.1-0.2-0.2-0.1-0.5c0.1-0.4,0.2-0.6,0.3-0.7
	c0.1-0.1,0.2-0.2,0.5-0.2c0.4-0.1,0.6-0.3,0.7-0.5C203.6,219.9,203.7,219.2,203.8,218.2z M192.9,199l6.6,1.5
	c0.3,0.1,0.4,0.1,0.5,0.2c0.1,0.1,0.1,0.3,0,0.6c-0.1,0.4-0.2,0.6-0.3,0.7c-0.1,0.1-0.3,0.1-0.5,0.1c-0.3,0-0.5,0.1-0.6,0.1
	c-0.1,0.1-0.2,0.3-0.2,0.6l-3.2,13.5c-0.4,1.9-1.4,3.3-2.8,4.4c-1.5,1.1-3.4,1.3-5.8,0.8c-0.4-0.1-0.7-0.2-0.8-0.3
	c-0.1-0.1-0.1-0.2,0-0.4l0.1-0.5c0-0.2,0.1-0.3,0.1-0.4c0.1,0,0.2-0.1,0.4,0c1.6,0.2,2.6-0.7,3.1-2.8l3.5-15c0.1-0.6,0.2-1,0.1-1.2
	c-0.1-0.2-0.3-0.4-0.6-0.5c-0.3-0.2-0.4-0.4-0.4-0.7c0.1-0.5,0.2-0.8,0.3-0.9C192.5,198.9,192.7,198.9,192.9,199z M182.7,198.1
	l0.1-0.7c0-0.3,0.2-0.4,0.5-0.3l6.7,1.3c0.3,0,0.4,0.1,0.5,0.2c0.1,0.1,0.1,0.2,0,0.5c-0.1,0.4-0.2,0.7-0.2,0.8
	c-0.1,0.1-0.2,0.1-0.4,0.1c-0.6,0-0.9,0.3-1.1,0.8l-2.8,14.9c-0.1,0.3,0.1,0.6,0.5,0.9c0.2,0.2,0.4,0.3,0.4,0.4c0,0.1,0,0.3,0,0.5
	l-0.1,0.5c0,0.3-0.1,0.4-0.2,0.4c-0.1,0-0.2,0-0.4,0l-6.8-1.3c-0.3,0-0.4-0.2-0.3-0.3c0.1-0.6,0.2-0.9,0.3-1.1
	c0.1-0.1,0.3-0.2,0.5-0.2c0.5,0,0.8-0.2,0.9-0.6l2.8-14.7c0.1-0.3,0.1-0.6,0-0.8c-0.1-0.2-0.2-0.4-0.5-0.6c-0.2-0.1-0.3-0.2-0.4-0.3
	C182.7,198.5,182.7,198.3,182.7,198.1z M176.1,201.8l1.9,12.4c0.1,0.4,0.3,0.7,0.6,0.9c0.2,0.1,0.3,0.4,0.2,0.7c0,0-0.1,0.3-0.2,0.7
	c-0.1,0.2-0.3,0.3-0.6,0.2l-5.6-0.8c-0.2,0-0.3-0.1-0.4-0.2c-0.1-0.1-0.1-0.3,0-0.6c0-0.1,0-0.3,0.1-0.6c0-0.1,0.2-0.2,0.4-0.3
	c0.3-0.1,0.5-0.2,0.5-0.4c0-0.1,0-0.1,0-0.2l-1.1-6.5l-0.6,0.8l-0.7,5.1c-0.1,0.4,0.1,0.8,0.5,1.1c0.2,0.1,0.2,0.3,0.2,0.7
	c-0.1,0.4-0.1,0.6-0.2,0.8c-0.1,0.1-0.3,0.2-0.6,0.1l-5.9-0.9c-0.2,0-0.4-0.1-0.4-0.2c-0.1-0.1-0.1-0.3,0-0.7
	c0.1-0.4,0.1-0.6,0.2-0.7c0.1-0.1,0.2-0.2,0.4-0.2c0.4-0.1,0.6-0.3,0.6-0.6l2.2-14.9c0.1-0.4-0.1-0.7-0.4-0.9
	c-0.2-0.2-0.3-0.3-0.4-0.4c0-0.1,0-0.3,0-0.5c0.1-0.6,0.2-0.9,0.2-1c0.1-0.1,0.2-0.1,0.4-0.1l6.4,0.9c0.3,0,0.4,0.2,0.4,0.4
	c-0.1,0.7-0.2,1.1-0.2,1.2c0,0.1-0.2,0.2-0.5,0.3c-0.5,0.1-0.7,0.4-0.8,0.7l-0.9,6.3l3.9-5.7c0.2-0.3,0.3-0.6,0.4-0.7
	c0-0.1-0.1-0.2-0.3-0.4c-0.2-0.2-0.3-0.3-0.4-0.4c0-0.1,0-0.4,0-0.8c0-0.3,0.2-0.5,0.5-0.4l3.7,0.5c0.2,0,0.3,0.1,0.4,0.2
	c0,0.1,0,0.3,0,0.7c-0.1,0.4-0.1,0.6-0.2,0.7c-0.1,0.1-0.3,0.1-0.6,0.2c-0.3,0-0.4,0.1-0.5,0.1c-0.1,0-0.2,0.1-0.3,0.3L176.1,201.8z
	 M153.9,193l6.1,0.6c0.2,0,0.3,0.1,0.4,0.2c0,0.1,0.1,0.3,0,0.7c0,0.4-0.2,0.7-0.5,0.8c-0.2,0.1-0.4,0.2-0.4,0.3
	c-0.1,0.1-0.1,0.3-0.2,0.6l-1.5,14c0,0.4,0.1,0.7,0.3,1c0.2,0.3,0.5,0.4,0.9,0.5c0.4,0,0.7-0.1,0.9-0.3c0.3-0.2,0.4-0.5,0.5-0.8
	l1.5-14c0-0.2,0-0.4,0-0.5c0-0.1-0.2-0.2-0.4-0.4c-0.3-0.3-0.4-0.6-0.4-1.1c0-0.3,0.1-0.6,0.2-0.6c0.1-0.1,0.2-0.1,0.4-0.1l3,0.3
	c0.3,0,0.5,0.2,0.5,0.5l-0.1,0.6c0,0.3-0.1,0.4-0.1,0.5c0,0.1-0.2,0.1-0.3,0.2c-0.5,0.1-0.7,0.3-0.7,0.7l-1.4,13.7
	c-0.1,1.3-0.7,2.3-1.6,2.9c-0.9,0.7-2.1,0.9-3.6,0.8c-1.7-0.2-2.9-0.7-3.7-1.6c-0.8-0.9-1.1-2.1-1-3.6l1.4-13.2
	c0-0.4-0.1-0.6-0.5-0.8c-0.2-0.1-0.3-0.2-0.4-0.3c0-0.1,0-0.2,0-0.5c0.1-0.5,0.1-0.8,0.2-0.9C153.4,193,153.6,193,153.9,193z
	 M142.5,192.2l8.9,0.6c0.2,0,0.3,0.1,0.3,0.2c0,0,0,0.1,0,0.1c0,0,0,0.1-0.1,0.2l-5.8,18l0.9,0.1c0.5,0,0.8-0.1,1.1-0.4
	c0.2-0.3,0.5-0.8,0.7-1.6c0.1-0.4,0.3-0.7,0.4-0.8c0.1-0.1,0.4-0.1,0.8-0.1c0.5,0,0.8,0.1,0.9,0.1c0.1,0,0.1,0.1,0.1,0.3
	c0,0,0,0.2-0.1,0.5l-0.9,3.8l-9.2-0.6c-0.2,0-0.3-0.1-0.3-0.1c0-0.1,0.1-0.3,0.1-0.6l6-17.8l-1-0.1c-0.6,0-1.1,0.6-1.6,1.9
	c-0.2,0.5-0.3,0.8-0.5,0.9c-0.2,0.1-0.5,0.1-0.9,0.1c-0.4,0-0.6-0.1-0.7-0.1c-0.1,0-0.1-0.1-0.1-0.3c0-0.1,0-0.2,0.1-0.4
	L142.5,192.2z M131.2,193.2l-0.5,17.4l0.8,0c0.5,0,0.9-0.2,1.2-0.6c0.3-0.4,0.4-1.1,0.4-2.1l0.4-12.8c0-0.6-0.1-1-0.4-1.4
	c-0.3-0.4-0.7-0.5-1.3-0.6L131.2,193.2z M125.5,209.1l0.4-15.2c0-0.2-0.2-0.3-0.5-0.4c-0.2-0.1-0.4-0.2-0.5-0.3
	c-0.1-0.1-0.1-0.4-0.1-0.8c0-0.3,0.1-0.5,0.2-0.6c0.1-0.1,0.4-0.1,1-0.1l6.8,0.2c1.9,0.1,3.5,0.9,4.8,2.5c1.2,1.6,1.8,4.3,1.7,7.9
	c-0.1,3.4-0.8,5.8-2.1,7.5c-1.3,1.6-2.9,2.4-5,2.4l-7.5-0.2c-0.2,0-0.3-0.1-0.4-0.1c-0.1-0.1-0.1-0.3-0.1-0.6c0-0.4,0-0.6,0.1-0.7
	c0-0.1,0.2-0.2,0.4-0.3C125.2,209.9,125.5,209.5,125.5,209.1z M112.4,192.1c0.1,0,0.2-0.2,0.5-0.6c0.2-0.2,0.4-0.3,0.7-0.3
	c0.1,0,0.3,0,0.8,0.1c0.1,0.1,0.2,0.3,0.2,0.5l0.9,4.2c0,0.2,0.1,0.4,0.1,0.4c0,0.2,0,0.3-0.1,0.3c-0.1,0.1-0.4,0.1-0.8,0.1
	c-0.5,0-0.8,0-0.9-0.1c-0.1-0.1-0.4-0.6-0.8-1.3c-0.9-1.7-1.7-2.5-2.3-2.5c-0.5,0-0.7,0.3-0.7,0.9c0,0.7,0.8,2.1,2.3,4.2
	c1.7,2.4,2.8,4.2,3.3,5.3c0.5,1.1,0.8,2.3,0.8,3.7c0,1.6-0.4,2.9-1.2,3.8c-0.8,0.9-1.8,1.3-2.9,1.4c-0.7,0-1.3-0.1-2-0.5
	c-0.3-0.1-0.4-0.2-0.6-0.2c-0.1,0-0.2,0.1-0.3,0.2c-0.1,0.3-0.5,0.5-1.1,0.5c-0.2,0-0.4,0-0.5-0.1c-0.1-0.1-0.1-0.2-0.2-0.5
	l-0.8-4.2c-0.1-0.5-0.2-0.8-0.2-0.8c0-0.2,0.2-0.4,0.7-0.4c0.7,0,1.1,0.1,1.2,0.2c0.1,0.2,0.3,0.5,0.6,1.1c0.9,2,1.7,3,2.6,3
	c0.3,0,0.6-0.1,0.7-0.3c0.2-0.2,0.3-0.5,0.3-0.8c0-0.5-0.2-1.1-0.7-1.9c-0.4-0.7-1-1.5-1.6-2.4c-1.6-2.1-2.6-3.8-3.3-5
	c-0.7-1.3-1-2.5-1-3.9c0-1.5,0.3-2.7,1-3.6c0.7-0.9,1.6-1.4,2.7-1.4C110.5,191.3,111.4,191.6,112.4,192.1z M93.2,192.5l6.1-0.3
	c0.2,0,0.3,0,0.4,0.1c0.1,0.1,0.1,0.3,0.1,0.7c0,0.4-0.1,0.7-0.4,0.8c-0.2,0.1-0.3,0.2-0.4,0.3c-0.1,0.1-0.1,0.3-0.1,0.6l0.7,14.1
	c0,0.4,0.2,0.7,0.4,0.9c0.3,0.2,0.6,0.3,1,0.3c0.4,0,0.7-0.2,0.9-0.4c0.2-0.3,0.4-0.6,0.3-0.9l-0.7-14.1c0-0.2,0-0.4-0.1-0.5
	c-0.1-0.1-0.2-0.2-0.4-0.3c-0.3-0.2-0.5-0.5-0.5-1c0-0.4,0-0.6,0.1-0.6c0.1-0.1,0.2-0.1,0.4-0.1l3.1-0.1c0.3,0,0.5,0.1,0.5,0.4
	l0,0.6c0,0.3,0,0.4,0,0.5c0,0.1-0.1,0.1-0.3,0.2c-0.4,0.2-0.6,0.4-0.6,0.8l0.6,13.7c0.1,1.3-0.3,2.3-1.1,3.1c-0.8,0.8-2,1.2-3.5,1.3
	c-1.7,0.1-3-0.3-3.9-1c-0.9-0.8-1.4-1.9-1.5-3.4l-0.6-13.2c0-0.4-0.2-0.6-0.7-0.8c-0.2-0.1-0.3-0.1-0.4-0.2c0-0.1-0.1-0.2-0.1-0.5
	c0-0.5,0-0.8,0.1-0.9C92.7,192.6,92.9,192.5,93.2,192.5z M83.7,198.2L83,208l3.1-0.3L83.7,198.2z M86.4,209.2l-3.5,0.3l-0.1,1.2
	c0,0,0,0.1,0,0.1c-0.1,0.2-0.1,0.5-0.1,0.7c0,0.3,0.3,0.5,0.7,0.7c0.2,0.1,0.4,0.2,0.5,0.3c0.1,0.1,0.1,0.3,0.1,0.6
	c0,0.3,0,0.5,0,0.6c0,0.1-0.1,0.1-0.3,0.1l-3.7,0.3c-0.2,0-0.3-0.2-0.4-0.6c0-0.5,0.1-0.8,0.4-1.2c0.3-0.3,0.4-0.6,0.5-0.9l1.4-15
	c0-0.2,0-0.4,0-0.6c0-0.3-0.2-0.5-0.7-0.6c-0.2-0.1-0.3-0.3-0.3-0.6c0-0.5,0-0.7,0-0.9c0-0.1,0.2-0.2,0.4-0.2l5.4-0.5
	c0.3,0,0.6,0.1,0.7,0.4c0.2,0.3,0.3,0.9,0.5,1.8c0.1,0.4,0.2,0.7,0.3,1.1l3.5,13.6c0.2,0.7,0.5,1.1,0.9,1.5c0.1,0.1,0.2,0.1,0.3,0.2
	c0,0.1,0.1,0.2,0.1,0.5c0,0.4,0,0.7,0,0.8c-0.1,0.1-0.2,0.2-0.4,0.2l-6.3,0.5c-0.2,0-0.3-0.1-0.3-0.5c0-0.4,0-0.7,0-0.8
	c0-0.1,0.2-0.2,0.4-0.4c0.3-0.2,0.5-0.5,0.4-0.7C86.9,210.9,86.7,210.3,86.4,209.2z M68.6,196.6l-0.6,0.1c-0.2,0-0.4,0.2-0.4,0.4
	c-0.1,0.3-0.1,0.9-0.1,2c0,0.5-0.1,0.8-0.2,0.9c-0.1,0.1-0.4,0.2-0.8,0.3c-0.4,0.1-0.7,0.1-0.8,0c-0.1-0.1-0.2-0.2-0.3-0.5
	c0-0.2,0-0.3-0.1-0.5l-0.2-2.9c0-0.3,0-0.6,0.1-0.7c0.1-0.1,0.4-0.2,0.8-0.3l10.3-1.5c0.3,0,0.5,0,0.6,0c0.1,0.1,0.2,0.3,0.3,0.7
	l0.6,2.5c0,0.2,0.1,0.4,0.1,0.6c0,0.2,0,0.4,0,0.6c0,0.1-0.3,0.2-0.6,0.3c-0.5,0.1-0.8,0.1-0.9,0c-0.2-0.1-0.3-0.3-0.4-0.7
	c-0.3-0.7-0.5-1.3-0.8-1.7c-0.2-0.4-0.5-0.6-0.8-0.6l-0.4,0.1l2.3,16c0.1,0.5,0.3,0.7,0.8,0.8c0.2,0,0.3,0.1,0.4,0.2
	c0.1,0.1,0.1,0.3,0.2,0.6c0.1,0.4,0.1,0.7,0,0.7c-0.1,0.1-0.3,0.1-0.6,0.2l-6.2,0.9c-0.2,0-0.4,0-0.5-0.1c-0.1-0.1-0.2-0.3-0.2-0.7
	c-0.1-0.5,0-0.8,0.3-0.9c0.3-0.1,0.4-0.3,0.5-0.4c0.1-0.1,0.1-0.3,0-0.5L68.6,196.6z M61.3,207.5l1.2,6.5c0.1,0.3,0.3,0.5,0.8,0.6
	c0.2,0,0.4,0.1,0.5,0.1c0.1,0.1,0.2,0.3,0.3,0.8c0.1,0.3,0.1,0.5,0,0.6c-0.1,0.1-0.2,0.1-0.4,0.2l-6.6,1.2c-0.3,0.1-0.5,0-0.6-0.3
	l-0.1-0.7c-0.1-0.3,0.1-0.5,0.5-0.7c0.2-0.1,0.3-0.2,0.4-0.3c0.1-0.1,0.1-0.3,0-0.6l-1.1-6.1l-4.5-8.3c-0.2-0.4-0.5-0.7-0.9-0.7
	c-0.2,0-0.3-0.2-0.4-0.3l-0.2-0.9c0-0.2,0.1-0.4,0.3-0.4l5.9-1.1c0.2,0,0.3,0,0.4,0.1c0.1,0.1,0.1,0.3,0.2,0.6
	c0.1,0.4,0.1,0.6,0.1,0.7c0,0.1-0.1,0.2-0.2,0.3c-0.2,0.2-0.3,0.3-0.2,0.5c0,0.1,0.1,0.2,0.1,0.4l2.8,5.2l0.8-5.9c0-0.1,0-0.1,0-0.2
	c0-0.3-0.3-0.5-0.7-0.7c-0.2-0.1-0.3-0.2-0.3-0.3l-0.1-0.7c-0.1-0.3,0.1-0.4,0.3-0.5l3.1-0.6c0.3-0.1,0.4,0.1,0.5,0.3l0.1,0.8
	c0,0.1-0.1,0.3-0.2,0.5c-0.3,0.3-0.5,0.7-0.6,1.1L61.3,207.5z M50.3,217.6l0.8-0.2c0.4-0.1,0.7-0.3,0.8-0.6c0.1-0.3,0.2-1.1,0.3-2.2
	c0-0.4,0.1-0.7,0.2-0.8c0.1-0.1,0.4-0.2,0.8-0.3c0.4-0.1,0.7-0.1,0.8-0.1c0.1,0,0.2,0.1,0.3,0.3c0,0.1,0,0.3,0.1,0.6l0.2,3
	c0,0.3,0,0.5-0.1,0.7c-0.1,0.1-0.2,0.2-0.5,0.3l-9.1,2.1c-0.4,0.1-0.6-0.1-0.7-0.5c-0.1-0.3-0.1-0.5-0.1-0.6c0-0.1,0.1-0.2,0.3-0.3
	c0.5-0.3,0.7-0.8,0.5-1.5l-3.4-14.5c-0.1-0.3-0.3-0.5-0.7-0.5c-0.3,0-0.5-0.1-0.6-0.2c-0.1-0.1-0.2-0.3-0.3-0.6
	c-0.1-0.4-0.1-0.6-0.1-0.7c0-0.1,0.2-0.2,0.4-0.2l6.4-1.5c0.2-0.1,0.4,0,0.5,0c0.1,0.1,0.2,0.3,0.3,0.8c0.1,0.3,0.1,0.5,0,0.6
	c0,0.1-0.2,0.2-0.4,0.4c-0.4,0.2-0.6,0.6-0.5,1L50.3,217.6z M31.3,207.7l1.2,9.8l3-0.9L31.3,207.7z M36.1,218l-3.4,1l0.2,1.1
	c0,0,0,0.1,0,0.1c0,0.3,0,0.5,0.1,0.7c0.1,0.3,0.4,0.5,0.8,0.6c0.3,0,0.4,0.1,0.5,0.2c0.1,0.1,0.2,0.3,0.2,0.5
	c0.1,0.3,0.1,0.5,0.1,0.6c0,0.1-0.1,0.1-0.3,0.2l-3.6,1c-0.2,0.1-0.4-0.1-0.5-0.5c-0.1-0.4-0.1-0.9,0.2-1.2c0.2-0.3,0.3-0.7,0.3-0.9
	l-1.6-14.9c0-0.2,0-0.4-0.1-0.6c-0.1-0.2-0.3-0.4-0.8-0.5c-0.2,0-0.4-0.2-0.5-0.6c-0.1-0.4-0.2-0.7-0.2-0.8c0-0.1,0.2-0.2,0.4-0.3
	l5.2-1.5c0.3-0.1,0.6,0,0.8,0.2c0.2,0.2,0.5,0.8,0.9,1.6c0.2,0.3,0.3,0.7,0.5,1l6.1,12.6c0.3,0.6,0.7,1,1.2,1.3
	c0.1,0.1,0.2,0.1,0.3,0.1c0,0,0.1,0.2,0.2,0.5c0.1,0.4,0.2,0.7,0.1,0.8c0,0.1-0.2,0.2-0.4,0.3l-6,1.7c-0.2,0.1-0.3-0.1-0.4-0.4
	c-0.1-0.4-0.2-0.6-0.1-0.7c0-0.1,0.1-0.3,0.3-0.5c0.3-0.3,0.4-0.5,0.3-0.8C36.9,219.6,36.6,219,36.1,218z"/>
<path class="st2" d="M156.7,190.8l7.5,0.7c0.1,0,0.2,0.1,0.1,0.2l-0.1,1.3c0,0.1-0.1,0.2-0.2,0.1l-7.5-0.7c-0.1,0-0.2-0.1-0.1-0.2
	l0.1-1.3C156.5,190.8,156.6,190.7,156.7,190.8"/>
<path class="st12" d="M201.3,86.9c0.9,0,1.6,0.3,2.1,0.8c0.6,0.5,0.8,1.2,0.8,2c0,0.7-0.3,1.4-0.9,2c-0.6,0.6-1.3,0.9-2.1,0.9
	c-0.8,0-1.5-0.3-2-0.8c-0.5-0.5-0.8-1.2-0.8-1.9c0-0.8,0.2-1.4,0.8-2C199.7,87.2,200.4,86.9,201.3,86.9 M190.7,76.5l4.5,13
	c0.1,0.4,0.4,0.8,0.9,0.9c0.3,0.1,0.4,0.4,0.4,0.7c0,0,0,0.3-0.1,0.8c0,0.2-0.3,0.3-0.7,0.3h-6.9c-0.3,0-0.4,0-0.5-0.1
	c-0.1-0.1-0.1-0.3-0.1-0.6c0-0.1,0-0.3,0-0.7c0-0.2,0.2-0.3,0.4-0.4c0.4-0.1,0.5-0.3,0.5-0.5c0-0.1,0-0.1,0-0.2l-2.4-6.9l-0.6,1v5.6
	c0,0.5,0.3,0.8,0.8,1.1c0.2,0.1,0.3,0.3,0.3,0.7c0,0.4,0,0.7-0.1,0.8c-0.1,0.1-0.3,0.2-0.7,0.2H179c-0.3,0-0.5,0-0.6-0.1
	c-0.1-0.1-0.2-0.3-0.2-0.7c0-0.4,0-0.7,0.1-0.8c0.1-0.1,0.2-0.2,0.5-0.3c0.4-0.1,0.6-0.4,0.6-0.7V73.3c0-0.4-0.2-0.7-0.6-0.9
	c-0.3-0.1-0.5-0.2-0.5-0.3c-0.1-0.1-0.1-0.3-0.1-0.5c0-0.6,0-1,0.1-1.1c0.1-0.1,0.2-0.1,0.5-0.1h8c0.4,0,0.6,0.1,0.6,0.4
	c0,0.7,0,1.2-0.1,1.3c0,0.1-0.2,0.2-0.5,0.4c-0.6,0.2-0.8,0.5-0.8,0.9v7l3.8-6.8c0.2-0.4,0.3-0.7,0.3-0.8c0-0.1-0.1-0.3-0.4-0.4
	c-0.3-0.2-0.5-0.3-0.5-0.4c-0.1-0.1-0.1-0.4-0.1-0.9c0-0.4,0.2-0.5,0.5-0.5h4.6c0.3,0,0.4,0,0.5,0.1c0.1,0.1,0.1,0.3,0.1,0.7
	c0,0.4,0,0.7-0.1,0.8c-0.1,0.1-0.3,0.2-0.7,0.3c-0.3,0.1-0.5,0.2-0.6,0.2c-0.1,0.1-0.2,0.2-0.3,0.4L190.7,76.5z M173,86.9
	c0.9,0,1.6,0.3,2.1,0.8c0.6,0.5,0.8,1.2,0.8,2c0,0.7-0.3,1.4-0.9,2c-0.6,0.6-1.3,0.9-2.1,0.9c-0.8,0-1.5-0.3-2-0.8
	c-0.5-0.5-0.8-1.2-0.8-1.9c0-0.8,0.2-1.4,0.8-2C171.4,87.2,172.1,86.9,173,86.9z M162.4,76.5l4.5,13c0.1,0.4,0.4,0.8,0.9,0.9
	c0.3,0.1,0.4,0.4,0.4,0.7c0,0,0,0.3-0.1,0.8c0,0.2-0.3,0.3-0.7,0.3h-6.9c-0.3,0-0.4,0-0.5-0.1c-0.1-0.1-0.1-0.3-0.1-0.6
	c0-0.1,0-0.3,0-0.7c0-0.2,0.2-0.3,0.4-0.4c0.4-0.1,0.5-0.3,0.5-0.5c0-0.1,0-0.1,0-0.2l-2.4-6.9l-0.6,1v5.6c0,0.5,0.3,0.8,0.8,1.1
	c0.2,0.1,0.3,0.3,0.3,0.7c0,0.4,0,0.7-0.1,0.8c-0.1,0.1-0.3,0.2-0.7,0.2h-7.3c-0.3,0-0.5,0-0.6-0.1c-0.1-0.1-0.2-0.3-0.2-0.7
	c0-0.4,0-0.7,0.1-0.8c0.1-0.1,0.2-0.2,0.5-0.3c0.4-0.1,0.6-0.4,0.6-0.7V73.3c0-0.4-0.2-0.7-0.6-0.9c-0.3-0.1-0.5-0.2-0.5-0.3
	c-0.1-0.1-0.1-0.3-0.1-0.5c0-0.6,0-1,0.1-1.1c0.1-0.1,0.2-0.1,0.5-0.1h8c0.4,0,0.6,0.1,0.6,0.4c0,0.7,0,1.2-0.1,1.3
	c0,0.1-0.2,0.2-0.5,0.4c-0.6,0.2-0.8,0.5-0.8,0.9v7l3.8-6.8c0.2-0.4,0.3-0.7,0.3-0.8c0-0.1-0.1-0.3-0.4-0.4
	c-0.3-0.2-0.5-0.3-0.5-0.4c-0.1-0.1-0.1-0.4-0.1-0.9c0-0.4,0.2-0.5,0.5-0.5h4.6c0.3,0,0.4,0,0.5,0.1c0.1,0.1,0.1,0.3,0.1,0.7
	c0,0.4,0,0.7-0.1,0.8c-0.1,0.1-0.3,0.2-0.7,0.3c-0.3,0.1-0.5,0.2-0.6,0.2c-0.1,0.1-0.2,0.2-0.3,0.4L162.4,76.5z"/>
</svg>
