<?xml version="1.0" encoding="utf-8"?>
<!-- Generator: Adobe Illustrator 22.1.0, SVG Export Plug-In . SVG Version: 6.00 Build 0)  -->
<svg version="1.1" id="Layer_1" xmlns="http://www.w3.org/2000/svg" xmlns:xlink="http://www.w3.org/1999/xlink" x="0px" y="0px"
	 width="234px" height="275px" viewBox="0 0 234 275" style="enable-background:new 0 0 234 275;" xml:space="preserve">
<style type="text/css">
	.st0{fill-rule:evenodd;clip-rule:evenodd;fill:#FFFFFF;}
	.st1{fill-rule:evenodd;clip-rule:evenodd;fill:#E87200;}
	.st2{fill-rule:evenodd;clip-rule:evenodd;fill:#006937;}
	.st3{fill-rule:evenodd;clip-rule:evenodd;fill:#101820;}
	.st4{fill-rule:evenodd;clip-rule:evenodd;fill:#242B33;}
</style>
<g>
	<polygon class="st0" points="114.5,275 107.5,272.3 99.5,267.2 92,261.6 80,250.7 68.3,239 45.4,210.6 28.9,184.7 23.1,172 
		17.3,159.2 12.8,146.8 9.1,133.7 3.5,107 0.9,83.6 0,52.1 1.3,28.8 2.6,11.5 4.4,0 228.6,0 231.5,18 233.7,44.8 234,75.9 
		230.8,109.1 224.2,140.7 219.3,154.4 213.8,167.9 201.1,191.9 184.9,215 165.9,237 149.5,253.8 131.3,268.1 120.5,274.1 	"/>
	<polygon class="st1" points="89.4,124.6 86.7,111.7 88.6,99.7 93.3,91.9 101.1,85.3 110.4,82 121.3,82 131,84.9 141.5,91.7 
		149.7,103.8 151.6,117.8 148.3,129.2 135.9,139.9 121.5,142.9 106.3,140.9 93.1,131.6 	"/>
	<path class="st2" d="M224.1,5.5c1.2,6.7,4.4,28,4.4,55.7c0,27.1-3.1,60.2-14.5,91.5c-22.7,62.6-87.7,116.2-98.2,116.2
		c-10.9,0-73.3-53.6-96.2-119.2C8.6,117.7,5.6,83.7,5.6,56.6c0-25.2,2.5-44.6,3.5-51C13.9,5.5,219.5,5.5,224.1,5.5L224.1,5.5z
		 M74.7,147.5c15.4,10.6,40.6,14,60.8,13.6c0,0,0,0,0,0c0.1,0,0.2,0,0.4,0l0,0c0.1,0,0.2,0,0.4,0l0,0c0.1,0,0.2,0,0.4,0c0,0,0,0,0,0
		c0.1,0,0.2,0,0.4,0c0,0,0,0,0,0c0.1,0,0.2,0,0.4,0l0,0c0.1,0,0.2,0,0.4,0l0,0c0.1,0,0.2,0,0.3,0l0,0c0.1,0,0.2,0,0.3,0h0
		c0.1,0,0.2,0,0.3,0c0,0,0,0,0,0c0.1,0,0.2,0,0.3,0c0,0,0,0,0,0c0.1,0,0.2,0,0.3,0h0c0.1,0,0.2,0,0.3,0h0c0.1,0,0.2,0,0.3,0l0,0
		c0.1,0,0.2,0,0.3,0l0,0c0.1,0,0.2,0,0.3,0l0,0c0.1,0,0.2,0,0.3,0l1-0.1c7.3-0.7,15.6-1.5,20.9-5.6c0.1-0.1,0.2-0.5,0.1-1.1
		c-0.3-1.3-1.3-2.5-1.7-2.6c-3.3-0.8-7.3,0.1-11.6,1.1c0,0-6.8,1.4-7,1.4l0,0l0,0l0,0h0h0l0,0l0,0h0l0,0h0l0,0l0,0c0,0,0,0,0,0
		c0,0,0,0,0,0c-9.7,1.7-18.2,2.2-26.1,1.8l0,0c-13.5-0.7-25.1-3.8-37.8-7.2C78.6,148.6,76.6,148.1,74.7,147.5L74.7,147.5z
		 M99.6,199.6c5.9,0.6,11.2,0.4,16.8,0.2l0,0c0,0,0,0,0,0l0,0c0,0,0,0,0,0h0c0,0,0,0,0,0l0,0h0l0,0h0l0,0c0,0,0,0,0,0l0,0l0,0l0,0
		c0,0,0,0,0,0h0h0c0,0,0,0,0,0c0,0,0,0,0,0h0h0h0c0,0,0,0,0,0c0,0,0,0,0,0s0,0,0,0h0c0,0,0,0,0,0h0h0c0,0,0,0,0,0c0,0,0,0,0,0
		c0,0,0,0,0,0h0c0,0,0,0,0,0c0,0,0,0,0,0h0c0,0,0,0,0,0h0h0c0,0,0,0,0,0l0,0h0l0,0h0l0,0c0,0,0,0,0,0l0,0h0l0,0h0l0,0h0c0,0,0,0,0,0
		h0l0,0c0,0,0,0,0,0l0,0h0l0,0c0,0,0,0,0,0h0c0,0,0,0,0,0l0,0h0l0,0c0,0,0,0,0,0l0,0h0c0,0,0,0,0,0h0l0,0h0l0,0c0,0,0,0,0,0l0,0h0
		l0,0h0l0,0c0,0,0,0,0,0h0c4.2-0.2,8.6-0.4,13.3-0.2l0.2,0l0.2,0.1c0.6,0.3,1.5,0.3,2.4,0.4c1.7,0.1,3.9,0.4,4.6,2.4
		c0.9,0,1.7-0.4,2.1-0.9c0.8-0.8,1.6-2.2,1.6-4c0-0.5,0-1,0-1.4c0-1.1-0.6-2.1-1.6-3.1c-0.3,0.1-0.7,0.2-0.7,0.2s-0.1-0.1-0.2-0.1
		c-5.2-0.4-10.1-0.1-15.4,0.3l-6.6,0.3l0,0l-4.3,0.2c-0.2,0-0.4-0.1-0.6-0.2l-0.2-0.1l-0.9-0.9l0.1-1.2c0-0.3,0.2-0.3,0.5-0.4
		c1.7-0.8,3.6-1.4,5.4-1.9l0,0c3.9-1.1,7.9-1.8,11.8-2.4c0,0,5.3-0.9,5.5-0.9c1.4,0,3.1-0.4,4.9-0.7c2.5,0,5.3-1.4,6.7-3.3
		c0.1-0.6,0.1-1.2,0.1-1.8c0-1.2-0.2-2.2-0.6-2.9c-4.3-1.3-9-1.5-13.5-1.6c-3.9-0.1-7.8-0.3-11.6-1.1L119,174v-1.6l0.5-0.3
		c1-0.6,1.9-1.6,2.9-2.6c0.7-0.7,1.4-1.5,2.2-2.1c-1.5-0.4-3,0-4.7,0.4c-1.1,0.3-2.2,0.6-3.4,0.6v0c-0.1,0-0.2,0-0.3,0
		c-3.8,1.2-7.8,1.6-11.7,2.1c-4.1,0.5-8.1,0.9-11.6,2.1c-0.2,0.4-0.4,0.8-0.4,1.2c0,0.8,0.4,1.6,0.9,2.7c0.5,1.1,1.1,2.3,1.1,3.7
		c0,0,0,0,0,0c0.4,0.4,1,1.2,1,1.2c0.7,0.8,1.4,1.5,2.3,2.1c5.7-2,12.1-3.1,18.7-3.3l0,0c0,0,0.1,0,0.1,0c2.8-0.1,5.5,0.1,8.3,0.3
		l0.7,0.8l0.9,1.2c-3.3,0.8-6.6,1.7-9.9,2.5c0,0,0,0,0,0c0,0,0,0,0,0c0,0,0,0,0,0c0,0,0,0,0,0c0,0,0,0,0,0c0,0,0,0,0,0l0,0
		c-4,1-8.1,2-11.7,3.3l-2.2,0.8c-3.6,1.2-5.9,2.3-5.9,5.4c0,0.1,0.1,0.3,0.1,0.3C97.4,196.9,98,198.8,99.6,199.6L99.6,199.6z
		 M70.6,69c-0.7,0.3-4.5,4.7-4.5,4.7s-2,2.1-2.6,2.8c1.7,6.6-5.3,9-9.1,6.2c-4-3-4.6-11.3,4.4-11.1c2.8-3.2,5.5-5.8,6.7-7.4
		C43.8,55,38,79.5,44.5,85.4c-1.2-0.5-3-1.7-6.2-1.6c-3.2,0.1-7.3,2.7-11.8,13.5c0.8,0.5,25.1,13.8,26.3,14.4
		c9.2-14.8,6.2-16.2,5.4-18C63.9,94,78.8,86.1,70.6,69L70.6,69z M164.8,153.7c0.3,1.3,0,2.3-0.7,3c0,0-0.1,0-0.1,0.1
		c0.3,0.5,0.5,1,0.6,1.5c0.3,1.2,0,2.1-0.7,2.7c-5.7,4.2-14.3,5-21.8,5.7c0,0-1,0.1-1,0.1c-3.2,0.3-7.3,0.4-11.7,0.3l-1.5,0.6
		c-1,0.4-1.9,1.1-2.8,2c0.1,0,0.3,0.1,0.4,0.1c0.2,0,1.9,0,1.9,0c0.4,0,0.7,0.3,0.8,0.7c0,0,0,0.1,0,0.1c0,0.3-0.2,0.7-0.5,0.8
		c-0.9,0.3-1.7,1-2.5,1.7c2.1,0.2,4.2,0.3,6.3,0.4c4.8,0.2,9.8,0.3,14.4,1.8l0.3,0.1l0.2,0.3c0.8,1.2,1,2.8,1,4.3
		c0,0.9-0.1,1.8-0.2,2.3l0,0.2l-0.1,0.1c0,0.2,0,0.4,0,0.6c0,0.9-0.1,1.7-0.2,2.2c0,0.1-0.1,0.3-0.2,0.4c-1.7,2.4-5,4-8.2,4
		c-1.5,0.3-3.3,0.7-4.9,0.7c-0.1,0-2.1,0.3-3.6,0.6c2.8-0.1,5.7-0.1,8.6,0.1c0,0,0.1,0,0.2,0c0.2-0.1,0.7-0.3,0.7-0.3l0.2-0.1
		l0.4,0.4c1.7,1.5,2.6,3.2,2.6,5c0,0.5,0,0.9,0,1.4c0,0.7-0.1,1.4-0.3,2.1c0,0.1,0,0.3,0,0.4c0,2.2-1,4-2.1,5
		c-0.8,1.1-2.7,1.6-4.2,1.4c-0.4,0-0.7-0.4-0.8-0.8c0-1.1-0.8-1.4-3.2-1.5c-0.9-0.1-1.9-0.1-2.7-0.4c-4.6-0.2-8.9,0-13.1,0.2
		c0,0-0.1,0-0.2,0c0,27.5,0,51.3,0,51.3c10.2,0,66.1-53.2,85.5-106.7c3.1-8.5,5.5-17.1,7.3-25.7h-56.9
		c-3.2,16.6-19.5,25.9-36.1,23.5c0,2.3,0.2,4.9,0.2,7.5c0,0,0,0,0,0v0c0,0,0.1,0,0.1,0c7.7,0.4,16.1-0.1,25.7-1.8l6.9-1.4
		c4.5-1.1,8.8-2.1,12.5-1.1C163.1,150,164.4,152,164.8,153.7L164.8,153.7z M117.9,166.3c-0.5,0-1-0.1-1.5-0.1c0,0.1,0,0.2,0,0.4
		c0,0,0,0,0,0l0,0C116.9,166.5,117.4,166.4,117.9,166.3L117.9,166.3z M214.3,15.6H17.9c0,0-11.3,71.2,9.8,131.8
		c20,57.4,75.8,111.8,88.4,113.3c13.5-1.5,70.1-55.9,89.9-110.6C228.6,87.9,214.3,15.6,214.3,15.6L214.3,15.6z M25,122.2l62,0.1
		c-1.2-3.6-1.9-7.3-2-11c-0.7-19,14.2-30.7,31-31l0-13.5l-3.4-6.5l-5.6,0.6l-1.8,7.4l-4.6,0.6l-17.6,7l-2.7-6.7l3.1-16.4l-7.3,2.8
		l-3.3-8.5l3.7-1.4L75,41.1l9.9-3.7l1.5,4.1l4.9-1.8l2.6,6.2l-3.3,17l6.8-2.7l5.7-22.3l7.4-1l5.2,9.6L115.7,20
		c-46.2,0-91.7,0-93.5,0c-0.8,5.2-2.6,22.3-2.6,44.8C19.5,82.7,20.1,100.8,25,122.2z"/>
	<path class="st3" d="M179.6,63.9l-6.5,7.2l1.5,1.3c1.8,1.7,3.5,2.6,5,2.9c1.5,0.2,2.8-0.3,4-1.6c1.1-1.3,1.5-2.5,1.2-3.8
		c-0.3-1.3-1.3-2.7-3-4.2l-2.1-1.9L179.6,63.9L179.6,63.9z M179.8,64.3c0.2,0.2,1.8,1.7,1.8,1.7c1.6,1.5,2.6,2.8,2.9,4
		c0,0.2,0.1,0.5,0.1,0.7c0,0.9-0.4,1.9-1.2,2.8c-1.1,1.1-2.3,1.6-3.6,1.5c-1.4-0.2-3-1.2-4.8-2.8c0,0-1-0.9-1.2-1.1
		C173.9,70.8,179.6,64.6,179.8,64.3z"/>
	<path class="st3" d="M120,182.2c-1.2,0-2.4,0-3.6,0v0.9c0.5-0.1,1-0.3,1.5-0.4C118,182.7,119.1,182.4,120,182.2z"/>
	<path class="st3" d="M138.1,192.9c-0.2-0.1-0.4-0.3-0.4-0.3C137.8,192.7,138,192.8,138.1,192.9z"/>
	<g>
		<path class="st3" d="M125.1,172.9c0.8-0.7,1.6-1.3,2.5-1.7c0.3-0.1,0.5-0.4,0.5-0.8c0,0,0-0.1,0-0.1c-0.1-0.4-0.4-0.7-0.8-0.7
			c0,0-1.7,0-1.9,0c-0.2-0.1-0.3-0.1-0.4-0.1c-0.4,0.4-0.8,0.9-1.3,1.3c-0.6,0.6-1.2,1.2-1.8,1.8C123,172.7,124,172.8,125.1,172.9
			L125.1,172.9z M116.4,166.5v1.9c-0.1,0-0.2,0-0.3,0c-3.8,1.2-7.8,1.6-11.7,2.1c-4.1,0.5-8.1,0.9-11.6,2.2
			c-0.2,0.4-0.4,0.8-0.4,1.2c0,0.8,0.4,1.6,0.9,2.7c0.5,1.1,1.1,2.3,1.1,3.7c0,0,0,0,0,0c0.4,0.4,1,1.2,1,1.2
			c0.7,0.8,1.4,1.5,2.3,2.1c5.7-2,12.1-3.1,18.7-3.3l0,0c0,0,0,0,0,0v2c1.2,0,2.4,0,3.6,0c-0.9,0.2-2.1,0.5-2.1,0.5
			c-0.5,0.1-1,0.3-1.5,0.4v2c0,0,0,0,0,0c0,0,0,0,0,0l0,0c-4,1-8.1,2-11.7,3.3l-2.2,0.8c-3.6,1.2-5.9,2.3-5.9,5.4
			c0,0.1,0.1,0.3,0.1,0.3c0.6,2.1,1.2,4,2.9,4.8c5.9,0.6,11.2,0.4,16.8,0.2v1.9c0.1,0,0.2,0,0.3,0c4.2-0.2,8.5-0.4,13.1-0.2
			c0.8,0.3,1.8,0.4,2.7,0.4c2.3,0.1,3,0.4,3,1.5l0,0.8l0.8,0.1c1.5,0.2,3.5-0.3,4.3-1.6c0.7-0.6,1.4-1.7,1.8-3.2c0,0.1,0,0.3,0,0.4
			c0,2.2-1,4-2.1,5c-0.8,1.1-2.7,1.6-4.2,1.4c-0.4,0-0.7-0.4-0.8-0.8c0-1.1-0.8-1.4-3.2-1.5c-0.9-0.1-1.9-0.1-2.7-0.4
			c-4.6-0.2-8.9,0-13.1,0.2c-5.8,0.2-11.3,0.5-17.5-0.2c-0.1,0-0.2,0-0.2-0.1c-2.5-1-3.3-3.5-4-5.7l-0.2-0.5c0-0.1,0-0.2,0-0.3
			c0-0.7,0.1-1.3,0.2-1.8c0,0,0-0.1,0-0.1l-0.2-0.5c0-0.1,0-0.2,0-0.3c0-4.7,4-6.1,7.2-7.3c0,0,1-0.4,1.6-0.6c-2,0.5-4,1-5.9,1.7
			c-0.2,0.1-0.5,0.1-0.7,0c-1.4-0.7-2.2-1.7-3-2.6l-1.2-1.3c-0.2-0.2-0.3-0.5-0.3-0.7c0.1-1-0.4-1.9-0.9-3c-0.7-1.4-1.6-3.1-0.7-5
			c-0.5-1.3-0.6-2.8,0.5-4.4c0.1-0.2,0.3-0.3,0.5-0.4c3.9-1.4,8.2-1.9,12.4-2.3c3.9-0.4,7.8-0.9,11.5-2c0.1,0,0.2,0,0.3,0
			C116.1,166.5,116.3,166.5,116.4,166.5L116.4,166.5z M130,191c1.5-0.3,3.5-0.6,3.6-0.6c1.6,0,3.4-0.4,4.9-0.7c3.2,0,6.5-1.6,8.2-4
			c0.1-0.1,0.1-0.2,0.2-0.4c0.1-0.5,0.2-1.3,0.2-2.2c0-0.2,0-0.4,0-0.6l0.1-0.1l-0.1,0.2c-1.8,2.6-5.2,4.3-8.2,4.2
			c-1.6,0.4-3.5,0.7-4.9,0.7l-5.3,0.9c-4.1,0.7-8.2,1.4-12.1,2.6V189c-1.8,0.5-3.6,1.2-5.4,1.9c-0.3,0.1-0.4,0.1-0.5,0.4l-0.1,1.2
			l0.9,0.9l0.2,0.1c0.1,0.1,0.4,0.2,0.6,0.2l4.3-0.2v-1.9c2.9-0.1,6.4-0.3,6.4-0.3C125.3,191.2,127.7,191,130,191L130,191z
			 M116.5,185c0.1,0,0.2,0,0.2-0.1C116.7,184.9,116.6,185,116.5,185L116.5,185z M116.8,184.9C116.9,184.9,116.9,184.9,116.8,184.9
			C116.9,184.9,116.9,184.9,116.8,184.9L116.8,184.9z M117.2,184.8C117.2,184.8,117.3,184.8,117.2,184.8
			C117.3,184.8,117.2,184.8,117.2,184.8L117.2,184.8z M117.3,184.8c0,0,0.1,0,0.1,0C117.4,184.8,117.3,184.8,117.3,184.8
			L117.3,184.8z M117.5,184.8C117.5,184.8,117.5,184.8,117.5,184.8C117.5,184.8,117.5,184.8,117.5,184.8L117.5,184.8z M117.6,184.7
			c0.1,0,0.2,0,0.2-0.1C117.7,184.7,117.7,184.7,117.6,184.7L117.6,184.7z M117.9,184.7C117.9,184.7,117.9,184.7,117.9,184.7
			L117.9,184.7L117.9,184.7z M116.6,199.7L116.6,199.7L116.6,199.7L116.6,199.7z M116.6,199.7C116.6,199.7,116.5,199.7,116.6,199.7
			C116.5,199.7,116.5,199.7,116.6,199.7L116.6,199.7z M116.5,199.7C116.5,199.7,116.5,199.7,116.5,199.7
			C116.5,199.7,116.5,199.7,116.5,199.7L116.5,199.7L116.5,199.7L116.5,199.7z M116.5,199.7C116.5,199.7,116.5,199.7,116.5,199.7
			C116.5,199.7,116.5,199.7,116.5,199.7L116.5,199.7z M116.5,199.7L116.5,199.7L116.5,199.7C116.5,199.7,116.5,199.7,116.5,199.7
			L116.5,199.7L116.5,199.7z M116.5,199.7C116.5,199.7,116.5,199.7,116.5,199.7C116.5,199.7,116.5,199.7,116.5,199.7L116.5,199.7z
			 M116.5,199.7C116.5,199.7,116.5,199.7,116.5,199.7C116.5,199.7,116.5,199.7,116.5,199.7L116.5,199.7L116.5,199.7L116.5,199.7z
			 M116.5,199.7C116.5,199.7,116.5,199.7,116.5,199.7C116.5,199.7,116.5,199.7,116.5,199.7L116.5,199.7z M116.5,199.7L116.5,199.7
			L116.5,199.7L116.5,199.7z M116.5,199.7L116.5,199.7L116.5,199.7L116.5,199.7z M116.5,199.7C116.4,199.7,116.4,199.7,116.5,199.7
			C116.4,199.7,116.4,199.7,116.5,199.7L116.5,199.7z M116.4,199.7L116.4,199.7L116.4,199.7L116.4,199.7z M116.4,199.7L116.4,199.7
			L116.4,199.7L116.4,199.7z M164.5,158.2c-0.1-0.5-0.3-1-0.6-1.5c-5.7,4.4-14.3,5.2-21.8,5.9c0,0-1,0.1-1,0.1
			c-6.5,0.7-16.9,0.2-24.7-0.5c0,0,0,0,0,0l0-1.9c0,0,0,0,0,0l0,0c-4.8-0.4-8.6-0.9-9.8-1.3c-8.6-1.9-17.4-3.8-25.4-7.7
			c0,0-0.1,0-0.1-0.1c-0.1-0.1-0.2-0.1-0.4-0.2c0,0-0.1,0-0.1-0.1c-0.1-0.1-0.2-0.1-0.3-0.2c0,0-0.1,0-0.1-0.1
			c-0.1-0.1-0.2-0.1-0.4-0.2c0,0-0.1,0-0.1-0.1c-0.1-0.1-0.3-0.1-0.4-0.2c0,0,0,0,0,0c-0.1-0.1-0.3-0.1-0.4-0.2c0,0-0.1,0-0.1-0.1
			c-0.1-0.1-0.3-0.1-0.4-0.2c0,0,0,0-0.1,0c-0.1-0.1-0.3-0.2-0.4-0.2c0,0,0,0,0,0c0,0,0,0,0,0c-0.1-0.1-0.3-0.2-0.4-0.2
			c0,0-0.1,0-0.1,0c-0.3-0.2-0.6-0.3-0.8-0.5c0,0-0.1,0-0.1,0c-0.1-0.1-0.3-0.2-0.4-0.3c0,0,0,0,0,0c-0.1-0.1-0.3-0.2-0.4-0.3h0
			c-0.1-0.1-0.3-0.2-0.4-0.3c0,0,0,0,0,0c-0.1-0.1-0.3-0.2-0.4-0.3c1.9,0.5,3.9,1,3.9,1c12.7,3.4,24.3,6.6,37.8,7.2v-0.1v-1.8
			c0,0,0,0,0,0v0c-13.3-0.7-24.8-3.8-37.4-7.2l-8.6-2.3c-0.4-0.1-0.9,0.1-1.1,0.5c-0.2,0.4-0.1,0.9,0.2,1.2c2.2,1.9,4.5,3.5,6.9,4.9
			l-6.3-1.6c-0.4-0.1-0.8,0.1-0.9,0.4c-0.2,0.3-0.1,0.8,0.2,1c10.6,8.6,23.8,11.4,36.5,14.1c1.4,0.4,6.1,0.9,11.8,1.4
			c0.4-0.1,0.9-0.2,1.4-0.4c2-0.5,4.2-1.1,6.3-0.3h6.8l-3.2,1.2c4.3,0.1,8.5,0.1,11.7-0.3c0,0,1-0.1,1-0.1
			c7.5-0.7,16.1-1.4,21.8-5.7C164.5,160.3,164.8,159.3,164.5,158.2L164.5,158.2z M153.1,115.8c0.7,24.5-24.7,37.5-46.2,28.1
			c-14.2-6.1-21.4-19.5-21.9-32.7C84,86.5,109.6,74,131,83.1C145.2,89.4,152.7,102.8,153.1,115.8L153.1,115.8z M149.5,110.4
			c-1.1-2.8-3.9-5-6.8-6.4c-2.1-1-4.4-1.6-6.1-1.7c0,3.2,3.1,6.6,6.1,10c3.4,3.8,6.8,7.4,5.9,10.3
			C149.4,120.5,150.4,113,149.5,110.4L149.5,110.4z M136.6,100.1c2-0.3,4.1,0.3,6.1,1.1c3.3,1.5,6,4,6.1,4.5
			c-3.3-6.9-4.1-7.5-5.3-9.3c-0.1,0-0.4,0-0.7,0C140.8,96.4,136.2,96.5,136.6,100.1L136.6,100.1z M134.1,99.7
			c0.4-5.8,8.1-5.1,8.1-5.1c-5.4-6.3-13.9-10.2-19.9-11.2c-1.2-0.2-2.3-0.3-3.2-0.3c1.2,1.5,2.3,3.1,3.2,4.6
			c4.5,7.4,6.3,15.6,6.3,21.1c0,7.7-2.7,18.2-6.3,26.1c-0.8,1.7-1.6,3.4-2.5,4.8c0.8,0.1,1.6,0.1,2.5,0.1c6.7-0.1,15.1-3.3,20.4-8.4
			c1.8-1.7,3.3-3.7,4.2-5.9c0.5-3.2-1.6-6.5-4.2-9.9C138.7,110.5,133.6,105.1,134.1,99.7L134.1,99.7z M125.3,105.5
			c-0.4-3.6-1.5-7.5-3-11.1c-2.2-5.5-5.2-10.2-7.6-11.5c-3.5,0.1-6.4,0.7-10,2.3c-0.8,0.4-1.6,0.7-2.6,1.2c0.7,0.6,1.6,1.2,2.6,1.9
			c2.5,1.9,5.5,4.6,6.7,9.7c1.5,6-3,11.3-6.7,16.7c-4,5.7-7.3,11.7-2.1,18.9c0.3,0.5,1.1,1,2.1,1.7c3.1,2,8.5,4.3,11.2,4.6
			c2.1-2.8,4.5-6.8,6.4-11.8C124.7,121.8,126.2,114.1,125.3,105.5L125.3,105.5z M98.6,96.1c2-0.4,4.1-0.5,6.1-0.3
			c1.3,0.1,2.6,0.4,3.7,0.7c-0.8-1.9-2.2-3.6-3.7-5c-1.9-1.8-4.1-3.2-5.3-3.6c-0.3,0.1-0.5,0.3-0.7,0.5c-4.8,3.5-8.1,8.8-9.7,15.1
			C90.2,99.2,94.2,96.9,98.6,96.1L98.6,96.1z M98.6,117.6c1.5-3.4,3.9-6.5,6.1-9.2c2.5-3.2,4.7-5.9,4.6-8.1c-0.1-1.1-2-1.6-4.6-1.5
			c-1.8,0.1-3.9,0.5-6.1,1.2c-4,1.5-8,4.2-9.5,8.3c-0.4,0.9-0.5,1.9-0.5,3v0.1c0,6.5,5.8,16,10,19.6c0.2,0.2,0.4,0.3,0.6,0.5
			c-0.2-0.4-0.4-0.8-0.6-1.1C96.3,125.8,96.9,121.4,98.6,117.6L98.6,117.6z M70.6,69c-0.7,0.3-4.5,4.7-4.5,4.7s-2,2.1-2.6,2.8
			c1.7,6.7-5.3,9-9.1,6.2c-4-3-4.6-11.3,4.4-11.1c2.8-3.2,5.5-5.8,6.7-7.4C43.8,55,38,79.4,44.5,85.4c-1.2-0.5-3-1.7-6.2-1.6
			c-3.2,0.1-7.3,2.7-11.8,13.5c0.8,0.5,25.1,13.8,26.3,14.4c9.2-14.8,6.2-16.2,5.4-18C63.9,94,78.8,86,70.6,69L70.6,69z M70.1,73.5
			c0.9,2.4,1.2,4.7,0.7,7c-0.4,2.2-1.5,4.4-3.3,6.4c-1.3,1.4-2.8,2.5-4.4,3.2c-1.6,0.7-3.4,1.1-5.4,1.1c-1.7,0-3.3-0.3-4.8-0.9
			c-1.6-0.6-3-1.6-4.3-2.7c-1.4-1.2-2.4-2.6-3.1-4.2c-0.7-1.5-1.2-3.2-1.3-5.2c-0.1-1.7,0.1-3.4,0.7-5c0.5-1.6,1.4-3,2.6-4.3
			c1.8-2,3.9-3.3,6.1-3.9c2.3-0.7,4.6-0.6,7.1,0.2l0.9,0.3L58,69.4l-0.3,0c-1.2-0.1-2.4,0-3.4,0.5c-1.1,0.5-2.1,1.2-3,2.2
			c-0.7,0.8-1.2,1.7-1.6,2.7c-0.3,1-0.5,2-0.4,3.1c0,1.1,0.3,2.2,0.9,3.2c0.5,1.1,1.2,2,2,2.7c0.9,0.8,1.9,1.4,2.9,1.9
			c1,0.4,2,0.6,3.2,0.6c1.1,0,2.2-0.3,3.2-0.8c1-0.5,1.9-1.1,2.6-1.9c0.9-0.9,1.5-2,1.8-3.2c0.3-1.1,0.4-2.2,0.1-3.3l-0.1-0.3
			l3.9-4.3L70.1,73.5L70.1,73.5z M56.7,96c0.3,1.1,0.3,2.1,0,3.1c-0.2,1-0.7,2.3-1.6,3.9l-3,5.6L29.3,96.4l2.8-5.2
			c1.3-2.5,2.9-4,4.6-4.7c1.8-0.8,3.9-0.6,5.9,0.6c1,0.5,1.8,1.2,2.3,2.1c0.3,0.6,0.5,1.2,0.7,1.8c0.8-0.5,1.7-0.9,2.7-1
			c1.3-0.2,2.7,0.1,4.1,0.9c1.1,0.6,2.1,1.4,2.7,2.3C56,93.9,56.5,94.9,56.7,96L56.7,96z M44.4,99.1c0.4-0.7,1-1.9,1-1.9
			c0.6-1.3,1.4-2,2.3-2.4c0.9-0.3,1.8-0.2,2.9,0.4c1,0.5,1.5,1.1,1.7,1.9c0,0.1,0,0.3,0,0.5c0,0.7-0.3,1.6-0.9,2.8
			c0,0-0.7,1.2-1,1.9C49.5,101.8,45.3,99.5,44.4,99.1L44.4,99.1z M40.9,96.6c0,0-0.1,0.2-0.2,0.5c-0.8-0.4-4.2-2.2-5-2.7
			c0.3-0.5,0.6-1.1,0.6-1.1c0.6-1.1,1.3-1.9,2-2.2c0.6-0.3,1.3-0.2,2.2,0.3c1,0.5,1.5,1.1,1.5,1.8c0,0.1,0,0.2,0,0.3
			C42,94.3,41.6,95.3,40.9,96.6L40.9,96.6z M56.3,96.1c0.2,1,0.2,1.9,0,2.9c-0.2,1-0.7,2.2-1.5,3.8L52,108L29.9,96.3l2.6-4.8
			c1.3-2.4,2.7-3.9,4.4-4.5c1.7-0.7,3.6-0.5,5.6,0.6c0.9,0.5,1.6,1.1,2.1,1.9c0.4,0.7,0.7,1.5,0.7,2.4c0.9-0.8,1.9-1.3,3-1.4
			c1.2-0.1,2.5,0.1,3.8,0.8c1.1,0.6,1.9,1.3,2.6,2.2C55.6,94.2,56,95.1,56.3,96.1L56.3,96.1z M55.9,99c-0.2,0.9-0.7,2.2-1.5,3.7
			c0,0-2.4,4.6-2.6,4.9c-0.3-0.2-21.1-11.2-21.4-11.4c0.2-0.3,2.4-4.5,2.4-4.5c1.3-2.3,2.6-3.7,4.2-4.4c1.6-0.7,3.4-0.5,5.2,0.5
			c0.8,0.4,1.5,1,2,1.8c0.5,0.8,0.7,1.6,0.7,2.5l0,0.4l0.3-0.3c0.9-0.9,1.9-1.3,3.1-1.5c1.2-0.1,2.4,0.1,3.6,0.8
			c1,0.6,1.9,1.2,2.5,2.1c0.7,0.8,1.1,1.7,1.3,2.7c0.1,0.5,0.2,0.9,0.2,1.4C56.1,98.1,56,98.5,55.9,99L55.9,99z M69.7,73.7
			c0.9,2.3,1.1,4.5,0.7,6.8c-0.4,2.2-1.5,4.2-3.2,6.1c-1.2,1.4-2.7,2.4-4.3,3.1c-1.5,0.7-3.3,1-5.3,1c-1.6,0-3.2-0.3-4.6-0.9
			c-1.5-0.6-2.9-1.5-4.1-2.6c-1.3-1.2-2.3-2.5-3-4c-0.7-1.5-1.1-3.1-1.2-5c-0.1-1.7,0.1-3.3,0.7-4.8c0.5-1.5,1.4-2.9,2.5-4.1
			c1.7-1.9,3.7-3.2,5.9-3.8c2.2-0.6,4.4-0.6,6.8,0.2l0.3,0.1L57.8,69l-0.1,0c-1.3-0.1-2.5,0-3.7,0.5c-1.2,0.5-2.3,1.3-3.2,2.3
			c-0.7,0.8-1.3,1.8-1.7,2.9c-0.4,1-0.5,2.1-0.4,3.3c0,1.2,0.3,2.3,0.9,3.4c0.6,1.2,1.3,2.1,2.1,2.8c0.9,0.9,1.9,1.5,3.1,1.9
			c1.1,0.4,2.2,0.6,3.4,0.6c1.2,0,2.3-0.3,3.4-0.8c1.1-0.5,2-1.2,2.7-2c0.9-1,1.6-2.1,1.9-3.3c0.4-1.1,0.4-2.4,0.1-3.5l0-0.1
			l3.3-3.6L69.7,73.7L69.7,73.7z M70,80.3c-0.4,2.1-1.4,4.1-3.1,6c-1.2,1.3-2.6,2.3-4.2,3c-1.5,0.7-3.2,1-5.1,1
			c-1.6,0-3.1-0.3-4.5-0.9c-1.5-0.6-2.8-1.5-4-2.6c-1.3-1.1-2.3-2.5-2.9-3.9c-0.7-1.4-1.1-3-1.2-4.9c-0.1-1.6,0.1-3.2,0.7-4.7
			c0.5-1.5,1.3-2.8,2.4-4c1.7-1.9,3.6-3.1,5.7-3.7c2-0.6,4.1-0.5,6.3,0.1c-0.4,0.4-2.5,2.7-2.6,2.8c-1.3-0.1-2.6,0.1-3.8,0.5
			c-1.2,0.5-2.4,1.3-3.3,2.4c-0.8,0.8-1.3,1.8-1.8,3c-0.4,1.1-0.5,2.3-0.4,3.4c0,1.2,0.3,2.4,0.9,3.6c0.6,1.2,1.3,2.2,2.2,2.9
			c1,0.9,2,1.5,3.2,2c1.1,0.4,2.3,0.7,3.5,0.7c1.3,0,2.4-0.3,3.6-0.8c1.1-0.5,2.1-1.2,2.9-2.1c0.9-1,1.6-2.2,2-3.5
			c0.2-0.7,0.3-1.4,0.3-2.1c0-0.5-0.1-1-0.2-1.5c0.1-0.1,2.3-2.6,2.7-3c0.5,1.4,0.8,2.8,0.8,4.1C70.2,78.9,70.2,79.6,70,80.3
			L70,80.3z M53,96.9c0.2,1-0.1,2.2-0.9,3.8l-1.4,2.6l-7.4-3.9l1.4-2.6c0.7-1.4,1.7-2.4,2.7-2.7c1.1-0.4,2.3-0.3,3.6,0.4
			C52.1,95.1,52.8,95.9,53,96.9L53,96.9z M51.8,100.5c0,0-1.1,2-1.2,2.3c-0.3-0.2-6.5-3.4-6.8-3.6C44,99,45,97,45,97
			c0.7-1.4,1.5-2.2,2.5-2.6c1-0.4,2-0.3,3.2,0.4c1.1,0.6,1.7,1.3,1.9,2.2c0,0.2,0,0.4,0,0.5C52.7,98.4,52.4,99.3,51.8,100.5
			L51.8,100.5z M42.8,93c0.1,1-0.2,2.3-1.1,4L41,98.2l-6.5-3.4l1-1.9c0.7-1.3,1.5-2.2,2.3-2.6c0.9-0.4,1.9-0.3,2.9,0.3
			C42,91.2,42.7,92,42.8,93L42.8,93z M41.3,96.8c0,0-0.3,0.6-0.5,0.8c-0.3-0.2-5.5-2.9-5.8-3.1c0.1-0.3,0.8-1.5,0.8-1.5
			c0.7-1.2,1.4-2.1,2.2-2.4c0.8-0.3,1.6-0.3,2.6,0.3c1.1,0.6,1.7,1.3,1.8,2.2c0,0.1,0,0.3,0,0.4C42.4,94.4,42,95.5,41.3,96.8
			L41.3,96.8z M196.8,85.9c-5.5,2.4-6,7.5-6,7.5l-1.7-3.7l13-10.1l-5.8-7.9c0,0-4.2,3.3-6.6,5.3c-0.2,0.2-0.8,0.6-1.5,1.2
			c0.7-0.8,1.2-1.4,1.3-1.5c2-3.1,2.6-8.2-0.2-11.6c-3.6-4.7-10.2-10.3-10.2-10.3l-8.4,9.5l6.4-10.3l-8.9-5.4l-4.2,6.9
			c0.1-8.9-7.9-15-17.4-14.2c-3.2,0.3-13.4,3.4-13.5,17.4l0.1,0.2l-3.4-0.5l2.6-21l-9.3-1.1l-2.3,19.1l-9.9-18.4l-7.4,1l-5.7,22.3
			l-6.8,2.7l3.3-17l-2.6-6.2l-4.9,1.8l-1.5-4.1L75,41l1.5,4.7l-3.7,1.4l3.3,8.5l7.3-2.8l-3.1,16.4l2.7,6.7l17.6-7l4.6-0.6l1.8-7.4
			l5.6-0.6l3.5,6.7l4.7-0.7l15.8,2l0.1-0.9c3.2,3.5,8.4,6.7,15.5,4.8c-0.4-0.1,0.8-0.1,2.4-0.9l-2.2,3.7l7.6,4.8l0.3-0.6l5.1,4.7
			l3.8-4.3l-1,6.7l4,3.9l5.3,7.5l3-2.1c-1.3,3.3-1.6,8.7,4,12.5c4.5,3.1,15.2,1.6,15.7-7.3l1.8,3.5c0.1,0.1,7-2.3,7.9-7.9
			C211.2,88.6,203.3,83.1,196.8,85.9L196.8,85.9z M106.3,53.9c0.3-1.2,1.3-5.2,1.8-7.2c1,1.9,2.8,5.5,3.4,6.6
			C110.3,53.4,107.5,53.7,106.3,53.9L106.3,53.9z M97.8,62.6l0.9,2.2l6.4-24.9l3.9-0.5l0.4-0.1l12.5,23.2l2.9-23.3l0.1-0.6l4.8,0.6
			c0,0-2.4,19.9-2.6,21.1c1.1,0.1,8,1,8,1l-0.6,4.7l-12.8-1.6l0.1-0.4l-4.4,0.6c0,0-3.2-6.1-3.5-6.8c-0.8,0.1-7.9,0.9-8.6,1
			c-0.2,0.8-1.9,7.5-1.9,7.5l-3.9,0.5l0.1,0.2l-15.3,5.9l-1.5-4c0,0,3.2-17.5,3.5-19.5c-1.7,0.6-8.9,3.4-8.9,3.4l-1.8-4.4l13.9-5.3
			l0.6-0.2l1.4,3.7c0,0-3.3,18-3.7,20C89.4,65.8,97.8,62.6,97.8,62.6L97.8,62.6z M83.8,39.9l1.3,3.4L79,45.7l-1.3-3.5L83.8,39.9
			L83.8,39.9z M143.8,59.4l1.7-4.4l15.5,5.9l-0.3,0.6c-1.6,3.7-4,6.3-7.2,7.7c-3.2,1.5-6.5,1.5-10,0.2c-1.8-0.7-3.3-1.7-4.6-3
			c-1.2-1.2-2.2-2.8-2.9-4.7c-0.6-1.6-0.9-3.2-0.8-4.8c0-1.7,0.3-3.3,1-5c0.6-1.7,1.6-3.1,2.8-4.4c1.1-1.2,2.5-2.2,4.4-3
			c1.7-0.7,3.3-1.1,5-1.1c1.6,0,3.3,0.3,5.1,1c2.4,1,4.4,2.4,5.8,4.2c1.4,1.9,2.2,4.1,2.3,6.5l0.1,1l-5.3-2l-0.1-0.3
			c-0.3-1.2-0.9-2.2-1.7-3c-0.8-0.8-1.8-1.5-3-2c-1-0.4-2-0.6-3.1-0.5c-1,0-2,0.2-3,0.7c-1,0.5-1.9,1.1-2.7,2
			c-0.8,0.8-1.4,1.7-1.8,2.8c-0.4,1.1-0.6,2.3-0.6,3.4c0,1.1,0.2,2.2,0.6,3.2c0.4,1,1,1.9,1.9,2.8c0.8,0.8,1.7,1.4,2.7,1.7
			c1.6,0.6,3.2,0.8,4.8,0.3c1.3-0.3,2.5-1,3.8-2C152.2,62.7,143.8,59.4,143.8,59.4L143.8,59.4z M169.5,52.3l4.1,2.6l-13.7,21.9
			l-4.1-2.6l13.4-21.4L169.5,52.3L169.5,52.3z M185.1,63.4c2.3,2,3.6,4.2,3.9,6.5c0.3,2.2-0.6,4.4-2.4,6.5c-1.4,1.6-3.2,2.5-5.2,2.6
			c-1.7,0.1-3.3-0.3-4.7-1.2c-0.2,1.8-1.1,11.9-1.1,11.9l-4.5-4.1c0,0,1.1-9.4,1.4-12.3c-1.8,2-6.8,7.5-6.8,7.5l-3.6-3.2l16.9-18.8
			l0.4-0.5L185.1,63.4L185.1,63.4z M179.8,74.5c-1.3-0.2-2.9-1.1-4.5-2.7c0,0-0.5-0.4-0.9-0.8c0.7-0.8,4.8-5.3,5.5-6.1
			c0.5,0.5,1.5,1.4,1.5,1.4c1.6,1.4,2.5,2.7,2.7,3.8c0,0.2,0.1,0.4,0.1,0.6c0,0.8-0.4,1.6-1.1,2.5C182.1,74.2,181,74.6,179.8,74.5
			L179.8,74.5z M196,75.2l2.9,3.9l-20.7,15.6l-2.9-3.9l20.2-15.2L196,75.2L196,75.2z M207.3,91.8c0.9,1.9,1,3.7,0.3,5.4
			c-0.6,1.7-1.9,3.1-3.8,4.1l-0.6,0.3l-2-4.2l0.5-0.3c0.7-0.4,1.2-0.9,1.4-1.6c0.2-0.6,0.2-1.3-0.1-1.9c-0.3-0.7-0.9-1.2-1.5-1.4
			c-0.7-0.2-1.5-0.1-2.3,0.3c-0.3,0.1-0.5,0.3-0.7,0.5c-0.2,0.2-0.3,0.4-0.5,0.7c-0.1,0.3-0.3,1.1,0,3c0,0,0.3,1.8,0.3,1.8
			c0.1,1.9-0.2,3.5-0.9,4.8c-0.8,1.4-1.9,2.5-3.5,3.2c-2.3,1.1-4.5,1.3-6.5,0.6c-2-0.6-3.6-2.1-4.6-4.3c-0.9-2.1-1-4.1-0.3-6.1
			c0.8-1.9,2.3-3.4,4.5-4.5l0.6-0.3l1.9,4l-0.5,0.3c-1,0.5-1.6,1.2-2,2c-0.3,0.9-0.3,1.7,0.1,2.5c0.4,0.9,1.1,1.6,1.9,1.9
			c0.9,0.3,1.8,0.2,2.8-0.3c0.9-0.4,1.4-0.9,1.7-1.5c0.1-0.2,0.2-0.7,0.2-1.5c0-0.5,0-1.1-0.2-1.9l0-0.1l0-0.1c0,0,0-0.4,0-0.4
			c-0.1-0.7-0.2-1.4-0.2-2c0-1.3,0.3-2.5,0.8-3.5c0.3-0.6,0.7-1.2,1.3-1.8c0.5-0.5,1.1-0.9,1.9-1.3c2.1-1,4.1-1.1,5.9-0.5
			C204.9,88.5,206.3,89.8,207.3,91.8L207.3,91.8z M144.3,52.3l-2.2,6.2c0,0,0-0.8,0.1-1.8c0.2-1.7,0.9-4.2,3.3-5.5
			c1.8-1,7.9-1.8,9.1,5.1L144.3,52.3L144.3,52.3z M177.5,70.5l2.2-2.6c0,0,2.9,1.9,1.5,3.7C179.6,73.7,176.9,70.1,177.5,70.5
			L177.5,70.5z M177.8,85.9c0-0.1,0.2-3,0.5-5.1c2.5,1.2,4.8,0.6,6.6-0.4C181.6,83,177.8,85.9,177.8,85.9L177.8,85.9z M189.8,100.2
			c-1.3,0.2-1.8-1.8,0.6-2.7c0.2,0.4,0.3,0.8,0.3,1.1C190.8,99.6,190.3,100.1,189.8,100.2L189.8,100.2z M109,39.8l0.1,0l12.8,23.6
			l-4.3,0.6c0,0-3.4-6.6-3.5-6.8c-0.2,0-9,1.1-9.2,1.1c-0.1,0.2-1.9,7.5-1.9,7.5l-4.2,0.5l6.7-26L109,39.8L109,39.8z M108.9,40.2
			c0.1,0.2,12.1,22.5,12.4,22.9c-0.5,0.1-3.3,0.4-3.5,0.5c-0.1-0.2-3.5-6.8-3.5-6.8l-9.8,1.2c0,0-1.8,7.2-1.9,7.5
			c-0.2,0-2.9,0.4-3.4,0.4c0.1-0.5,6.4-25,6.5-25.2C105.9,40.6,108.7,40.3,108.9,40.2L108.9,40.2z M107.7,44.8l0.1-0.5l4.9,9.6
			l-7.5,0.9L107.7,44.8L107.7,44.8z M107.9,45.4c0.4,0.8,4,7.8,4.2,8.2c-0.5,0.1-5.9,0.7-6.4,0.8C105.8,53.9,107.7,46.3,107.9,45.4
			L107.9,45.4z M97.6,63.2l1.4,3.5l-14.5,5.5l-1.3-3.5c0,0,3.5-19.5,3.7-20.1c-0.6,0.2-9.3,3.6-9.3,3.6l-1.4-3.6l13.5-5.2l0.2-0.1
			l1.2,3.1c0,0-3.7,20-3.8,20.6C87.7,66.9,97.6,63.2,97.6,63.2L97.6,63.2z M83.5,68.7c0-0.1,3.8-20.7,3.8-20.7s-9.2,3.5-9.5,3.7
			c-0.1-0.3-1-2.6-1.1-2.9c0.3-0.1,12.6-4.8,12.9-5c0.1,0.3,1,2.6,1,2.7c0,0.1-3.9,21.2-3.9,21.2s10.4-4,10.7-4.1
			c0.1,0.3,1,2.5,1.1,2.8c-0.3,0.1-13.4,5.1-13.8,5.3C84.6,71.4,83.6,68.8,83.5,68.7L83.5,68.7z M83.6,40.5l1,2.6l-5.4,2l-1-2.6
			l5.2-1.9L83.6,40.5L83.6,40.5z M78.7,42.8c0.3-0.1,4.3-1.6,4.6-1.7c0.1,0.3,0.6,1.6,0.7,1.8c-0.3,0.1-4.3,1.6-4.6,1.7
			C79.3,44.3,78.8,43,78.7,42.8L78.7,42.8z M125.2,39.3l0-0.2l3.9,0.5c0,0-2.5,20.7-2.6,21.1c0.4,0,8,1,8,1l-0.5,3.8L122.1,64
			L125.2,39.3L125.2,39.3z M125.5,39.6c0.3,0,2.8,0.4,3.2,0.4c0,0.4-2.6,21.1-2.6,21.1s7.6,0.9,8,1c0,0.3-0.3,2.7-0.4,3
			c-0.4,0-10.8-1.3-11.2-1.4C122.6,63.3,125.5,39.9,125.5,39.6L125.5,39.6z M148.3,43.9c1.6,0,3.2,0.3,5,0.9
			c2.4,0.9,4.2,2.3,5.6,4.1c1.3,1.8,2.1,3.9,2.2,6.3l0,0.3l-4.5-1.7l0-0.1c-0.4-1.2-1-2.3-1.8-3.2c-0.8-0.9-1.9-1.6-3.1-2.1
			c-1.1-0.4-2.1-0.6-3.3-0.5c-1.1,0-2.2,0.3-3.2,0.8c-1.1,0.5-2,1.2-2.9,2.1c-0.8,0.8-1.5,1.8-1.9,3c-0.4,1.1-0.7,2.4-0.7,3.6
			c0,1.2,0.2,2.3,0.6,3.4c0.4,1.1,1.1,2,2,2.9c0.8,0.8,1.8,1.4,2.8,1.8c1.7,0.7,3.4,0.8,5.1,0.4c1.6-0.4,3-1.2,4.5-2.6
			c-0.6-0.2-10.3-4-10.3-4l1.4-3.6l14.6,5.6l-0.1,0.2c-1.6,3.6-3.9,6.1-7,7.5c-3,1.4-6.3,1.5-9.7,0.2c-1.7-0.6-3.2-1.6-4.5-2.9
			c-1.2-1.2-2.1-2.7-2.8-4.5c-0.6-1.5-0.8-3.1-0.8-4.6c0-1.6,0.3-3.2,1-4.8c0.6-1.6,1.5-3,2.7-4.3c1.1-1.2,2.5-2.1,4.2-2.9
			C145.1,44.3,146.7,43.9,148.3,43.9L148.3,43.9z M143.8,68.7c-1.6-0.6-3.1-1.6-4.3-2.8c-1.1-1.1-2-2.6-2.7-4.4
			c-0.6-1.5-0.8-3-0.8-4.5c0-1.6,0.3-3.1,0.9-4.7c0.6-1.5,1.5-2.9,2.6-4.2c1-1.1,2.4-2.1,4.1-2.8c1.6-0.7,3.1-1,4.6-1
			c1.5,0,3.1,0.3,4.8,0.9c2.3,0.9,4.1,2.2,5.4,3.9c1.2,1.7,1.9,3.6,2.1,5.8c-0.5-0.2-3.6-1.4-3.8-1.4c-0.4-1.3-1-2.4-1.9-3.2
			c-0.9-0.9-2-1.6-3.3-2.2c-1.1-0.4-2.3-0.6-3.4-0.6c-1.1,0-2.3,0.3-3.4,0.8c-1.1,0.5-2.1,1.2-3,2.1c-0.8,0.8-1.5,1.9-2,3.1
			c-0.5,1.2-0.7,2.5-0.7,3.7c0,1.2,0.2,2.4,0.7,3.5c0.4,1.1,1.1,2.1,2.1,3c0.9,0.9,1.9,1.5,3,1.9c1.8,0.7,3.6,0.8,5.3,0.4
			c1.7-0.4,3.3-1.4,4.9-2.9l0.2-0.2c0,0-10.2-3.9-10.5-4.1c0.1-0.3,1-2.6,1.1-2.9c0.3,0.1,13.5,5.2,13.9,5.3
			c-1.5,3.4-3.8,5.8-6.7,7.1C150.2,69.9,147.2,70,143.8,68.7L143.8,68.7z M179.2,59l0.1-0.1l5.5,4.9c2.2,2,3.4,4,3.7,6.2
			c0.2,2.1-0.5,4.1-2.3,6.1c-1.4,1.5-3,2.4-4.9,2.5c-1.8,0.1-3.5-0.4-5.1-1.6c-0.1,0.6-1.1,11.8-1.1,11.8l-3.7-3.3
			c0,0,1.4-12.4,1.5-13.5c-0.7,0.8-7.4,8.2-7.4,8.2l-2.9-2.6L179.2,59L179.2,59z M179.3,59.4c0.3,0.2,5.2,4.6,5.2,4.6
			c2.1,1.9,3.3,3.9,3.6,5.9c0,0.2,0,0.5,0,0.7c0,1.8-0.7,3.4-2.2,5.1c-1.3,1.5-2.8,2.2-4.7,2.4c-1.8,0.1-3.5-0.4-5.1-1.7l-0.3-0.2
			c0,0-1,11-1.1,11.7c-0.5-0.4-2.9-2.6-3-2.7c0-0.2,1.6-14.5,1.6-14.5s-7.7,8.5-7.9,8.8c-0.2-0.2-2.1-1.9-2.3-2.1
			C163.4,77.2,179.1,59.7,179.3,59.4L179.3,59.4z M195.8,76l0.2-0.1l2.4,3.1l-20,15.1l-2.4-3.2L195.8,76L195.8,76z M195.9,76.4
			c0.2,0.3,1.7,2.3,1.9,2.5c-0.3,0.2-19.1,14.4-19.4,14.6c-0.2-0.3-1.7-2.3-1.9-2.6C176.8,90.7,195.6,76.6,195.9,76.4L195.9,76.4z
			 M197.3,88.7c2-0.9,3.8-1.1,5.6-0.5c1.7,0.6,3.1,1.9,4,3.7c0.8,1.8,0.9,3.5,0.3,5c-0.6,1.6-1.8,2.9-3.6,3.9l-0.2,0.1l-1.6-3.4
			l0.2-0.1c0.8-0.4,1.4-1.1,1.7-1.8c0.3-0.7,0.2-1.5-0.1-2.3c-0.4-0.8-1-1.4-1.8-1.6c-0.8-0.3-1.7-0.2-2.6,0.3
			c-0.4,0.2-0.6,0.3-0.8,0.6c-0.2,0.2-0.4,0.4-0.6,0.8c-0.3,0.6-0.3,1.7,0,3.3c0,0,0.3,1.8,0.3,1.8c0.1,1.8-0.1,3.3-0.9,4.6
			c-0.7,1.3-1.8,2.3-3.3,3c-2.2,1-4.3,1.2-6.2,0.6c-1.9-0.6-3.4-2-4.4-4c-0.9-2-1-3.8-0.3-5.7c0.8-1.8,2.2-3.3,4.3-4.2l0.2-0.1
			l1.5,3.2l-0.2,0.1c-1.1,0.6-1.8,1.3-2.2,2.2c-0.4,1-0.3,1.9,0.1,2.8c0.5,1,1.2,1.7,2.2,2.1c1,0.3,2,0.2,3.1-0.3
			c1-0.5,1.6-1,1.9-1.7c0.2-0.5,0.4-1.5,0.1-3.7l0-0.1c0,0,0-0.4,0-0.3c-0.4-2.1-0.2-3.9,0.6-5.3c0.3-0.6,0.7-1.1,1.2-1.7
			C196.1,89.4,196.6,89.1,197.3,88.7L197.3,88.7z M194.2,97.2l0-0.3c-0.4-2-0.2-3.7,0.5-5.1c0.3-0.6,0.6-1,1.2-1.6
			c0.5-0.4,1-0.8,1.7-1.1c1.9-0.9,3.7-1,5.3-0.4c1.7,0.6,2.9,1.7,3.7,3.5c0.4,1,0.7,1.9,0.7,2.8c0,0.7-0.1,1.3-0.4,1.9
			c-0.5,1.4-1.6,2.6-3.3,3.6c-0.2-0.3-1.2-2.5-1.3-2.7c0.8-0.5,1.4-1.1,1.7-1.9c0.1-0.4,0.2-0.7,0.2-1.1c0-0.5-0.1-1-0.3-1.5
			c-0.4-0.9-1.1-1.6-2-1.8c-0.9-0.3-1.9-0.2-2.9,0.3c-0.4,0.2-0.7,0.4-0.9,0.6c-0.2,0.2-0.5,0.5-0.6,0.9c-0.3,0.6-0.3,1.8-0.1,3.5
			l0.3,1.7c0.1,1.7-0.1,3.1-0.8,4.3c-0.7,1.3-1.7,2.2-3.2,2.9c-2.1,1-4.1,1.2-5.9,0.6c-1.8-0.6-3.2-1.9-4.1-3.8
			c-0.5-1.1-0.7-2.1-0.7-3.1c0-0.8,0.1-1.6,0.5-2.3c0.7-1.7,2-3,3.9-3.9c0.1,0.3,1.1,2.3,1.2,2.6c-1,0.6-1.8,1.3-2.2,2.3
			c-0.2,0.5-0.3,1-0.3,1.4c0,0.6,0.1,1.2,0.4,1.7c0.5,1.1,1.3,1.9,2.4,2.3c1.1,0.3,2.2,0.2,3.4-0.3c1.1-0.5,1.8-1.1,2.1-1.9
			c0.3-0.8,0.4-2.1,0.1-3.9C194.2,97.3,194.2,97.2,194.2,97.2L194.2,97.2z M169.5,53l0.1-0.2l3.4,2.1l-13.3,21.2l-3.4-2.1L169.5,53
			L169.5,53z M169.7,53.4c0.3,0.2,2.4,1.6,2.7,1.7c-0.2,0.3-12.7,20.2-12.9,20.5c-0.3-0.2-2.4-1.5-2.7-1.7
			C157.1,73.7,169.5,53.7,169.7,53.4z"/>
	</g>
	<path class="st4" d="M116.5,153.9L116.5,153.9L116.5,153.9z"/>
	<path class="st4" d="M116.5,153.9L116.5,153.9L116.5,153.9z"/>
	<path class="st4" d="M116.5,153.9C116.5,153.9,116.5,153.9,116.5,153.9L116.5,153.9z"/>
	<path class="st4" d="M116.5,153.9C116.5,153.9,116.5,153.9,116.5,153.9C116.5,153.9,116.5,153.9,116.5,153.9z"/>
	<path class="st4" d="M163.9,156.7"/>
</g>
</svg>
