<?xml version="1.0" encoding="utf-8"?>
<!-- Generator: Adobe Illustrator 22.1.0, SVG Export Plug-In . SVG Version: 6.00 Build 0)  -->
<svg version="1.1" id="Layer_1" xmlns="http://www.w3.org/2000/svg" xmlns:xlink="http://www.w3.org/1999/xlink" x="0px" y="0px"
	 width="300px" height="312.2px" viewBox="0 0 300 312.2" style="enable-background:new 0 0 300 312.2;" xml:space="preserve">
<style type="text/css">
	.st0{fill:#FFFFFF;}
	.st1{fill:#021DE5;}
</style>
<g id="Layer_2_1_">
</g>
<g id="Layer_1_1_">
	<path class="st0" d="M296.6,73.4l-4-1.3c-8.9-2.8-17.7-5.4-26.6-7.7c0.2-5.9,0.3-11.7,0.5-17.6c0.2-8.7,0.5-17.3,0.8-26.2v-0.1
		l0.2-5.6c0-1.1-1-2-2.1-1.7l-5.5,1.4c-24.5,6-43.3,0.5-64.5-5.7c-8-2.3-16.3-4.8-25.6-6.8c-9.2-2-19.3-2.6-29-1.7
		c-2.1,0.2-4,0.4-5.6,0.7c-1.7,0.3-3.5,0.6-5.5,1l0,0c-9.5,2.1-17.8,4.6-25.8,6.9C83.1,15.2,65,20.6,40.6,14.6l-5.5-1.4
		C34,12.9,33,13.8,33,14.9l0.2,5.6c0.3,8.9,0.5,17.6,0.8,26.3c0.2,6.1,0.3,12.1,0.5,18.2c-7.2,1.9-14.3,4-21.4,6.3l-0.3,0.1
		l-3.5,1.1L8.5,76L1,107.7l-0.9,3.2l2.1,2.5l18.6,22.3l2.7,3.3l3.7-1.1c3.9-1.2,7.8-2.3,11.6-3.4c2.4,20.2,6,40.1,11.9,59.7l0,0
		c2.1,7.1,4.6,14.2,7.4,21.2c2.8,6.9,5.8,13.6,9.2,20c10,19.2,22.8,36.2,38.9,50.1c12.8,10.8,27.4,19.7,43.9,26.6l2.3-0.9l0,0h0.1
		c0.3-0.1,0.5-0.2,0.8-0.3c12.6-5.6,24.2-12.5,34.7-20.6c0.9-0.7,1.8-1.4,2.6-2.1c28.8-23.7,47.9-57.1,58.9-94
		c5.8-19.6,9.5-39.5,11.9-59.7c0,0,0.1-1,0.2-1.8l0,0v-0.1c3.9,1.1,7.8,2.4,11.8,3.6l4,1.3l2.8-3.2l18.1-20.9l1.8-2L296.6,73.4z"/>
	<path class="st1" d="M149.5,30.5h2.1c0.2,0,0.4-0.2,0.4-0.4v-3.7c0-0.2,0.2-0.4,0.4-0.4l0,0c1,0,2.3-0.3,3.1-1.1l0,0
		c0.7-0.7,1.2-1.8,1.2-3.2c0-1-0.3-2.1-1.1-2.8l0,0c-0.9-0.8-2.1-1-3.7-1c-0.8,0-1.7,0.1-2.4,0.2c-0.2,0-0.3,0.2-0.3,0.4v11.7
		C149.1,30.3,149.3,30.5,149.5,30.5z M152,20.6c0-0.2,0.2-0.4,0.4-0.4c0.1,0,0.1,0,0.2,0c0.9,0,1.3,0.7,1.3,1.8
		c0,0.9-0.4,1.7-1.5,1.8c-0.1,0-0.2,0-0.3-0.1s-0.1-0.2-0.1-0.3L152,20.6L152,20.6z"/>
	<path class="st1" d="M128.1,31.4l2-0.1c0.2,0,0.3-0.2,0.4-0.4l0.2-1.8c0-0.2,0.2-0.3,0.4-0.4l1.4-0.1c0.2,0,0.4,0.1,0.4,0.3
		l0.4,1.8c0,0.2,0.2,0.3,0.4,0.3l2-0.1c0.1,0,0.2-0.1,0.3-0.2s0.1-0.2,0.1-0.3l-3-11.6c0-0.2-0.2-0.3-0.4-0.3l-2.8,0.2
		c-0.2,0-0.3,0.2-0.4,0.3l-1.8,12c0,0.1,0,0.2,0.1,0.3C127.9,31.4,128,31.4,128.1,31.4z M131,24.1c0.1-0.7,0.2-2.1,0.2-2.9l0,0
		c0.2,0.8,0.4,2.1,0.6,2.8l0.4,1.9c0,0.1,0,0.2-0.1,0.3c-0.1,0.1-0.2,0.1-0.3,0.2h-0.6c-0.1,0-0.2,0-0.3-0.1s-0.1-0.2-0.1-0.3
		L131,24.1z"/>
	<path class="st1" d="M141.2,30.7h2.1c0.2,0,0.4-0.2,0.4-0.4l-0.2-11.8c0-0.2-0.2-0.4-0.4-0.4H141c-0.2,0-0.4,0.2-0.4,0.4l0.2,11.8
		C140.8,30.5,140.9,30.7,141.2,30.7z"/>
	<path class="st1" d="M169.9,67.6c0.7,0,1.2-0.5,1.2-1.2v-2c0-0.7-0.5-1.2-1.2-1.2l-9.6-0.2c-0.7,0-1.2,0.5-1.2,1.2v2
		c0,0.7,0.5,1.2,1.2,1.2L169.9,67.6z"/>
	<path class="st1" d="M123.9,31.5l-0.1-1.6c0-0.1-0.1-0.2-0.1-0.3c-0.1-0.1-0.2-0.1-0.3-0.1l-2.3,0.2c-0.2,0-0.4-0.1-0.4-0.4
		l-0.8-9.3c0-0.1-0.1-0.2-0.1-0.3c-0.1-0.1-0.2-0.1-0.3-0.1l-2.1,0.2c-0.2,0-0.4,0.2-0.4,0.4l1,11.7c0,0.2,0.2,0.4,0.4,0.4l5.2-0.5
		C123.7,32,123.9,31.8,123.9,31.5z"/>
	<path class="st1" d="M174,70.7l-5.2-0.1c-0.7,0-1.2,0.5-1.2,1.2l-0.3,19.9c-0.1,4.6-1.2,5.6-2.6,5.6c-1.4,0-2.5-1.3-2.4-5.7
		l0.3-19.9c0-0.7-0.5-1.2-1.2-1.2l-5.2-0.1c-0.7,0-1.2,0.5-1.2,1.2l-0.3,18.5c-0.1,8.3,2.2,13.7,9.9,13.9c7,0.1,10.2-5,10.3-13.4
		l0.3-18.6C175.1,71.3,174.6,70.8,174,70.7z"/>
	<path class="st1" d="M139.9,70.7l-16.7,0.6c-0.7,0-1.2,0.6-1.2,1.2l0.2,4.6c0,0.7,0.6,1.2,1.2,1.2l3.3-0.1c0.7,0,1.2,0.5,1.2,1.2
		l0.8,23.5c0,0.7,0.6,1.2,1.2,1.2l5.2-0.2c0.7,0,1.2-0.6,1.2-1.2l-0.8-23.5c0-0.7,0.5-1.2,1.2-1.2l3.4-0.1c0.7,0,1.2-0.6,1.2-1.2
		l-0.2-4.6C141.2,71.2,140.6,70.7,139.9,70.7z"/>
	<path class="st1" d="M110.1,26.4c-0.1-0.1-0.1-0.2,0-0.3l1.7-5c0-0.1,0-0.3-0.1-0.4s-0.2-0.2-0.4-0.1l-2.2,0.3
		c-0.2,0-0.3,0.1-0.3,0.3l-0.8,3.7c-0.1,0.6-0.2,1.2-0.3,1.7h-0.1l-0.6-5.1c0-0.2-0.2-0.4-0.4-0.3l-2.1,0.3c-0.2,0-0.4,0.2-0.3,0.4
		l1.4,11.7c0,0.2,0.2,0.4,0.4,0.3l2.1-0.3c0.2,0,0.4-0.2,0.3-0.4l-0.4-3.4c0-0.1,0-0.1,0-0.2l0,0c0.1-0.2,0.2-0.3,0.4-0.3
		c0.2,0,0.3,0.1,0.4,0.2l1.6,3.5c0.1,0.2,0.2,0.3,0.4,0.2L113,33c0.1,0,0.2-0.1,0.3-0.2c0.1-0.1,0.1-0.3,0-0.4L110.1,26.4z"/>
	<path class="st1" d="M42.6,84.2L42.6,84.2L42.6,84.2L42.6,84.2z"/>
	<path class="st1" d="M42.9,84.2c-0.1-0.6-0.8-1-1.4-0.9l-4.1,0.9c-0.6,0.1-1,0.8-0.9,1.4l0.9,4c1.4,6.1,3.4,12.2,4.2,14.8h-0.1
		c-1.4-2.3-3.8-6-5.1-7.8l-6.7-9.9c-0.3-0.4-0.8-0.6-1.3-0.5l-4.8,1.1c-0.6,0.1-1,0.8-0.9,1.4l6.9,29.8c0.1,0.6,0.8,1,1.4,0.9
		l4.1-0.9c0.6-0.1,1-0.8,0.9-1.4l-1-4.3c-1.5-6.3-3-11.5-3.7-14.3h0.1c1.1,2.2,3.6,6.1,5.1,8.4l6.4,9.1c0.3,0.4,0.8,0.6,1.3,0.5
		l4.8-1.1c0.6-0.1,1-0.8,0.9-1.4L42.9,84.2z M42.6,84.2L42.6,84.2L42.6,84.2L42.6,84.2z"/>
	<path class="st1" d="M184.5,32.5l2,0.3c0.2,0,0.4-0.1,0.4-0.3l0.6-1.8c0.1-0.2,0.2-0.3,0.4-0.3l1.4,0.2c0.2,0,0.3,0.2,0.3,0.4v1.8
		c0,0.2,0.1,0.4,0.3,0.4l2,0.3c0.1,0,0.2,0,0.3-0.1s0.1-0.2,0.1-0.3l-0.5-12c0-0.2-0.1-0.4-0.3-0.4l-2.8-0.4c-0.2,0-0.4,0.1-0.4,0.3
		l-4.1,11.3c0,0.1,0,0.2,0,0.3C184.3,32.4,184.4,32.4,184.5,32.5z M188.3,27.8l0.6-1.9c0.2-0.7,0.6-2,0.8-2.8l0,0c0,0.8,0,2.2,0,2.9
		v2c0,0.1,0,0.2-0.1,0.3c-0.1,0.1-0.2,0.1-0.3,0.1l-0.6-0.1c-0.1,0-0.2-0.1-0.3-0.2C188.3,28,188.3,27.9,188.3,27.8z"/>
	<path class="st1" d="M78.7,103.6c-0.1-0.7-0.7-1.1-1.4-1l-5.6,1c-0.6,0.1-1.3-0.3-1.4-1l-0.9-5c-0.1-0.7,0.3-1.3,1-1.4l4.7-0.8
		c0.7-0.1,1.1-0.7,1-1.4l-0.7-3.8c-0.1-0.7-0.7-1.1-1.4-1L69.3,90c-0.6,0.1-1.3-0.3-1.4-1l-0.7-3.7c-0.1-0.7,0.3-1.3,1-1.4l5.1-0.9
		c0.7-0.1,1.1-0.7,1-1.4l-0.7-4.1c-0.1-0.6-0.7-1.1-1.4-1L59.7,79c-0.7,0.1-1.1,0.7-1,1.4l5.3,30.1c0.1,0.7,0.7,1.1,1.4,1l13-2.3
		c0.7-0.1,1.1-0.7,1-1.4L78.7,103.6z"/>
	<path class="st1" d="M161.8,30.8L167,31c0.2,0,0.4-0.2,0.4-0.4l0.1-1.7c0-0.1,0-0.2-0.1-0.3c-0.1-0.1-0.2-0.1-0.3-0.1l-2.3-0.1
		c-0.2,0-0.4-0.2-0.4-0.4l0.1-2c0-0.2,0.2-0.4,0.4-0.4l1.9,0.1c0.2,0,0.4-0.2,0.4-0.4l0.1-1.6c0-0.2-0.2-0.4-0.4-0.4l-1.9-0.1
		c-0.2,0-0.4-0.2-0.4-0.4l0.1-1.6c0-0.2,0.2-0.4,0.4-0.4l2.1,0.1c0.2,0,0.4-0.2,0.4-0.4l0.1-1.7c0-0.1,0-0.2-0.1-0.3
		c-0.1-0.1-0.2-0.1-0.3-0.1l-5-0.2c-0.2,0-0.4,0.2-0.4,0.4l-0.4,11.8C161.4,30.6,161.6,30.8,161.8,30.8z"/>
	<path class="st1" d="M164.7,17.5L164.7,17.5c0.7,0,1.4-0.6,1.4-1.3c0-0.7-0.6-1.4-1.3-1.4s-1.3,0.6-1.4,1.3
		C163.4,16.9,164,17.5,164.7,17.5z"/>
	<path class="st1" d="M172.8,31.3c0.5,0.1,1.2,0.2,1.8,0.2c1.9,0.1,3.2-0.2,4.1-0.9c1.3-0.9,2-2.8,2.2-5.2c0.2-2.3-0.2-4.1-1.2-5.2
		c-0.8-0.9-1.9-1.3-3.6-1.5c-0.9-0.1-1.8,0-2.4,0c-0.2,0-0.3,0.2-0.4,0.4l-0.8,11.6C172.5,31.1,172.6,31.3,172.8,31.3z M176,21.6
		c0-0.2,0.2-0.4,0.4-0.4l0,0c1.2,0.1,1.7,1.6,1.5,3.9c-0.2,3.1-1.1,4.2-2.1,4.1c-0.1,0-0.2-0.1-0.3-0.1c-0.1-0.1-0.1-0.2-0.1-0.3
		L176,21.6z"/>
	<path class="st1" d="M107.1,75.1L107.1,75.1c-2.5-1.9-5.7-2.1-9.9-1.7c-2.2,0.2-4.4,0.6-6.2,1c-0.6,0.1-1,0.7-0.9,1.3l2.6,30.1
		c0.1,0.7,0.6,1.1,1.3,1.1l5.1-0.4c0.7-0.1,1.1-0.6,1.1-1.3l-0.8-9.3c-0.1-0.7,0.4-1.2,1.1-1.3c2.5-0.2,5.8-1.4,7.8-3.6l0,0
		c1.7-2.1,2.7-4.9,2.4-8.7C110.5,79.5,109.4,76.7,107.1,75.1z M100.2,88.5c-0.3,0.1-0.7,0-0.9-0.2c-0.3-0.2-0.4-0.5-0.5-0.8
		l-0.6-6.8c-0.1-0.6,0.4-1.2,1-1.3c0.1,0,0.2,0,0.2,0c2.4-0.2,3.7,1.6,3.9,4.3C103.5,85.8,102.8,88,100.2,88.5z"/>
	<path class="st1" d="M241.8,79.4l-7.1-1.3c-0.6-0.1-1.1,0.2-1.3,0.7l-11.7,29c-0.1,0.3-0.1,0.7,0.1,1c0.2,0.3,0.5,0.5,0.8,0.6
		l4.8,0.8c0.6,0.1,1.1-0.2,1.3-0.8l1.6-4.3c0.2-0.6,0.8-0.9,1.3-0.8l3.3,0.6c0.6,0.1,1,0.6,1,1.2v4.6c0,0.6,0.4,1.1,1,1.2l4.8,0.8
		c0.4,0.1,0.7,0,1-0.3c0.3-0.2,0.4-0.6,0.4-0.9l-0.2-31.1C242.7,80,242.3,79.5,241.8,79.4z M236.5,93.1l-0.2,4.9
		c0,0.4-0.2,0.7-0.4,0.9c-0.3,0.2-0.6,0.3-1,0.2l-1.2-0.2c-0.4-0.1-0.6-0.3-0.8-0.6c-0.2-0.3-0.2-0.7-0.1-1l1.6-4.7
		c0.6-1.7,1.7-5.2,2.4-7.2h0.1C236.8,87.6,236.6,91.2,236.5,93.1z"/>
	<path class="st1" d="M178.1,41.7c-9.2-1.2-17.6-1.8-25.7-1.8c-9.6,0-19.1,0.8-30.8,2.7l-1.6,7.1l3.5,7.7c4.2-0.2,8-0.4,11.7-0.6
		c7-0.4,13.7-0.8,21-0.8c6.4,0,12.7,0.3,19.8,0.9l3.9-6.9L178.1,41.7z M137.8,52.4c0,0.2-0.2,0.4-0.4,0.4h-1.6
		c-0.2,0-0.4-0.2-0.4-0.4v-7.5l0,0l-1.3,0.6c-0.1,0.1-0.2,0.1-0.4,0c-0.1-0.1-0.2-0.2-0.2-0.3l-0.2-1.1c0-0.2,0-0.4,0.2-0.4l2-1
		c0.1,0,0.1,0,0.2,0h1.6c0.2,0,0.4,0.2,0.4,0.4L137.8,52.4L137.8,52.4z M146.6,51.7c-0.6,0.6-1.5,1-2.6,1.2c-0.2,0-0.4,0-0.6,0
		c-0.2,0-0.4-0.2-0.4-0.4v-1.2c0-0.2,0.2-0.4,0.4-0.4s0.4,0,0.6-0.1l0,0c0.3-0.1,0.8-0.2,1.1-0.5c0.4-0.3,0.7-1,0.9-1.7l0,0
		c-0.3,0.3-0.7,0.5-1.4,0.5c-1.3,0-2.5-1.2-2.5-3c0-1.7,1.1-3.6,3.2-3.6c1.9,0,3,1.7,3,4.2C148.4,49.2,147.5,50.8,146.6,51.7z
		 M154.5,52.9c-2,0-3.3-1.6-3.3-4.2c0-2.3,0.8-3.8,1.8-4.8c0.7-0.7,1.7-1.1,2.5-1.3l0,0c0.3,0,0.5-0.1,0.7-0.1c0.1,0,0.2,0,0.3,0.1
		s0.1,0.2,0.1,0.3V44c0,0.2-0.2,0.4-0.4,0.4s-0.4,0-0.5,0.1c-1.2,0.2-1.9,1.1-2.1,2.3h0.1c0.3-0.4,0.9-0.7,1.5-0.7
		c1.4,0,2.3,1.2,2.3,3.1C157.5,51,156.6,52.9,154.5,52.9z M166.7,50.2c0,0.2-0.2,0.4-0.4,0.4h-0.2c-0.2,0-0.4,0.2-0.4,0.4v1.5
		c0,0.2-0.2,0.4-0.4,0.4H164c-0.2,0-0.4-0.2-0.4-0.4V51c0-0.2-0.2-0.4-0.4-0.4h-2.7c-0.2,0-0.4-0.2-0.4-0.4V49c0-0.1,0-0.1,0-0.2
		l3.2-5.9c0.1-0.1,0.2-0.2,0.4-0.2h1.7c0.2,0,0.4,0.2,0.4,0.4v5.2c0,0.2,0.2,0.4,0.4,0.4h0.2c0.2,0,0.4,0.2,0.4,0.4L166.7,50.2
		L166.7,50.2z"/>
	<path class="st1" d="M211.8,74.3l-4.2-0.4c-0.7-0.1-1.2,0.4-1.3,1.1l-0.4,4.1c-0.7,6.2-0.8,12.6-0.9,15.3h-0.1
		c-0.6-2.6-1.7-6.9-2.3-9.1l-3.2-11.5c-0.1-0.5-0.5-0.8-1-0.9l-4.9-0.5c-0.7-0.1-1.2,0.4-1.3,1.1l-3.2,30.4
		c-0.1,0.7,0.4,1.2,1.1,1.3l4.2,0.4c0.7,0.1,1.2-0.4,1.3-1.1l0.5-4.4c0.7-6.4,1-11.9,1.1-14.7h0.1c0.3,2.5,1.4,7,2.1,9.6l3,10.7
		c0.1,0.5,0.5,0.8,1,0.9l4.9,0.5c0.7,0.1,1.2-0.4,1.3-1.1l3.2-30.4C212.9,75,212.4,74.4,211.8,74.3z"/>
	<path class="st1" d="M275.6,93.4l1.6-3.8c0.2-0.5,0.1-1.1-0.4-1.5c-1-0.7-2.5-1.4-4.2-1.8c-7.4-1.8-12,1.9-13.3,7.1
		c-0.6,2.4-0.6,6.1,3.8,10.5c2.4,2.4,3.5,3.6,3,5.6c-0.4,1.6-1.9,2.5-4.7,1.9c-1.4-0.3-2.9-1-4.1-1.7c-0.3-0.2-0.7-0.2-1-0.1
		s-0.6,0.3-0.7,0.7L254,114c-0.2,0.5,0,1.1,0.4,1.5c1.2,0.8,3.2,1.7,5.3,2.2c6.7,1.7,12.2-1.2,13.7-7.2c0.8-3.3,0.2-7-3.6-10.6
		c-3.1-2.9-3.5-4-3.2-5.4c0.4-1.5,1.9-2.5,4.3-1.8c1.1,0.3,2,0.7,2.8,1.2c0.3,0.2,0.7,0.3,1,0.2C275.2,93.9,275.5,93.7,275.6,93.4z"
		/>
	<path class="st1" d="M154.4,47.8c-0.2,0-0.5,0.2-0.6,0.5l0,0c-0.1,0.1-0.1,0.5-0.1,1c0,1,0.3,1.9,0.8,1.9l0,0c0.7,0,0.7-1,0.7-2
		l0,0C155.1,48.7,155,47.8,154.4,47.8z"/>
	<path class="st1" d="M145.2,44.3L145.2,44.3c-0.5,0-0.7,0.7-0.7,1.7c0,0.8,0.2,1.6,0.8,1.6c0.2,0,0.4-0.1,0.5-0.3
		c0,0,0-0.1,0.1-0.1C146,47,146,46.7,146,46C145.9,45,145.7,44.3,145.2,44.3z"/>
	<path class="st1" d="M163,46.8L163,46.8l-0.9,1.8l0,0h1.1c0.2,0,0.4-0.2,0.4-0.4v-1.3c0-0.5,0.1-1,0.1-1.5l0,0
		C163.5,45.8,163.3,46.3,163,46.8z"/>
	<path class="st1" d="M174,275.3c0.9-0.4,1.7-0.9,2.6-1.4l0,0c0.2-0.1,0.4-0.3,0.4-0.5c0.1-0.2,0.1-0.4,0.1-0.7l0,0
		c0-1.3-1.2-3.5-2.2-5.1c-0.3-0.5-0.5-0.9-0.6-1.1c0-0.1-0.1-0.2-0.2-0.3l0,0c-1.8-3.5-3.4-7.1-4.8-10.8l0,0
		c-0.3-0.8-0.6-1.5-0.8-2.1c-0.2-0.7-0.5-1.4-0.8-2.1l0,0l0,0l0,0c-0.3-0.8-0.5-1.5-0.6-2c-0.7-2.3-0.9-3.1-4.6-2.8
		c-1.8,0.1-3.7,0.2-5.7,0.2h-1.1l0,0h-0.5h-0.7H154h-0.1h-0.1l0,0c-0.1,0-0.2,0.1-0.3,0.1l0,0c-0.1,0.1-0.2,0.2-0.3,0.3
		c-0.1,0.2-0.2,0.5-0.2,0.9l0,0v29.9c0,0.6,0.2,1.3,0.5,1.9c0.3,0.5,1,1,2.1,1l0,0c0.1,0,0.1,0,0.2,0l0,0c0,0,0.1,0,0.3,0
		c5.3-0.6,10.4-2,15.1-4.1C172.3,276.2,173.2,275.7,174,275.3z"/>
	<path class="st1" d="M172.7,246.1L172.7,246.1c0,0.1,0,0.1,0,0.1v0.1c1.2,3.7,2.6,7.5,4.2,11.2c0.3,0.8,0.6,1.5,1,2.2
		c0.4,0.8,0.7,1.5,1,2.1l0,0c0.2,0.4,0.4,0.8,0.6,1.3c0.7,1.7,1.7,3.8,2.9,4.6l0,0l0,0l0,0c0.2,0.1,0.3,0.2,0.5,0.2s0.3,0.1,0.5,0.1
		c0.6,0,1.3-0.3,1.8-0.6l0,0c0.1-0.1,0.2-0.1,0.3-0.2l0,0c0.1-0.1,0.2-0.1,0.2-0.2l0,0l0.1-0.1l0.3-0.3c0.1-0.1,0.3-0.3,0.5-0.5l0,0
		c5.2-5.1,9.2-11.3,11.9-18.1c0.5-1.3,1-2.7,1.4-4.1c0.4-1.4,0.7-2.8,1-4.2c0-0.1,0-0.2,0-0.3l0,0v-0.1c0-0.1,0-0.3,0-0.4l0,0l0,0
		l0,0l0,0c0-0.5,0.3-0.5,0.3-0.5c-0.5,0-1.8,0.7-2.8,1.2c-0.5,0.3-0.9,0.5-1.2,0.6l0,0c-3.8,1.5-7.7,2.5-11.8,3.3
		c-4,0.8-8,1.3-11.8,1.8c-0.2,0.1-0.6,0.2-0.8,0.5l0,0l-0.1,0.1l0,0C172.7,246,172.7,246,172.7,246.1L172.7,246.1z"/>
	<path class="st1" d="M146.7,247.1c-0.1-0.1-0.2-0.2-0.3-0.3l0,0c-0.1-0.1-0.2-0.1-0.2-0.1h-0.1H146l0,0l0,0h-0.5h-0.7
		c-1.5,0-3-0.1-4.5-0.1h-1l0,0l-1-0.1l0,0h-0.1l0,0c-4.2-0.2-4.3,0.1-5.3,2.9c-0.1,0.3-0.2,0.7-0.4,1.1c-1.3,3.8-2.8,7.6-4.5,11.4
		c-0.3,0.8-0.7,1.5-1,2.2s-0.7,1.4-1.1,2.2l0,0l0,0c-0.3,0.7-0.7,1.3-1,1.9c-0.8,1.4-1.5,2.7-1.9,4.3l0,0c0,0.1-0.1,0.2-0.1,0.3l0,0
		c0,0.1,0,0.2,0,0.3c0,0.2,0,0.5,0.1,0.6c0.1,0.2,0.2,0.3,0.4,0.5c4.4,2.6,9.2,4.6,14.3,5.8c1,0.2,2,0.5,3,0.6c1,0.2,2,0.3,3.1,0.5
		c0.1,0,0.2,0,0.3,0l0,0c0.1,0,0.2,0,0.2,0l0,0c1.1,0,1.7-0.4,2.1-1c0.4-0.6,0.5-1.4,0.5-1.9V248l0,0
		C146.9,247.6,146.8,247.3,146.7,247.1L146.7,247.1z"/>
	<path class="st1" d="M126.4,248.7c0.3-0.8,0.5-1.6,0.8-2.4v-0.1l0,0v-0.1l0,0c0-0.3-0.4-0.5-0.7-0.7l0,0c-0.1,0-0.1-0.1-0.2-0.1
		l0,0h-0.1c-6.6-0.8-12.5-1.8-17.5-3.2c-1-0.3-1.9-0.5-2.8-0.8s-1.8-0.6-2.6-0.9l0,0l0,0l0,0c-0.5-0.2-1.2-0.5-1.8-0.8
		c-1-0.5-2-1-2.5-1c-0.1,0-0.1,0.3,0,1.1c0.2,1,0.4,1.9,0.6,2.9c0.1,0.2,0.1,0.4,0.1,0.6l0,0l0.2,0.6l0,0l0,0l0,0
		c1.7,6.2,4.6,11.9,8.4,16.9c0.7,1,1.5,1.9,2.3,2.8s1.6,1.8,2.5,2.7l0,0l0,0l0,0c0.1,0.1,0.3,0.3,0.5,0.5l0,0l0.3,0.3
		c0.3,0.2,0.9,0.7,1.5,0.9c0.1,0,0.2,0.1,0.4,0.1c0.1,0,0.3,0,0.4,0.1l0,0c0.1,0,0.1,0,0.1,0c1.5,0,2.6-2.2,3.3-3.9
		c0.1-0.3,0.3-0.6,0.4-0.8l0,0l0.1-0.1l0,0c2-4,3.7-8,5.2-12.1C125.9,250.3,126.1,249.5,126.4,248.7z"/>
</g>
<g id="Layer_3">
	<path class="st1" d="M296.5,73.5l-4-1.3c-8.9-2.8-17.7-5.4-26.6-7.7c0.2-5.9,0.3-11.7,0.5-17.6c0.2-8.7,0.5-17.3,0.8-26.2v-0.1
		l0.2-5.6c0-1.1-1-2-2.1-1.7l-5.5,1.4c-24.5,6-43.3,0.5-64.5-5.7c-8-2.3-16.3-4.8-25.6-6.8c-9.2-2-19.3-2.6-29-1.7
		c-2.1,0.2-4,0.4-5.6,0.7c-1.7,0.3-3.5,0.6-5.5,1l0,0c-9.5,2.1-17.8,4.6-25.8,6.9C83,15.3,64.9,20.7,40.5,14.7L35,13.3
		c-1.1-0.3-2.1,0.6-2.1,1.7l0.2,5.6c0.3,8.9,0.5,17.6,0.8,26.3c0.2,6.1,0.3,12.1,0.5,18.2c-7.2,1.9-14.3,4-21.4,6.3l-0.3,0.1
		l-3.5,1.1l-0.8,3.5l-7.5,31.7L0,111l2.1,2.5l18.6,22.3l2.7,3.3l3.7-1.1c3.9-1.2,7.8-2.3,11.6-3.4c2.4,20.2,6,40.1,11.9,59.7l0,0
		c2.1,7.1,4.6,14.2,7.4,21.2c2.8,6.9,5.8,13.6,9.2,20c10,19.2,22.8,36.2,38.9,50.1c12.8,10.8,27.4,19.7,43.9,26.6l2.3-0.9l0,0h0.1
		c0.3-0.1,0.5-0.2,0.8-0.3c12.6-5.6,24.2-12.5,34.7-20.6c0.9-0.7,1.8-1.4,2.6-2.1c28.8-23.7,47.9-57.1,58.9-94
		c5.8-19.6,9.5-39.5,11.9-59.7c0,0,0.1-1,0.2-1.8l0,0v-0.1c3.9,1.1,7.8,2.4,11.8,3.6l4,1.3l2.8-3.2l18.1-20.9l1.8-2L296.5,73.5z
		 M108.7,280.1c-1.7-1.5-3.4-3-5-4.6c-12.2-11.8-22.7-26-31.2-42.4c-3.2-6-6.1-12.5-8.7-19.1c-2.6-6.5-4.9-13.3-7-20.3l0,0
		c-0.1-0.3-0.2-0.6-0.3-0.9c0.2,0,44.4,0,44.4,0c-1.5,2-2.9,4-4.1,6.1c-1.6,2.8-3,5.6-4.1,8.6c-1.1,2.9-2.1,6-2.7,9.2
		c-0.8,4-1.3,8.1-1.3,12.4c0,16.8,6.9,31.9,18,42.9c3.7,3.6,7.9,6.8,12.4,9.5c4.6,2.6,9.5,4.7,14.7,6.1c4.9,1.3,10,2.1,15.2,2.2v16
		C133.7,299,120.3,290.4,108.7,280.1z M196.9,262.8c-3,4.1-6.6,7.7-10.5,10.9c-4,3.1-8.4,5.8-13.1,7.8c-7.1,3.1-14.9,4.7-23.2,4.7
		l0,0l0,0l0,0c-7.1,0-13.9-1.3-20.3-3.6c-6.3-2.3-12.1-5.7-17.1-9.9c-5-4.2-9.4-9.2-12.7-14.9c-5-8.5-7.9-18.3-7.9-28.9
		c0-5.3,0.7-10.5,2.1-15.4c0.8-2.9,1.8-5.6,3.1-8.3c1.2-2.7,2.7-5.2,4.3-7.6c6.4-9.7,15.8-17.3,26.8-21.7l0,0c0.1,0,0.2-0.1,0.4-0.1
		c0.7-0.2,1.5,0,2.1,0.3s1.1,0.9,1.3,1.5c0.1,0.1,0.1,0.3,0.2,0.4l0,0l0,0c0.1,0.2,0.1,0.5,0.1,0.7l0,0c0,0.2,0,0.5-0.1,0.7
		c-0.2,1.1-1.1,2-2.2,2.3c-0.9,0.4-1.7,0.7-2.6,1.1c-0.8,0.4-1.7,0.8-2.5,1.3c-4.3,2.3-8.2,5.2-11.6,8.6l0,0l0,0l0,0
		c-1.3,1.3-2.6,2.7-3.7,4.1c-1.2,1.4-2.3,2.9-3.3,4.5c-5.2,8-8.2,17.4-8.2,27.6c0,0.3,0,0.5,0,0.7c0.1,0.1,0.2,0.2,0.3,0.3
		c0.2,0.2,0.3,0.3,0.5,0.4l0,0c0.3,0.2,0.6,0.4,0.9,0.6l0,0c0.4,0.2,0.7,0.4,1,0.6l0,0l0,0c0.3,0.2,0.7,0.4,1.1,0.6
		c0.4,0.2,0.8,0.4,1.2,0.6c2.3,1,5.2,2,8.6,2.8l0,0l0,0l0,0c0.7,0.2,1.3,0.3,2,0.5s1.4,0.3,2.1,0.4c3.6,0.7,7.6,1.3,12,1.8
		c0.3,0,0.7-0.1,1-0.2c0.3-0.2,0.6-0.6,0.8-1.4l0,0l0,0l0,0c0.6-2.2,1.1-4.3,1.5-6.4c0.4-2.1,0.8-4.3,1.2-6.4
		c1.8-11,2.5-21.8,2.5-31.8l0,0v-0.1c0-1.7,0-3.2,0-4.7s-0.1-3-0.1-4.6l0,0l0,0l0,0v-0.1c0-0.5,0-1.1-0.1-1.7c0-0.4-0.1-0.9-0.1-1.5
		l0,0l0,0v-0.1l0,0v-0.1l0,0V179l0,0v-0.1l0,0l0,0v-0.3v-0.1l0,0l0,0l0,0l0,0v-0.4v-0.4c0-0.7-0.1-1.5-0.2-2.2l0,0v-0.4l-0.1-0.8
		l0,0l-0.1-1.1c0-0.5-0.1-1.1-0.2-1.8l0,0l-0.1-0.8l0,0c-0.1-1.2-0.2-2.5-0.4-3.7c-0.1-1.1-0.3-2.3-0.4-3.5
		c-0.7-5.8-1.5-10.6-2.2-14l0,0c-0.1-0.5-0.3-0.8-0.5-0.9c-0.2-0.1-0.6-0.2-1-0.2l0,0l0,0l0,0l0,0l0,0c-0.2,0-0.3,0-0.5,0l0,0h-0.1
		l0,0c-0.1,0-0.3,0-0.3,0.1l-1.1,0.3l0,0l0,0h-0.1l0,0h-0.1l0,0c-0.3,0.1-0.6,0.1-0.9,0.1l0,0c-0.4,0-0.7,0-1-0.1
		c-0.1,0-0.2-0.1-0.3-0.1c-0.1,0-0.2-0.1-0.3-0.1c-0.3-0.1-0.5-0.3-0.7-0.6l0,0l0,0l0,0c-0.1-0.1-0.2-0.2-0.2-0.3l0,0
		c-0.1-0.1-0.1-0.2-0.2-0.3l0,0c-0.3-0.5-0.4-1.1-0.4-1.7c0-0.1,0-0.2,0-0.3l0,0c0-0.1,0-0.2,0-0.3l0,0l2.4-17.2l0,0v-0.1l0,0
		c0-0.2,0.1-0.3,0.1-0.5s0.1-0.3,0.2-0.5l0,0c0.4-0.9,1.1-1.5,2.2-1.6l0,0c0.5,0,1,0.2,1.4,0.4c0.4,0.2,0.7,0.6,1,0.9l0,0l10.5,13.1
		l0,0l0,0c0.1,0.1,0.1,0.2,0.2,0.3l0,0c0.1,0.1,0.1,0.2,0.2,0.3l0,0c0.3,0.6,0.5,1.1,0.5,1.7l0,0c0,0.1,0,0.3,0,0.4
		c0,0.2-0.1,0.4-0.1,0.6l0,0c-0.1,0.2-0.1,0.4-0.2,0.5c-0.4,0.8-1.2,1.4-2.2,1.7l0,0l-1.8,0.6c-0.2,0.1-0.3,0.2-0.4,0.3l0,0
		c-0.1,0.1-0.1,0.4-0.1,0.6l0,0v0.1v0.1c0.3,1.5,0.6,2.9,0.8,4.3c0.3,1.5,0.5,2.9,0.7,4.4c0.4,2.5,0.8,5.4,1.2,8.5
		c0.3,2.8,0.6,5.7,0.9,8.9l0,0l0.1,1.2v0.6l0,0v0.4v0.4l0,0c0,0.7,0.1,1.4,0.2,2.4v0.5l0.1,0.9l0,0c0.1,1.9,0.2,3.9,0.3,6
		c0.1,2.4,0.1,4.8,0.1,7.3c0,6.2-0.3,12.8-0.9,19.5c-0.6,6.7-1.6,13.6-3.1,20.6l0,0l0,0l0,0c-0.1,0.6-0.3,1.3-0.5,2.1
		c-0.4,1.5-0.9,3.1-0.9,4.4l0,0c0,0.2,0,0.4,0.1,0.5l0,0h0.1l0,0c0.5,0,1,0.1,1.4,0.1c0.5,0,1,0.1,1.4,0.1c2.4,0.1,4.9,0.2,7.4,0.3
		c0.1,0,0.2,0,0.2-0.1l0,0c0.1-0.1,0.1-0.2,0.2-0.3l0,0v-0.1l0,0c0,0,0-0.1,0.1-0.2l0,0c0,0,0-0.1,0-0.2c0.1-0.3,0.1-0.6,0.1-0.8
		l0,0v-70.2l0,0v-38.1l0,0V130l0,0c0-0.9-0.4-1.4-0.8-1.7c-0.5-0.3-1.2-0.4-1.7-0.4h-0.6l0,0c-0.5,0-1-0.1-1.4-0.2l0,0
		c-0.1,0-0.1-0.1-0.2-0.1l0,0c-0.4-0.1-0.7-0.3-1-0.6l0,0l0,0c-0.3-0.2-0.5-0.5-0.7-0.9c-0.1-0.2-0.2-0.3-0.2-0.5l0,0
		c0-0.1-0.1-0.2-0.1-0.3c-0.1-0.3-0.1-0.5-0.1-0.8l0,0l0,0l0,0c0-0.3,0-0.5,0.1-0.7l0,0v-0.1l0,0c0-0.2,0.1-0.4,0.2-0.6l7.1-17.9
		l0,0c0.2-0.5,0.5-1,0.8-1.4c0.4-0.4,1-0.7,1.6-0.7l0,0c0.7,0,1.2,0.3,1.6,0.7c0.4,0.4,0.6,0.8,0.8,1.4l0,0l4.8,12.2h0.1l2.3,5.7
		l0,0l0,0l0,0l0,0c0,0.1,0,0.1,0.1,0.2c0,0.1,0,0.1,0.1,0.2c0.1,0.4,0.2,0.7,0.2,1.1l0,0c0,0.3,0,0.6-0.1,0.9l0,0
		c0,0.1-0.1,0.2-0.1,0.3l0,0c0,0.1-0.1,0.2-0.1,0.3l0,0c-0.2,0.3-0.4,0.6-0.7,0.9l0,0l0,0l0,0l0,0l0,0l0,0l0,0
		c-0.1,0.1-0.2,0.1-0.3,0.2l0,0c-0.1,0.1-0.2,0.1-0.3,0.2c-0.6,0.3-1.2,0.5-1.9,0.5h-0.6c-0.5,0-1.2,0.1-1.7,0.4
		c-0.5,0.3-0.8,0.8-0.8,1.7l0,0v0.1l0,0v38.1l0,0v70.2l0,0v0.1l0,0v0.1l0,0c0,0,0,0.1,0,0.2l0,0c0,0.3,0.1,0.6,0.2,0.8l0,0
		c0.1,0.2,0.1,0.3,0.2,0.3l0,0c0,0,0.1,0.1,0.2,0.1h0.1c0.5,0,1,0,1.5,0s1,0,1.5,0c2.4-0.1,4.9-0.2,7.3-0.4l0,0l0,0l0,0l0,0
		c0-0.1,0.1-0.3,0.1-0.5l0,0l0,0l0,0l0,0c0-1.2-0.4-2.7-0.8-4.1c-0.2-0.7-0.4-1.4-0.5-1.9c-1.5-7-2.5-14-3.2-20.8
		c-0.6-6.8-0.9-13.4-0.9-19.7c0-2.5,0-4.9,0.1-7.3c0.1-2.1,0.2-4.1,0.3-6l0,0l0.1-0.9v-0.5l0,0c0-0.7,0.1-1.2,0.1-1.7
		c0-0.6,0.1-1,0.1-1.4v-0.6l0.1-1.2l0,0c0.3-3.7,0.7-7.1,1.1-10.2c0.4-3.4,0.9-6.5,1.3-9.3c0.3-1.6,0.4-2.7,0.6-3.5
		c0.2-0.8,0.3-1.8,0.6-3.2l0,0v-0.1l0,0c0-0.2,0-0.5-0.1-0.6l0,0c-0.1-0.1-0.2-0.2-0.4-0.3l-1.8-0.6c-0.1,0-0.3-0.1-0.4-0.1
		c-0.2-0.1-0.4-0.2-0.6-0.3c-0.2-0.1-0.3-0.2-0.5-0.4c-0.8-0.6-1.2-1.5-1.2-2.5l0,0l0,0l0,0l0,0c0-0.4,0.1-0.8,0.2-1.2
		c0-0.1,0.1-0.1,0.1-0.2c0.1-0.3,0.3-0.6,0.6-0.9l10.5-13.1l0,0c0.3-0.4,0.6-0.7,1-0.9c0.4-0.3,0.9-0.4,1.4-0.4l0,0
		c0.1,0,0.1,0,0.2,0c0.2,0,0.4,0.1,0.6,0.1l0,0c0.2,0.1,0.4,0.2,0.5,0.3l0,0c0.7,0.5,1.1,1.4,1.2,2.3l0,0l2.4,17.2l0,0
		c0,0.1,0,0.2,0,0.3l0,0c0,0.1,0,0.2,0,0.3l0,0l0,0c0,0.4-0.1,0.9-0.2,1.2l0,0c0,0.1-0.1,0.1-0.1,0.2l0,0c-0.1,0.3-0.3,0.6-0.6,0.9
		l0,0l0,0l0,0c-0.2,0.2-0.5,0.5-0.8,0.6c-0.2,0.1-0.3,0.1-0.5,0.2c-0.1,0-0.2,0-0.2,0.1l0,0c-0.2,0.1-0.5,0.1-0.8,0.1l0,0l0,0l0,0
		c-0.2,0-0.4,0-0.6,0l0,0h-0.1l0,0c-0.2,0-0.3-0.1-0.5-0.1l-1.1-0.3l0,0h-0.1l0,0h-0.1l0,0c-0.2,0-0.5-0.1-0.8-0.1l0,0
		c-0.4,0-0.7,0.1-1,0.2c-0.2,0.1-0.4,0.4-0.5,0.9l0,0l0,0l0,0c-0.1,0.6-0.2,1.3-0.4,2.2s-0.3,1.7-0.4,2.4
		c-0.7,4.4-1.5,10.1-2.1,16.7l0,0l-0.1,0.8c0,0.3-0.1,0.9-0.2,1.8l-0.1,1.1l0,0l-0.1,0.8v0.4l-0.1,1.6l0,0c0,0.5-0.1,1.1-0.1,1.5
		l0,0l0,0l0,0l0,0l0,0l0,0l0,0l0,0v0.1v0.4v0.7l0,0v0.1c0,0.5,0,0.9-0.1,1.3c0,0.7-0.1,1.3-0.1,1.8l0,0l0,0l0,0l0,0l0,0v0.1
		c-0.1,1.5-0.1,3-0.1,4.6c0,1.4,0,3,0,4.7l0,0l0,0l0,0l0,0l0,0c0,6.9,0.3,14.3,1.2,21.8c0.1,1.3,0.3,2.5,0.4,3.7
		c0.8,6.3,2,12.7,3.6,19.1l0,0c0.2,0.8,0.5,1.2,0.8,1.4s0.7,0.2,1,0.2c0.9-0.1,1.7-0.2,2.5-0.3c0.7-0.1,1.6-0.2,2.4-0.3
		c4.1-0.6,7.8-1.3,11.1-2.1l0,0l0,0c0.7-0.2,1.3-0.3,1.9-0.5c0.6-0.2,1.2-0.3,1.8-0.5c3-0.9,5.4-1.9,7.2-2.9l0,0
		c0.4-0.2,0.7-0.4,1-0.6l0,0c0.4-0.2,0.7-0.4,0.9-0.6l0,0c0.2-0.1,0.4-0.3,0.5-0.4c0.1-0.1,0.2-0.2,0.3-0.3c0-0.2,0-0.4,0-0.7l0,0
		l0,0c0-7.1-1.5-13.8-4.1-19.9c-0.4-1-0.9-2-1.4-2.9c-2.5-4.9-5.8-9.4-9.7-13.3l0,0l0,0l0,0c-0.7-0.7-1.4-1.3-2-1.9
		c-0.7-0.6-1.4-1.2-2.2-1.8c-3.8-3-8-5.4-12.5-7.3c-0.2-0.1-0.4-0.1-0.6-0.2c-0.2-0.1-0.4-0.2-0.6-0.4l0,0c-0.9-0.7-1.3-1.9-1-3.1
		c0-0.1,0.1-0.3,0.1-0.4l0,0c0.3-0.6,0.8-1.2,1.3-1.5c0.6-0.4,1.4-0.5,2.1-0.3c0.1,0,0.2,0.1,0.4,0.1l0,0c8.5,3.4,16,8.7,22,15.4
		c3,3.4,5.6,7.1,7.7,11c1,1.9,2,4,2.8,6c2.5,6.4,3.9,13.3,3.9,20.6C208.1,241.7,204,253.4,196.9,262.8z M255.3,132.8
		c-0.1,0.9-0.2,1.9-0.3,2.8c-0.9,8.1-2.1,15.7-3.4,23.1c-2.1,12.1-4.7,23.2-7.8,33.9h-44.5c-3.1-4.1-6.7-7.7-10.7-10.9
		c-4.6-3.7-9.8-6.7-15.3-8.9l-0.1-0.1c-0.3-0.1-0.6-0.2-0.8-0.3c-1-0.2-2-0.2-2.9,0c0.1-1.2,0-0.7,0.1-1.2l0.1-0.6v-0.1
		c0.6-6.4,1.4-12,2.1-16.4c0.1-0.4,0.2-1.2,0.4-2.4v-0.1l0,0c0.2,0,0.3,0.1,0.5,0.1h0.1l0,0h0.1c0.2,0,0.3,0,0.5,0.1
		c0.2,0,0.4,0,0.6,0l0,0l0,0c0.5,0,1,0,1.4-0.1l0,0c0.2-0.1,0.5-0.1,0.7-0.2c0.5-0.2,1-0.4,1.4-0.7l0,0c0.5-0.3,0.9-0.6,1.3-1l0,0
		c0.4-0.4,0.7-0.8,1-1.3c0.1-0.2,0.2-0.4,0.3-0.6c0,0,0-0.1,0.1-0.4c0.3-0.7,0.4-1.6,0.4-2.4l0,0l0,0c0-0.1,0-0.3,0-0.6v-0.2
		c0-0.1,0-0.2,0-0.3l-2.4-17v-0.1c-0.2-1.9-1.1-3.6-2.7-4.7c-0.4-0.3-0.9-0.5-1.4-0.7l0,0c-0.5-0.2-1-0.3-1.5-0.3l0,0h-0.1h-0.1l0,0
		c-0.1,0-0.2,0-0.3,0c-1.2,0-2.3,0.4-3.2,1c-0.6,0.4-1.2,0.9-1.7,1.5c-0.1,0.1-0.1,0.1-0.2,0.2l-10.3,13v-6.2c1.2,0,2.3-0.3,3.3-0.9
		c0.2-0.1,0.4-0.2,0.7-0.4c0.1-0.1,0.2-0.1,0.2-0.2l0.1-0.1c0.1-0.1,0.2-0.1,0.2-0.2l0,0c0.5-0.5,1-1,1.4-1.7
		c0.1-0.1,0.2-0.3,0.2-0.4c0.1-0.2,0.2-0.4,0.3-0.6s0.1-0.4,0.2-0.7c0.1-0.5,0.2-1,0.2-1.5l0,0c0-0.6-0.1-1.3-0.3-2
		c0,0,0-0.1-0.1-0.3c0-0.1-0.1-0.3-0.1-0.4c0,0,0,0,0-0.1l0,0l0,0l-1.6-4.3c13.1,0.2,26.2,1.1,39.4,2.8c18,2.3,36.3,6.1,54.9,11.2
		l0,0C255.4,131.6,255.3,132.2,255.3,132.8L255.3,132.8z M275.1,130.1c-6.4-2.1-12.7-4-19-5.7l0,0c-3.8-1-7.6-2-11.3-2.9
		c-29.3-7.2-57.8-10.8-86.2-11l-2.8-7.1l0,0l0,0c-0.4-0.9-0.9-1.8-1.6-2.5c-0.9-0.9-1.9-1.5-3.3-1.7c-0.3-0.1-0.6-0.1-0.8-0.1l0,0
		l0,0c0,0,0,0-0.1,0l0,0l0,0c-0.3,0-0.6,0-0.8,0.1c-1.3,0.2-2.4,0.8-3.3,1.7c-0.7,0.7-1.2,1.6-1.6,2.5l0,0l0,0l-2.8,7.1
		c-25,0.2-49.9,4.3-75.5,10.4c-7.1,1.6-14.3,3.4-21.5,5.3l0,0c-0.2,0-0.3,0.1-0.5,0.1c-0.1,0-0.3,0.1-0.4,0.1
		c-1.8,0.5-3.8,1-5.6,1.5l0,0c-4.1,1.2-8.3,2.4-12.5,3.7L6.9,109.4l7.5-31.7c35.2-11.3,70.9-18.1,106.7-20.5l-2.8-6.3
		c-9.1,0.7-18.2,1.6-27.3,2.8c-13.1,1.8-26.2,4.1-39.2,7.1c-3.7,0.8-7.5,1.7-11.2,2.7c-0.1,0-0.1-0.1-0.2-0.1v-0.1
		c-0.1-1.8-0.1-3.7-0.2-5.5l0,0c0-0.9,0-1.7-0.1-2.6c0-0.2,0-0.4,0-0.6c0-0.7,0-1.4-0.1-2.1c0-0.2,0-0.4,0-0.7c0-0.7,0-1.4-0.1-2
		c0-0.2,0-0.4,0-0.7c0-0.8,0-1.7-0.1-2.5c-0.2-8.6-0.5-17.3-0.7-25.8c25.8,6.2,44.6,0.6,66.2-5.8c8-2.4,16.3-4.8,25.4-6.9
		c5.9-1.3,12.3-2,18.7-2c0.4,0,0.7,0,1.1,0c0.3,0,0.7,0,1,0l0,0c5.7,0.1,11.3,0.8,16.6,1.9c9,2,17.3,4.4,25.2,6.8
		c22,6.5,42.8,11.5,68.7,5.3c-0.3,8.6-0.7,20-0.9,28.7c-0.1,4.8-0.3,9.7-0.4,14.5c-26.1-6.5-52.4-10.6-78.8-12.5l-3.6,6.3
		c37.5,2.4,75,9.5,111.9,21.3l2.9,30.8L275.1,130.1z"/>
</g>
</svg>
