<?xml version="1.0" encoding="utf-8"?>
<!-- Generator: Adobe Illustrator 22.1.0, SVG Export Plug-In . SVG Version: 6.00 Build 0)  -->
<svg version="1.1" id="Layer_1" xmlns="http://www.w3.org/2000/svg" xmlns:xlink="http://www.w3.org/1999/xlink" x="0px" y="0px"
	 width="275px" height="275px" viewBox="0 0 275 275" style="enable-background:new 0 0 275 275;" xml:space="preserve">
<style type="text/css">
	.st0{fill-rule:evenodd;clip-rule:evenodd;fill:#BAA975;}
	.st1{fill-rule:evenodd;clip-rule:evenodd;fill:#FFFFFF;}
	.st2{fill-rule:evenodd;clip-rule:evenodd;fill:#6C0633;}
	.st3{fill:#6C0633;}
	.st4{fill:#BAA975;}
	.st5{fill:#FFFFFF;}
</style>
<path class="st0" d="M137.5,0C213.4,0,275,61.6,275,137.5c0,75.9-61.6,137.5-137.5,137.5S0,213.4,0,137.5C0,61.6,61.6,0,137.5,0"/>
<path class="st1" d="M137.5,3.3c74.1,0,134.2,60.1,134.2,134.2c0,74.1-60.1,134.2-134.2,134.2c-74.1,0-134.2-60.1-134.2-134.2
	C3.3,63.4,63.4,3.3,137.5,3.3"/>
<path class="st2" d="M137.5,52.8c46.7,0,84.7,37.9,84.7,84.7c0,46.7-37.9,84.7-84.7,84.7c-46.7,0-84.7-37.9-84.7-84.7
	C52.8,90.8,90.8,52.8,137.5,52.8 M137.5,6.5c72.4,0,131,58.7,131,131c0,72.4-58.7,131-131,131s-131-58.7-131-131
	C6.5,65.1,65.1,6.5,137.5,6.5z"/>
<rect x="5.3" y="127.7" class="st1" width="264.4" height="5.8"/>
<rect x="5.3" y="141.5" class="st1" width="264.4" height="5.8"/>
<path class="st3" d="M195.6,161.1L195.6,161.1c-1.7,8.5-5.3,16.6-10.5,23.6c5.5-5.7,9.9-12.4,13-19.7
	C198.6,163.4,197.4,161.2,195.6,161.1 M197.1,142.4L197.1,142.4c-0.2,0.1-0.5,0.2-0.7,0.4c0.6,4.1,0.7,8,0.1,12.2
	c1.7,0.7,3,2.2,3.8,3.8c2.2-6.8,3.2-13.9,3.2-21.1C201.7,139.7,199.5,141.3,197.1,142.4z M196.9,109.2L196.9,109.2
	c-0.8,4.4-2.2,9.5-5.8,12.5c2.2,4.8,3.3,9.8,4.4,14.9c2.8-1,6.3-3,7.2-6c0.3-0.9,0.1-1.9,0-2.9c-0.6-3.9-1.6-7.8-2.9-11.6
	C198.9,113.8,198.1,111.4,196.9,109.2z M131.2,71.2L131.2,71.2L131.2,71.2c1.8-0.1,3.6,0.3,5.4,0.5c3.9,0.6,7.8,1.6,11.5,3
	c6.3,2.2,12.3,5.6,17.6,9.8c10,7.9,17.7,18.5,22.9,30.1c3.4-2.7,3.9-8.4,4.2-12.3c0.1-0.5-0.3-0.9-0.6-1.3
	c-4.4-6.5-9.8-12.2-16.1-16.9c-10.8-8-24-12.6-37.4-13.1C136.2,70.9,133.7,70.9,131.2,71.2z M124,65.3c15.4-2.6,31.6-0.2,45.6,6.8
	c11.1,5.6,20.7,14,27.7,24.2c6.4,9.3,10.6,20.1,12.2,31.3c1.5,10.6,0.7,21.6-2.4,31.9c-3.6,11.9-10.3,22.9-19.2,31.6
	c-9.4,9.2-21.2,15.8-33.9,18.9c-5.1,1.2-10.2,1.9-15.5,2.1c-2.3,0-4.6,0.1-6.9-0.1c-17.2-1-33.6-8.2-46.1-20
	c-3.5-3.4-6.8-7-9.6-11.1c2.4,1.7,5,3.2,7.6,4.7c9.6,5.5,19.6,9.5,30.6,10.7c11.8,1,22.3-0.8,33.1-5.4c0.3-0.1,1.1-0.6,1.8-1l12.1,0
	c-0.3,0.2-0.8,0.5-1.4,0.8c-1.6,1-3.3,1.8-4.9,2.6c-15,7.2-28.7,9.8-48.9,5.8c-0.1,0,17.1,8.6,38,6.2c13.1-1.5,25.7-6.9,35.7-15.4
	c0.7-0.6,1.4-1.1,1.8-1.9c3.9-8.1,7-16.6,8.5-25.5c-0.5,0.2-1,0.5-1.5,0.9c-2.1,1.6-4.9,4.2-6.9,6.2l2.3-10.5c0.5-0.4,1-0.7,1.5-1.1
	c1.8-1.1,3.5-2.4,5.5-3.1c0.3-3.7,0.5-7.2,0-10.9c-17.4,4.9-36.8,4.2-54.8,4.1l0.7-3l0.9-4.3c17.2,0.7,35.7,2.1,52.4-2.2
	c-0.6-3.9-2.1-11.1-4.4-14.6c-12.9,0.7-28.9-12.7-39.7-19.7c-0.1-0.1-0.2-0.1-0.3-0.2l1.5-6.9c9.9,6.3,23.8,19.2,35.8,20
	c-4.6-12-12.4-22.8-22.8-30.4c-11.4-8.3-25-12.3-38.9-13.4c-1.1-0.1-2.3-0.2-3.4-0.1c-10.4,2.9-20.2,8.4-28,15.8
	c16-8.8,28.4-6.3,43.9,0l-15.3,0c-0.2-0.1-0.5-0.1-0.8-0.1c-7.8-1.8-15.9-0.9-23.2,2.2c-3.2,1.2-6.1,2.9-9,4.7
	c-4.3,2.7-8.2,5.9-11.8,9.4c-1.9,1.9-3.8,3.8-5.5,5.9c-0.5,0.6-1,1.3-1.4,2c0.4-1.5,1-2.9,1.6-4.3C73.1,98,80.6,88.1,90,80.6
	C99.8,72.7,111.6,67.3,124,65.3z"/>
<path class="st3" d="M106.1,118.4l31.9,0l-5.8,26.1h-31.9l0.9-3.9c-12.6,0.1-25.3,0.3-38,0.2l39-4.9l0.9-4.3
	c-12.4,0-24.8,0.1-37.2,0.2l0-0.1c12.7-1.3,25.5-3.1,38.2-4.8l0.9-4.1c-10.9,0-22.1,0.7-33,0.1L106.1,118.4z M143.5,93.7l-4.3,19.6
	l-31.9,0l0.8-3.6l-24.3,0l25-3.3l0.9-4.1l-21.1,0l21.6-2.7l0.9-3.9l-16.2,0l16.7-2.1L143.5,93.7z M99.2,149.6h31.9l-2.9,13.3
	l50.3-0.3l-5.1,23l-82.1-0.1l4.2-19.1l-27.1-0.2l27.9-3.5l0.9-3.9l-22.8,0l23.4-2.9l0.8-3.6l-18.5,0L99.2,149.6z"/>
<path class="st4" d="M196.4,78.6c-15.1-15.1-35.9-24.4-58.9-24.4c-23,0-43.8,9.3-58.9,24.4c-15.1,15.1-24.4,35.9-24.4,58.9
	s9.3,43.8,24.4,58.9c15.1,15.1,35.9,24.4,58.9,24.4c23,0,43.8-9.3,58.9-24.4c15.1-15.1,24.4-35.9,24.4-58.9S211.5,93.7,196.4,78.6
	 M137.5,51.5c23.8,0,45.3,9.6,60.8,25.2c15.6,15.6,25.2,37.1,25.2,60.8c0,23.8-9.6,45.3-25.2,60.8c-15.6,15.6-37.1,25.2-60.8,25.2
	c-23.8,0-45.3-9.6-60.8-25.2c-15.6-15.6-25.2-37.1-25.2-60.8c0-23.8,9.6-45.3,25.2-60.8C92.2,61.1,113.7,51.5,137.5,51.5z"/>
<path class="st5" d="M245.1,103.6l-1.6-3.9c0.8-0.3,1.4-0.7,1.8-1.1c0.4-0.4,0.5-0.9,0.5-1.5c0-0.6-0.2-1.3-0.5-2.1l-0.5-1.1
	c-0.3-0.7-0.6-1.3-0.8-1.8c-0.3-0.5-0.6-0.9-0.9-1.2c-0.6-0.4-1.5-0.4-2.6,0c-0.7,0.3-1.2,0.6-1.5,0.9c-0.3,0.3-0.5,0.7-0.5,1.2
	c0,0.5,0.1,1.1,0.4,1.9c0.5,1.4,1,2.7,1.4,3.9c0.4,1.2,0.7,2.4,0.8,3.4c0.1,1-0.2,2-0.8,2.9c-0.6,0.9-1.7,1.7-3.3,2.3
	c-1,0.4-1.9,0.7-2.6,0.9c-0.8,0.2-1.5,0.2-2.2,0.1c-0.7-0.1-1.3-0.4-1.9-0.9c-0.6-0.5-1.2-1.2-1.7-2.2c-0.2-0.4-0.5-1.1-0.9-1.9
	c-0.4-0.9-0.7-1.5-0.9-2c-0.6-1.5-1-2.7-1.3-3.6c-0.3-1-0.4-1.9-0.3-2.7c0.1-0.9,0.5-1.7,1.2-2.4c0.7-0.7,1.7-1.4,3.1-2
	c0.1,0,0.3-0.1,0.4-0.1c0.1,0,0.3-0.1,0.5-0.2l1.6,3.8c-0.8,0.3-1.4,0.6-1.9,0.9c-0.4,0.3-0.7,0.7-0.9,1.2c-0.2,0.5-0.1,1.1,0.2,1.9
	c0.3,0.7,0.7,1.7,1.2,3.1c0.4,0.9,0.7,1.6,1.1,2c0.4,0.4,0.8,0.7,1.3,0.8c0.5,0.1,1.2-0.1,2.1-0.4c0.8-0.3,1.4-0.7,1.7-1.1
	c0.3-0.4,0.4-0.9,0.4-1.4c0-0.5-0.2-1.1-0.4-1.8c-0.3-0.7-0.5-1.4-0.8-2.1c-0.6-1.8-0.9-3.1-1.1-3.8c-0.2-0.8-0.2-1.6-0.1-2.4
	c0.1-0.8,0.5-1.6,1.2-2.2c0.7-0.7,1.7-1.3,3.2-1.9c1.2-0.5,2.3-0.7,3.2-0.7c1,0,1.8,0.3,2.6,0.9c0.8,0.6,1.4,1.4,2,2.6
	c0.5,1,1,2.1,1.5,3.3c0.8,1.9,1.3,3.4,1.5,4.5c0.2,1.1,0.1,2.2-0.4,3.3c-0.5,1-1.6,1.9-3.3,2.5L245.1,103.6z"/>
<rect x="218.4" y="80.6" transform="matrix(0.8572 -0.515 0.515 0.8572 -9.8212 130.2287)" class="st5" width="22.9" height="4.4"/>
<polygon class="st5" points="229.6,62.4 214.5,74.1 221.1,82.5 218,84.9 208.7,73 226.8,58.9 "/>
<polygon class="st5" points="209.9,48 206.1,52.6 214.3,59.5 212.3,61.9 204,55 199.8,60 208.6,67.3 206.3,70.1 194.3,60 209,42.4 
	220.9,52.5 218.6,55.2 "/>
<path class="st5" d="M176.1,49l11.5-19.9l10.1,5.9c1.3,0.7,2.2,1.5,2.8,2.2c0.6,0.8,0.9,1.6,0.9,2.6c0,1-0.4,2.1-1.1,3.3
	c-0.5,0.9-1,1.6-1.5,2.1c-0.5,0.5-1,0.8-1.7,1c-0.6,0.2-1.4,0.1-2.3-0.1l-0.1,0.1c0.8,0.6,1.3,1.2,1.6,1.9c0.3,0.6,0.3,1.3,0.2,2
	c-0.2,0.7-0.5,1.5-1,2.4c-0.6,1-1.2,1.8-1.8,2.4c-0.6,0.6-1.3,1-1.9,1.2c-0.7,0.2-1.5,0.2-2.3,0c-0.9-0.2-1.8-0.6-2.9-1.2L176.1,49z
	 M186.5,39.6l4.8,2.8c0.9,0.5,1.6,0.8,2.1,0.9c0.5,0.1,1,0.1,1.5-0.2c0.4-0.3,0.9-0.8,1.3-1.6c0.5-0.9,0.7-1.7,0.6-2.2
	c-0.2-0.5-0.7-1.1-1.6-1.6l-5.7-3.3L186.5,39.6z M181.6,48.1l4.9,2.8c0.9,0.5,1.7,0.9,2.3,1.1c0.6,0.2,1.1,0.1,1.6-0.1
	c0.5-0.3,1-0.8,1.5-1.7c0.7-1.1,0.9-2,0.6-2.6c-0.2-0.6-0.9-1.2-2.1-1.9l-5.5-3.2L181.6,48.1z"/>
<path class="st5" d="M169.8,42.2l-9.5-2.9l-2.6,3.8l-4.4-1.3l13.9-19.8l6.2,1.9l0.8,24.2l-4.3-1.3L169.8,42.2z M169.8,38.8
	l-0.4-12.5l-7.2,10.3L169.8,38.8z"/>
<polygon class="st5" points="136.2,18.6 136.2,27.9 138.3,27.9 145.9,18.6 151.3,18.6 142,29.7 152.2,41.5 146.7,41.5 138.3,31.7 
	136.2,31.7 136.2,41.5 131.8,41.5 131.8,18.6 "/>
<polygon class="st5" points="120.2,23.7 123.2,42.5 118.8,43.2 115.8,24.4 109.3,25.4 108.7,21.6 126.3,18.8 126.9,22.6 "/>
<polygon class="st5" points="92.5,31.4 94.7,36.9 104.7,32.9 105.9,35.9 95.9,39.9 98.4,45.9 109,41.7 110.3,45 95.8,50.9 
	87.2,29.6 101.6,23.8 103,27.2 "/>
<rect x="83.4" y="32" transform="matrix(0.8829 -0.4695 0.4695 0.8829 -10.3947 45.2905)" class="st5" width="4.4" height="22.9"/>
<polygon class="st5" points="65.3,43 76.2,58.7 84.9,52.6 87.1,55.7 74.8,64.4 61.6,45.6 "/>
<path class="st5" d="M56.5,71.6l2.5-3.5c0.2,0.1,0.4,0.3,0.8,0.5c0.3,0.2,0.6,0.4,0.8,0.5c1.4,1,2.3,2.1,2.6,3.2
	c0.4,1.1,0.4,2.3-0.1,3.4c-0.4,1.2-1.1,2.5-2.2,3.9l-1.8,2.5c-1.2,1.7-2.5,2.8-3.7,3.3C54.3,86,53,86,51.6,85.6
	c-1.3-0.4-2.9-1.3-4.5-2.5c-0.9-0.6-1.7-1.2-2.4-1.7C44,81,43.4,80.6,43,80.2c-1.5-1.1-2.6-2.2-3.3-3.2c-0.7-1-1.1-2.1-1.1-3.2
	c0-1.1,0.3-2.2,0.8-3.3c0.5-1.1,1.4-2.4,2.5-4l0.9-1.2c0.6-0.8,1.1-1.4,1.6-2c0.5-0.5,1.1-1,1.8-1.3c0.7-0.3,1.4-0.5,2.1-0.4
	c0.5,0,0.9,0.1,1.4,0.2c0.5,0.2,0.9,0.3,1.3,0.6c0.4,0.2,0.8,0.4,1.1,0.7c0.4,0.2,0.8,0.5,1.3,0.9l-2.6,3.5
	c-0.2-0.1-0.6-0.3-1.3-0.8c-0.7-0.4-1.3-0.7-1.8-0.6c-0.5,0-1,0.4-1.6,1.2c-0.3,0.3-0.7,0.8-1.2,1.5l-0.4,0.6
	c-0.5,0.7-0.9,1.4-1.3,2c-0.3,0.6-0.4,1.2-0.3,1.7c0.1,0.5,0.3,0.9,0.7,1.3c0.4,0.4,0.8,0.8,1.4,1.2c0.7,0.6,1.3,1,1.7,1.3
	c0.8,0.6,2,1.4,3.6,2.5c1.3,0.9,2.3,1.4,3,1.6c0.7,0.2,1.4,0,2-0.5c0.6-0.5,1.4-1.3,2.3-2.6c0.5-0.7,0.9-1.2,1.1-1.7
	c0.3-0.4,0.4-0.9,0.5-1.3c0.1-0.4,0-0.9-0.2-1.4c-0.2-0.5-0.6-0.9-1.2-1.3c-0.3-0.2-0.5-0.3-0.6-0.5C56.9,71.9,56.7,71.7,56.5,71.6"
	/>
<path class="st5" d="M45.3,107.7L24.6,98l5-10.6c0.6-1.3,1.3-2.3,2-3c0.7-0.7,1.5-1.1,2.5-1.2c1-0.1,2.1,0.2,3.4,0.8
	c0.9,0.4,1.7,0.9,2.2,1.3c0.5,0.4,0.9,0.9,1.2,1.6c0.2,0.6,0.3,1.4,0.1,2.3l0.1,0.1c0.5-0.8,1.1-1.4,1.7-1.7c0.6-0.3,1.3-0.4,2-0.3
	c0.7,0.1,1.6,0.4,2.5,0.8c1.1,0.5,1.9,1,2.6,1.6c0.6,0.5,1.1,1.2,1.4,1.8c0.3,0.7,0.3,1.4,0.2,2.3c-0.1,0.9-0.4,1.9-0.9,3
	L45.3,107.7z M35.1,98.1l2.4-5.1c0.4-0.9,0.7-1.6,0.8-2.2c0.1-0.6,0-1-0.3-1.4c-0.3-0.4-0.9-0.8-1.7-1.2c-1-0.5-1.7-0.6-2.2-0.4
	c-0.5,0.2-1,0.8-1.5,1.8l-2.8,5.9L35.1,98.1z M43.9,102.3l2.4-5.1c0.5-1,0.7-1.8,0.9-2.4c0.1-0.6,0-1.1-0.3-1.6
	c-0.3-0.5-0.9-0.9-1.8-1.3c-1.2-0.6-2.1-0.7-2.6-0.4c-0.6,0.3-1.1,1.1-1.7,2.3L38,99.5L43.9,102.3z"/>
<path class="st5" d="M221.1,199.2l-2.7,3.2c-0.7-0.6-1.3-0.9-1.8-1.1c-0.5-0.1-1-0.1-1.5,0.2c-0.5,0.3-1,0.8-1.6,1.5l-0.8,0.9
	c-0.5,0.6-0.9,1.1-1.2,1.6c-0.3,0.5-0.5,0.9-0.6,1.4c-0.1,0.7,0.3,1.5,1.3,2.3c0.6,0.5,1.1,0.8,1.6,0.9c0.5,0.1,0.9,0.1,1.3-0.1
	c0.4-0.2,0.9-0.6,1.5-1.2c1-1.1,1.9-2.1,2.8-3.1c0.9-1,1.8-1.7,2.6-2.3c0.9-0.6,1.9-0.8,2.9-0.7c1.1,0.1,2.3,0.7,3.6,1.8
	c0.8,0.7,1.5,1.3,2,1.9c0.5,0.6,0.9,1.3,1.1,1.9c0.2,0.7,0.3,1.4,0.1,2.1c-0.2,0.8-0.6,1.6-1.2,2.5c-0.3,0.4-0.7,1-1.3,1.7
	c-0.6,0.7-1,1.3-1.3,1.7c-1,1.2-1.9,2.2-2.6,2.9c-0.7,0.7-1.5,1.2-2.3,1.5c-0.8,0.3-1.7,0.3-2.7,0.1c-1-0.3-2-0.9-3.2-1.8
	c-0.1-0.1-0.2-0.2-0.3-0.3c-0.1-0.1-0.2-0.2-0.4-0.3l2.7-3.2c0.7,0.6,1.2,1,1.7,1.2c0.5,0.2,1,0.3,1.5,0.2c0.5-0.1,1-0.5,1.6-1.1
	c0.5-0.6,1.2-1.4,2.2-2.5c0.6-0.7,1.1-1.4,1.3-1.9c0.2-0.5,0.2-1,0-1.5c-0.2-0.5-0.6-1.1-1.3-1.6c-0.7-0.6-1.2-0.9-1.8-0.9
	c-0.5-0.1-1,0-1.4,0.3c-0.4,0.3-0.9,0.7-1.4,1.2c-0.5,0.6-1,1.1-1.5,1.7c-1.3,1.3-2.3,2.3-2.9,2.8c-0.6,0.5-1.3,0.9-2.1,1.2
	c-0.8,0.3-1.6,0.3-2.5,0c-0.9-0.3-2-0.9-3.1-1.9c-1-0.8-1.7-1.7-2.2-2.5c-0.4-0.9-0.6-1.7-0.5-2.7c0.1-0.9,0.6-1.9,1.4-3
	c0.6-0.9,1.4-1.8,2.2-2.9c1.3-1.6,2.4-2.7,3.3-3.5c0.9-0.8,1.9-1.1,3.1-1.2c1.1,0,2.4,0.6,3.8,1.7L221.1,199.2z"/>
<polygon class="st5" points="204.3,208.7 205.7,225.1 210.9,232.3 207.3,234.8 202.1,227.7 187.2,221.1 191.2,218.2 201.4,222.9 
	200.1,211.7 "/>
<path class="st5" d="M177.5,224.6l-6.3-0.7l0-1.7l5.1-0.3l3.4-3.7l1.3,1.1L177.5,224.6z M186.2,221.9l1.6,3.4l-5,19.3l11.7-5.4
	l1.6,3.4l-16.6,7.7l-1.6-3.4l4.9-19.3l-10.9,5.1l-1.6-3.4L186.2,221.9z"/>
<polygon class="st5" points="157.4,236.4 158.8,242.2 169.3,239.6 170,242.7 159.6,245.3 161.2,251.6 172.3,248.8 173.1,252.3 
	157.9,256.1 152.4,233.9 167.5,230.1 168.4,233.7 "/>
<polygon class="st5" points="145.9,234.2 150.5,234.1 143.5,257.1 136.9,257.3 129.1,234.5 133.6,234.4 140.1,253.5 "/>
<polygon class="st5" points="115.5,235.7 114.4,241.5 125,243.5 124.4,246.7 113.8,244.7 112.6,251.1 123.8,253.2 123.2,256.7 
	107.8,253.8 112,231.3 127.3,234.2 126.6,237.8 "/>
<polygon class="st5" points="109,230.5 99.7,251.4 93,248.5 91.9,227 91.8,227 84.2,244.6 80.3,242.8 89.5,221.9 96.2,224.8 
	97.3,246.3 97.4,246.3 105,228.7 "/>
<path class="st5" d="M72.6,233l-8.1-5.7l-3.7,2.8l-3.7-2.6l19.4-14.4l5.3,3.7L74.9,240l-3.6-2.6L72.6,233z M73.7,229.8l3.6-12
	l-10,7.5L73.7,229.8z"/>
<path class="st5" d="M41.7,209.9l17.3-15l6,6.9c1.5,1.7,2.5,3.1,3,4.3c0.5,1.2,0.6,2.4,0.2,3.6c-0.4,1.2-1.5,2.5-3.2,4
	c-0.7,0.6-1.4,1.1-1.9,1.5c-0.5,0.4-1.2,0.7-1.8,1c-0.7,0.3-1.4,0.3-2.1,0.2c-0.6-0.1-1.1-0.2-1.6-0.5c-0.5-0.3-1-0.6-1.5-1
	c-0.5-0.4-0.9-0.9-1.4-1.5c-0.5-0.6-0.9-1-1.2-1.3l-3.4-3.9l-5.6,4.9L41.7,209.9z M53,205.8l3.3,3.8c0.6,0.7,1.1,1.2,1.5,1.6
	c0.4,0.4,0.8,0.6,1.2,0.7c0.4,0.1,0.8,0,1.3-0.2c0.5-0.2,1.1-0.6,1.8-1.2c0.9-0.8,1.5-1.5,1.8-2c0.3-0.5,0.4-1.1,0.2-1.6
	c-0.2-0.6-0.7-1.3-1.5-2.2l-3.6-4.1L53,205.8z"/>
<polygon class="st5" points="160.4,226.5 161.2,229.8 157.7,230.6 156.9,227.4 "/>
</svg>
