<?xml version="1.0" encoding="utf-8"?>
<!-- Generator: Adobe Illustrator 22.1.0, SVG Export Plug-In . SVG Version: 6.00 Build 0)  -->
<svg version="1.1" id="Layer_1" xmlns="http://www.w3.org/2000/svg" xmlns:xlink="http://www.w3.org/1999/xlink" x="0px" y="0px"
	 width="2411px" height="2940.1px" viewBox="0 0 2411 2940.1" style="enable-background:new 0 0 2411 2940.1;" xml:space="preserve"
	>
<style type="text/css">
	.st0{fill:#A7A9AC;}
	.st1{fill:#242020;}
	.st2{fill:#BA1221;}
	.st3{fill:#22375D;}
	.st4{fill:#FFFFFF;}
	.st5{fill:#D1D3D4;}
	.st6{fill:#D4B768;}
	.st7{fill:#EDD594;}
</style>
<g id="spalvotas_white">
	<g id="skydas">
		<path id="Shape_1_copy_7" class="st0" d="M2372.9,1228.7c0,0,21.1,40,38.1,64.6c-39.7,239.6-125.8,725.2-468.3,1212.2
			c-145.4,208.9-294.8,358.4-387.9,434.5c-340-161.2-728.4-472.7-1011.1-854.3S38.6,1190.3,0,797.2C38.4,755.1,94.2,704,94.2,704
			s-17-222.4-30.8-359.6c-10.6-60.7,43.9-121.9,130.9-123.1c278.5-27.2,814.4-31,1090,46c552.3,154.4,919.7,439.9,1051.4,558.2
			c58.3,55.1,44.1,53.9,44.1,129.2C2377,1062,2372.9,1228.7,2372.9,1228.7z M2335.9,897.6c-8.4-12-85.8-78.8-100.9-88.8
			c-15-9.9-50.4,19.7-61.9,13.3s-28.8-103.6-43.6-117.4s-135.4-93.4-151.4-94.9s-60.6,34.5-75.6,23.9c-8.2-5.8-0.9-58.4-11.6-71.4
			s-111.6-65.7-130-67.3s-28.1,46.9-38.2,45.9s-64.1-94.7-73.4-101s-94.9-39.6-104-39.8s-16.8,23-16.8,23s-12-30.9-30.6-39.8
			c-15.5-7.4-199.1-55.8-253.9-67.3c-29.7-6.3-24.9,9.6-44.6,15.8c-15.7-13.5-21.2-19.9-30.4-23.5c-20.1-8-74.5-13.8-103.9-15.4
			c-16.5-0.9-23.2,6.6-33.8,21.6c-17.9-1.9-82.4-48.7-169.8-56.6c-69.6-6.3-167.2-10.3-204.9-9.2c-28.5,0.8-21.8,30.7-41.3,33.7
			c-29.2-20.6-56-28-81.1-29.1s-281,27.1-338.2,33.3c-11,1.2-40.1,19.1-39.2,44.1c3.4,92.5,37.2,346.8,46.6,497.4
			c-14.6,13.6-28.7,28-42.5,43.3c35,364.1,236.8,840,493.2,1193.4s608.6,641.9,917,791.2c84.4-70.5,219.9-209,351.8-402.4
			c310.6-451.1,388.7-900.8,424.7-1122.7c-8.7-12.9-17.6-25.5-26.9-37.9C2326.9,1206.8,2346.8,913.7,2335.9,897.6L2335.9,897.6z"/>
		<path id="Shape_1_copy_3" class="st1" d="M2347.6,1331c-36,221.9-114.1,671.6-424.7,1122.7c-131.9,193.5-267.4,331.9-351.8,402.4
			c-308.4-149.4-660.6-437.8-917-791.2S196,1235.7,161,871.6c13.8-15.4,27.9-29.8,42.5-43.3c-9.4-150.6-43.2-405-46.6-497.4
			c-0.9-25,28.2-42.9,39.2-44.1c57.2-6.2,313.1-34.3,338.2-33.3s51.9,8.5,81.1,29.1c19.5-2.9,12.8-32.8,41.3-33.7
			c37.7-1.1,135.3,2.9,204.9,9.2c87.3,7.9,151.8,54.7,169.8,56.6c10.6-15,17.3-22.4,33.8-21.6c29.4,1.6,83.7,7.5,103.9,15.4
			c9.2,3.6,14.7,9.9,30.4,23.5c19.6-6.2,14.8-22.1,44.6-15.8c54.7,11.5,238.4,60,253.9,67.3c18.6,8.9,30.6,39.8,30.6,39.8
			s7.8-23.1,16.8-23s94.7,33.5,104,39.8s63.3,100,73.4,101s19.8-47.5,38.2-45.9s119.3,54.4,130,67.3s3.4,65.6,11.6,71.4
			c14.9,10.5,59.6-25.4,75.6-23.9s136.6,81,151.4,94.9s32,111,43.6,117.4s46.9-23.2,61.9-13.3c15.2,10,92.5,76.7,100.9,88.8
			c11,16.1-9,309.3-15.1,395.5C2329.9,1305.5,2338.9,1318.2,2347.6,1331z M2311.4,928.3c-7.8,100.7-14.7,201.5-23.7,318.4
			c-1,16.1-17.4,8-20.6,5.1c-17.7-16.4-30.5-27.8-48.2-43.2c-8.7-7.6-12.7-15.4-12-23.7c10.5-118.4,19.3-216.6,27.6-318.4
			c0.6-7.1,12.1-15,20.6-6.8c17,16.4,27.8,27.6,44.6,45c3.7,3.6,6.7,7.8,9.1,12.3c0.9,1.8,1.6,3.8,2.1,5.7c0.2,0.9,0.3,1.8,0.4,2.8
			c0,0.4,0.1,0.9,0.1,1.3S2311.4,927.9,2311.4,928.3z M2171,1168.2c-19.9-16.4-39.9-32.1-60-47.3c-4.6-3.5-7.6-6.7-9.1-9.8
			s-2.4-7.3-2.8-12.8c-3.7-26.4-7.4-52.7-11.2-78.8c-40.7-30.2-81.9-58.2-123.7-83.9c-8.1,18.5-16.3,37.4-24.6,56.6
			c-1.4,4.5-3.1,7-5.2,7.8c-2.1,0.7-5.3-0.1-9.6-2.6c-20.7-11.8-41.5-23.1-62.5-33.9c-7.9-4-10.1-9.8-6.6-17.2
			c46.8-108.8,91.6-207.3,133.2-288.8c3.6-5.3,10.3-4.7,20.2,1.9c28.6,19.1,56.8,39.3,84.7,60.5c10.5,8,16.4,16.5,17.9,25.4
			c24.5,129.1,46,270.5,67.9,416.5C2181.3,1172.3,2178.5,1174.3,2171,1168.2z M2048.2,753.7c-0.9-0.6-1.7-1.2-2.5-1.8
			c-19.5,41-39.6,85.3-60.3,132.4c31.6,20.3,62.9,41.9,93.8,64.7C2069.3,881.8,2059.1,816.3,2048.2,753.7z M1814.9,940.2
			c-16.1-7.6-32.3-15-48.5-22c-9.8-4.2-16.6-11.5-20.3-21.9c-37.7-98.2-76.9-193.8-118.6-284c-0.9-0.3-1.9-0.7-2.8-1
			c-4.8,73.5-10.8,152.3-17.2,233.3c-0.7,9.2-5.9,12.2-15.6,9.2c-19.1-5.9-38.2-11.4-57.5-16.6c-9.7-2.6-14.3-8.6-13.6-17.8
			c9.6-133.1,18.3-260.7,22.3-369.2c0.3-7.6,5.4-9.7,15.4-6.3c17.9,6,35.6,12.2,53.3,18.6c9.9,3.6,16.4,8.5,19.4,14.7
			c44.5,84.6,85.8,177,125.1,274.1c0.9,0.4,1.8,0.8,2.7,1.2c6.2-75.8,11.4-147.5,15.1-212.4c0.4-7.3,5.4-8.8,15-4.3
			c18.9,8.9,37.6,18.1,56.3,27.7c9.4,4.9,13.9,10.9,13.4,18.2c-6.6,104.2-16.9,225.1-28.9,351.9
			C1829.2,942.4,1824.1,944.6,1814.9,940.2L1814.9,940.2z M1483,482.2c-50.2-14.5-101-27.4-152.5-38.9c-5.9-1.3-8.9,0.3-9.1,4.7
			c-0.8,26.4-1.8,53.4-2.9,81.1c-0.2,4.7,2.7,7.6,8.5,8.7c41.9,8.2,83.3,17.6,124.3,28c10.1,2.6,14.9,8.2,14.4,16.9
			c-0.8,14.1-1.6,28.3-2.4,42.7c-0.5,8.9-5.8,12.1-15.8,9.7c-40.8-9.8-82-18.5-123.6-26c-5.8-1-8.9,0.8-9.1,5.7
			c-1.4,30.6-2.9,61.6-4.4,92.9c-0.2,5,2.5,7.9,8.3,8.8c50.3,8.2,100.1,18.1,149.3,29.8c9.4,2.3,13.8,8,13.2,17.3c-1,15-2,30-3,45.1
			c-0.6,9.3-5.6,12.9-15,10.7c-76.8-17.5-154.6-30.6-232.9-39.2c-10.1-1.1-15-6.5-14.6-16.2c4.9-139.2,10.4-275.7,12.4-396.6
			c0.1-8.5,5.5-11.6,16-9.3c82.1,17.7,162.6,38.5,241.3,62.4c9.6,2.9,14.3,8.2,14.1,15.9c-0.4,12.4-0.9,25.1-1.4,38
			C1497.6,482.3,1492.6,484.9,1483,482.2L1483,482.2z M1138.4,771.7c-20.5-1.5-41.1-2.7-61.7-3.7c-10.2-0.5-15.2-5.7-15.1-15.6
			c1.3-142.2,3.9-283.8,4.6-413.8c0-9.1,5.5-12.8,16.3-11c21.9,3.5,43.7,7.3,65.3,11.3c10.7,2,16,7.3,15.9,16
			c-1.5,124.4-6,262.9-9.6,403.3C1153.8,767.9,1148.6,772.4,1138.4,771.7L1138.4,771.7z M2291.4,1344.1
			c-35.5,200.7-138.8,602.5-343.6,946.5c-99.1,143.5-193.9,270.2-298.1,355.2c-207.2-125.3-393.8-255.3-667.9-540.3
			s-526-908.3-574.3-1218c270.6-55.6,637.2-70.1,811.5-46.8S1815,895.6,2291.4,1344.1L2291.4,1344.1z M1006.1,765.5
			c-19.7-0.4-39.4-0.6-59.1-0.6c-8.7,0-15.1-0.9-19-2.8s-7.2-5.9-9.8-12.2c-25.5-51.8-51.8-103.9-78.8-156.3c-17,0.2-34,0.4-51,0.8
			c-6.1,0.1-9,2.9-8.8,8.4c2.4,50.5,5,100.8,7.8,151c0.6,10.2-4.2,15.6-14.3,16.2c-20.5,1.2-47.1,2.6-67.5,4.2
			c-10.1,0.8-15.8-3.9-16.4-14.3c-8.9-150-18-300.7-23.5-452.9c-0.2-5.3,1.1-9.3,3.9-12c1.5-1.4,3.3-2.4,5.3-2.9
			c1.1-0.3,2.3-0.6,3.5-0.7c0.6-0.1,1.3-0.1,1.9-0.2c0.3,0,0.7,0,1,0s0.7,0,1.1,0c65.2,1.2,129.5,4.7,192.7,10.4
			c41.5,3.8,73.6,17.5,96.7,39.5c23,22.2,34.3,50.6,34.2,86.4c-0.1,17.9-0.1,35.9-0.2,54c-0.3,52.4-22.9,86.3-67.8,102.8
			c0,0.9,0,1.9,0,2.9c27.6,54,54.3,107.9,80.4,161.6C1022.8,760.2,1018.7,765.8,1006.1,765.5z M907.2,423.5
			c-0.1-14.7-4.2-25.6-12.1-32.7c-7.9-7.1-20.4-11.3-37.3-12.2c-25.9-1.4-51.9-2.4-78.1-3.1c-5.9-0.2-8.7,2.5-8.6,7.9
			c1.3,42.4,2.8,84.9,4.5,127.5c0.2,5.4,3.2,8.1,8.9,8.1c25.4-0.2,50.7-0.2,75.9,0.2c16.5,0.2,28.5-2.7,36.1-9s11.4-16.5,11.2-30.9
			C907.6,460.6,907.4,442,907.2,423.5z M520.9,624c-31.5,3.3-62.9,7-94,11.1c-5.9,0.8-8.4,4-7.4,9.7c8.6,48.6,17.4,96.8,25.9,144.6
			c1.9,10.6-2,16.7-11.5,18.3c-19.3,3.2-63,6.6-82,10.1c-9.4,1.8-15.7-2.6-17.4-13.4c-25.5-156.8-48-310.8-71.2-472.5
			c-0.1-0.7-0.2-1.4-0.2-2.1c0-0.3,0-0.7-0.1-1s0-0.6,0-1c0-1.2,0.1-2.4,0.4-3.6c0.4-2.1,1.3-4.1,2.6-5.7c2.6-3.2,6.9-5.2,12.9-5.9
			c69.7-8.4,138.9-14.5,207.2-18.1c21.9-1.1,41.4,0.9,58.6,5.9C561,305,576.1,313,589,324c24.9,21.5,38.1,52.1,40.6,92
			c1.6,24.5,3.2,49,5.1,73.4c2.9,39.6-5.8,70.7-25.7,93.9C589.1,606.5,559.9,619.9,520.9,624z M533.8,491.2
			c-2.3-21.7-4.4-43.5-6.5-65.3c-1.5-16.6-6.1-28.3-13.8-34.9s-20.3-9.4-37.9-8.1c-29.1,2.1-58.2,4.6-87.3,7.6
			c-6.1,0.6-8.7,3.8-7.9,9.7c6.3,47.5,13.5,94.6,21.3,141.3c0.9,5.7,4.2,8.2,9.9,7.6c27.3-3.2,54.6-6.2,82.1-8.9
			c16.6-1.6,27.8-6.1,33.8-13.7S535.5,507.2,533.8,491.2z"/>
		<path class="st2" d="M2161.5,1407.5l-0.3-0.8l-118.4,15l-1.4-168.3c69.9,46.3,132.9,97.4,169.3,142.3L2161.5,1407.5L2161.5,1407.5
			z M1101,1748.1c-54.6,19.2-115.2,40.4-152.4,52.9c-129.1-215.2-286.3-546.1-360-816.6c70.7-9,142.4-18,215.5-24.9
			C865.6,1166,1001.6,1526.8,1101,1748.1z M1834.7,1448l-189.1,23.9c-13.6-129.7-37.3-350.6-49-431.2
			c73.3,24.8,145.2,53.6,215.4,86.1C1818.2,1197.4,1828.2,1344.4,1834.7,1448z M1344.1,973.4c23.9,123.5,70.3,369.5,100,524
			l-83.6,10.6l-36.3,140.4l-35.8,18.3c-46.6-163.1-136.6-484.4-191.6-718.5C1177.6,950.4,1259.9,958,1344.1,973.4z"/>
		<path id="coated_" class="st3" d="M1665.3,2502.2c-267.1-187.8-464.5-373.7-593-521.6c-21.5-24.7-46.5-58.8-73.8-100l376.2-80.7
			l137.6,84.6l650.4-473.8l-1.3-3.2l48.2-12.6C2118.1,1691.9,2023.1,2134.3,1665.3,2502.2z M1834.7,1448
			c-6.4-103.6-16.5-250.6-22.7-321.2c86.7,40.2,164.3,83.6,229.3,126.6l1.4,168.3L1834.7,1448z M1444.2,1497.4
			c-29.7-154.5-76.2-400.5-100-524c39,7.1,78.5,15.9,118.3,26.6c45.8,12.3,90.6,25.9,134.1,40.7c11.6,80.6,35.4,301.6,49,431.2
			L1444.2,1497.4z M1640.7,1614.7L993,1872c-14.3-21.9-29.1-45.7-44.4-71.1c37.1-12.5,97.7-33.6,152.4-52.9
			c-99.4-221.3-235.4-582.1-296.9-788.6c95.3-8.9,192.8-14.3,292.9-11.4c55,234.2,145,555.5,191.6,718.5l-136.1,69.8l486-126
			L1640.7,1614.7z"/>
		<path id="Shape_2_copy" class="st4" d="M2311.4,928.3c-7.8,100.7-14.7,201.5-23.7,318.4c-1,16.1-17.4,8-20.6,5.1
			c-17.7-16.4-30.5-27.8-48.2-43.2c-8.7-7.6-12.7-15.4-12-23.7c10.5-118.4,19.3-216.6,27.6-318.4c0.6-7.1,12.1-15,20.6-6.8
			c17,16.4,27.8,27.6,44.6,45c3.7,3.6,6.7,7.8,9.1,12.3c0.9,1.8,1.6,3.8,2.1,5.7c0.2,0.9,0.3,1.8,0.4,2.8c0,0.4,0.1,0.9,0.1,1.3
			S2311.4,927.9,2311.4,928.3z M2171,1168.2c-19.9-16.4-39.9-32.1-60-47.3c-4.6-3.5-7.6-6.7-9.1-9.8s-2.4-7.3-2.8-12.8
			c-3.7-26.4-7.4-52.7-11.2-78.8c-40.7-30.2-81.9-58.2-123.7-83.9c-8.1,18.5-16.3,37.4-24.6,56.6c-1.4,4.5-3.1,7-5.2,7.8
			c-2.1,0.7-5.3-0.1-9.6-2.6c-20.7-11.8-41.5-23.1-62.5-33.9c-7.9-4-10.1-9.8-6.6-17.2c46.8-108.8,91.6-207.3,133.2-288.8
			c3.6-5.3,10.3-4.7,20.2,1.9c28.6,19.1,56.8,39.3,84.7,60.5c10.5,8,16.4,16.5,17.9,25.4c24.5,129.1,46,270.5,67.9,416.5
			C2181.3,1172.3,2178.5,1174.3,2171,1168.2z M2048.2,753.7c-0.9-0.6-1.7-1.2-2.5-1.8c-19.5,41-39.6,85.3-60.3,132.4
			c31.6,20.3,62.9,41.9,93.8,64.7C2069.3,881.8,2059.1,816.3,2048.2,753.7z M1814.9,940.2c-16.1-7.6-32.3-15-48.5-22
			c-9.8-4.2-16.6-11.5-20.3-21.9c-37.7-98.2-76.9-193.8-118.6-284c-0.9-0.3-1.9-0.7-2.8-1c-4.8,73.5-10.8,152.3-17.2,233.3
			c-0.7,9.2-5.9,12.2-15.6,9.2c-19.1-5.9-38.2-11.4-57.5-16.6c-9.7-2.6-14.3-8.6-13.6-17.8c9.6-133.1,18.3-260.7,22.3-369.2
			c0.3-7.6,5.4-9.7,15.4-6.3c17.9,6,35.6,12.2,53.3,18.6c9.9,3.6,16.4,8.5,19.4,14.7c44.5,84.6,85.8,177,125.1,274.1
			c0.9,0.4,1.8,0.8,2.7,1.2c6.2-75.8,11.4-147.5,15.1-212.4c0.4-7.3,5.4-8.8,15-4.3c18.9,8.9,37.6,18.1,56.3,27.7
			c9.4,4.9,13.9,10.9,13.4,18.2c-6.6,104.2-16.9,225.1-28.9,351.9C1829.2,942.4,1824.1,944.6,1814.9,940.2L1814.9,940.2z
			 M1483,482.2c-50.2-14.5-101-27.4-152.5-38.9c-5.9-1.3-8.9,0.3-9.1,4.7c-0.8,26.4-1.8,53.4-2.9,81.1c-0.2,4.7,2.7,7.6,8.5,8.7
			c41.9,8.2,83.3,17.6,124.3,28c10.1,2.6,14.9,8.2,14.4,16.9c-0.8,14.1-1.6,28.3-2.4,42.7c-0.5,8.9-5.8,12.1-15.8,9.7
			c-40.8-9.8-82-18.5-123.6-26c-5.8-1-8.9,0.8-9.1,5.7c-1.4,30.6-2.9,61.6-4.4,92.9c-0.2,5,2.5,7.9,8.3,8.8
			c50.3,8.2,100.1,18.1,149.3,29.8c9.4,2.3,13.8,8,13.2,17.3c-1,15-2,30-3,45.1c-0.6,9.3-5.6,12.9-15,10.7
			c-76.8-17.5-154.6-30.6-232.9-39.2c-10.1-1.1-15-6.5-14.6-16.2c4.9-139.2,10.4-275.7,12.4-396.6c0.1-8.5,5.5-11.6,16-9.3
			c82.1,17.7,162.6,38.5,241.3,62.4c9.6,2.9,14.3,8.2,14.1,15.9c-0.4,12.4-0.9,25.1-1.4,38C1497.6,482.3,1492.6,484.9,1483,482.2
			L1483,482.2z M1138.4,771.7c-20.5-1.5-41.1-2.7-61.7-3.7c-10.2-0.5-15.2-5.7-15.1-15.6c1.3-142.2,3.9-283.8,4.6-413.8
			c0-9.1,5.5-12.8,16.3-11c21.9,3.5,43.7,7.3,65.3,11.3c10.7,2,16,7.3,15.9,16c-1.5,124.4-6,262.9-9.6,403.3
			C1153.8,767.9,1148.6,772.4,1138.4,771.7L1138.4,771.7z M2291.4,1344.1c-35.5,200.7-138.8,602.5-343.6,946.5
			c-99.1,143.5-193.9,270.2-298.1,355.2c-207.2-125.3-393.8-255.3-667.9-540.3s-526-908.3-574.3-1218
			c270.6-55.6,637.2-70.1,811.5-46.8S1815,895.6,2291.4,1344.1L2291.4,1344.1z M588.6,984.4C671,1286.7,857.7,1664.7,993,1872
			l647.7-257.3l-2.3-4.3l-486,126l171.9-88.1l36.3-140.4l800.5-101.3l1.6,4l-650.4,473.8l-137.6-84.6l-376.2,80.7
			c27.2,41.2,52.3,75.3,73.8,100c128.4,147.9,325.9,333.8,593,521.6c357.7-367.9,452.7-810.3,544.4-1107.3
			c-106.3-127.5-399.1-301.6-747.2-394.9C1148.1,915.7,860.3,949.7,588.6,984.4z M1006.1,765.5c-19.7-0.4-39.4-0.6-59.1-0.6
			c-8.7,0-15.1-0.9-19-2.8s-7.2-5.9-9.8-12.2c-25.5-51.8-51.8-103.9-78.8-156.3c-17,0.2-34,0.4-51,0.8c-6.1,0.1-9,2.9-8.8,8.4
			c2.4,50.5,5,100.8,7.8,151c0.6,10.2-4.2,15.6-14.3,16.2c-20.5,1.2-47.1,2.6-67.5,4.2c-10.1,0.8-15.8-3.9-16.4-14.3
			c-8.9-150-18-300.7-23.5-452.9c-0.2-5.3,1.1-9.3,3.9-12c1.5-1.4,3.3-2.4,5.3-2.9c1.1-0.3,2.3-0.6,3.5-0.7c0.6-0.1,1.3-0.1,1.9-0.2
			c0.3,0,0.7,0,1,0s0.7,0,1.1,0c65.2,1.2,129.5,4.7,192.7,10.4c41.5,3.8,73.6,17.5,96.7,39.5c23,22.2,34.3,50.6,34.2,86.4
			c-0.1,17.9-0.1,35.9-0.2,54c-0.3,52.4-22.9,86.3-67.8,102.8c0,0.9,0,1.9,0,2.9c27.6,54,54.3,107.9,80.4,161.6
			C1022.8,760.2,1018.7,765.8,1006.1,765.5z M907.2,423.5c-0.1-14.7-4.2-25.6-12.1-32.7c-7.9-7.1-20.4-11.3-37.3-12.2
			c-25.9-1.4-51.9-2.4-78.1-3.1c-5.9-0.2-8.7,2.5-8.6,7.9c1.3,42.4,2.8,84.9,4.5,127.5c0.2,5.4,3.2,8.1,8.9,8.1
			c25.4-0.2,50.7-0.2,75.9,0.2c16.5,0.2,28.5-2.7,36.1-9s11.4-16.5,11.2-30.9C907.6,460.6,907.4,442,907.2,423.5z M520.9,624
			c-31.5,3.3-62.9,7-94,11.1c-5.9,0.8-8.4,4-7.4,9.7c8.6,48.6,17.4,96.8,25.9,144.6c1.9,10.6-2,16.7-11.5,18.3
			c-19.3,3.2-63,6.6-82,10.1c-9.4,1.8-15.7-2.6-17.4-13.4c-25.5-156.8-48-310.8-71.2-472.5c-0.1-0.7-0.2-1.4-0.2-2.1
			c0-0.3,0-0.7-0.1-1s0-0.6,0-1c0-1.2,0.1-2.4,0.4-3.6c0.4-2.1,1.3-4.1,2.6-5.7c2.6-3.2,6.9-5.2,12.9-5.9
			c69.7-8.4,138.9-14.5,207.2-18.1c21.9-1.1,41.4,0.9,58.6,5.9C561,305,576.1,313,589,324c24.9,21.5,38.1,52.1,40.6,92
			c1.6,24.5,3.2,49,5.1,73.4c2.9,39.6-5.8,70.7-25.7,93.9C589.1,606.5,559.9,619.9,520.9,624z M533.8,491.2
			c-2.3-21.7-4.4-43.5-6.5-65.3c-1.5-16.6-6.1-28.3-13.8-34.9s-20.3-9.4-37.9-8.1c-29.1,2.1-58.2,4.6-87.3,7.6
			c-6.1,0.6-8.7,3.8-7.9,9.7c6.3,47.5,13.5,94.6,21.3,141.3c0.9,5.7,4.2,8.2,9.9,7.6c27.3-3.2,54.6-6.2,82.1-8.9
			c16.6-1.6,27.8-6.1,33.8-13.7S535.5,507.2,533.8,491.2z"/>
		<path id="Shape_26_copy" class="st5" d="M2078.8,946.9c-9.7-66.5-19.8-131.3-30.7-193.3c-0.2-0.2-0.4-0.3-0.6-0.5
			c1.1-3.3,2.4-6.6,3.8-9.8c4-8.3,13.3-1.6,13.7,3.4s29.6,203.1,30.8,214C2090.2,956.4,2084.1,951.4,2078.8,946.9z M1497.9,474.3
			c-0.3,8-5.3,10.6-14.9,7.8c-50.2-14.5-101-27.4-152.5-38.9c-1.6-0.4-3.2-0.5-4.9-0.3c2-7.2-1.4-15.9,13.4-12.8
			c13.9,2.9,123.9,30.1,159,39.7C1498,471.3,1498,472.8,1497.9,474.3L1497.9,474.3z M1330.5,596.2c9.9,0.2,97.2,19.4,132.9,26.3
			c-0.1,1-0.1,1.9-0.2,2.9c-0.5,8.9-5.8,12.1-15.8,9.7c-40.8-9.8-82-18.5-123.6-26c-2.9-0.5-5.1-0.3-6.6,0.6
			C1318,603,1323.8,596,1330.5,596.2z M907.5,378.7c9.2,11.8,16.2,21.2,15.4,34.2s-0.3,69.5-1.7,80.5c-1.3,10-14.9,19.4-33.8,21.8
			c3.3-1.2,6.4-3,9.2-5.2c7.6-6.3,11.4-16.6,11.2-30.9c-0.2-18.6-0.4-37.2-0.6-55.7c-0.1-14.7-4.2-25.6-12.1-32.7
			c-7.9-7.1-20.4-11.3-37.3-12.2c-25.9-1.4-51.9-2.4-78.1-3.1c-1.6,0-4.6,1.2-5.8,1.5c0.3-6,0-13.7,0-13.7s72.4,1.2,85.6,1.7
			C875.3,365.6,898.3,366.9,907.5,378.7z M683.2,301.7c0.3,11.2,19.5,418.6,20.6,433.2s-3.1,24.7,17.1,25.7
			c16.7,0.8,47.5-2.2,66.6-4.1c-0.4,8.4-5.1,12.9-14.3,13.5c-20.5,1.2-47.1,2.6-67.5,4.2c-10.1,0.8-15.8-3.9-16.4-14.3
			c-8.9-150-18-300.7-23.5-452.9c-0.2-5.3,1.1-9.3,3.9-12c1.5-1.4,3.3-2.4,5.3-2.9c1.1-0.3,2.3-0.6,3.5-0.7c0.6-0.1,1.3-0.1,1.9-0.2
			c0.3,0,0.7,0,1,0s0.7,0,1.1,0c1.9,0,3.8,0.1,5.7,0.1C685.1,294,683.1,297.4,683.2,301.7L683.2,301.7z M279.1,323.9
			c0.8,13.5,63.7,426.2,68.5,465.7c0.7,8.4,3.8,14.7,13.7,13.7c7.9-0.8,56.5-6.4,84.5-9.8c0.2,8.1-3.7,12.8-12,14.1
			c-19.3,3.2-63,6.6-82,10.1c-9.4,1.8-15.7-2.6-17.4-13.4c-25.5-156.8-48-310.8-71.2-472.5c-0.1-0.7-0.2-1.4-0.2-2.1
			c0-0.3,0-0.7-0.1-1s0-0.6,0-1c0-1.2,0.1-2.4,0.4-3.6c0.4-2.1,1.3-4.1,2.6-5.7c2.6-3.2,6.9-5.2,12.9-5.9c1.7-0.2,3.4-0.4,5-0.6
			C280.6,314.8,278.8,318.4,279.1,323.9L279.1,323.9z M524,534.5c-3.3,0.5-6.6,0.9-9.8,1.1c5.8-2.3,10.2-5.3,13.2-9.2
			c6-7.5,8.1-19.3,6.4-35.3c-2.3-21.7-4.4-43.5-6.5-65.3c-1.5-16.6-6.1-28.3-13.8-34.9s-20.3-9.4-37.9-8.1
			c-29.1,2.1-58.2,4.6-87.3,7.6c-2.1,0.2-5.2,2.9-6.5,3.7c-0.6-8-1.7-17.1-1.7-17.1s118.2-14.4,131.8-8.6
			c11.9,5,23.8,13.9,27.4,39.4s10.1,74.3,10.3,87.3S546.2,530.9,524,534.5z M1006.1,765.5c-19.7-0.4-39.4-0.6-59.1-0.6
			c-8.7,0-15.1-0.9-19-2.8s-7.2-5.9-9.8-12.2c-25.5-51.8-51.8-103.9-78.8-156.3c-17,0.2-34,0.4-51,0.8c-3.2,0.1-5.5,0.9-7,2.5
			c-0.2-4.8,0.6-8.6,4.5-10.9c7.5-4.4,19.7-3.3,27.4-3.4s25.8-1.9,39.4-1.7c6.3,10.2,74,137.3,78.8,147.2s4.6,20,22.3,22.2
			c12.6,1.6,47.1,2.7,66,3.1C1021.4,761.7,1016.8,765.7,1006.1,765.5z M1094.2,753.7c13,1.2,41.1,2.2,59.9,3.4c0,0.3,0,0.7,0,1.1
			c-0.3,9.8-5.4,14.3-15.6,13.5c-20.5-1.5-41.1-2.7-61.7-3.7c-10.2-0.5-15.2-5.7-15.1-15.6c1.3-142.2,3.9-283.8,4.6-413.8
			c0-9.1,5.5-12.8,16.3-11c1.5,0.2,2.9,0.5,4.4,0.7c-4,2.3-6.5,6-6.3,12.8c0.5,14.9-3.1,373.2-3.4,386.9S1075.5,752,1094.2,753.7z
			 M1243.2,373.6c-0.3,15.2-8.2,345.3-8.6,359.5s-1.8,29.7,17.1,32.5c20,3.1,186.4,31.2,226.6,40.6c-0.1,0.8-0.1,1.6-0.2,2.4
			c-0.6,9.3-5.6,12.9-15,10.7c-76.8-17.5-154.6-30.6-232.9-39.2c-10.1-1.1-15-6.5-14.6-16.2c4.9-139.2,10.4-275.7,12.4-396.6
			c0.1-8.5,5.5-11.6,16-9.3c2.8,0.6,5.5,1.2,8.3,1.8C1247,362.3,1243.3,366.4,1243.2,373.6L1243.2,373.6z M1549.7,823.9
			c9.9,3.5,38.4,12.1,58,18c-0.1,0.9-0.1,1.8-0.2,2.8c-0.7,9.2-5.9,12.2-15.6,9.2c-19.1-5.9-38.2-11.4-57.5-16.6
			c-9.7-2.6-14.3-8.6-13.6-17.8c9.6-133.1,18.3-260.7,22.3-369.2c0.3-7.6,5.4-9.7,15.4-6.3c2.9,1,5.8,2,8.7,3
			c-4.9,2.2-8.9,5.7-9.1,10.6c-0.7,17.6-19.5,319.2-20.6,335.6S1535.1,818.7,1549.7,823.9L1549.7,823.9z M1830,933.6
			c-0.8,8.8-5.9,11-15.1,6.6c-16.1-7.6-32.3-15-48.5-22c-9.8-4.2-16.6-11.5-20.3-21.9c-37.7-98.2-76.9-193.8-118.6-284
			c-0.8-0.3-1.6-0.6-2.3-0.8c1-0.8,0.8-38.6,17-5.1c5.6,11.6,113.7,260,116.4,270.5s9.4,20.8,17.1,25.7c5.6,3.6,37.9,18.4,54.8,26.1
			L1830,933.6z M1775.7,738.3c-0.1,8.5-2.9,20.5-8.6,18.8c-3.8-1.1-6.1-2.3-7.9-5.5c6.2-75.4,11.4-146.9,15-211.5
			c0.4-7.3,5.4-8.8,15-4.3c0.9,0.4,1.9,0.9,2.8,1.3C1788.4,577.6,1775.8,730.7,1775.7,738.3L1775.7,738.3z M1998.3,668.1
			c-5.4,13.8-114.4,245.7-118.1,255.1s-12.6,19.6-1.7,27.4c8,5.7,44.3,27.2,62.8,38.1c-0.5,1.2-1,2.4-1.6,3.6
			c-1.4,4.4-3.1,7-5.2,7.8c-2.1,0.7-5.3-0.1-9.6-2.6c-20.7-11.8-41.5-23.1-62.5-33.9c-7.9-4-10.1-9.8-6.6-17.2
			c46.8-108.8,91.6-207.3,133.2-288.8c3.6-5.3,10.3-4.7,20.2,1.9c0.7,0.5,1.4,1,2.1,1.4C2005.4,661.4,2000.1,663.5,1998.3,668.1
			L1998.3,668.1z M2171,1168.2c-19.9-16.4-39.9-32.1-60-47.3c-4.6-3.5-7.6-6.7-9.1-9.8s-2.4-7.3-2.8-12.8
			c-3.7-26.4-7.4-52.7-11.2-78.8c-40.2-29.8-80.8-57.5-122-82.8c2.7-5.5,4.9-11.2,6.7-17c0,0,107.5,71.1,116.4,77.1
			c12.7,8.5,14.5,12.2,17.1,25.7c3,15.2,7.4,46.8,8.6,56.5c1.1,9.6-0.4,22.7,10.3,30.8c7.5,5.7,36.4,28.6,53.1,41.8
			c0.5,3.4,1,6.8,1.5,10.3C2181.3,1172.3,2178.5,1174.3,2171,1168.2L2171,1168.2z M2248.3,866.7c0.1,9.2-23.3,287.6-24,296.2
			s-2.6,17.5,3.4,25.7c12.7,12.9,43.7,42.9,59.9,58.5c-1.2,15.6-17.4,7.7-20.5,4.8c-17.7-16.4-30.5-27.8-48.2-43.2
			c-8.7-7.6-12.7-15.4-12-23.7c10.5-118.4,19.3-216.6,27.6-318.4c0.6-7.1,12.1-15,20.6-6.8c0.2,0.2,0.4,0.4,0.6,0.6
			C2251.5,861.5,2248.3,863.6,2248.3,866.7L2248.3,866.7z"/>
	</g>
	<g id="kamuolys">
		<path id="Ellipse_1_copy" class="st6" d="M1761,2222.9c-6.9-27-24.3-53.5-51.2-84.4c-30.8-32.6-59.4-60.1-72.7-89.6
			c51.2-4.9,107.2,20,150.4,96.4C1786,2173.1,1776.8,2200,1761,2222.9z M1638.7,2077.4c11.8,16.2,24.6,34.3,42.5,51.1
			s39.2,42.4,50.9,61.5c11.2,18.4,16.9,34.6,17.3,47.7c-27.6,31-66.9,49.2-108.4,50c-6.2-13.4-24.4-55.3-32.7-89.6
			c-8.1-33.1-19.2-77.1-17.5-136.5c10.5-4.9,21.4-8.5,32.8-10.8C1627.5,2060.3,1632.6,2069.2,1638.7,2077.4z M1497.5,2184
			c0.1,2.2,0.3,4.4,0.7,6.6c0.2,0.8,0.3,1.6,0.6,2.4c-0.6-1.4-1.1-2.9-1.6-4.3C1497.2,2187.1,1497.3,2185.6,1497.5,2184L1497.5,2184
			z M1580.2,2122.3c2.4,25.3,10.9,62.1,16,81.3c4.9,18.3,18.6,61.9,29.7,83.6c-42-3.4-80.7-24.4-106.4-57.8c-0.3-0.5-0.6-1-0.9-1.5
			c-4.8-15.8-9.1-39.9-7.5-50.5c2-16.1,8.2-33.5,15.1-51.2c2.6-6.7,5.7-14.9,8.6-22.8c12.2-13.8,26.5-25.6,42.5-34.9
			C1577.4,2086.5,1578.3,2104.5,1580.2,2122.3L1580.2,2122.3z"/>
		<path id="Ellipse_1_copy_2" class="st7" d="M1637,2048.9c-1.5-3.3-2.9-6.7-4-10.1c22.1,0.9,40.1,1.8,70.4,13.2
			c29.1,10.9,59.8,30.7,80.6,51.9c2.5,10.9,3.7,22.1,3.7,33.3c0,2.7-0.1,5.4-0.2,8.1C1744.2,2068.8,1688.2,2043.9,1637,2048.9z
			 M1634,2025.4c2.2-7,4.9-11.5,13.9-17.8s23.6-9.3,38.4-10.2c9.5,2.6,32.8,13.2,50.6,28.4c11.4,9.6,21.2,20.8,29.2,33.4
			c3.8,6.3,7.1,12.8,9.9,19.6c-14.5-11.6-38-27.7-65.4-38.1C1686.1,2031.4,1660.2,2026.2,1634,2025.4z M1620.5,2025.5
			c-5.6,0.4-16.1,1.2-26.7,2.9c2.5-12.2,4.4-21.7,7.5-34.4c11.6-2.4,30.6-5.7,51.4-3.7C1635.5,1997.8,1626.2,2005.2,1620.5,2025.5z
			 M1623.5,2050.8c-11.3,2.3-22.3,5.9-32.8,10.8c0.2-6.3,0.4-12.6,0.9-19.3c9.2-1.8,18.5-3,27.9-3.6
			C1620.5,2042.9,1621.9,2046.9,1623.5,2050.8z M1550.9,2041.1c-0.5-6.6-0.5-14-3.3-21.4c12.6-9.9,26.4-16.1,38.9-20.8
			c-2.2,9.8-4.7,21.6-6.8,32.1C1576.7,2031.7,1561.9,2035.9,1550.9,2041.1z M1578.4,2045c-0.7,6.7-1,14.9-1,23.6
			c-15.9,9.3-30.3,21.1-42.5,34.9c4.8-12.8,9.1-24.8,10.2-28.6c1.7-6,3.1-12.1,4.2-18.2C1556.2,2053.2,1572.1,2046.8,1578.4,2045
			L1578.4,2045z M1503.3,2071.4c6.9-15.8,28.8-39.4,33.3-42.3c1.3,5.6,1,14.3,0.5,19C1527.9,2052.8,1511.2,2064.7,1503.3,2071.4
			L1503.3,2071.4z M1521.9,2099.3c-3.4,7.7-17.6,45.4-20.4,54.2c-2.9,9.9-4.3,20.2-4.1,30.6c-0.1,1.6-0.3,3.1-0.4,4.6
			c-10.1-27.8-11.8-58-4.9-86.8c10.4-12.5,31.1-30.9,41.6-36.5C1530.6,2076.9,1526.6,2088.2,1521.9,2099.3L1521.9,2099.3z"/>
	</g>
	<g id="REMEJAS">
		<path id="LABAS_GAS_copy_3" class="st0" d="M917.6,113.9l7.6-111.4l-28-2.5l-10.8,139.7l86.1,6.1l1.4-27.7L917.6,113.9z
			 M1110.2,160.3c-4-15.8-7.8-30.3-11.4-43.5c-3.6-13.1-7-25.4-10.4-36.9c-3.4-11.4-6.7-22.2-10.1-32.4c-3.3-10.1-6.7-20-10.1-29.6
			l-25.4-3.2c-4.6,8.6-9.2,17.5-13.6,26.7c-4.5,9.3-9.1,19.2-13.8,29.7c-4.8,10.6-9.7,22-14.8,34.3c-5.2,12.4-10.7,26-16.7,40.9
			l29.5,3.3c1.7-4.8,3.6-9.7,5.5-14.8c1.9-5,3.9-10,5.8-15l48.2,5.5c1.3,5.3,2.6,10.6,3.9,15.9c1.3,5.4,2.6,10.6,3.7,15.7
			L1110.2,160.3z M1055.6,54.6c1,3.5,2.1,7.6,3.4,12.2c1.3,4.6,2.7,9.7,4.1,15.3c1.5,5.6,2.9,11.5,4.5,17.7l-35-4.1
			c2.3-5.7,4.6-11.2,6.8-16.4c2.2-5.2,4.2-9.9,6-14.1c1.8-4.3,3.3-8,4.7-11.2c1.4-3.2,2.4-5.8,3.1-7.6
			C1053.8,48.3,1054.6,51.1,1055.6,54.6L1055.6,54.6z M1207.9,166.5c9.4-5.9,14.4-16.1,15-30.5c0.3-6.7-0.8-13.5-3.3-19.7
			c-2.5-6-7.3-11.3-14.6-15.8c9.3-4.7,14.1-12.3,14.6-22.9c0.4-6.2-0.6-12.4-3-18.2c-2.2-5.1-5.6-9.6-9.9-13.2
			c-4.6-3.8-9.9-6.8-15.6-8.8c-6.5-2.4-13.3-4.2-20.1-5.3c-5.5-1-11.4-1.7-17.8-2.3c-5.9-0.5-11.9-0.7-17.8-0.6l-9.3,131.3
			c6.6,2.8,13.4,5,20.4,6.7c6.6,1.5,13.2,2.8,19.8,3.9C1184.6,174,1198.4,172.4,1207.9,166.5L1207.9,166.5z M1173.2,109.5
			c7.6,1.3,13.4,3.6,17.4,6.9c4,3.4,5.8,8.2,5.5,14.5c-0.3,7.1-3.1,11.6-8.1,13.5c-5.1,1.9-11.7,2.1-19.7,0.8
			c-2.8-0.5-5.3-0.9-7.6-1.4c-2.3-0.5-4.4-1.1-6.4-1.6l2.2-35.5L1173.2,109.5z M1159.7,54.6c2,0.1,4.4,0.3,6.9,0.7s5,0.8,7.2,1.2
			c7,1.2,12.2,3.2,15.6,5.9c3.5,2.8,5.1,6.8,4.8,12.1c-0.3,5.2-2.2,8.7-5.8,10.5c-3.6,1.8-9.5,2-17.6,0.6l-12.9-2.2L1159.7,54.6z
			 M1348.1,205c-3.7-15.9-7.2-30.4-10.6-43.7c-3.3-13.2-6.5-25.6-9.7-37.1c-3.1-11.5-6.2-22.4-9.3-32.7c-3.1-10.2-6.2-20.2-9.4-29.9
			l-24-5.5c-4.4,8-8.7,16.3-12.9,24.9c-4.2,8.7-8.6,17.9-13.1,27.7c-4.5,9.9-9.3,20.6-14.1,32.1c-4.9,11.6-10.2,24.3-15.9,38.3
			l27.7,6c1.6-4.5,3.4-9.1,5.2-13.9c1.8-4.7,3.7-9.4,5.5-14.1l45.4,10c1.2,5.3,2.4,10.6,3.6,16c1.2,5.4,2.4,10.6,3.4,15.7
			L1348.1,205z M1297,96.1c0.9,3.5,2,7.6,3.2,12.2c1.2,4.7,2.5,9.8,3.8,15.4c1.3,5.6,2.7,11.5,4.1,17.8l-33-7.4
			c2.2-5.4,4.4-10.5,6.5-15.4c2.1-4.8,4-9.3,5.7-13.3c1.7-4,3.2-7.5,4.5-10.5c1.3-3,2.3-5.4,3-7.2
			C1295.3,89.9,1296.1,92.6,1297,96.1z M1381.2,188c-4.3-2.8-8.4-6-12.1-9.6l-9.4,22.1c1.5,1.5,3.3,3.2,5.4,5c2.5,2.1,5.1,4,7.9,5.7
			c3.4,2.2,7,4.1,10.6,5.8c4.4,2.1,9,3.8,13.7,5.1c15.1,4.4,26.7,4.1,34.6-0.8c7.9-4.9,12.2-13.6,13-26.2c0.4-5.7,0.1-11.4-1.1-17
			c-1.1-4.8-3-9.4-5.6-13.5c-2.8-4.4-6.2-8.3-10.1-11.8c-4.1-3.7-9-7.7-14.6-11.9c-2.7-2-5.2-3.8-7.4-5.5c-2.1-1.6-4-3.4-5.8-5.4
			c-1.5-1.6-2.8-3.5-3.8-5.6c-0.9-2-1.2-4.2-1-6.4c0.3-4,1.9-6.5,4.6-7.6c2.8-1.1,7.1-0.8,13.1,1c4.8,1.3,9.3,3.4,13.5,6.2
			c3.5,2.4,6.8,5.1,9.9,8l8.6-20.5c-4-3.7-8.3-7.1-12.9-10c-5.9-3.7-12.2-6.6-18.9-8.5c-5.5-1.8-11.2-2.6-17-2.4
			c-4.7,0.1-9.3,1.4-13.4,3.7c-3.9,2.3-7,5.6-9.2,9.6c-2.5,4.7-4,9.8-4.3,15.1c-0.6,5.4-0.1,10.8,1.4,16c1.4,4.6,3.5,8.9,6.2,12.8
			c2.7,3.8,5.8,7.3,9.3,10.3c3.5,3.1,7.1,5.9,10.6,8.5c8.2,5.8,13.9,10.6,17.2,14.5c3.3,3.9,4.7,8,4.4,12.4
			c-0.1,1.9-0.5,3.7-1.2,5.4c-0.7,1.5-1.8,2.7-3.3,3.5c-1.8,0.9-3.8,1.3-5.9,1.3c-3.1-0.1-6.1-0.6-9-1.5
			C1392.9,194.2,1386.8,191.5,1381.2,188L1381.2,188z M1581.8,175.9c3.9,3.1,7.5,6.5,10.8,10.1l9.3-19.7c-0.8-0.9-2-2.3-3.8-4.2
			c-2.2-2.2-4.5-4.3-6.9-6.2c-3.3-2.5-6.7-4.9-10.2-7.1c-4.3-2.6-8.8-4.9-13.5-6.9c-6.7-3-14-4.5-21.4-4.5c-6.6,0-13.1,1.9-18.7,5.4
			c-5.6,3.5-10.3,8.7-14.2,15.6c-3.9,6.9-6.6,15.7-8,26.4c-1.4,10-1.4,20.2,0.1,30.1c1.4,9.1,4.2,17.9,8.3,26.1
			c4,7.8,9.3,14.8,15.8,20.7c6.5,6,14.1,10.8,22.2,14.1c9.8,4.1,18.1,6.7,24.9,7.8c6.8,1.1,11.8,1.6,14.9,1.4l6.6-65.2l-24.5-10.2
			l-5,45.4c-1.8-0.3-3.6-0.8-5.3-1.4c-2-0.7-4.4-1.6-7.1-2.8c-4.9-2-9.3-5-13.1-8.7c-3.6-3.7-6.5-8.1-8.5-12.8
			c-2.1-5-3.5-10.4-4.1-15.8c-0.6-6-0.5-12,0.2-18c1.6-12.9,5.4-21.9,11.4-27.1c5.9-5.2,14.5-5.4,25.8-0.7
			C1573,169.9,1577.6,172.6,1581.8,175.9z M1710.9,341.3c-2.6-15.7-5-30.1-7.3-43.3c-2.3-13.1-4.6-25.3-6.9-36.8
			c-2.3-11.4-4.5-22.3-6.8-32.5c-2.3-10.2-4.6-20.2-7-29.9l-21.6-10.3c-4.5,6.5-8.8,13.2-13.2,20.3c-4.3,7.1-8.8,14.8-13.5,22.9
			c-4.7,8.2-9.5,17.1-14.6,26.7c-5.1,9.7-10.6,20.3-16.5,32l24.8,11.8c1.7-3.8,3.6-7.7,5.5-11.7c1.9-4,3.9-7.9,5.8-11.9l41,19.5
			c0.8,5.2,1.6,10.4,2.4,15.7c0.8,5.3,1.6,10.5,2.3,15.5L1710.9,341.3z M1669.9,228.3c0.6,3.5,1.4,7.5,2.2,12.1
			c0.9,4.6,1.7,9.7,2.7,15.2c0.9,5.5,1.9,11.4,2.8,17.5l-29.8-14.2c2.3-4.5,4.6-8.8,6.8-12.9c2.2-4,4.2-7.7,5.9-11.1
			s3.3-6.3,4.7-8.8c1.4-2.5,2.4-4.5,3.1-6C1668.7,222.1,1669.2,224.9,1669.9,228.3L1669.9,228.3z M1745.7,339.3
			c-3.8-3.6-7.2-7.5-10.4-11.7l-9.1,19.3c1.2,1.7,2.8,3.7,4.6,5.9c2.1,2.5,4.4,4.9,6.7,7.1c2.9,2.8,6,5.4,9.2,7.8
			c3.8,2.9,7.8,5.4,12,7.7c13.3,7.3,23.6,9.5,30.9,6.4c7.2-3,11.4-10.6,12.6-22.5c0.6-5.5,0.5-11.1-0.4-16.6
			c-0.8-4.9-2.4-9.7-4.6-14.2c-2.4-4.8-5.3-9.3-8.6-13.4c-3.5-4.4-7.7-9.2-12.6-14.4c-2.3-2.4-4.5-4.7-6.4-6.8c-1.8-2-3.5-4.1-5-6.3
			c-1.3-1.9-2.4-4-3.1-6.1c-0.7-2-0.9-4.2-0.6-6.3c0.4-3.7,1.9-5.9,4.4-6.4c2.5-0.5,6.4,0.6,11.6,3.5c4.3,2.3,8.3,5.2,11.8,8.6
			c3.1,3,5.9,6.3,8.6,9.7l8.4-18c-3.4-4.3-7.1-8.4-11.1-12.2c-5-4.7-10.6-8.6-16.6-11.9c-4.7-2.7-9.7-4.6-15-5.7
			c-4-0.8-8.2-0.5-12,1c-3.5,1.5-6.5,4.1-8.5,7.3c-2.2,3.5-3.7,8.1-4.4,13.6c-0.7,5.2-0.5,10.5,0.6,15.6c1.1,4.7,2.8,9.3,5,13.5
			c2.2,4.2,4.8,8.1,7.9,11.8c3,3.6,6.1,7.1,9.1,10.3c7.1,7.2,12,13.1,14.8,17.5c2.8,4.4,3.9,8.7,3.5,12.8c-0.1,1.7-0.6,3.4-1.3,4.9
			c-0.6,1.3-1.7,2.3-3,2.7c-1.7,0.5-3.6,0.5-5.3,0c-2.8-0.7-5.5-1.9-8-3.3C1755.7,347.6,1750.4,343.8,1745.7,339.3L1745.7,339.3z"/>
	</g>
</g>
</svg>
