<?xml version="1.0" encoding="utf-8"?>
<!-- Generator: Adobe Illustrator 22.1.0, SVG Export Plug-In . SVG Version: 6.00 Build 0)  -->
<svg version="1.1" id="Juventus_xA0_Image_3_" xmlns="http://www.w3.org/2000/svg" xmlns:xlink="http://www.w3.org/1999/xlink"
	 x="0px" y="0px" width="371.3px" height="275px" viewBox="0 0 371.3 275" style="enable-background:new 0 0 371.3 275;"
	 xml:space="preserve">
<style type="text/css">
	.st0{fill:#DF002C;}
	.st1{fill:#FFFFFF;}
	.st2{fill:#D2D2CD;}
</style>
<g>
	<path class="st0" d="M88.7,24.1L134.6,52c0,0,10.3-8.2,21.5-10.7c11.2-2.5,22.6-6.2,33.4-5.3s26.3,3.9,32.9,7.1
		c6.6,3.2,11.2,4.8,11.2,4.8l39.8-26.5c0,0,32.2,32.4,32.9,32.4c0.7,0-6.9,13.5-6.9,13.5s11.7,20.6,14.2,28.3s5.3,25.1,5.3,25.1
		s-11.2,84.1-26.3,96.6c-15.1,12.6-28.8,29.7-40.2,34.7c-11.4,5-38.4,17.8-51.6,17.6c-13.3-0.2-45.7,5-67.6-8.9
		c-21.9-13.9-35.2-19.6-44.3-29S72.2,213,67.4,206.2c-4.8-6.9-15.1-39.8-16.7-62.6c-1.6-22.8,2.3-32.9,5.7-42.3
		c3.4-9.4,12.3-29.2,12.3-29.2L59.9,62l8.9-16L88.7,24.1z"/>
	<path d="M151.4,205c0,0,2.8,12.5,8.1,15.5c5.4,3,12.3,2.9,12.3,2.9s-10.8-6.5-13.7-19.4"/>
	<path d="M188.7,71.2l0.7-19.2l-10.2,16.7c0,0-20.1-6.5-21.2-6.7C157,61.8,175,76.9,175,76.9l-4,16.7l12-11.5l29.1,13.2L188.7,71.2z
		"/>
	<g>
		<path d="M232.2,27.1c-0.8,1.5-1.5,3-2.3,4.5c-1.5-0.8-2.9-1.5-4.4-2.2c0.3-0.7,0.6-1.3,0.9-2c-1.8-0.8-3.7-1.6-5.5-2.4
			c-0.5,1.3-1,2.5-1.5,3.8c0.9,1.3,1.7,2.6,2.5,3.9c2.7,1.2,5.3,2.5,7.9,3.9c1.5-0.2,3-0.3,4.5-0.4c1.5-2.6,3-5.1,4.6-7.7
			c-0.7-1.4-1.5-2.8-2.3-4.1c-2.3-1.3-4.6-2.5-7-3.6c0.5-1.1,1-2.1,1.5-3.2c-1.4-1.1-2.8-2.2-4.2-3.2c3.3,1.4,6.6,2.9,9.8,4.5
			c-0.3,0.6-0.6,1.2-0.9,1.7c2,1,3.9,2.1,5.9,3.3c0.6-1,1.2-2.1,1.9-3.1c-0.8-1.5-1.7-3-2.6-4.5c-3.3-1.8-6.8-3.5-10.2-5
			c-1.5,0.3-3,0.6-4.5,0.9c-1,2.6-2.1,5.3-3.1,7.9c0.8,1.2,1.7,2.4,2.4,3.6C227.5,24.8,229.9,26,232.2,27.1z"/>
		<path d="M178.1,2.4c-0.1,6.9-0.2,13.8-0.4,20.6c1.9,0,3.8,0.1,5.7,0.3c0.3-4.1,0.6-8.2,0.9-12.3c-0.2-2-0.4-3.9-0.6-5.9
			c0.5,2,1,3.9,1.5,5.9c1.5,4.3,2.8,8.6,3.9,12.9c2.4,0.3,4.7,0.7,7.1,1.2c1.5-7.5,3.1-15.1,4.6-22.6c-3.2-0.6-6.4-1.2-9.6-1.6
			c0,0.3-0.1,0.6-0.1,0.9c0.8,0.6,1.6,1.1,2.4,1.7c-0.5,3.2-0.9,6.4-1.4,9.6c0,1.7,0,3.5,0,5.2c-0.3-1.7-0.6-3.4-0.9-5.2
			c-1.3-4.3-2.7-8.5-4.4-12.8c-3.9-0.3-7.8-0.5-11.6-0.5c0,0.3,0,0.6,0,0.9C176.3,1.4,177.2,1.9,178.1,2.4z"/>
		<path d="M173.9,23.1c0-0.3,0-0.7,0-1c-0.9-1.2-1.8-2.5-2.8-3.7c-2.8,0.1-5.5,0.4-8.3,0.7c-0.2-1.7-0.4-3.5-0.7-5.2
			c2.6-0.3,5.2-0.6,7.8-0.7c-0.1-1.4-0.2-2.7-0.2-4.1c-2.7,0.2-5.4,0.4-8,0.7c-0.1-1.1-0.3-2.1-0.4-3.2c-1.7-0.1-3.5-0.2-5.2-0.3
			c4.8-0.8,9.6-1.3,14.4-1.6c0.9-1.3,1.9-2.6,2.9-3.8c0-0.3,0-0.6,0-1c-6.6,0.2-13.2,0.8-19.7,2c1.4,7.5,2.8,15.1,4.2,22.6
			C163.1,23.8,168.5,23.2,173.9,23.1z"/>
		<path d="M135.4,14.2c0.3-0.9,0.7-1.9,1-2.8c1-0.4,2.1-0.7,3.1-1c1.7,5.2,3.3,10.5,5,15.7c-0.4,0.4-0.7,0.9-1.1,1.3
			c0.1,0.3,0.2,0.6,0.3,0.9c2.7-0.9,5.4-1.7,8.2-2.4c-0.1-0.3-0.2-0.6-0.2-1c-0.5-0.2-1.1-0.4-1.6-0.6c-1.4-5.3-2.8-10.6-4.1-15.9
			c1-0.3,2-0.5,3.1-0.8c0.8,0.6,1.6,1.2,2.3,1.8c0.3-0.1,0.7-0.1,1-0.2c-0.5-2.3-0.9-4.5-1.4-6.8c-6.4,1.3-12.8,3.1-19,5.5
			c0.8,2.2,1.6,4.3,2.4,6.5C134.8,14.4,135.1,14.3,135.4,14.2z"/>
		<path d="M202.9,26.4c3,0.7,6,1.6,8.9,2.7c1.2-0.5,2.4-1,3.6-1.4c2.1-5.6,4.2-11.1,6.4-16.7c-0.8-1.2-1.5-2.4-2.3-3.6
			c-3.6-1.3-7.3-2.4-11-3.3c-1.4,0.5-2.7,1.1-4.1,1.7c-1.3,5.8-2.6,11.6-3.8,17.5C201.4,24.3,202.1,25.3,202.9,26.4z M215.1,10.3
			c-1.5,4.6-3,9.3-4.5,13.9c-1.4-0.4-2.7-0.8-4.1-1.2c1.1-4.1,2.3-8.3,3.4-12.4c-1.4-1-2.8-1.9-4.3-2.9
			C208.8,8.4,212,9.3,215.1,10.3z"/>
		<path d="M113.1,19.5c3,5.2,6.1,10.4,9.1,15.6c1.3,0.3,2.6,0.5,3.9,0.8c2.8-1.5,5.7-2.9,8.6-4.2c0.5-1.2,1.1-2.4,1.7-3.6
			c-2.5-6.3-5-12.7-7.5-19c-2.1,0.8-4.1,1.7-6.2,2.7c2.6,5.7,5.3,11.4,7.9,17.1c-1.4,0.6-2.7,1.3-4.1,2c-2.9-5.6-5.7-11.2-8.6-16.8
			c-2.8,1.4-5.6,3-8.3,4.7c0.2,0.3,0.3,0.5,0.5,0.8C111,19.6,112.1,19.5,113.1,19.5z"/>
		<path d="M323.7,128.2c-0.7-12.3-3.9-24-8.1-35.5c-3-8.2-7.2-15.8-11.4-23.4c-1.1-2.1-1-2.6,0.4-4.4c2-2.6,3.9-5.4,5.9-8
			c0.7-1,0.6-1.9-0.1-2.9c-2.9-3.7-5.8-7.4-8.8-11c-8.3-9.7-18.1-17.8-28.2-25.6c-1.1-0.8-1.9-0.5-2.9,0.1
			c-13.3,8.9-26.7,17.8-40,26.7c-13.5-7-28.9-10.9-45.1-10.9c-18.2,0-35.2,5-49.7,13.6c-15.7-8.8-31.5-17.7-47.2-26.5
			c-0.7-0.4-1.1-0.4-1.7,0.3C81.4,26.9,76,33,70.7,39.2c-5.8,6.9-11.2,14-15.4,22c-0.9,1.7-0.9,1.9,0.4,3.4c2.4,2.6,4.7,5.3,7.1,7.9
			c0.9,1,1.1,1.9,0.5,3.2c-1,1.9-1.9,3.9-2.8,5.8c-12.5,26.2-17.2,53.6-12,82.4c3.8,21.3,12.9,40.2,26.3,57c6.4,8,14,14.8,21.7,21.4
			c15.1,13,32.3,22.2,51.5,27.6c12.8,3.6,25.9,5.5,39.2,4.9c5.5-0.3,11.1-0.6,16.6-1.4c13.2-1.9,25.8-6.1,37.7-11.9
			c22.1-10.7,40.8-25.8,55.5-45.6c4.9-6.7,9.6-13.5,13.5-20.9c4.2-8,6.8-16.7,9.4-25.3C323.8,156.2,324.4,142.3,323.7,128.2z
			 M207.7,50.7c1.1-4.6,5.2-6.9,9.9-5.2c4.2,1.5,8.4,3.4,12.3,5.6c9.4,5,17.4,11.8,24.3,19.9c0.2,0.3,0.4,0.5,0.6,0.8
			c-7.1-2.7-14.4-4.4-21.8-5.3c-7.2-1.2-15.6-1.4-24.5-0.9c-0.4-4.1-0.9-8-1.3-12C207.3,52.6,207.4,51.7,207.7,50.7z M263.5,85.1
			c1.3,1,2.5,2.4,3.3,3.8c5.6,10.6,9,21.8,10,33.7c0.6,6.7,0.4,13.3-0.5,19.8c-0.6,3.5-1.4,7-2.1,10.5c-1.5-3.7-2.9-7.4-4.5-10.9
			c-3.3-7.3-8.2-13.6-13.9-19.3c-8.1-7.9-16.1-15.8-24.1-23.8c-6.7-6.7-12.8-13.8-17.3-22.2c-0.7-1.3-1.4-2.7-2.1-4.1
			c-0.1-0.1-0.1-0.3-0.1-0.5c0.2-0.1,0.4-0.1,0.6-0.2c10.3-0.5,20.5,0,30.4,2.9C250.6,77,257.5,80.4,263.5,85.1z M215.3,89.5
			c5.2,7,11.3,13.3,17.6,19.4c6.3,6.2,12.8,12.2,18.9,18.6c5.8,6,10.4,12.8,13.6,20.5c5.3,12.8,3.9,24.8-4.5,35.9
			c-11.2,14.8-25.2,26-42.5,33c-0.4,0.2-0.8,0.3-1.3,0.5c0-0.4-0.1-0.8-0.1-1.1c-0.4-8.8-0.6-17.7-1.4-26.5
			c-1.3-14.5-3.9-28.7-7.3-42.9c-5.6-23.8-13.4-46.9-21.8-69.8c-0.1-0.4-0.3-0.8-0.5-1.3c4.3-0.7,8.5-1.4,12.6-2.1
			c1.3-0.2,2.5-0.4,3.8-0.6c2.1-0.3,3.1,0.2,4,2.2C209.1,80.3,212,85,215.3,89.5z M128.7,203.7c-5.8-5.7-8.3-7.8-13.6-13.9
			c-9.6-10.9-15.6-23.7-18.9-37.7c-0.3-2.7-0.5-5.4-0.5-8.1c0-0.9,0-1.8-0.1-2.7c0.4-1.5,0.9-3,1.6-4.4
			c6.3-13.4,15.7-24.3,27.3-33.3c6.9-5.3,14.3-9.6,22-13.6c1.9-1,3.7-2,5.7-3.1c2.4,6.8,3.3,13.7,2.8,20.7
			c-0.6,8.1-3.2,15.8-5.7,23.5c-3.2,9.7-6.7,19.3-9.9,29.1c-3.2,9.7-7.5,16.8-8.3,27c-0.4,4.8-1.3,6.1-1.4,11c0,0.9-2.9,1.6-3.5,1.5
			C124.5,198.9,128.8,203.7,128.7,203.7z M134.9,89.1c-16.1,9.4-30,21.5-40,38.2c-0.1-4.4,0-8.7,0.7-12.9c0.2-1.2,0.4-2.5,0.6-3.7
			c2.7-12.4,7.9-23.9,15.6-34.5c3.2-4.3,7.2-7.5,12.6-8.7c9.9-2.2,21.2,3.7,25,13C141.1,85.1,134.9,89.1,134.9,89.1L134.9,89.1z
			 M136,191.7c0.5-9.3,5.2-16.6,8.1-25.6c2.7-8.3,5.7-16.6,8.6-24.9c2.9-8.2,5.7-16.5,7.2-25.1c1.9-10.5,1.7-21-1.5-31.3
			c0-0.1,0-0.2-0.1-0.5c2.2-0.7,4.2-1.3,6.3-2c4.1-1.3,8.2-2.7,12.3-4c2.3-0.7,3.4-0.2,4.3,2c7.2,19.2,13.8,38.7,19,58.6
			c3.4,13.3,6.3,26.8,8.1,40.4c1.3,9.9,2.5,19.8,2.5,29.7c0,2.3-0.2,4.6-0.4,6.8c-0.1,2.2-1.6,3.9-3.7,4.4
			c-18.5,4.5-36.6,3.2-54.3-3.7c-2.4-0.9-4.8-2.1-7.2-3.1c-4.3-1.8-15.3-9.9-15.3-14.3C129.9,195.8,135.8,195.1,136,191.7z
			 M205.5,42.4c-6.5,7.2-4.8,15.3-2.7,23.5c-6.6,0.6-13.2,1.4-19.6,2.5c-4.2-8.8-8.4-17.7-12.6-26.5c-0.1-0.2-0.1-0.4-0.2-0.6
			C176.8,38.9,197.4,38.9,205.5,42.4z M160.1,43.3c1.6-0.5,3.3,0.1,4.1,1.6c4.4,8.2,8.7,16.4,13,24.7c-7,1.5-14.8,4.7-21.7,8.1
			c-5.5-12.4-15.2-17.5-29.2-15.9c0.8-0.7,1.3-1.1,1.8-1.5C137.6,52.3,148.2,46.6,160.1,43.3z M314.6,152.3
			c-2.1,18-8.1,34.7-17.8,50c-10.4,16.5-23.8,30.2-39.9,41.2c-19.2,13.1-40.2,20.9-63.4,22.9c-14.5,1.3-28.7-0.1-42.6-4.1
			c-24.8-7.1-45.9-20.4-63.4-39.4C74,208.2,64,191.7,59.2,172.1c-2.5-10.2-4.6-20.4-4.3-31c0.1-4.1,0.6-8.2,0.9-12.3
			c0.9-12.3,3.9-24.1,8.7-35.5c2.3-5.5,4.9-10.9,7.4-16.3c1.3-3,1-5.6-1.2-8.1c-1.4-1.5-2.7-3.1-4-4.6c-2.4-2.6-2.5-2.1-0.4-5.3
			c6.5-10,14.1-19.2,22.1-28c0.8-0.9,1.3-1.1,2.5-0.4c11.8,6.7,23.6,13.3,35.3,20c0.3,0.1,1.4,0.9,2.1,1.3
			c-24.6,17.8-40.5,46.8-40.6,79.7c0,2,0.1,4,0.2,6c0,0.1,0,0.2,0,0.2c0,0.2,0,0.5,0.1,0.7c0,0.5,0.1,0.9,0.1,1.4
			c0.3,3.6,0.6,8.8,1.6,12.5c2.2,15.7,11.1,33.5,23.2,46.7c24.9,25.8,56.4,36.3,91.5,29.8c33.8-6.3,56.7-24.6,71.1-56
			c2.8-6.9,5.2-15.4,6.2-21.8c0.3-1.5,0.6-3.1,0.8-4.7c0.2-1.3,0.3-2.7,0.4-4c0.4-3.7,0.7-7.4,0.6-11.2c0-4.5-0.3-9-0.9-13.4
			c0-0.1,0-0.2,0-0.3c-3.9-27.8-19.6-51.8-41.8-67c-0.1-0.1-0.1-0.1-0.2-0.2c0,0-0.1,0-0.1,0c-0.6-0.4-1.2-0.8-1.9-1.2
			c0.6-0.5,1.3-1,1.5-1.2c10-6.7,20-13.4,30-20.1c1.8-1.2,2.6-1.3,4.2,0.2c4.6,4.1,9.3,8,13.7,12.4c4.3,4.3,8.3,9,12.3,13.5
			c1.2,1.3,1.1,1.9,0,3.3c-1.3,1.8-2.7,3.6-4,5.4c-1.8,2.6-2.1,5.4-0.8,8.2c0.6,1.3,1.4,2.5,2.1,3.7c8.1,13.2,13,27.6,16.2,42.6
			C316.3,128.6,316,140.5,314.6,152.3z"/>
		<path d="M162.9,236.5v2c1.3,0.5,2.7,0.9,4,1.2c-0.6,0.2-1.2,0.3-1.8,0.4v12.6c1.2,0.4,2.5,0.7,3.7,1v-16.6c-1-0.2-1.9-0.5-2.9-0.8
			C165,236.5,163.9,236.5,162.9,236.5z"/>
		<path d="M198.3,238.1c-0.7,0.8-1.3,1.5-2,2.2v6.8c0.7,0.5,1.3,1,2,1.5c1.1-0.2,2.2-0.4,3.3-0.7c0.4-0.4,0.7-0.9,1.1-1.3v4.1
			c-0.9,0.2-1.8,0.4-2.7,0.6v-1.1c-1.2,0.3-2.5,0.5-3.7,0.7v2.2c0.7,0.5,1.3,1,2,1.5c2.1-0.4,4.2-0.9,6.2-1.4
			c0.6-0.8,1.3-1.6,1.9-2.4v-12.8c-0.6-0.5-1.3-0.9-1.9-1.4C202.4,237.3,200.4,237.7,198.3,238.1z M202.7,241.2v3.5
			c-0.9,0.2-1.8,0.4-2.7,0.6v-4.5c1.6-0.3,3.1-0.7,4.6-1.1C204,240.2,203.4,240.7,202.7,241.2z"/>
		<path d="M173.3,238.1c-0.7,0.5-1.3,1-2,1.5v6.8c0.7,0.8,1.3,1.5,2,2.2c1.1,0.2,2.2,0.4,3.3,0.5c0.4-0.3,0.8-0.6,1.1-0.9v4.1
			c-0.9-0.1-1.8-0.2-2.7-0.4v-1.1c-1.2-0.2-2.5-0.4-3.7-0.7v2.2c0.7,0.8,1.3,1.5,2,2.3c2.1,0.4,4.2,0.6,6.3,0.8
			c0.6-0.6,1.3-1.2,1.9-1.7v-12.8c-0.7-0.7-1.3-1.4-2-2.1C177.5,238.8,175.4,238.5,173.3,238.1z M177.8,242.9v3.5
			c-0.9-0.1-1.8-0.2-2.7-0.4v-4.5c1.6,0.2,3.1,0.4,4.7,0.6C179.1,242.4,178.5,242.6,177.8,242.9z"/>
		<path d="M185.8,239.2c-0.7,0.6-1.3,1.3-2,1.9v6.8c0.7,0.6,1.3,1.3,2,1.9c1.1,0,2.3,0,3.4-0.1c0.4-0.4,0.8-0.8,1.1-1.1v4.1
			c-0.9,0.1-1.8,0.1-2.8,0.1v-1.1c-1.3,0-2.5,0-3.8,0v2.2c0.7,0.6,1.4,1.3,2,1.9c2.1,0,4.2-0.1,6.3-0.3c0.6-0.7,1.3-1.4,1.9-2.1
			v-12.8c-0.7-0.6-1.3-1.1-2-1.7C190,239.1,187.9,239.2,185.8,239.2z M190.3,243.1v3.5c-0.9,0.1-1.8,0.1-2.8,0.1v-4.5
			c1.6,0,3.1-0.1,4.7-0.3C191.6,242.4,191,242.8,190.3,243.1z"/>
	</g>
	<path d="M276.3,199c-1,1.1-1.8,2.3-2.8,3.2c-3.3,2.9-7.3,3.6-11.4,3.6c-4.4,0-8.7-0.2-13.1-0.2c-3,0-5.9-0.4-8.7-1.1
		c-1.1-0.3-2.4-0.3-3.5,0c-2.4,0.6-4.7,0.9-7.1,0.8c-2.6-0.1-5.2-0.2-7.8-0.1c-3.5,0.1-7-0.2-10.3-1.3c-0.7-0.2-1.5-0.5-2.1-0.6
		c-2.8,0.5-5.5,1.4-8.3,1.6c-3.8,0.3-7.7,0.4-11.4-0.1c-3.4-0.4-6.7-0.1-10.1,0c-12.1,0.4-24.2,0.4-36.3,0.2c-2.6,0-5.3-1.2-7.9-1.8
		c-0.3-0.1-0.7-0.2-0.9,0c-2.6,1.7-5.5,2.1-8.4,2.3c-4.9,0.3-9.9,0.5-14.8,0.3c-3.8-0.2-7.5-1.1-10.3-4c-1.1-1.1-1.9-2.5-2.8-3.8
		c-0.6,0.7-1.3,1.4-1.8,2.2c-1.3,2-3.1,3.3-5,4.6c-0.2,0.2-0.5,0.3-0.8,0.4c-3.1,0.7-6.2,1.6-9.5,1.6c-5.3,0-10.5,0.3-15.8,0.5
		c-5,0.2-9.6-1-13.1-4.8c-0.8,0.7-1.5,1.4-2.2,2.1c-2.9,2.7-6.6,3.4-10.3,3.7c-6,0.4-12,0.8-18,0.9c-3.9,0-7.8-1-10.7-3.9
		c-2.9-2.8-5.6-5.8-8.4-8.8c-0.6-0.7-0.9-1.7-1.2-2.6c-1-3.1-1.3-6.3-1.2-9.6c0.1-3.2,0.1-6.4,0-9.6c-0.1-3.4,0.3-6.7,1.2-9.9
		c0.6-2.2,1.9-3.8,3.5-5.3c3.3-3,7.6-3.2,11.7-3.9c1.4-0.2,2.8-0.4,4.3-0.6c0-0.4,0.1-0.8,0.1-1.2c0-2.7,0-5.5-0.1-8.2
		c0-0.4-0.2-0.9-0.4-1.2c-2.1-1.8-3.3-4-4.1-6.7c-1.3-4.1-0.6-8,0.6-11.8c0.5-1.4,1.5-2.8,2.6-3.8c1.5-1.3,3.1-2.7,5.3-3.1
		c7.2-1.4,14.4-3.1,21.7-4.5c6.9-1.3,13.9-2.5,20.8-3.6c1-0.2,2.1,0.3,3.2,0.4c0.5,0,1-0.1,1.5-0.3c0.5-0.2,1-0.5,1.5-0.6
		c5.8-1,11.5-2.1,17.3-2.9c6.2-0.9,12.4-1.4,18.6-2.2c2.8-0.4,5.2,0.8,7.8,1.3c0.3,0.1,0.8,0.2,1,0c2.5-2.1,5.7-2.3,8.6-2.8
		c3.4-0.5,6.9-0.7,10.4-0.8c14-0.5,28.1-1.1,42.1-1.5c8.1-0.2,16.1,0,24.2,0.1c2,0,4.1,0.6,6.1,0.8c1,0.1,2.4-0.2,3.4-0.3
		c1.8-0.1,3-0.1,4.8-0.1c4.7,0.1,9.5,0.3,14.2,0.7c11.5,0.9,23,1.9,34.5,2.9c3.3,0.3,6.5,0.9,9.7,1.3c5.7,0.7,11.4,1.2,17,2
		c2.6,0.3,5.2,0.8,7.6,1.7c1.6,0.6,2.9,0.3,4.4,0.1c1.5-0.1,3,0.4,4.5,0.6c4.5,0.8,9.1,1.5,13.5,2.8c1.9,0.5,3.6,0.5,5.5,0.7
		c2.3,0.2,4.6,0.8,6.8,1.3c6.2,1.3,12.5,2.6,18.7,4.1c1.7,0.4,3.5,1.6,4.8,2.9c3.6,3.6,6.9,7.5,10.2,11.4c0.4,0.5,0.7,1.2,0.9,1.9
		c1.6,4.7,1.5,9.5,1.1,14.3c-0.2,2.4-1.2,4.8-1.9,7.1c-0.1,0.2-0.1,0.6,0,0.8c1.2,2.8,1.9,5.6,1.9,8.6c0,6.9,0.1,13.8,0,20.7
		c-0.1,3.9-1,7.6-3.8,10.6c-0.3,0.3-0.7,0.6-1,0.9c-2.2,1.6-4.4,3.1-6.4,4.9c-2.9,2.5-6.2,4-10,4.6c-0.5,0.1-1,0.1-1.5,0.1
		c-6.2-0.3-12.5-0.3-18.6-0.9c-3.3-0.3-6.8-0.8-9.4-3.3c-0.6-0.6-1.1-0.5-1.7,0c-2.5,1.9-5.5,2.4-8.4,2.5
		c-6.6,0.1-13.2-0.2-19.8-0.6c-3.9-0.2-7.8-0.9-10.8-3.7C278.4,201.6,277.4,200.3,276.3,199z"/>
	<g>
		<g id="Juventus_4_">
			<g>
				<path class="st1" d="M28.7,130.8c0,0.9,0,1.8,0,2.7c1.8,1,3.6,2,5.4,3c0,15.4,0.1,30.7,0.1,46.1c-2.6,0.2-5.2,0.4-7.9,0.6
					c0-5.4,0-10.7,0-16.1c-4.3,0.5-8.6,1.1-13,1.6v19.8c2.3,2.2,4.5,4.4,6.8,6.7c6.8-0.3,13.6-0.7,20.4-1c2.2-2.5,4.5-5.1,6.7-7.6
					c-0.1-19.8-0.2-39.6-0.3-59.5C40.9,128.3,34.8,129.5,28.7,130.8z M78.1,121.9c0.1,19.3,0.2,38.5,0.3,57.8
					c-3.4,0.2-6.8,0.4-10.2,0.6c-0.1-18.9-0.2-37.9-0.3-56.8c-6,0.9-12,2-18,3.1c0,0.9,0,1.9,0,2.8c1.7,1.1,3.5,2.2,5.2,3.3
					c0.1,17.7,0.2,35.4,0.3,53.1c2.3,2.5,4.6,5,6.9,7.5c7.5-0.3,14.9-0.5,22.4-0.8c2.2-2.8,4.5-5.6,6.7-8.5
					c-0.1-21.3-0.2-42.6-0.4-63.9C86.7,120.7,82.4,121.3,78.1,121.9z M119.4,163.3c-0.3,5.2-0.6,10.4-1,15.5
					c-0.4-5.2-0.8-10.3-1.1-15.4c-2.2-15.2-4.3-30.4-6.5-45.4c-5.9,0.6-11.7,1.2-17.6,2c0,1,0,2,0,3c1.8,1.3,3.6,2.6,5.5,4
					c3.8,21.4,7.6,43,11.3,65c5.6-0.1,11.3-0.2,16.9-0.3c4-25.1,8-50.4,12.1-75.9c-4.5,0.3-9,0.6-13.5,1
					C123.5,132.3,121.5,147.8,119.4,163.3z M174.2,175.2c-6.3,0-12.6,0.1-19,0.2c0-5.8,0-11.5,0-17.3c5.7-0.1,11.3-0.2,17-0.3
					c0-4.6,0-9.1,0-13.7c-5.7,0.1-11.4,0.2-17,0.4c0-3.6,0-7.2,0-10.7c-3.5-1-7-2-10.5-3c9.8-0.5,19.7-0.7,29.5-0.9
					c2-4.1,4.1-8.3,6.1-12.4c0-1.1,0-2.1,0-3.2c-13,0.1-26,0.5-39,1.3c0.1,25.2,0.2,50.4,0.3,75.6c12.9-0.1,25.8-0.2,38.7-0.2
					c0-1.1,0-2.2,0-3.3C178.3,183.5,176.2,179.4,174.2,175.2z M214.5,117.8c1.7,1.6,3.4,3.2,5.1,4.8c0,10.7-0.1,21.5-0.1,32.2
					c0.6,5.7,1.1,11.3,1.7,17c-1.2-5.5-2.3-11-3.5-16.6c-3.9-13.5-7.9-27.1-11.8-40.8c-7.6-0.2-15.3-0.3-22.9-0.2c0,1,0,2.1,0,3.1
					c1.9,1.6,3.7,3.3,5.5,5c0,22.9,0,45.8,0,68.7c4.6,0,9.2,0,13.8,0c0-13.7,0-27.3,0.1-41c-0.7-6.4-1.4-12.9-2.1-19.4
					c1.4,6.4,2.7,12.8,4.1,19.2c4,13.8,7.9,27.5,11.8,41.2c5.7,0.1,11.4,0.1,17.1,0.2c0.1-25.2,0.2-50.5,0.3-75.7
					c-6.3-0.4-12.7-0.7-19-0.9C214.5,115.8,214.5,116.8,214.5,117.8z M235.4,138.6c0.7,0,1.4,0.1,2.1,0.1c1.3-2.4,2.6-4.8,3.8-7.2
					c2.2,0.1,4.4,0.3,6.6,0.4c-0.1,17.8-0.2,35.6-0.2,53.5c-1.1,1-2.3,2-3.4,3c0,1.1,0,2.2,0,3.2c6.7,0.1,13.5,0.3,20.2,0.4
					c0-1.1,0-2.1,0-3.2c-1.1-1-2.2-2-3.3-3.1c0.1-17.6,0.2-35.2,0.3-52.8c2.1,0.2,4.3,0.4,6.4,0.6c1.3,2.5,2.5,5.1,3.8,7.6
					c0.7,0.1,1.5,0.1,2.2,0.2c0-7.3,0.1-14.6,0.1-22c-12.8-1.5-25.6-2.6-38.4-3.5C235.5,123.4,235.4,131,235.4,138.6z M304.9,180.4
					c-3.4-0.2-6.8-0.4-10.2-0.6c0.1-19.2,0.2-38.5,0.3-57.7c-6-0.9-12.1-1.7-18.1-2.4c0,1,0,2,0,3c1.7,1.7,3.5,3.4,5.2,5.1
					c-0.1,18.8-0.2,37.6-0.3,56.3c2.3,2.9,4.5,5.7,6.8,8.5c7.5,0.2,14.9,0.5,22.4,0.8c2.3-2.5,4.5-5.1,6.8-7.5
					c0.1-20,0.2-40.1,0.3-60.1c-4.3-0.8-8.6-1.5-12.8-2.2C305.1,142.5,305,161.4,304.9,180.4z M357.6,150.6c0-3.2,0-6.5,0-9.7
					c-2.8-2.9-5.7-5.9-8.5-9c-7.1-1.6-14.3-3-21.4-4.4c-2.5,2-4.9,4.1-7.4,6.2c0,8.3-0.1,16.6-0.1,25c2.6,2.7,5.1,5.3,7.7,7.9
					c5.5,0.6,11,1.2,16.4,1.8c0,4.6,0,9.3,0,13.9c-3.7-0.3-7.3-0.6-11-0.8c0-2.1,0-4.1,0-6.2c-4.4-0.4-8.8-0.8-13.2-1.1
					c0,4,0,7.9-0.1,11.9c2.9,2.8,5.8,5.5,8.7,8.1c6.8,0.3,13.6,0.6,20.4,0.9c2.8-2.2,5.6-4.3,8.4-6.4c0-8,0-15.9,0-23.9
					c-2.7-2.6-5.5-5.2-8.2-7.8c-5.3-0.9-10.6-1.7-16-2.4c0-3.3,0-6.6,0-9.9c-3.4-1.8-6.8-3.5-10.3-5.3c7.1,1.1,14.1,2.3,21.2,3.6
					c0,1.8,0,3.6,0,5.4C348.8,149,353.2,149.8,357.6,150.6z"/>
			</g>
		</g>
		<g id="Shape_28_copy_2_5_">
			<g>
				<polygon class="st2" points="226.5,122.7 226.7,191.3 233.2,191.4 233.4,115.7 				"/>
			</g>
		</g>
		<g id="Shape_29_copy_2_5_">
			<g>
				<polygon class="st2" points="217.5,154.6 205.9,114.4 201.3,120.2 220.3,191.1 221.2,171.6 				"/>
			</g>
		</g>
		<g id="Shape_34_copy_2_5_">
			<g>
				<polygon class="st2" points="261.2,185.6 261.4,133 254.4,140.4 254.3,191.7 264.5,192 264.5,188.7 				"/>
			</g>
		</g>
		<g id="Shape_42_copy_2_5_">
			<g>
				<polygon class="st2" points="26.3,167.1 19.5,174.8 20.2,195.2 26.4,183.2 				"/>
			</g>
		</g>
		<g id="Shape_30_copy_2_5_">
			<g>
				<polygon class="st2" points="200.2,130.9 195.6,138.9 194.9,191 202.3,191.1 202.3,150 				"/>
			</g>
		</g>
		<g id="Shape_19_copy_2_5_">
			<g>
				<polygon class="st2" points="47,127.1 39.7,137.7 40.6,194.2 47.3,186.6 				"/>
			</g>
		</g>
		<g id="Shape_20_copy_2_5_">
			<g>
				<polygon class="st2" points="91,120.2 84.1,129 84.6,192.6 91.3,184.1 				"/>
			</g>
		</g>
		<g id="Shape_21_copy_2_5_">
			<g>
				<polygon class="st2" points="67.9,123.5 60.9,130.9 60.9,180.8 62.2,193.3 68.2,180.3 				"/>
			</g>
		</g>
		<g id="Shape_59_copy_5_">
			<g>
				<polygon class="st2" points="338.2,160.7 320.2,158.6 327.9,166.5 344.3,168.3 				"/>
			</g>
		</g>
		<g id="Shape_52_copy_2_5_">
			<g>
				<polygon class="st2" points="323.2,139.3 326.6,146.4 326.6,153.6 333.4,154.5 333.5,144.6 				"/>
			</g>
		</g>
		<g id="Shape_51_copy_2_5_">
			<g>
				<polygon class="st2" points="328.4,178 328.8,194 333.3,181.4 333.3,175.2 				"/>
			</g>
		</g>
		<g id="Shape_22_copy_2_5_">
			<g>
				<polygon class="st2" points="130.9,125 120.1,191.7 127,191.6 139.1,115.7 				"/>
			</g>
		</g>
		<g id="Shape_24_copy_2_5_">
			<g>
				<polygon class="st2" points="180.3,114.3 168.4,122.8 158.6,126.3 144.7,130.8 174.2,129.9 180.3,117.5 				"/>
			</g>
		</g>
		<g id="Shape_25_copy_2_5_">
			<g>
				<polygon class="st2" points="172.2,144.1 164.2,151.6 147.2,158.3 172.2,157.9 				"/>
			</g>
		</g>
		<g id="Shape_27_copy_2_5_">
			<g>
				<polygon class="st2" points="174.2,175.2 168.1,183.8 141.4,191.1 180.3,191 180.3,187.7 				"/>
			</g>
		</g>
		<polygon class="st2" points="105.5,128.2 110.9,118 117.4,163.4 118.5,178.8 115.3,191.8 		"/>
		<g id="Shape_32_copy_2_5_">
			<g>
				<polygon class="st2" points="311.7,130.9 311,193.4 317.8,185.8 318.1,125.7 				"/>
			</g>
		</g>
		<g id="Shape_33_copy_3_5_">
			<g>
				<polygon class="st2" points="288.7,128.2 288.6,192.6 294.8,179.8 295.1,122 				"/>
			</g>
		</g>
		<g id="Shape_54_copy_2_5_">
			<g>
				<polygon class="st2" points="263.1,126 240,127.5 235.4,138.6 237.5,138.7 241.3,131.5 267.8,133.5 271.6,141.1 273.8,141.3 
					273.9,119.3 				"/>
			</g>
		</g>
		<g id="Shape_55_copy_2_5_">
			<g>
				<polygon class="st2" points="357.6,164.7 349.5,169.1 349.2,195 357.6,188.7 				"/>
			</g>
		</g>
		<g id="Shape_58_copy_3_5_">
			<g>
				<polygon class="st2" points="349.1,131.9 340.9,137.5 323.2,139.3 344.4,142.8 344.4,148.3 357.6,150.6 357.6,140.8 				"/>
			</g>
		</g>
	</g>
	<path class="st1" d="M363.4,158c2.8-2.4,3.3-5.8,3.3-8.6l0-1.2c0-1.9,0-4,0-6c-0.1-3.2-1.2-5.9-3.2-8.1c-1.7-1.8-3.5-3.6-5.1-5.4
		c-0.7-0.8-1.5-1.6-2.2-2.3c-1.6-1.7-3.4-2.7-5.5-3.1c-8-1.6-14.1-2.9-19.9-4.2c-1.1-0.2-2.2-0.4-3.1-0.4c-1.3,0-2.5,0.2-3.6,0.6
		c-2.3-2-5.1-2.4-6.5-2.7l-0.2,0c-3.2-0.5-6.6-1-9.9-1.7c-0.8-0.1-1.5-0.2-2.3-0.2c-1.5,0-2.9,0.3-4.1,0.9c-1.3-1.2-2.9-2-4.7-2.3
		c-0.6-0.1-1.2-0.2-1.9-0.3c-1.7-0.3-3.4-0.6-5.1-0.8c-2.6-0.3-5.3-0.6-7.8-0.9c-1.9-0.2-3.8-0.4-5.8-0.6c-2.2-0.2-4.3-0.5-6.5-0.8
		c-4.1-0.5-8.3-1-12.5-1.4c-8.7-0.8-17.2-1.4-24.4-1.9c-6.2-0.4-12-0.7-17.6-0.8l-0.2,0c-1.5,0-2.7,0.5-3.8,0.8
		c-0.2,0.1-0.4,0.1-0.6,0.2c-1.6-0.9-3.4-1.4-5.6-1.4c-2.3,0-4.5-0.1-6.8-0.1c-4-0.1-8.1-0.1-12.2-0.1c-2.7,0-5.1,0-7.4,0.1
		c-13.5,0.4-27.3,0.9-40.6,1.5l-5.2,0.2c-2.9,0.1-6.1,0.5-9.7,1.1c-2.5,0.4-4.4,1.8-5.7,3.9c-1.7-1.9-4.1-3-7-3
		c-0.4,0-0.8,0-1.2,0.1c-5.4,0.5-10.9,1.2-16.2,1.8c-1.2,0.1-2.4,0.3-3.6,0.4c-2.4,0.3-4.8,0.6-7.1,0.9c-1.3,0.2-2.5,0.4-3.8,0.5
		c-1.7,0.2-4.6,0.6-6.9,2.7c-1.2-0.6-2.5-0.9-3.7-0.9c-0.4,0-0.8,0-1.2,0.1c-6.5,1-13,2.2-19.1,3.3c-5.3,1-10.6,2.1-15.7,3.1
		c-1.9,0.4-3.7,0.8-5.6,1.1c-2.9,0.6-5.3,2.6-6.2,5.3c-0.5,1.5-1.4,4.6-0.7,7.9c0.6,3.1,2.5,5.5,5.2,7c0,3.5,0,7.1,0,10.6
		c0,1.5,0,3.1,0,4.6c0,0.2,0,0.4,0,0.6c-3.6,0.4-7.2,0.9-10.8,1.3l-0.3,0c-6.4,0.8-9.5,4.1-9.7,10.2c-0.2,5.4-0.1,10.8-0.1,16.1
		l0,2.3c0,3.1,0.9,5.5,2.7,7.3c2.3,2.3,4.7,4.6,7.2,7c1.7,1.6,4,2.4,6.7,2.4c0.2,0,0.3,0,0.5,0c6.8-0.3,13.6-0.6,19.3-0.9
		c3.2-0.2,5.8-1.5,7.7-3.8c1.1-1.4,2.3-2.7,3.5-4.1c1.1,1.2,2.1,2.3,3.1,3.5c2,2.3,4.7,3.5,7.7,3.5l0.2,0c6.5-0.1,13.4-0.4,21.2-0.7
		c3.8-0.2,7.7-2.5,9.8-5.4c1.4-2,2-2.8,3.4-5.2l0.8-1.2c1-1.7,1.1-1.8,1.6-2.7c0.4,2,1,3.9,1.4,5.8c0.5,2.9,2.5,7.8,9.8,8
		c1,0,2.1,0,3.1,0c4.1,0,8.3-0.1,12.9-0.4c3.5-0.2,6.1-1.5,7.7-3.8c1.7,2.3,4.5,3.5,8.2,3.5c13.8,0,25.8-0.1,36.9-0.2
		c1.5,0,2.9-0.5,3.9-0.9c0.3-0.1,0.6-0.2,0.8-0.3c0.2,0.1,0.5,0.2,0.8,0.3c1,0.4,2.2,0.9,3.6,0.9c2.3,0.1,4.7,0.1,7.2,0.1
		c1.8,0,3.7,0,5.7-0.1c3.9-0.1,6.2-1.5,7.5-3.1c0.5,0.5,1.1,1.1,1.7,1.5c1.8,1.1,4,1.7,6,1.8c3.1,0.1,6.3,0.1,9.3,0.2
		c1.7,0,3.4,0,5.1,0c0.1,0,0.3,0,0.4,0c1.2,0,4.2,0,6.9-1.9c2.7,2,5.7,2.1,7,2.1c2.2,0,4.4,0.1,6.6,0.2c3.7,0.1,7.5,0.2,11.2,0.2
		l0.1,0c5.6,0,9.4-3.1,10.1-8.3c0.1-0.9,0.3-2.4,0.2-4.1c0.3,0.6,0.7,1.1,1.1,1.6l0.9,1c1.5,1.8,2.9,3.5,4.1,5.2
		c2.3,3.4,5.7,5.1,10.3,5.2c3,0.1,6.1,0.2,9.1,0.3c3.5,0.1,7.1,0.2,10.7,0.3c0.1,0,0.2,0,0.3,0c3.3,0,6-1.2,8-3.5
		c0.3-0.4,0.6-0.7,0.9-1.1c0.7,0.7,1.4,1.3,2.1,2c2.1,2.1,4.8,3.2,7.9,3.4c6.1,0.3,12.5,0.6,19,0.8c0.1,0,0.3,0,0.4,0
		c2.3,0,4.5-0.7,6.3-2.1c0.5-0.4,1-0.8,1.6-1.2c1.8-1.4,3.5-2.7,5.3-3.9c3.3-2.2,5-5.5,5-9.7c0-1.8,0-3.5,0-5.3c0-5,0-10.2,0-15.2
		C366.7,163.5,365.6,160.4,363.4,158z M359.9,159.4c2.6,2,3.4,4.7,3.4,7.9c-0.1,6.8,0,13.7,0,20.5c0,2.9-0.9,5.2-3.5,6.8
		c-2.5,1.6-4.7,3.5-7.1,5.3c-1.3,1-2.7,1.4-4.2,1.4c-0.1,0-0.2,0-0.3,0c-6.3-0.2-12.6-0.5-18.9-0.8c-2.1-0.1-4.1-0.8-5.7-2.4
		c-1.5-1.5-3.2-2.9-4.8-4.4c-1.1,1.3-2.2,2.5-3.3,3.7c-1.4,1.7-3.3,2.4-5.4,2.4c-0.1,0-0.2,0-0.2,0c-6.6-0.2-13.2-0.4-19.8-0.6
		c-3.1-0.1-5.7-1.3-7.5-3.7c0,0-0.1-0.1-0.1-0.1l-11.2-14.1l-0.8,8.7c-0.2,1.2-0.3,2.3-0.4,3.1c-0.5,3.9-3.4,5.3-6.7,5.3
		c0,0,0,0-0.1,0c-5.9,0-11.9-0.3-17.8-0.4c-3-0.1-5.5-0.8-7-4c-1.6,3.1-4.1,3.8-7,3.8c-0.1,0-0.2,0-0.3,0c-4.8-0.1-9.5,0-14.3-0.2
		c-1.5-0.1-3.1-0.6-4.4-1.3c-0.9-0.5-1.6-1.6-2-2.7l-2-7.6l-1.2,7.7c-0.1,0.2-0.2,0.5-0.4,0.9c-1.1,2.2-3.3,2.8-5.6,2.9
		c-1.9,0-3.7,0.1-5.6,0.1c-2.4,0-4.7,0-7.1-0.1c-1.3,0-2.6-0.8-3.9-1.2c-0.2-0.1-0.5-0.1-0.7-0.1c-0.2,0-0.3,0-0.4,0.1
		c-1.5,0.4-2.9,1.2-4.3,1.2c-12.3,0.2-24.6,0.2-36.9,0.2c0,0,0,0,0,0c-2.4,0-4.7-0.5-5.9-2.9c-0.6-1.2-0.4-0.9-0.7-1.7
		c-0.1-0.3-0.1-0.5-0.2-0.8l-1.4-9c0,0-1,5.9-1.4,8.7c0,0.2-0.1,0.4-0.2,0.8c-0.7,3.9-3,5.1-6.2,5.2c-4.2,0.2-8.5,0.4-12.7,0.4
		c-1,0-2,0-3.1,0c-2.6,0-4.8-0.8-5.9-3.2l-4.1-15l-2.2,3.4l-8.2,12.5c-1.6,1.9-4.3,3-6.6,3.1c-7,0.3-14.1,0.5-21.2,0.7
		c-0.1,0-0.1,0-0.2,0c-2,0-3.7-0.8-5.1-2.3c-1.9-2.1-3.8-4.2-5.7-6.3c-2.1,2.4-4.2,4.6-6.1,7c-1.4,1.7-3.2,2.5-5.3,2.6
		c-6.4,0.3-12.8,0.7-19.3,0.9c-0.1,0-0.3,0-0.4,0c-1.6,0-3.1-0.4-4.3-1.5c-2.4-2.3-4.8-4.6-7.1-6.9c-1.3-1.3-1.7-3.1-1.7-4.9
		C7,182.1,6.9,176,7.1,170c0.1-4.2,1.7-6.3,6.7-6.9c3.8-0.5,7.6-1,11.5-1.4c0.1,0,0.2,0,0.3,0c0.7,0,1.4,0.2,2.2,0.3
		c0-1.4,0-2.9,0-4.3c0-5.4-0.1-10.7-0.1-16.1c0-0.8-0.2-1.4-1-1.7c-5.1-2.1-4.9-7.7-3.7-11.1c0.6-1.6,1.9-2.7,3.7-3.1
		c7.1-1.4,14.2-2.9,21.3-4.2c6.3-1.2,12.6-2.4,19-3.3c0.2,0,0.5-0.1,0.7-0.1c1.6,0,3.2,0.9,4.5,2.3c1.2-3,3.9-3.7,6.7-4.1
		c3.6-0.5,7.2-1,10.8-1.5c6.6-0.8,13.2-1.6,19.8-2.2c0.3,0,0.6,0,0.9,0c3.2,0,5.7,1.8,6.2,6.4c0.3,2.5,0.7,5,1.4,7.6
		c0.3-2.1,0.5-4.2,0.9-6.3c0.2-1.6,0.4-3.2,0.8-4.8c0.5-2.1,1.8-3.5,3.9-3.9c3.1-0.5,6.2-0.9,9.3-1c15.2-0.7,30.5-1.3,45.7-1.7
		c2.4-0.1,4.9-0.1,7.3-0.1c6.3,0,12.6,0.2,18.9,0.2c1.7,0,3.3,0.4,4.7,1.4c0.1,0.1,0.4,0.3,0.6,0.4c0.2-0.2,0.5-0.3,0.7-0.5
		c0.9-0.4,2.7-1,4-1c0,0,0.1,0,0.1,0c5.8,0.1,11.6,0.4,17.4,0.8c8.1,0.5,16.2,1.1,24.3,1.9c6.3,0.6,12.6,1.5,18.9,2.2
		c4.5,0.5,9.1,1,13.6,1.5c2.3,0.3,4.6,0.7,6.9,1.1c2.2,0.3,3.5,1.7,4.5,3.6c1.4-1.5,3-2.2,4.9-2.2c0.5,0,1.1,0.1,1.6,0.2
		c3.4,0.6,6.8,1.2,10.2,1.7c2.5,0.4,4.9,1.1,6.1,3.7c1.4-1.2,2.9-1.6,4.4-1.6c0.8,0,1.6,0.1,2.4,0.3c6.6,1.4,13.3,2.8,20,4.2
		c1.5,0.3,2.7,1,3.7,2.1c2.5,2.6,4.9,5.2,7.4,7.8c1.6,1.6,2.2,3.6,2.3,5.7c0.1,2.4,0,4.7,0,7.1c0,4.1-1.1,6.8-6,7.6
		C358.2,157.8,359,158.7,359.9,159.4z"/>
	<g id="Shape_14_copy_8_3_">
		<g>
			<polygon class="st1" points="197.4,84.1 187.7,73.9 195.7,70.4 186,71.2 186.2,63.2 182.5,70.4 175.2,59.5 179.2,71.2 169.8,68 
				175.2,72.7 167.5,75.9 177.7,75.9 176,84.4 182,78.2 189.2,93.6 186,78.2 			"/>
		</g>
	</g>
</g>
</svg>
