<?xml version="1.0" encoding="utf-8"?>
<!-- Generator: Adobe Illustrator 25.4.1, SVG Export Plug-In . SVG Version: 6.00 Build 0)  -->
<svg version="1.1" xmlns="http://www.w3.org/2000/svg" xmlns:xlink="http://www.w3.org/1999/xlink" x="0px" y="0px"
	 viewBox="0 0 287.2 287.2" style="enable-background:new 0 0 287.2 287.2;" xml:space="preserve">
<style type="text/css">
	.st0{fill-rule:evenodd;clip-rule:evenodd;fill:#FFFFFF;}
	.st1{fill-rule:evenodd;clip-rule:evenodd;fill:#F9A417;}
	.st2{fill-rule:evenodd;clip-rule:evenodd;}
</style>
<g id="Layer_2">
</g>
<g id="Layer_1">
	<circle class="st0" cx="143.6" cy="143.5" r="141.6"/>
	<path class="st1" d="M77.5,245.1c1.9,0,3.4,1.5,3.4,3.4c0,1.9-1.5,3.4-3.4,3.4s-3.4-1.5-3.4-3.4C74.2,246.6,75.6,245.1,77.5,245.1
		 M187.6,23.6c1.9,0,3.4,1.5,3.4,3.4c0,1.9-1.5,3.4-3.4,3.4s-3.4-1.5-3.4-3.4C184.3,25.1,185.8,23.6,187.6,23.6z M108.3,20.6
		c1.9,0,3.4,1.5,3.4,3.4s-1.5,3.4-3.4,3.4s-3.4-1.5-3.4-3.4C105,22.1,106.4,20.6,108.3,20.6z M86.6,15.7
		C157.1-15.7,240,16,271.4,86.6s-0.2,153.4-70.8,184.9s-153.4-0.2-184.9-70.8S16,47.2,86.6,15.7z M149,249
		c-42.3,2.2-83.5-21.4-101.8-62.5c-5.9-13.2-8.9-27-9.2-40.6h2.1c0,0.7,0.1,1.5,0.1,2.3c2.7,57.1,51.3,101.2,108.4,98.5
		c1-0.1,1.9-0.1,2.9-0.2C150.6,247.4,149.8,248.2,149,249z M155,38.7c36.1,3.9,69.1,26.4,84.9,61.9c23.7,53.2-0.2,115.6-53.4,139.4
		c-10.3,4.6-21,7.4-31.6,8.5c1-0.9,2-1.8,3-2.7c52.6-7.2,91.7-53.5,89.2-107.5C244.7,87.5,206,47,157.3,40.6
		C156.5,40,155.8,39.3,155,38.7z M100.6,47.2c15.8-7,32.4-9.9,48.5-9c0.6,0.6,1.3,1.2,1.9,1.9c-4-0.2-8.1-0.3-12.2-0.2
		c-54.6,2.7-97.4,47.2-98.6,101H38C39.1,101.5,62.2,64.3,100.6,47.2z M85.5,13.4c71.9-32.1,156.2,0.2,188.2,72.1
		c32.1,71.9-0.2,156.2-72.1,188.2c-71.9,32.1-156.2-0.2-188.2-72.1C-18.7,129.8,13.6,45.4,85.5,13.4z M47.8,146.1l143.7,2.7
		c-1,32.4-12.1,64.4-32.5,89.3c-5,0.8-10.1,1.2-15.4,1.2C91.6,239.4,49.1,197.9,47.8,146.1z M167,236.5c21.3-24.1,33.7-55,34.9-87.6
		l31.1-5.3l-31.1-5.3c-1.2-32.6-13.6-63.5-34.8-87.6c41.5,10.5,72.3,48.1,72.3,92.9C239.4,188.4,208.6,226,167,236.5z M159,49
		c20.4,24.9,31.4,57,32.4,89.3l-143.7,2.5c1.4-51.6,43.8-93,95.8-93C148.9,47.8,154,48.2,159,49z M143.8,104.7
		c-8,0-14.4,6.3-14.4,14.1l0,0c0,0.9,0.1,1.7,0.2,2.5v0.1l0,0c0.6,3.1,2.3,6.2,5.2,8.4c5.9,4.6,14.3,3.9,19.5-1.3l-6.1-6
		c-2,2.3-5.6,2.6-7.9,0.6c-0.6-0.5-1.1-1.1-1.4-1.8H158c0.2-0.9,0.2-1.7,0.2-2.6l0,0C158.2,110.9,151.7,104.7,143.8,104.7z
		 M138.3,117c0.7-2.3,2.9-3.9,5.5-3.9c2.6,0,4.7,1.7,5.5,3.9H138.3z M112.4,104.6c-2.1,0-4.1,0.5-5.9,1.2V93.7h-8.7v39h8.7v-1.2
		c1.8,0.8,3.8,1.2,5.9,1.2c8,0,14.4-6.3,14.4-14.1l0,0C126.8,110.9,120.4,104.6,112.4,104.6z M112.4,124.3c-3.2,0-5.8-2.5-5.8-5.6
		s2.6-5.6,5.8-5.6c3.1,0,5.8,2.5,5.8,5.6S115.6,124.3,112.4,124.3z M178.2,105.2h-8.7V93.7h-8.7v39h8.7v-19h8.7V105.2z M95.1,93.8
		H66.3v8.5h17.5l-20.6,30.5h11.5l20.4-30.5V93.8z M178.1,121.5c-3.2,0-5.8,2.5-5.8,5.6c0,3.1,2.6,5.6,5.8,5.6l0,0
		c3.1,0,5.8-2.5,5.8-5.6C183.9,124.1,181.3,121.5,178.1,121.5z M210.1,245.1c1.9,0,3.4,1.5,3.4,3.4c0,1.9-1.5,3.4-3.4,3.4
		c-1.9,0-3.4-1.5-3.4-3.4C206.7,246.6,208.2,245.1,210.1,245.1z"/>
	<path class="st2" d="M219.8,234.5c-1.3-1.4-0.9-2.9,0.2-3.9l1.4-1.3l3.7,4.3l-1.4,1.2C222.9,235.7,221.2,236.1,219.8,234.5
		 M172.9,29.6l0.7-2.5l-1.9-0.6l3.2-11.3l-3.7-1l-8.5,9.7l-0.7,2.6l6.4,1.8l-1,3.8l2.7,0.7l1-3.8L172.9,29.6z M169.1,25.9l-3.8-1
		l6.1-7.3h0.1L169.1,25.9z M148.5,16.9c-0.5,3.9,1.4,6,3.9,6.3c0.6,0.1,1.3,0,1.8-0.3l0,0l-4.7,6.7l3.4,0.4l4.5-6.6
		c1-1.5,1.9-3.1,2.1-5.2c0.5-3.9-1.4-6.4-4.7-6.8C151.6,11.1,149,13.1,148.5,16.9z M151.5,17.2c0.2-2.1,1.4-3.5,2.9-3.3
		c1.5,0.2,2.3,1.8,2.1,3.9c-0.2,2-1.4,3.5-3,3.3C151.9,20.9,151.2,19.3,151.5,17.2z M132.2,17.2c0.1,3.9,2.3,5.7,4.7,5.6
		c0.6,0,1.3-0.2,1.7-0.6l0,0l-3.6,7.3l3.4-0.1l3.5-7.2c0.8-1.7,1.4-3.4,1.3-5.4c-0.1-3.9-2.3-6.1-5.6-6
		C134.4,11,132.1,13.4,132.2,17.2z M135.2,17.1c-0.1-2.1,0.8-3.6,2.4-3.7c1.6,0,2.6,1.4,2.7,3.5c0.1,2.1-0.9,3.6-2.5,3.7
		C136,20.6,135.2,19.2,135.2,17.1z M127.8,30.6l-2.3-18.1l-2.7,0.3l-4.2,4l1.7,2.2l2.7-2.7l1.9,14.6L127.8,30.6z M95.2,21.9
		c-1.4-0.6-3-0.6-4.7,0.2c-2.3,1-4,3.7-2.5,7.1c1.2,2.7,3.3,3.1,5.5,3.2c1.8,0.1,3.1,0.3,3.8,1.8c0.6,1.4,0.2,2.7-1,3.3
		c-1,0.5-2.4,0.4-3.5-0.1l-0.6,2.7c1.4,0.6,3.5,0.7,5.3-0.1c2.6-1.2,3.9-3.9,2.5-7.2c-1.3-2.8-3.8-3.1-5.8-3.2
		c-1.7-0.1-2.9-0.2-3.5-1.7c-0.7-1.6,0-2.8,1-3.3c0.9-0.4,1.9-0.4,2.8,0.1L95.2,21.9z M89.2,43.3l-13.6-13l-3.3,2.1l6,17.8l2.6-1.7
		l-1.3-3.8l4-2.6l2.8,2.7L89.2,43.3z M82,40.4l-3.4,2.2l-3.2-8.7l0.1-0.1L82,40.4z M71.4,48.9c-1.9-2.1-3.9-2.1-5.2-1.4l0,0
		c0.6-1.2,0.6-2.9-0.8-4.7c-2.5-2.8-5.2-1.5-6.8-0.2l-3.7,3.1l12,13.8l4.1-3.5C72.6,54.6,73.9,51.8,71.4,48.9z M63.5,45
		c1.2,1.4,0.7,2.8-0.2,3.6L62,49.8l-3.3-3.9l1.3-1.1C61,44,62.3,43.6,63.5,45z M69,50.6c1.3,1.4,0.9,2.9-0.2,3.9l-1.4,1.3l-3.7-4.3
		l1.4-1.2C66,49.4,67.6,49,69,50.6z M56.9,59.9L48,52.2l-2,2.3l8.7,7.6c1.8,1.5,2.9,3.2,1.5,4.8c-1.4,1.6-3.3,0.7-5-0.8l-8.7-7.6
		l-2,2.3l8.9,7.7c2.9,2.5,6.2,3.4,9,0.2C61.1,65.7,59.8,62.5,56.9,59.9z M51.4,76.5L49,74.9l-2.7,4.3l-13-8.3l-1.7,2.7L47,83.4
		L51.4,76.5z M44.1,88.1l-11.3,0.6L27.7,80l-1.6,3.1l4.9,7.7V91l-7.1-3.6l-1.4,2.7l16.3,8.3l1.4-2.7l-7.9-4v-0.1l10.1-0.3L44.1,88.1
		z M24.7,111.8c-5.6-1.3-9.9,0.3-10.8,4.3c-1,4,2.3,7.2,7.8,8.5c5.6,1.3,9.9-0.2,10.9-4.3C33.5,116.4,30.3,113.1,24.7,111.8z
		 M23.9,114.9c3.6,0.8,6.3,2.6,5.7,4.8c-0.5,2.2-3.6,2.7-7.2,1.8c-3.6-0.8-6.2-2.6-5.7-4.7C17.3,114.5,20.3,114.1,23.9,114.9z
		 M30.4,133.1l-18.2-1.4l-0.2,3.1l18.2,1.4L30.4,133.1z M30,143.3l-18.3,0.5l0.1,2.7l13-0.3v0.1l-12.9,5.5l0.1,3.5l18.3-0.5
		l-0.1-2.8l-12.9,0.4v-0.1l12.8-5.5L30,143.3z M31.4,161.7l-17.9,3.2L14,168l17.9-3.2L31.4,161.7z M16.9,175.4
		c-0.9,1.3-1,2.9-0.6,4.7c0.7,2.4,3.1,4.5,6.7,3.5c2.9-0.8,3.6-2.8,4-4.9c0.3-1.8,0.8-3.1,2.3-3.5c1.5-0.4,2.7,0.2,3.1,1.4
		c0.3,1.1,0.1,2.4-0.6,3.5l2.7,1c0.9-1.3,1.2-3.3,0.6-5.2c-0.8-2.7-3.4-4.5-6.8-3.5c-3,0.9-3.7,3.2-4,5.2c-0.3,1.6-0.7,2.8-2.2,3.2
		c-1.8,0.5-2.7-0.4-3.1-1.5c-0.2-1-0.1-1.9,0.5-2.7L16.9,175.4z M10.7,177.3l0.6,2.2l2.8,1l-1.9,2.4l0.6,2.2l2.8-3.7l-0.6-2.4
		L10.7,177.3z M26,190c-3.8,1.7-3.8,4.7-2.8,6.9l2.1,4.6l16.7-7.5l-1.3-2.7l-6.7,3l-0.9-2C32,190,29.3,188.5,26,190z M27.2,192.8
		c1.8-0.8,3.1-0.3,3.8,1l0.7,1.6l-5.3,2.4l-0.7-1.6C25.1,194.9,25.4,193.5,27.2,192.8z M44.6,199.8l-2.3,1.5l3,4.6l-4.5,2.9l-2.6-4
		l-2.1,1.4l2.6,4l-4.1,2.7l-2.8-4.3l-2.3,1.4l4.4,6.9l15.4-9.8L44.6,199.8z M52.6,211.7l-4.2,8c-1.1-0.7-3.2-1-5.4,0.9
		c-2.7,2.4-2.5,5.1-0.6,7.3l3.4,3.9l13.8-12l-1.9-2.3l-5.9,5.1l-1.1-1.3l4-7.2L52.6,211.7z M45.1,222.8c1.4-1.2,2.9-1,3.9,0.1
		l1.1,1.3l-4.3,3.7l-1.1-1.3C43.9,225.6,43.5,224.2,45.1,222.8z M63.1,223.8L60.9,235l-9.6,2.8l2.7,2.3l8.7-3l0.1,0.1l-5.2,6l2.3,2
		l12-13.8l-2.3-2l-5.8,6.7l-0.1-0.1l2.1-9.9L63.1,223.8z M201.3,263.7l-8.2-18.2l-4.1,1.9l8.2,18.2L201.3,263.7z M192,267.6
		l-11.3-17.2l-5.3,1.9l2.2,20.4l4.3-1.5l-0.5-3.7l4.3-1.5l2,3.1L192,267.6z M183.9,262.9l-3.2,1.1l-1.3-8.5h0.1L183.9,262.9z
		 M171.9,273.6l-3.7-19.6l-4.4,0.8l3.7,19.6L171.9,273.6z M161.6,275.3l-0.3-4.2l-5.3,0.4l-1.2-15.8l-4.6,0.3l1.5,20L161.6,275.3z
		 M144.9,269l0.4-12.6l-4.5-0.2l-0.4,12.2c-0.1,2.3-0.6,3.9-2.3,3.9c-1.8-0.1-2.2-1.8-2.1-4l0.4-12.2l-4.5-0.2l-0.4,12.6
		c-0.2,4.4,1.5,8,6.4,8.1C142.6,276.8,144.7,273.4,144.9,269z M126.3,275.6l-1-20.5l-5.6-1l-8.5,18.8l4.4,0.8l1.4-3.5l4.4,0.8
		l0.2,3.7L126.3,275.6z M121.6,267.5l-3.4-0.6l3.2-8h0.1L121.6,267.5z M106,271.1l5.4-19.2l-4.3-1.2l-5.4,19.2L106,271.1z
		 M102.6,250.6c-0.6-1.6-1.9-3-4-3.8c-2.7-1.1-6.4-0.6-8,3.5c-1.3,3.1-0.1,5,1.5,6.8c1.3,1.4,1.9,2.4,1.4,3.6
		c-0.5,1.2-1.5,1.5-2.6,1.1s-2-1.4-2.4-2.6l-3.4,2.3c0.6,1.5,2.2,3.3,4.4,4.2c3.1,1.2,6.6,0.3,8.2-3.7c1.3-3.2-0.4-5.5-1.8-7
		c-1.2-1.4-1.8-2.2-1.3-3.3c0.6-1.4,1.7-1.5,2.6-1.2c0.9,0.3,1.6,1.1,1.9,2.1L102.6,250.6z M95.9,240.3l1.4,5l3.1,1.3l4.5-2.6
		l-2.8-1.1l-2.7,1.5l-0.9-2.9L95.9,240.3z M225.3,240.2c-1.2-1.4-0.7-2.8,0.2-3.6l1.3-1.1l3.3,3.9l-1.3,1.1
		C227.9,241.2,226.5,241.5,225.3,240.2z M217.4,236.3c1.9,2.1,3.9,2.1,5.2,1.4l0,0c-0.6,1.2-0.6,2.9,0.8,4.7
		c2.5,2.8,5.2,1.5,6.8,0.2l3.7-3.1l-12-13.8l-4.1,3.5C216.2,230.6,214.9,233.4,217.4,236.3z M232,224.6l8.9,7.7l2-2.3l-8.7-7.6
		c-1.8-1.5-2.9-3.2-1.5-4.8c1.4-1.6,3.3-0.7,5,0.8l8.7,7.6l2-2.3l-8.9-7.7c-2.9-2.5-6.2-3.4-9-0.2
		C227.7,218.8,229.1,222.1,232,224.6z M237.3,207.6l2.4,1.5l2.7-4.3l13,8.3l1.7-2.7l-15.4-9.8L237.3,207.6z M246.4,196.3l2.7-0.7
		c-0.6-0.9-0.9-2-0.3-3.1c1-2.3,4.3-2.2,7.6-0.6c3.4,1.5,5.6,3.9,4.6,6.1c-0.5,1-1.3,1.6-2.5,1.9l1.2,2.5c1.7-0.3,3.1-1.4,3.9-3.4
		c1.7-3.7-0.9-7.8-6-10.1c-5.1-2.3-9.8-1.6-11.5,2.2C245.2,193.2,245.5,194.9,246.4,196.3z M254,170.9l2.8,0.5l0.9-4.9l15.1,2.7
		l0.6-3.1l-17.9-3.2L254,170.9z M256.4,157.1l2.8,0.2l0.4-5l15.4,1.2l0.2-3.1l-18.2-1.4L256.4,157.1z M263.4,138.4l-0.3-4l9.2,1.3
		v0.1L263.4,138.4z M257.5,143.3l17.9-5.8l-0.3-3.9l-18.5-3.2l0.2,3.1l3.9,0.6l0.3,4.7l-3.8,1.2L257.5,143.3z M260.7,121.5
		c-1.9,0.4-3-0.6-3.3-2l-0.4-1.9l5.6-1.3l0.4,1.9C263.2,119.4,262.7,121.1,260.7,121.5z M268.2,119.4c-1.8,0.4-2.8-0.6-3.1-1.9
		l-0.4-1.7l5-1.1l0.4,1.7C270.4,117.6,270,118.9,268.2,119.4z M261.1,124.4c2.7-0.6,3.7-2.5,3.7-3.9h0.1c0.8,1.1,2.3,1.9,4.5,1.4
		c3.7-0.8,3.9-3.9,3.4-6l-1-4.7l-17.8,4.1l1.2,5.3C255.5,122.9,257.3,125.3,261.1,124.4z M267.1,105l2.5-0.8l-3.1-9.4l-2.5,0.8
		l1.1,3.2l-14.8,5l1,2.9l14.8-5L267.1,105z M247.2,96.3l2.5-1.3l-2.5-4.8l4.8-2.4l2.2,4.3l2.3-1.1l-2.2-4.3l4.3-2.2l2.3,4.7l2.4-1.2
		l-3.7-7.2l-16.3,8.3L247.2,96.3z M240.6,83.6l4.7-10.4l10-0.5l-2-2.8l-9.2,0.8l-0.1-0.1l6.4-4.6l-1.8-2.5l-14.9,10.5l1.8,2.5
		l7.2-5.2l0.1,0.1l-4.4,9.1L240.6,83.6z M242.1,57.4c0.2-1.5-0.4-3.1-1.7-4.3c-1.8-1.9-4.8-2.6-7.5,0c-2.2,2.1-1.9,4.2-1.2,6.3
		c0.6,1.7,0.7,3.1-0.4,4.2c-1.1,1.1-2.5,1-3.4,0.1c-0.8-0.8-1.2-2.1-1-3.4l-2.8,0.3c-0.2,1.6,0.5,3.5,1.9,5c1.9,2.1,5.1,2.4,7.6,0
		c2.3-2.2,1.8-4.6,1.1-6.5c-0.5-1.6-0.7-2.8,0.4-3.9c1.3-1.2,2.7-0.9,3.5-0.1c0.6,0.7,1,1.6,0.9,2.7L242.1,57.4z M220.1,50.9
		l-3.1-2.5l7.2-5.9l0.1,0.1L220.1,50.9z M219.7,58.6l7.8-17.1l-3.1-2.4l-14.9,11.6l2.4,1.9l3.1-2.5l3.8,3l-1.7,3.6L219.7,58.6z
		 M205.7,41.7c-1,1.7-2.5,1.8-3.8,1l-1.7-1l2.8-4.9l1.6,1C205.8,38.4,206.7,39.9,205.7,41.7z M209.2,34.7c-1,1.6-2.4,1.6-3.5,1
		l-1.5-0.9l2.5-4.4l1.4,0.9C209.4,32,210.1,33.1,209.2,34.7z M208.2,43.4c1.4-2.4,0.6-4.4-0.4-5.4v-0.1c1.4,0.2,3-0.3,4.1-2.3
		c1.9-3.3-0.2-5.4-2.1-6.5l-4.2-2.4l-9.1,15.9l4.7,2.7C203.2,46.5,206.2,46.7,208.2,43.4z M218.5,141c0.3-15.9,3.5-30.9,8.9-44
		c-12.6-22.8-34.4-39.8-60.2-46.4c21.3,24.1,33.6,55,34.8,87.6L218.5,141z M227.2,190.4c-5.3-13.2-8.5-28.3-8.7-44.4l-16.5,2.8
		c-1.2,32.6-13.6,63.6-34.9,87.6C192.8,229.9,214.4,213,227.2,190.4z M228.6,99.3c-4.9,12.6-7.7,26.9-8,42.1l12.5,2.2l-12.5,2.2
		c0.2,15.3,3.1,29.7,7.9,42.4c7-13.3,10.9-28.5,10.9-44.6C239.4,127.6,235.4,112.5,228.6,99.3z M108.5,232.8
		c33.2-14.5,56.7-46.7,58.4-84.4l24.5,0.5c-1,32.4-12.1,64.4-32.5,89.3c-5,0.8-10.1,1.2-15.4,1.2C131.2,239.4,119.4,237,108.5,232.8
		z M164.9,148.3c-1.7,37.7-25.6,69.6-59,83.4c-33.4-14.3-57.1-47.1-58.1-85.6L164.9,148.3z M105,55.8c21.1,8.5,38.4,24.1,48.9,43.8
		c1,0.4,2.1,1,3.1,1.5c-10.3-20.8-27.8-37.3-49.4-46.4c11.1-4.5,23.3-7,36-7c5.2,0,10.4,0.4,15.5,1.2c20.4,24.9,31.4,57,32.4,89.3
		c-47.9,0.8-95.8,1.7-143.7,2.5C48.9,102.8,72.1,70.3,105,55.8z M149,248.9c0.8-0.8,1.6-1.6,2.4-2.4c-1,0.1-1.9,0.2-2.9,0.2
		c-57.1,2.7-105.7-41.4-108.4-98.5c0-0.7-0.1-1.5-0.1-2.3h-2.1c0.3,13.6,3.2,27.4,9.2,40.6C65.5,227.5,106.7,251.1,149,248.9z
		 M155,38.6c0.7,0.6,1.5,1.3,2.3,2c48.7,6.4,87.4,46.9,89.8,97.7c2.6,54-36.6,100.3-89.2,107.5c-1,0.9-1.9,1.8-3,2.7
		c10.6-1.1,21.3-3.9,31.6-8.5c53.2-23.7,77.1-86.1,53.4-139.4C224.1,65,191.1,42.6,155,38.6z M138.7,39.9c4.1-0.2,8.2-0.2,12.2,0.2
		c-0.6-0.6-1.2-1.2-1.9-1.9c-16.2-0.9-32.8,2-48.5,9C62.2,64.3,39.1,101.5,38,140.9h2.1C41.3,87,84.1,42.4,138.7,39.9z M86.6,15.7
		c70.6-31.5,153.4,0.2,184.9,70.8s-0.2,153.4-70.8,184.9s-153.4-0.2-184.9-70.8S16,47.2,86.6,15.7z M187.6,23.6
		c1.9,0,3.4,1.5,3.4,3.4s-1.5,3.4-3.4,3.4c-1.9,0-3.4-1.5-3.4-3.4C184.3,25,185.8,23.6,187.6,23.6z M108.3,20.6
		c1.9,0,3.4,1.5,3.4,3.4c0,1.9-1.5,3.4-3.4,3.4s-3.4-1.5-3.4-3.4C105,22.1,106.4,20.6,108.3,20.6z M210.1,245.1
		c1.9,0,3.4,1.5,3.4,3.4c0,1.9-1.5,3.4-3.4,3.4c-1.9,0-3.4-1.5-3.4-3.4C206.7,246.6,208.2,245.1,210.1,245.1z M143.8,104.6
		c-8,0-14.4,6.3-14.4,14.1l0,0c0,0.9,0.1,1.7,0.2,2.5v0.1l0,0c0.6,3.1,2.3,6.2,5.2,8.4c5.9,4.6,14.3,3.9,19.5-1.3l-6.1-6
		c-2,2.3-5.6,2.6-7.9,0.6c-0.6-0.5-1.1-1.1-1.4-1.8H158c0.2-0.9,0.2-1.7,0.2-2.6l0,0C158.2,110.9,151.7,104.6,143.8,104.6z
		 M138.3,117c0.7-2.3,2.9-3.9,5.5-3.9c2.6,0,4.7,1.7,5.5,3.9H138.3z M112.4,104.6c-2.1,0-4.1,0.5-5.9,1.2V93.7h-8.7v39h8.7v-1.2
		c1.8,0.8,3.8,1.2,5.9,1.2c8,0,14.4-6.3,14.4-14.1l0,0C126.8,110.9,120.4,104.6,112.4,104.6z M112.4,124.3c-3.2,0-5.8-2.5-5.8-5.6
		s2.6-5.6,5.8-5.6c3.1,0,5.8,2.5,5.8,5.6S115.6,124.3,112.4,124.3z M178.2,105.2h-8.7V93.7h-8.7v39h8.7v-19h8.7V105.2z M77.5,245.1
		c1.9,0,3.4,1.5,3.4,3.4c0,1.9-1.5,3.4-3.4,3.4s-3.4-1.5-3.4-3.4C74.2,246.6,75.6,245.1,77.5,245.1z"/>
</g>
</svg>
